<?xml version="1.0" encoding="UTF-8"?>
<svg id="Layer_1" data-name="Layer 1" xmlns="http://www.w3.org/2000/svg" version="1.1" viewBox="0 0 500 500">
  <defs>
    <style>
      .cls-1 {
        fill: #788b6b;
      }

      .cls-1, .cls-2, .cls-3, .cls-4, .cls-5, .cls-6, .cls-7, .cls-8, .cls-9, .cls-10, .cls-11, .cls-12, .cls-13, .cls-14, .cls-15, .cls-16, .cls-17, .cls-18, .cls-19, .cls-20 {
        stroke-width: 0px;
      }

      .cls-2 {
        fill: #2e1611;
      }

      .cls-3 {
        fill: #eec293;
      }

      .cls-4 {
        fill: #c39160;
      }

      .cls-21 {
        fill: #231f20;
        font-family: MalgunGothic-Semilight, 'Malgun Gothic';
        font-size: 48px;
        font-weight: 300;
      }

      .cls-5 {
        fill: #dbdcd2;
      }

      .cls-6 {
        fill: #87967d;
      }

      .cls-7 {
        fill: #8f4420;
      }

      .cls-8 {
        fill: #e1a373;
      }

      .cls-9 {
        fill: #5a1d14;
      }

      .cls-10 {
        fill: #803930;
      }

      .cls-11 {
        fill: #dcdbdc;
      }

      .cls-12 {
        fill: #3e180f;
      }

      .cls-13 {
        fill: #f6f7f7;
      }

      .cls-14 {
        fill: #f2eade;
      }

      .cls-15 {
        fill: #79412c;
      }

      .cls-22 {
        display: none;
      }

      .cls-16 {
        fill: #b47757;
      }

      .cls-17 {
        fill: #9d572c;
      }

      .cls-18 {
        fill: #935040;
      }

      .cls-19 {
        fill: #6b3219;
      }

      .cls-20 {
        fill: #a2654a;
      }
    </style>
  </defs>
  <g>
    <g id="Background" class="cls-22">
      <path class="cls-11" d="M454.52,175.06v62.97h-62.97v-62.97h62.97Z"/>
      <path class="cls-11" d="M420.54,179.61c.34-.07,1.47.12,1.91.12.43,0,.64-.12.68-.12.84,0,3.15-.04,3.63,0,.63.06,1.61.41,1.72.43.11.02.22-.1.43-.06.1.02,1.23.41,1.35.43.41.06.84-.11,1.17-.06.37.06.44.36.61.43.14.05.69.03.8.06.06.02.25.29.31.31.23.07.6,0,.8.06.08.02.19.21.31.25.02,0,.24-.14.49-.06.69.21.39.73.61.8.24.07.41-.16.61-.06.07.03.22.31.31.37.33.22.71.34.86.43.11.07.71.64.8.68.24.08.44-.15.55-.12.06.01.84.69,1.08.71-.46.83.27-.07,1.51,1.14.6.59.13.52.15.71.06.42,1.1-.32,1.08,1.08.45-.37.96.69,1.2.95.44.48,1.45,1.22.98,1.72,1.01.02.62.26.8.49.34.44.82.85.92,1.41.93.73,1.2,2.04,1.35,2.34.01.02.3.16.37.31.34.71.46,1.34.55,1.6.03.08.56.51.49,1.6,1.04,2.4,1.01,5.11,1.23,7.69-.28.18-.35,2-.31,2.15.04.16.45.17.18.86-.05.13-.49.03-.25,1.66-.55.91-.4,2.63-.43,2.77-.03.12-.35.37-.43.74-.09.41.04.97-.12,1.41-.02.07-.28.24-.31.31-.45,1.25-.53,1.39-1.05,2.52-.01.03.02.32-.06.49-.04.08-.33.35-.37.43-.58,1.21-1,2.53-2.03,3.44-.43,1.07-1.44,1.64-2,2.61-.82.41-1.73,1.87-2.58,2.15-.69,1.02-2.04,1.44-2.77,2.46-.69.03-.71.34-.86.43-.1.06-.45.06-.92.31-.16.08-.63.56-.74.61-.02,0-.31-.06-.43,0-.53.26-.75.6-1.35.61-.15.27-.81.53-1.23.43l-2.34.68c-.86-.2-1.74.21-2.21.25-.2.02-.66-.1-1.29-.06-2.55.17-5.08.38-7.62,0-1.3-.6-2.5-.33-2.64-.37-.05-.01-.38-.35-.43-.37-.34-.1-1.87-.2-2.21-.31-.25-.08-.83-.52-.98-.55-.02,0-.44.13-.49.12-.2-.04-.44-.58-.49-.61-.18-.12-.34.13-.49.06-.06-.03-.14-.36-.43-.55-.09-.06-.47-.11-.49-.12-.41-.24-.82-.67-1.29-.8-.21-.06-.39.12-.61,0-.19-.11-.18-.49-.43-.68-.08-.06-.52-.16-.55-.18-.17-.11-.29-.46-.49-.49-.14-.03-.39.12-.61.06-.24-.07-.67-.96-.74-.98-.08-.03-.36.03-.43,0-.36-.16-.34-.59-.43-.68-.03-.03-.56-.19-.68-.31-.05-.05-.97-1.07-1.01-1.14-.06-.09,0-.29,0-.31-.05-.08-.53-.66-.55-.74-.01-.03.25-.56-.18-.55l.12.68c-.2.43-.77-.87-.86-.98-.42-.55-1.43-1.4-1.48-2.15-.64-.42-.87-1.61-1.11-2.21-.07-.18-.29-.32-.31-.37-.02-.06-.06-.7-.25-1.23-.03-.09-.34-.16-.25-.68l-.98-2.4c-.02-.4,1.15-.18.03-1.14,0,1.34-.77-1.24.15-.65.06-1.17-.41-1.16-.43-1.23-.04-.15.2-.25.12-.49-.03-.08-.41,0-.31-1.48,0-.05.3-.4.25-.86-.01-.1-.24-.46-.25-.49-.03-.34.08-.54.06-.74-.01-.15-.19-.66-.18-.74,0-.18.18-.55.18-.61.02-.39-.04-.89,0-1.23.01-.11.24-.46.25-.49.12-.93.23-1.91.25-2.83-1-.22.46-1.95.49-2.4,0-.06-.23-.56-.06-1.23.19-.76.61-.62.68-.68.47-.37.5-2.28.55-2.4.09-.2.54.36.86-.31.02-.05.03-.42.06-.49.29-.57.88-1.79,1.17-2.21.3-.43,1-.63.74-1.29.19-.14.2.15.28.15.05,0,.75-.72.77-.77.03-.1-.29-1.08.15-.28.76-.56.56-1.49.8-1.54.14-.03.12.38,1.08-.58.02-.02-.04-.23.28-.52.56-.51,1.46-.74,1.78-1.48.6-.3,1.43-.88,1.97-1.35,1.06-.69,1.29-.58,1.35-.61.12-.07.52-.42.68-.49.05-.03.5-.04.55-.06.09-.04,0-.33,1.66-.92.17-.06.47-.01.61-.06.16-.05.33-.29.37-.31.48-.14,1.12-.1,1.23-.12.19-.05.47-.27.61-.31,1.06-.24,1.82-.2,2.09-.25.09-.02.5-.29.61-.31.45-.07,1.31-.07,1.84-.18-.47.76.75.36.65.22-.05-.07-.88-.17-.34-.28Z"/>
      <path class="cls-13" d="M421.65,181.7c9.37-.68,19.52,6.22,23.34,14.67,3.15,6.97,3.02,13.08-.06,20.05-3.29,7.42-10.41,12.84-18.35,14.42-5.21,1.04-10.72-.5-15.25-3.14-6.36-3.7-10.94-10.52-12.27-17.74-1.54-8.37,2.92-17.9,9.56-23.03,3.31-2.56,8.88-4.93,13.04-5.23Z"/>
      <path class="cls-11" d="M440.99,215.89l-9.04-.09c2.75-2.66,4.55-7.11,2.92-10.79-.24.22-.42.51-.65.74-.29.29-.59.55-.86.86l-2.4,1.81c2.08-2.83,2.56-7.77.4-10.61-.07.06,0,.26-.03.31-.03.06-.56.83-.68.98-.61.84-1.35,1.59-2.12,2.28-.13-.03-.45-1.73-.52-2-.23-.85-.54-1.22-.55-1.29-.07-.58,1.12-3.63-2.18-7.84-.09.04-.24.37-.31.37-.23,0-1.06-2.06-3.54-2.95-.03-.01-.27-.26-.43-.15-1.76,2.49-2.13,5.25-2.28,8.21-.34-.48-.69-.93-.98-1.45-.6-1.07-.29-1.34-.68-.77-.17.26-.38.61-.43.92-1.21,2-.86,6.69.12,8.85-.85-.63-1.99-2.21-2.52-3.17-.16-.13-.11.14-.18.28-1.81,3.34-.35,7.72,1.54,10.7.06.1.12.21.18.31.29.44.6.72.4.68-.57-.39-1.24-.67-1.81-1.05-.81-.53-1.57-1.21-2.31-1.84l-.15.03c-.32,1.38,0,3.03.55,4.34.36.87.89,1.57,1.51,2.28-1.88,0-3.75,0-5.63,0-1.13,0-3.77-.17-3.26.31-.26-.03-.27-.11-.09-.37.4-.05,3.44.1,3.47-.09-1.23-1.32-1.9-2.05-.22-1.26.77.36,1.39,1.14,1.69.77.05-.32-3.6-.87-3.63-4.86.82-.33-.07-.54-.18-1.05-.1-.42.33-.84.25-1.17-.02-.09-1.34-1-.06-1.35-.92-1.64-.01-1.76,0-1.91.01-.15-.78-1.58.28-2.8,1.15.29,0-.05-.15-.46-.28-.78.24-2.25,1.01-2.61.35-.17.52.41.46-1.08,2-.23.84-.23.61-1.35-.14-.7.59-.97.83-.46.48.06-.18-.18-.03-.95.06-.3,3.17-4.5,3.87-4.8-.62-.07.71-.67.55-.37l-.25.12c.61.16.38-.19.43-.25.84-.98,2.66-.88,2.8-.95.06-.03.16-.68.74-1.11.33-.24,1.38-.61,1.45-.46-.24.16-2.24,1.71-1.69,1.57.56-.65,2.82-2.13,3.5-2.21.12-.02.46.52.28-.28.17-.43,3.29-.5,3.78,1.26,1.6-1.28,2.93.54,2.31-.83.88-.2,2.18,1.5,2.31,1.57.09.05,1.11.28,2.03.68.46.2.52.41.55.43.01,0,.06-.22.25-.12,1.86,1,2.55,2.93,2.86,3.35.9,1.24,2.41,1.61.46,1.94-.54.6,1.57.4,1.81.71.11.14.19,1.08.43,1.35h-1.23c1.68.73,2.88,1.89,3.2,3.75.31,1.82-.38,2.12-.31,2.21.09.12.75-.13.68,1.23-.22.25-1.68.34-1.6.49,1.05,0,1.19.14,1.72.98-.88.94-2.28.47-.12,1.29.23,1.67-2.23-.34.12,2.28-.19,1.02-1.45.22-1.14.77,1.6-.18-.4,2.99-.34,3.23.03.12.34.07.37.25.03.19-.98,2.28-1.48,2.4.05.26,2.89.17,3.29.09l.03.18Z"/>
      <path class="cls-11" d="M422.6,223.64c.05.3-.1.58.31,2.21.01.05,0,.13,0,.18l-.37-1.14c-1.49-.88-.95,0-2,.22-.32.07-2.15-.19-2.58-.31-.09-.03-1.73-.62-1.84-.68-1.26-.58-2.34-1.56-3.32-2.52-.53.06,1.98,1.94,2.12,2.12-2.82-.56-3.29-3.41-5.53-5.66.61-.16.19-.28.55-.46,2.79,1.3,3.76,1.97,6.98,2.89,2.05.59,5.26.47,5.69,3.14Z"/>
      <path class="cls-11" d="M437.7,217.67l-1.69,1.75c-.33.44-1.63,2.48-1.91,2.64-.14.08-.05-.24-.15-.15-.06.05.1.23-.8.98-1.03.86-2.93,1.73-4.27,1.94-.13-.27,2.33-1.15,3.04-1.57,2.53-1.5,3.43-4.12,5.78-5.6Z"/>
      <path class="cls-11" d="M412.55,190.49l.03.15c-1.22,1.18-2.05,2.65-3.17,3.9.44-1.7,1.69-3.11,3.14-4.06Z"/>
      <path class="cls-11" d="M409.97,219.15c.25.27,2.19,2.5,1.91,2.71-.89-.08-1.38-1.89-1.91-2.71Z"/>
      <path class="cls-11" d="M423.68,224.07c.71.11,1.35.34,2,.65-.03.32-1.85-.13-2.03-.18l.03-.46Z"/>
      <path class="cls-13" d="M415.16,203.47c.19.31.49.66.74.92-.7-.24.79,2.36,1.23,3.04.81,1.26,3.18,3.87,3.38,4.27.03.06.17.32.09.37-.52-.08-1.7.32-2.12.12-.23-.1-2.7-2.45-2.89-2.71-1.07-1.43-.94-4.58-.92-6.3.13-.31.17,0,.49.28Z"/>
      <path class="cls-13" d="M415.53,213.24s-.01.01.06.06c.07.16.32.5.43.61-.31.33-1.34.27-1.6.68-.79-1.02-1.31-2.23-1.54-3.5.79.84,1.69,1.51,2.64,2.15Z"/>
      <path class="cls-5" d="M417.32,215.15c.25.23.61.48.61.61-.41,0-2.31.03-2.43,0-.04-.01-.55-.52-.65-.61-.17-.16-.29-.37-.43-.55.26-.41,1.29-.35,1.6-.68.33.36.91.89,1.29,1.23Z"/>
      <path class="cls-11" d="M421.68,213.18c.15.21.28.45.49.61-.34.09-1.05.2-1.38.12-.14-.03-2.06-1.44-2.31-1.72.43.2,1.6-.21,2.12-.12.08-.05-.06-.31-.09-.37.44.45.8.97,1.17,1.48Z"/>
      <path class="cls-13" d="M417.68,196.21c-.34-.08.28,2,.49,2.61.63,1.77,1.76,3.36,2.4,5.13.07.91-.96.6-.12,1.11-1.45-.33-1.99-1.02-3.14-1.84-.59-2.65-.77-5.22-.25-7.9.12-.17.36.48.61.89Z"/>
      <path class="cls-13" d="M421.56,189.32c.5.55,1.08,1.75,1.23,2.46.26,1.25-.13,4.72-.37,6.09-.16.9-.08.81-.55.86-.15.01-.3-.04-.43.06-.01-.01,0,.06-.31-.25.51-.73-.8-1.15-1.78-2.09-.06-1.26.2-5.5.95-6.33.15-.17,1.02-.71,1.26-.8Z"/>
    </g>
    <g>
      <path class="cls-14" d="M237.62,175.49c.39,1.29,2.07,4.83.97,5.05-.68-.64-1.7-.59-2.52-.78-5.27-3.18,1.23-1.23.78-6.99.31.87.51,1.83.78,2.72Z"/>
      <g>
        <g>
          <path class="cls-12" d="M211.61,271.74c1.92.83,5.21,2.6,5.24,1.55-8.84-5.6-18.27-10.65-26.2-17.47,3.68,1.94,7.84,3.35,11.45,5.43,2.86,1.65,5.5,3.78,8.34,5.43,3.37,1.96,7.53,5.74,14.17,8.54,9.46,3.99,20.09,3.75,26.2,14.36-.27,2.74.97,5.39-1.16,7.37-2.72-16.81-22.96-16.08-35.9-19.79-20.33-5.83-26.42-10.02-44.05-18.24-3.58-1.67-7.22-4.04-10.87-5.43.91-2.49,9.41,1.94,13.39,3.49.08.03,1.13-.93,1.55-.78.58.22,6.19,4.77,10.48,6.6,2.06.88,3.7.31,3.88.39,1.23.53,4.89,3.06,6.99,3.88,4.66,1.82,14.37,5.95,16.49,4.66Z"/>
          <path class="cls-19" d="M165.82,250c-.29,1.41,3.62.54,6.02,1.55,1.8.76,17.35,14.02,8.34,3.88.03.02.11-.72.58-.39,4.75,3.36,20.77,18.18,11.84,7.18l1.55-.58c4.03,3.05,12.76,8.05,17.47,10.09-2.12,1.29-11.83-2.83-16.49-4.66-2.09-.82-5.76-3.35-6.99-3.88-.18-.08-1.83.49-3.88-.39-4.29-1.83-9.9-6.38-10.48-6.6-.42-.16-1.47.81-1.55.78-3.98-1.55-12.48-5.98-13.39-3.49-.74-.28-1.57-.52-2.33-.78.12-1.34-4.69-1.38-3.3-2.33,4.21-.47,8.39-.4,12.61-.39Z"/>
          <path class="cls-12" d="M159.61,247.68c1.67,1.87,11.31.11,14.55.78.44.09-1.71,1.7,7.96,1.94-5.43-.01-10.9-.37-16.3-.39-4.22-.02-8.41-.08-12.61.39-1.39.95,3.42.99,3.3,2.33-8-2.7-10.2-2.28-17.47-3.1-3.22-3.01,13.43-1.91,20.57-1.94Z"/>
          <path class="cls-16" d="M182.12,250.39c13.58.03,27.17-.11,40.75,0l-.19.78c-12.89.78,6.51-.21,9.31.78.3.11.19.52.19.78-8.37-.23-10.04.38-10.67.39-2.59.02-5.52-.86-8.15-.78-.29,0-.09.77-.39.78-6.16.21-12.33-.34-18.44.58,1.99.82,4.27,1.2,6.21,2.13,4.67,2.26,8.89,5.81,13.78,7.76,3.84,1.53,13.33,3.54,18.05,5.05,8.6,2.74,17.34,4.66,25.03,9.7l-.39.78c-4.42-2.74-9.27-4.27-14.17-5.82-9.12-2.9-18.65-4.69-27.56-8.34,10.11,7.59,28.53,9.22,36.09,19.6v1.94c-4.62-7.12-15.44-8.99-22.32-12.42-5.44-2.72-10.72-5.72-16.11-8.54-7.47-3.91-18.09-12.68-27.17-12.23,3.75.86,2.46,1.36,4.66,2.52,7.93,6.82,17.36,11.87,26.2,17.47-.03,1.05-3.32-.72-5.24-1.55-4.71-2.04-13.43-7.04-17.47-10.09-3.71-2.8-6.63-6.46-10.28-9.31-7.87.12-9.05-.56-3.69,3.1,9,10.14-6.55-3.12-8.34-3.88-2.39-1.01-6.3-.14-6.02-1.55,5.4.02,10.87.38,16.3.39Z"/>
          <path class="cls-19" d="M232.18,252.72c7.7.21,16.94.32,24.45,1.55.72,3.27-9.51-.96-10.09,2.72-5.2-1.45-17.88-3.88-22.9-3.1-.49.08-2.28-.99-1.16.39-4.04.75,2.44,2.7,4.27,3.49-1.09,1.84,10.96,6.01,14.75,9.31-.3.08-1.1.03-1.55,0-1.41-.09-23.39-7.34-26.97-8.54-2.53-.85-9.91-4.29-10.48-4.27-.87.04-.91,1.11-.97,1.16-.09.08-.82-.22-.78.39-1.94-.94-4.22-1.32-6.21-2.13,6.1-.92,12.28-.38,18.44-.58.3,0,.09-.77.39-.78,2.63-.08,5.56.79,8.15.78.63,0,2.3-.62,10.67-.39Z"/>
          <path class="cls-9" d="M292.34,268.25c-.66,2.83-9.38-2.42-11.06-2.33-1.64.09-.4,1.64-3.88,1.55-.84-.02-13.73-4.26-16.11-5.05-4.95-1.64-9.72-4.03-14.75-5.43.58-3.67,10.81.56,10.09-2.72,10.07,1.65,25.86,9.73,35.71,13.97Z"/>
          <path class="cls-16" d="M223.64,253.89c2.86.71,5.72,1.46,8.54,2.33,13.91,4.31,27.61,9.63,41.53,13.97l-.19.78c-6.42-2.33-13.66-4.67-19.6-4.85,6.28,4.65,13.43,7.92,20.38,11.45-7.25,3.05-18.73-5.95-25.42-9.31l-.19-.78,4.46.19c-9.31-6.23-20.07-9.95-30.66-13.39-1.12-1.37.68-.31,1.16-.39Z"/>
          <path class="cls-17" d="M253.53,251.17l-2.13.78c9.81-.42,6.16.71,7.18,1.55.81.67,10.63,2.51,19.99,6.6,4.04,1.76,17.99,9.15,13.78,8.15-9.85-4.24-25.64-12.32-35.71-13.97-7.51-1.23-16.76-1.34-24.45-1.55,0-.26.11-.67-.19-.78-2.8-.99-22.21,0-9.31-.78l.19-.78c10.23.08,20.44.69,30.66.78Z"/>
          <path class="cls-12" d="M309.03,261.26c.54.38,3.88,2.08,3.88,2.52-.56.32-3.85,2.13-4.08,2.13-1.5,0-23.08-12.47-27.75-10.87-.94-.53-3.61-.8-2.13-1.94,5.92-.14,11.86-.13,17.47,1.94,3.7,1.36,8.89,6.02,12.61,6.21Z"/>
          <path class="cls-19" d="M239.17,268.63c8.3,2.6,16.59,4.32,21.35,12.23q-1.46.87-2.91,1.75-7.28-4.66-14.55-9.31c4.89,1.56,9.75,3.08,14.17,5.82l.39-.78c-7.7-5.05-16.43-6.96-25.03-9.7.07-1.47-2.86-.19-.78-1.94,2.42.8,4.95,1.18,7.37,1.94Z"/>
          <path class="cls-19" d="M260.13,263.59c3.5,1.19,6.84,2.56,10.28,3.88.45.17.74-.4.78-.39,3.01,1.16,8.11,4.97,12.81,5.43v.78c-3.24-1.61-6.9-2.05-10.28-3.1-13.91-4.34-27.62-9.66-41.53-13.97,7.41.01,20.05,4.69,27.94,7.37Z"/>
          <path class="cls-19" d="M248.87,268.25c-1.98-1-3.85-2.11-5.82-3.1-5.4-2.73-10.77-4.96-16.3-7.37-1.83-.8-8.31-2.75-4.27-3.49,10.59,3.44,21.35,7.16,30.66,13.39l-4.46-.19.19.78Z"/>
          <path class="cls-12" d="M239.95,267.08l-.78,1.55c-2.42-.76-4.96-1.15-7.37-1.94-10.27-3.38-20.33-6.9-30.27-11.26.06-.05.1-1.13.97-1.16.57-.02,7.95,3.42,10.48,4.27,3.58,1.2,25.56,8.45,26.97,8.54Z"/>
          <path class="cls-19" d="M251.59,310.94c-2.6-10.34-1.64-12.11-1.94-13.97,2.14-1.98.89-4.63,1.16-7.37.02-.18,1.14.92.78-3.1v-1.94c.08.12,1.51-.02,1.94,2.13.45,2.25-.42,23.32-1.36,24.65l-.58-.39Z"/>
          <path class="cls-9" d="M300.49,253.5c2.35.02,9.92-.22,10.67,0,.67.2,5.8,6.16,11.06,8.54-4,1.31-18.35-8.47-24.45-7.37-1.27-.74-1.07-.74-1.94-1.55,1.33.66,3.14.37,4.66.39Z"/>
          <path class="cls-12" d="M246.54,256.99c5.02,1.41,9.8,3.79,14.75,5.43l-1.16,1.16c-7.9-2.69-20.53-7.36-27.94-7.37-2.82-.87-5.68-1.62-8.54-2.33,5.02-.78,17.7,1.65,22.9,3.1Z"/>
          <path class="cls-19" d="M282.64,259.32c-6.6-2.77-9.65-3.67-16.69-5.05.31-1.37-1.63-.41-1.94-.97,4.44-2.5,19.21,2.56,18.63,6.02Z"/>
          <path class="cls-12" d="M243.05,265.14c.24.91-.64,1.69-1.55,1.94-3.79-3.3-15.84-7.48-14.75-9.31,5.53,2.41,10.9,4.64,16.3,7.37Z"/>
          <path class="cls-19" d="M213.17,265.53c5.38,2.82,10.67,5.82,16.11,8.54,6.87,3.43,17.69,5.3,22.32,12.42.36,4.03-.76,2.92-.78,3.1-6.1-10.61-16.74-10.37-26.2-14.36-6.64-2.8-10.8-6.58-14.17-8.54.9-1.08,1.24-1.37,2.72-1.16Z"/>
          <path class="cls-7" d="M213.17,265.53c-1.48-.21-1.82.08-2.72,1.16-2.84-1.65-5.49-3.78-8.34-5.43-3.61-2.09-7.77-3.49-11.45-5.43-2.2-1.16-.91-1.66-4.66-2.52,9.07-.45,19.7,8.32,27.17,12.23Z"/>
          <path class="cls-9" d="M194.15,261.65l-1.55.58c8.94,11-7.09-3.82-11.84-7.18-.47-.33-.55.41-.58.39-5.36-3.66-4.19-2.98,3.69-3.1,3.66,2.85,6.58,6.52,10.28,9.31Z"/>
          <path class="cls-7" d="M201.52,255.44c9.95,4.36,20,7.87,30.27,11.26-2.08,1.75.84.47.78,1.94-4.71-1.5-14.21-3.51-18.05-5.05-4.89-1.95-9.11-5.51-13.78-7.76-.04-.61.68-.31.78-.39Z"/>
          <path class="cls-20" d="M300.49,253.5c-1.52-.01-3.32.28-4.66-.39-.13-.12-2.49.2-.19-1.16,1.81,1.42,10.01-1.59,4.85,1.55Z"/>
        </g>
        <g>
          <path class="cls-17" d="M238,142.5c-.61,1.35,1.49,3.32,2.72,4.66-.38,2.98-7.36-3.89-8.93-5.43-5.27-5.19-9.29-11.63-13.2-17.85-1.61-2.57-3.1-6.72-3.88-5.63-3.3,16.9-2.15,33.17,1.55,49.87v.78c-1.28-2.89-1.32-5.75-1.55-6.02-.29-.34-2.02-.43-2.33-.78-.33-.37-2.28-9.21-2.33-9.7-.71-7.2.34-25.52,1.55-32.99.59-3.63,4.21-13.11.39-6.79.3-1.95,1.62-4.2,2.72-5.82,4.68,13.11,13.84,25.59,23.29,35.71Z"/>
          <path class="cls-17" d="M242.27,69.92c.54,1.87,4.15,3.92,6.21,5.82q-.78,2.13-1.55,4.27c-3.03-1.05-3.65.31-3.88.39-1.52.55-6.99,3.98-7.96,5.05-4.76,5.24-6.41,32-6.02,39.98h-.39c-1.24-1.58-2.33-3.02-3.49-4.66.94-18.7,3.26-36.11,14.36-51.81,1-.67,2.54.91,2.72.97Z"/>
          <path class="cls-12" d="M225.2,120.76c1.17,1.64,2.25,3.08,3.49,4.66,3.62,4.6,7.55,9.02,11.64,13.2,1.91,1.95,1.85,1.47,1.94,1.55,1.21,1.2,2.12,2.63,3.49,3.88-3.69,1.79.74,4.16-1.94,3.88-1.91-1.87-3.95-3.42-5.82-5.43-9.44-10.12-18.6-22.6-23.29-35.71,2.42-3.58.46-1.87,4.27,4.85,1.85,3.26,4.05,6.08,6.21,9.12Z"/>
          <path class="cls-19" d="M196.48,151.42l-.78.19c-3.06,18.16-3.37,30.8,2.72,48.51,2.05,5.96,5.71,11.16,6.99,14.55.4,1.06,1.41,3.4,0,3.1-11.92-18.81-21.14-46.45-9.7-67.53.39.04.59.79.78,1.16Z"/>
          <path class="cls-12" d="M212.78,168.5c1.29.96,2.46,2.13,4.27,1.94,2.1,3.27,8.07,7.9,11.26,10.48-1.72,4.98-2.89-.21-5.05,1.94-3.34-2.79-6.62-5.46-9.7-8.54-7.32-7.32-12.45-13.53-17.08-22.9-.19-.37-.39-1.13-.78-1.16.45-.84.16-2.54,1.16-1.75,3.37,6.04,10.53,16,15.91,19.99Z"/>
          <path class="cls-7" d="M216.27,168.89c.21.48.5,1.12.78,1.55-1.81.19-2.97-.98-4.27-1.94-6.22-13.68-8.42-43.27-.78-55.89,3.83-6.32.2,3.16-.39,6.79-1.21,7.47-2.26,25.79-1.55,32.99.05.5,2,9.33,2.33,9.7.31.35,2.04.44,2.33.78.23.27.27,3.13,1.55,6.02Z"/>
          <path class="cls-19" d="M197.64,217.4l1.16,3.88c-3.36-2.44-6.88-4.75-10.09-7.37-.8-.65-5.3-6.79-5.82-3.69.77,6.39,2.21,17.56,4.66,23.09h-1.94c-3.47-8.25-5.53-18.64-3.49-27.36l.97-.19c4.63,3.99,9.44,8.29,14.55,11.64Z"/>
          <path class="cls-9" d="M291.18,162.68c-2.88-.45,3.99-5.24.78-5.82,2.44-2.9,11.26-13.62,8.54-14.75.71-.99,4.06-5.83,4.27-6.21l1.16.19c-1.94,10.06-8.32,18.75-14.75,26.59Z"/>
          <path class="cls-19" d="M206.96,214.69c1.01.69,8.55,9.85,12.42,13.2-.62.93-.03,1.35.78.78.04.04.72.19.78.78-.22,4.04-12.05-8.69-14.36-9.7-.42-.64-.76-1.31-1.16-1.94,1.41.29.4-2.05,0-3.1.72-.48.84-.48,1.55,0Z"/>
          <path class="cls-12" d="M316.4,194.89l-1.16-1.16c.62-.68.3-1.95,2.33-4.27,1.73-1.97,3.6-3.59,5.43-5.43,2.23-.62-4.95,8.84-6.6,10.87Z"/>
          <path class="cls-3" d="M207.34,175.49c7.73,8.1,19.47,16.73,28.72,23.29,5.79,4.1,11.89,7.79,17.85,11.64.66.43,1.28,1.12,1.94,1.55-3.06,1.24-7.74-.95-10.87-1.16-3.29-.23-1.35.84-2.13,1.16-.22.09-1.72-1.94-3.49-3.1-3.49-2.3-7.47-3.95-10.48-6.99,5.35,8.61,13.37,16.6,20.38,24.45-1.82,1.53-3.85,2.86-5.43,4.66-2.35-3.17-4.62-6.46-7.37-9.31-1.3-2.57-16.22-19.03-21.35-26.97-2.78-4.3-12.16-20.73-7.76-19.21Z"/>
          <path class="cls-17" d="M196.48,151.42c4.63,9.37,9.75,15.58,17.08,22.9,1.05,2.98,3.5,5.64,5.82,7.76-2.45,1.59-12.27-8.65-16.69-12.42-2.05-1.75-2.27-3.68-3.1-1.75-.09,10.9-.95,30.75,5.82,39.78-1.01.46,1.33,4.28,2.33,5.82l-.78,1.16c-.71-.48-.83-.48-1.55,0-1.28-3.4-4.94-8.59-6.99-14.55-6.09-17.71-5.77-30.35-2.72-48.51l.78-.19Z"/>
          <path class="cls-8" d="M257.02,166.56c.31.26.53.57.78.78.95,10.97-1.5,7.66-9.12,12.81-8.9,6.01-4.73,8.25-16.88,3.1-1.1-.81-2.39-1.43-3.49-2.33-3.18-2.58-9.16-7.21-11.26-10.48-.28-.44-.57-1.08-.78-1.55v-.78c7.22,5.21,10.63,9.57,19.79,11.64.82.19,1.85.14,2.52.78,1.1-.22-.58-3.75-.97-5.05,1.91.81.07-3.44,1.36-8.15,1.09,1.21,8.72,12.81,9.12,10.67-1.78-8.39-5.93-15.8-9.51-23.48,8.58,2.18,13.53,17.63,18.44,12.03Z"/>
          <path class="cls-16" d="M259.74,99.42c6.45,16,8.5,27.34,6.21,44.63-.12.88-.25,1.85-.39,2.72-.22,1.34-1.24,9.12-2.13,9.31-7.92-3.22-11.6-6.51-17.66-12.03-1.37-1.25-2.28-2.68-3.49-3.88.85-.64,1.79-.3,2.72-.39,3.92,3.9,8.91,7.43,13.58,10.67,2.02-13.5,3.46-25.07,2.33-38.81-.35-4.29-2.44-11.82-1.16-12.23Z"/>
          <path class="cls-16" d="M255.86,211.97c4.95,3.18,10.03,6.2,15.14,9.12-10.37-1.48-17.72-4.44-3.49,1.94-5.02,2.76-16.04,10.66-20.57,11.84-1.32-1.03-2.13-2.56-3.1-3.88,1.58-1.8,3.61-3.13,5.43-4.66,2.15-1.8,4.33-3.54,6.21-5.63l-10.48-9.9c3.13.22,7.81,2.4,10.87,1.16Z"/>
          <path class="cls-19" d="M316.4,194.89c-15.9,19.57-51.34,39.56-73.94,51.62-3.19.06-.05-2.27,2.72-4.27,6.27-4.55,30.98-17.32,43.86-26.39,6.6-4.65,21.03-16.46,26.2-22.12l1.16,1.16Z"/>
          <path class="cls-19" d="M272.55,129.69c-.17,4.79-.93,10.83-1.94,15.52-.06.26.91.76-1.55,4.66-.7-1.8,2.38-6.27-.78-6.21,2.3-8.17,2.27-16.72.78-25.03-.95-5.29-7.65-26.27-12.81-27.36-1.68-3.03-6.07-10.13-9.31-11.26q.78-2.13,1.55-4.27c7.33,6.76,13.14,15.1,17.08,24.26,7.73,17.98,5.71,28.06,6.21,29.5.11.3.52.19.78.19Z"/>
          <path class="cls-16" d="M265.95,173.93c-2.79,2.26-21.4,16.93-23.09,17.08-1.7.14-9.28-6.44-11.06-7.76,12.15,5.14,7.98,2.91,16.88-3.1,7.62-5.14,10.07-1.84,9.12-12.81,2.65,2.24,5.5,4.34,8.15,6.6Z"/>
          <path class="cls-17" d="M188.71,213.91c-1.27,1.18-.64,2.42-.39,3.88,1.41,8.08,4.71,15.67,9.7,22.12.9,1.16,1.63,2.46,2.72,3.49-5.28,1.79-11.28-5.77-13.2-10.09-2.45-5.53-3.89-16.7-4.66-23.09.52-3.1,5.02,3.03,5.82,3.69Z"/>
          <path class="cls-17" d="M198.81,221.28c7.79,5.66,15.76,11.04,24.06,15.91-.25,1.26-1.14.52-.39,2.33-2.62-1.37-15.8-8.75-16.88-8.93-.05,0-.64.54-.58.78-6.03-4.04-11.68-8.28-16.69-13.58-.26-1.46-.88-2.7.39-3.88,3.21,2.62,6.74,4.94,10.09,7.37Z"/>
          <path class="cls-7" d="M219.38,182.09c3.84,3.52,23.96,17.79,29.69,21.73,4.38,3.01,10.85,6.55,13.2,8.15.39.27-.46.35.19,1.16-2-1.21-4.17-2.25-6.21-3.49-5.83-3.55-16.2-11.3-20.18-10.87-9.25-6.55-20.99-15.19-28.72-23.29-1.59-1.66-3.48-3.85-4.66-5.82,4.42,3.77,14.24,14.01,16.69,12.42Z"/>
          <path class="cls-19" d="M291.18,162.68c-12.66,15.43-24.59,22.02-39.78,34.15-1.3.26-1.82-.97-2.52-1.55,9.14-6.05,18.1-12.6,26.39-19.79,2.96-2.57,11.67-9.49,10.48-11.64,1.68-1.71,4.6-5.07,6.21-6.99,3.21.58-3.66,5.37-.78,5.82Z"/>
          <path class="cls-16" d="M220.15,247.29c-.04-.86-2.29-2.44-3.88-3.88-1.45-2.95-3.56-2.41-1.55-6.21,5.71,3.36,11.5,6.61,17.47,9.51-3.35,1.05-8.24.54-12.03.58Z"/>
          <path class="cls-17" d="M275.26,175.49c-8.29,7.2-17.25,13.74-26.39,19.79-.18-.15-2.15-.21-1.36-1.16,8.97-6.12,17.94-12.34,26.2-19.41l1.55.78Z"/>
          <path class="cls-12" d="M260.9,165.78c2.64,2.2,5.6,3.91,8.15,6.21-.85.84-2.96,1.83-3.1,1.94-2.65-2.25-5.5-4.36-8.15-6.6-.25-.21-.47-.52-.78-.78-.44-.37-1.11-1.18-1.55-1.55,2.93-1.44,2.94.89,5.43.78Z"/>
          <path class="cls-9" d="M256.25,209.64l-2.33.78c-5.96-3.85-12.06-7.54-17.85-11.64,3.98-.43,14.35,7.31,20.18,10.87Z"/>
          <path class="cls-7" d="M275.26,175.49l-1.55-.78c3.93-3.37,8.43-7.19,12.03-10.87,1.19,2.16-7.52,9.07-10.48,11.64Z"/>
          <path class="cls-4" d="M214.72,237.2c-2,3.8.11,3.26,1.55,6.21-2.38-2.17-6.08-5.5-8.15-7.76-.69-.75-2.24-2.89-2.72-3.88,2.98,1.97,6.24,3.62,9.31,5.43Z"/>
          <path class="cls-19" d="M269.05,149.87c-1.25,2.22-2.69-1.62-3.49-3.1.14-.87.27-1.84.39-2.72l2.33-.39c3.16-.06.08,4.41.78,6.21Z"/>
          <path class="cls-3" d="M218.6,123.87c3.9,6.22,7.92,12.66,13.2,17.85,3.75,5.52,8.8,9.84,13.58,14.36,3.74,3.53,6.24,5.65,10.09,8.93.44.38,1.11,1.18,1.55,1.55-4.91,5.6-9.86-9.85-18.44-12.03,3.58,7.68,7.73,15.09,9.51,23.48-.4,2.13-8.03-9.46-9.12-10.67-1.29,4.71.55,8.96-1.36,8.15-.27-.89-.47-1.85-.78-2.72-4.01-11.21-11.18-21.21-15.14-32.41-1.36-3.84-5.27-16.98-3.1-16.49Z"/>
          <path class="cls-7" d="M240.72,147.16c2.05,2.23,7.52,7.33,10.09,9.7-1.01,3.47-5.06-4.42-5.43-.78-4.78-4.52-9.84-8.84-13.58-14.36,1.57,1.54,8.54,8.41,8.93,5.43Z"/>
          <path class="cls-8" d="M246.93,80.01c3.24,1.12,7.63,8.22,9.31,11.26,1.49,2.7,2.36,5.33,3.49,8.15-1.28.41.81,7.94,1.16,12.23,1.13,13.74-.31,25.31-2.33,38.81-4.67-3.25-9.67-6.77-13.58-10.67,3.01-.29,2.5.27,3.49-5.43l.97.78c2.54-7.59,12.68-41.26,1.36-39.2-.94-4.46-4.63-12.06-7.76-15.52.23-.08.85-1.44,3.88-.39Z"/>
          <path class="cls-8" d="M240.33,138.62c-4.09-4.17-8.03-8.6-11.64-13.2h.39c6.18,5.93,14.48,8.61,11.26,13.2Z"/>
          <path class="cls-2" d="M220.15,228.66c-.81.58-1.4.16-.78-.78.33.28.49.49.78.78Z"/>
          <g>
            <path class="cls-2" d="M300.49,142.11c2.72,1.13-6.1,11.84-8.54,14.75-1.61,1.92-4.53,5.28-6.21,6.99-3.6,3.68-8.1,7.5-12.03,10.87-8.26,7.07-17.23,13.29-26.2,19.41-.79.95,1.18,1.01,1.36,1.16.7.59,1.23,1.81,2.52,1.55,15.2-12.14,27.12-18.72,39.78-34.15,6.43-7.83,12.8-16.52,14.75-26.59l-1.16-.19c.19-.33-.28-1.58.19-1.94,13.65,17.89,10.58,49.08-2.52,66.95l15.14-11.45c-2.03,2.32-1.71,3.59-2.33,4.27-5.16,5.66-19.59,17.47-26.2,22.12-12.88,9.07-37.58,21.84-43.86,26.39-2.76,2-5.91,4.32-2.72,4.27,22.59-12.05,58.03-32.05,73.94-51.62,1.65-2.03,8.82-11.48,6.6-10.87,1.45-1.46,2.55-3.26,4.08-4.66,10.27,23.21-1.05,51.35-18.44,68.11q28.53.29,57.05.58c.91,3.46-2.99,1.1-9.51,2.33-8.9,1.68-27.59,13.68-37.26,17.85-20.8,8.97-47.37,11.35-55.5,16.3-11.08,6.75-5.43,17.19-9.9,27.36l-1.94.19c-.05-.37.08-.83,0-1.16l.58.39c.94-1.32,1.8-22.4,1.36-24.65-.43-2.15-1.86-2.02-1.94-2.13-7.57-10.38-25.98-12.01-36.09-19.6,8.91,3.66,18.44,5.44,27.56,8.34q7.28,4.66,14.55,9.31,1.46-.87,2.91-1.75c-4.75-7.9-13.05-9.63-21.35-12.23l.78-1.55c.45.03,1.25.08,1.55,0,.92-.25,1.79-1.03,1.55-1.94,1.97,1,3.84,2.11,5.82,3.1,6.69,3.37,18.17,12.36,25.42,9.31-6.94-3.52-14.09-6.8-20.38-11.45,5.94.18,13.18,2.52,19.6,4.85l.19-.78c3.39,1.06,7.05,1.49,10.28,3.1v-.78c-4.7-.47-9.8-4.27-12.81-5.43-.04-.02-.33.56-.78.39-3.44-1.32-6.79-2.69-10.28-3.88l1.16-1.16c2.38.79,15.26,5.02,16.11,5.05,3.48.09,2.24-1.46,3.88-1.55,1.68-.09,10.4,5.16,11.06,2.33,4.21,1-9.74-6.39-13.78-8.15-9.36-4.08-19.17-5.93-19.99-6.6.94-.9,4.69.25,7.37.78,7.04,1.37,10.09,2.28,16.69,5.05,2.47,1.03,5.18,2.28,7.57,3.49,4.11,2.09,12.61,8.68,13.39,6.79-7.23-6.85-14.37-9.95-22.51-14.55,4.67-1.61,26.25,10.88,27.75,10.87.23,0,3.51-1.81,4.08-2.13,0-.44-3.34-2.14-3.88-2.52-3.69-2.59-7.42-4.36-11.26-6.6,6.1-1.1,20.45,8.68,24.45,7.37,3.33.66-5.67-5.78-9.31-8.34,2.33.67,3.33.92,5.82.97,18.65,8.04,7.96.2,9.12-.39,5.35-.45,14.44.21,12.81-2.72-5.49-.09-11,.13-16.49,0-23.56-.55-47.08-.19-70.64-.39-10.22-.09-20.43-.7-30.66-.78-13.58-.11-27.17.03-40.75,0-9.67-.24-7.52-1.85-7.96-1.94-3.24-.67-12.89,1.09-14.55-.78,11.84-.06,23.68.04,35.51,0-3.9-4.46-7.21-8.89-9.51-14.36h1.94c1.91,4.32,7.92,11.88,13.2,10.09.6.57,3.8,3.8,4.08,3.88.74.21,12.77.03,15.33,0,3.79-.04,8.68.47,12.03-.58-5.97-2.89-11.75-6.15-17.47-9.51-3.08-1.81-6.34-3.47-9.31-5.43-.46-.3-.37-.37-.39-.39-.05-.23.53-.78.58-.78,1.08.18,14.26,7.56,16.88,8.93,5.4,2.81,11.62,7.53,13.58,5.24.28-.85-11.88-6.8-13.2-7.57-8.31-4.88-16.28-10.25-24.06-15.91l-1.16-3.88c3.64,2.38,7.84,4.14,11.45,6.6,1.25.29-.69-1.46-2.52-4.27,2.31,1.01,14.14,13.74,14.36,9.7.36.04.51-.27.39-.58-.37-.96-10.41-10.45-13.58-15.33-1-1.54-3.34-5.36-2.33-5.82,1.23,1.63,16.82,16.42,18.24,17.08,1.55,1.76,13.67,10.65,14.55,10.87,2.09.51,6.58-.22,8.73-.78,4.53-1.18,15.55-9.08,20.57-11.84-14.23-6.38-6.88-3.42,3.49-1.94-5.11-2.92-10.19-5.94-15.14-9.12-.66-.43-1.28-1.12-1.94-1.55l2.33-.78c2.04,1.24,4.21,2.28,6.21,3.49,5.2,3.14,10.62,9.07,12.23,5.43-17.06-11.98-35.38-22.34-51.42-35.71,2.15-2.15,3.33,3.03,5.05-1.94,1.1.89,2.39,1.51,3.49,2.33,1.79,1.32,9.36,7.91,11.06,7.76,1.7-.14,20.3-14.82,23.09-17.08.14-.12,2.25-1.1,3.1-1.94.18-.18,1.37-.69.97-1.16-9.19-7.1-17.91-14.77-26.2-22.9,2.68.28-1.75-2.09,1.94-3.88,6.06,5.52,9.74,8.81,17.66,12.03.89-.19,1.92-7.97,2.13-9.31.81,1.48,2.24,5.32,3.49,3.1,2.46-3.89,1.5-4.4,1.55-4.66,8.89-16.45,6.04-36.95-4.66-51.81,4.83,11.66,7.05,23.66,6.6,36.29-.26,0-.67.11-.78-.19-.5-1.44,1.52-11.52-6.21-29.5-3.94-9.16-9.75-17.5-17.08-24.26-2.06-1.9-5.67-3.96-6.21-5.82,15.65,5.62,20.84,18.64,22.32,18.63.43,0,1.36-2.08,1.94-2.33,20.86,26.59,13.33,45.85,13.78,49.48.05.44,2.03,2.79,3.49,8.15.47,1.72,2.49,12.43,3.3,12.61,4.88-4.33,9.56-9.05,13.39-14.36Z"/>
            <g>
              <g>
                <path class="cls-7" d="M324.17,251.56c3.35,3.34,5.31,3.16-4.46,3.1-.15,0-.63-.77-.78-.78-.31,0-.15.78-.19.78-2.49-.05-3.49-.3-5.82-.97,3.64,2.56,12.65,9.01,9.31,8.34-5.26-2.37-10.39-8.34-11.06-8.54-.75-.22-8.33.02-10.67,0,5.16-3.14-3.04-.13-4.85-1.55-2.29,1.37.06,1.04.19,1.16.87.81.67.81,1.94,1.55,3.84,2.24,7.57,4.01,11.26,6.6-3.73-.19-8.92-4.85-12.61-6.21-5.61-2.07-11.54-2.08-17.47-1.94-1.48,1.14,1.2,1.41,2.13,1.94,8.15,4.61,15.28,7.7,22.51,14.55-.78,1.89-9.28-4.7-13.39-6.79-2.38-1.21-5.1-2.46-7.57-3.49.58-3.46-14.19-8.52-18.63-6.02.32.56,2.26-.4,1.94.97-2.69-.52-6.43-1.67-7.37-.78-1.02-.84,2.63-1.97-7.18-1.55l2.13-.78c23.56.2,47.07-.16,70.64.39Z"/>
                <path class="cls-9" d="M318.73,254.66s-.12-.78.19-.78c.15,0,.63.78.78.78,9.77.06,7.81.24,4.46-3.1,5.49.13,11-.09,16.49,0,1.63,2.92-7.46,2.27-12.81,2.72-1.16.59,9.53,8.43-9.12.39Z"/>
              </g>
              <g>
                <path class="cls-16" d="M307.09,150.65c-2.22,10.6-4.81,19.75-9.7,29.5-.39-2.67,6.8-14.1,4.46-14.36-7.54,9.65-17.44,17.63-23.87,28.14-10.93,17.86-1.59,15.39,11.26,7.18.39.38,1.03.45,1.55.39-1.75,1.65-12.67,11.53-13.78,11.64-.78.08-11.86-7.07-13.39-8.15,3.01-6.62,1.11-6.21-1.55-6.6-3.36-.49-7.24,0-7.37-.97,19.27-13.75,40.25-27,52.2-47.93l.19,1.16Z"/>
                <path class="cls-20" d="M290.01,237.59c-.19.11-1.79,1.64-3.69,2.33-7.23,2.63-25.44,2.71-34.35,4.66,13.64-7.63,32.05-18.02,44.63-26.78,4.72,2.22-5.6,12.49-8.93,18.82.72,1.05,2.44-.74,2.33.97Z"/>
                <path class="cls-11" d="M290.79,201.49c-.52.06-1.17-.01-1.55-.39-4.94-4.83,2.21-9.13,8.15-20.96,4.89-9.75,7.48-18.89,9.7-29.5,2.32,25.43,1.67,33.87-16.3,50.84Z"/>
                <path class="cls-11" d="M322.22,196.06c-.24-.02-.75.46-.78.58-.72,3.25.9,14-6.21,28.14-1.38,2.74-4.47,7.72-6.6,9.7-2.89,2.69-12.04,7.7-15.91,6.99q3.88-5.05,7.76-10.09c7.45-7,14.43-22.95,18.63-32.21,2.42-5.33,2.54-6.02,3.1-3.1Z"/>
                <path class="cls-16" d="M319.12,199.16c-4.2,9.26-11.18,25.21-18.63,32.21-.27.26-5.22,3.36-6.21,4.27,3.59-4.4-.65-.18-4.27,1.94.11-1.71-1.61.08-2.33-.97,3.33-6.33,13.64-16.6,8.93-18.82,7.99-5.56,15.72-11.66,22.51-18.63Z"/>
                <path class="cls-10" d="M294.28,235.64c-12.75,15.61-29.09,10.96-46.77,11.64,1.14-1.42,2.96-1.87,4.46-2.72,8.91-1.94,27.12-2.02,34.35-4.66,1.9-.69,3.5-2.22,3.69-2.33,3.62-2.12,7.86-6.34,4.27-1.94Z"/>
                <path class="cls-17" d="M223.26,182.86c16.04,13.37,34.36,23.73,51.42,35.71-1.6,3.63-7.03-2.3-12.23-5.43-.65-.81.2-.9-.19-1.16-2.35-1.6-8.82-5.14-13.2-8.15-5.74-3.95-25.85-18.21-29.69-21.73-2.32-2.12-4.77-4.78-5.82-7.76,3.09,3.08,6.36,5.75,9.7,8.54Z"/>
                <path class="cls-16" d="M270.61,145.21c1.01-4.69,1.77-10.73,1.94-15.52.45-12.63-1.77-24.63-6.6-36.29,10.7,14.86,13.55,35.36,4.66,51.81Z"/>
                <path class="cls-1" d="M318.73,225.55c-2.83,6.83-7.75,13.31-14.75,16.3-3.33-1.73,10-5.47,4.66-7.37,2.13-1.98,5.22-6.97,6.6-9.7,2.78.35,3.29-4.07,3.49.78Z"/>
                <path class="cls-6" d="M318.73,225.55c-.2-4.85-.71-.42-3.49-.78,7.11-14.14,5.49-24.88,6.21-28.14.03-.12.53-.6.78-.58,1.64,8.4-.2,21.55-3.49,29.5Z"/>
                <path class="cls-16" d="M243.83,147.93c8.29,8.13,17,15.8,26.2,22.9.4.47-.79.98-.97,1.16-2.55-2.3-5.52-4.01-8.15-6.21-2.88-2.41-7.3-6.35-10.09-8.93-2.57-2.38-8.04-7.47-10.09-9.7-1.23-1.33-3.32-3.31-2.72-4.66,1.88,2.01,3.91,3.56,5.82,5.43Z"/>
                <path class="cls-1" d="M308.64,234.48c5.34,1.9-7.99,5.64-4.66,7.37-5.93,2.53-19.64,4.97-11.26-.39,3.87.71,13.02-4.29,15.91-6.99Z"/>
                <path class="cls-15" d="M222.48,239.53c-.76-1.81.14-1.07.39-2.33,1.31.77,13.47,6.72,13.2,7.57-1.97,2.29-8.19-2.43-13.58-5.24Z"/>
                <g>
                  <path class="cls-20" d="M281.47,161.9c-1.42,1.45-3.73,2.74-5.43,3.88q-3.69-3.3-7.37-6.6c2.56-3.75,7.05-9.29,10.09-12.81.96,4.94.51,10.96,2.72,15.52Z"/>
                  <path class="cls-18" d="M281.47,161.9c-2.21-4.57-1.75-10.58-2.72-15.52.77-.89,1.21-3.19,1.94-1.75-.21,2.53,2.79,14.37,2.72,15.14-.1.99-1.35,1.54-1.94,2.13Z"/>
                  <path class="cls-10" d="M276.04,165.78c-3.08,2.06-.74,4.47-9.7-3.69.71-1,1.64-1.91,2.33-2.91q3.69,3.3,7.37,6.6Z"/>
                </g>
                <path class="cls-18" d="M263.62,204.98c-1.79-1.26-3.59-2.51-5.43-3.69q1.94-1.46,3.88-2.91c2.66.39,4.56-.03,1.55,6.6Z"/>
                <path class="cls-20" d="M220.93,229.43c-.06-.59-.74-.74-.78-.78-.28-.28-.45-.49-.78-.78-3.87-3.34-11.4-12.51-12.42-13.2l.78-1.16c3.18,4.88,13.22,14.37,13.58,15.33.12.31-.03.63-.39.58Z"/>
                <path class="cls-4" d="M297.39,180.14c-5.94,11.83-13.09,16.13-8.15,20.96-12.85,8.21-22.18,10.68-11.26-7.18,6.43-10.5,16.33-18.48,23.87-28.14,2.34.26-4.85,11.69-4.46,14.36Z"/>
              </g>
            </g>
          </g>
          <path class="cls-8" d="M244.99,210.81l10.48,9.9c-1.88,2.09-4.06,3.83-6.21,5.63-7-7.85-15.02-15.84-20.38-24.45,3.01,3.04,6.98,4.69,10.48,6.99,1.77,1.17,3.28,3.19,3.49,3.1.79-.32-1.15-1.39,2.13-1.16Z"/>
          <path class="cls-12" d="M268.28,143.66l-2.33.39c2.29-17.29.24-28.63-6.21-44.63-1.14-2.82-2-5.46-3.49-8.15,5.16,1.1,11.85,22.07,12.81,27.36,1.5,8.31,1.52,16.86-.78,25.03Z"/>
          <path class="cls-19" d="M250.81,156.86c2.79,2.58,7.21,6.52,10.09,8.93-2.49.12-2.51-2.22-5.43-.78-3.85-3.27-6.35-5.39-10.09-8.93.38-3.64,4.43,4.25,5.43.78Z"/>
          <path class="cls-8" d="M248.48,134.35c1.51-8.63,3.98-30.56,2.33-38.42,11.32-2.06,1.18,31.61-1.36,39.2l-.97-.78Z"/>
        </g>
      </g>
    </g>
  </g>
  <text class="cls-21" transform="translate(81.95 368.09)"><tspan x="0" y="0">COCOA HAVEN</tspan></text>
  <text/>
</svg>