<?xml version="1.0" encoding="UTF-8"?>
<svg id="Layer_1" data-name="Layer 1" xmlns="http://www.w3.org/2000/svg" version="1.1" viewBox="0 0 500 500">
  <defs>
    <style>
      .cls-1 {
        fill: #b66b4e;
      }

      .cls-1, .cls-2, .cls-3, .cls-4, .cls-5, .cls-6, .cls-7, .cls-8, .cls-9, .cls-10, .cls-11, .cls-12, .cls-13, .cls-14, .cls-15, .cls-16, .cls-17, .cls-18, .cls-19, .cls-20, .cls-21, .cls-22, .cls-23, .cls-24 {
        stroke-width: 0px;
      }

      .cls-2 {
        fill: #986f41;
      }

      .cls-3 {
        fill: #d38862;
      }

      .cls-4 {
        fill: #dd6f6c;
      }

      .cls-5 {
        fill: #29121d;
      }

      .cls-6 {
        fill: #3c1615;
      }

      .cls-7 {
        fill: #52452c;
      }

      .cls-8 {
        fill: #bd806b;
      }

      .cls-9 {
        fill: #c18d73;
      }

      .cls-10 {
        fill: #9d5038;
      }

      .cls-11 {
        fill: #5b3324;
      }

      .cls-12 {
        fill: #2e1816;
      }

      .cls-13 {
        fill: #966345;
      }

      .cls-14 {
        fill: #6e482f;
      }

      .cls-15 {
        fill: #ee986b;
      }

      .cls-16 {
        fill: #fdfaf6;
      }

      .cls-17 {
        fill: #b64d42;
      }

      .cls-18 {
        fill: #f2eec1;
      }

      .cls-19 {
        fill: #ed5565;
      }

      .cls-20 {
        fill: #786259;
      }

      .cls-21 {
        fill: #883e2d;
      }

      .cls-22 {
        fill: #c9574a;
      }

      .cls-23 {
        fill: #642722;
      }

      .cls-24 {
        fill: #ead5c8;
      }
    </style>
  </defs>
  <g id="Background">
    <rect class="cls-14" x=".61" width="500" height="500"/>
    <path class="cls-14" d="M500.61,0v500H.61V0h500Z"/>
    <path class="cls-2" d="M346.8,388.67c-3.17-1.08-7.49-1.19-10.74-2.44.07-.11-.46-.38.98-2.44,1.5-2.15,9.09-9.56,12.7-14.4,8.87-11.91,15.58-25.3,18.07-40.04-1.59-46.05,2.12-112.87,0-155.76-1.45-29.31-8.3-54.85-31.49-74.46-14.54-12.29-32.78-19.68-51.76-21-6.79-.47-69.56-.06-75.68.49-22.2,1.97-45.68,16.68-58.84,34.42-12.63,17.04-15.29,34.59-17.09,55.18v164.06c4.32,21.54,16.09,36.02,30.76,51.51-3.87.75-7.9,1.02-11.72,1.95-14.69-13.82-24.73-31.75-28.81-51.51v-174.32c2.66-50.91,39.67-88.8,90.58-92.53,5.75-.42,64.67-.42,70.8,0,52.37,3.56,87.09,39.04,93.02,90.58v174.32c-3.95,21.66-14.99,41.16-30.76,56.4Z"/>
    <path class="cls-16" d="M337.04,383.79c7.72-13.83,9.47-24.01,9.77-39.55,4.43-4.75,9.05-14.44,9.77-20.75.64-5.62.29-98.67,0-113.04-.17-8.47.83-12.11-1.46-20.51-1.09-4.01-2.94-10.72-6.84-11.72-.78-38.51,9.68-83.1-42.72-87.4-6-.49-107.64-.49-113.28,0-19.54,1.7-35.45,13.05-39.31,32.96-2.75,14.2.31,48.37-.49,50.78-.37,1.11-8.12,3.73-9.28,20.51-.31,4.47.99,9.23.98,13.67-.04,17.4-.73,109.52,0,115.23.7,5.47,6.93,18.83,11.72,22.71.67,10.4,3.76,28.01,8.79,37.11-.32.03-.68-.06-.98,0-14.67-15.5-26.44-29.97-30.76-51.51v-164.06c1.8-20.59,4.46-38.14,17.09-55.18,13.16-17.75,36.63-32.45,58.84-34.42,6.13-.54,68.89-.96,75.68-.49,18.98,1.31,37.22,8.7,51.76,21,23.19,19.62,30.04,45.15,31.49,74.46,2.12,42.89-1.59,109.72,0,155.76-2.49,14.74-9.2,28.13-18.07,40.04-3.6,4.84-11.19,12.25-12.7,14.4Z"/>
    <path class="cls-19" d="M348.27,178.22c-.2-.05.03.28-3.91-.49,1.02-1.07-1.21-7.28-2.44-10.74,1.31-4,.14-8.23,0-12.21-.1-2.85.56-4.56,0-7.81,3.69-27.28-7.67-47.73-36.38-50.29-21.2-1.89-86.9,1.17-113.77.49-40.17,6.32-32.96,38.17-32.47,69.82-.65,2.92-1.93,6.48-1.95,6.84-2.78.07-7.44,3.89-8.79,6.1-4.77,7.84-7.08,36.25,2.44,40.77.35,23.46-2.1,80.71-.49,98.88.37,4.21,2.79,14.88,4.88,18.8,0,2.4.32,5.75.49,8.3-4.79-3.88-11.02-17.23-11.72-22.71-.73-5.72-.04-97.84,0-115.23.01-4.44-1.29-9.2-.98-13.67,1.16-16.78,8.91-19.4,9.28-20.51.8-2.42-2.26-36.58.49-50.78,3.85-19.91,19.77-31.26,39.31-32.96,5.64-.49,107.29-.49,113.28,0,52.4,4.3,41.94,48.89,42.72,87.4Z"/>
    <path class="cls-19" d="M346.8,344.24c.05-2.63.12-5.17,0-7.81,1.83-5.1,3.45-10.97,3.91-16.36,1.62-19.02-.84-75.32-.49-99.37,1.31-1.04,4.01-5.95,4.88-7.81.55-1.18.46-2.24,1.46-2.44.29,14.36.64,107.42,0,113.04-.72,6.31-5.34,16.01-9.77,20.75Z"/>
    <path class="cls-16" d="M346.8,336.43c-.51-11.04-2.18-19.17-4.88-29.79-5.51-21.65-12.53-38.17-32.23-50.29,9.52-6.7,16.81-24.37,19.53-27.83.05-.07.18.4,1.46-.98,2.43-2.61,3.77-5.95,7.81-3.91-.04,6-1.56,7.57,3.91,7.08-.38-2.4.3-4.74.49-7.08,2-.55,5.87-1.77,7.32-2.93-.35,24.04,2.11,80.35.49,99.37-.46,5.38-2.08,11.26-3.91,16.36Z"/>
    <path class="cls-16" d="M168.09,224.12c.18.1,3.26,2.3,3.42,2.44,4.64,4.07,8.46,14.37,16.11,22.95,1.7,1.91,2.79,4.1,5.86,6.35-26.24,11.81-38.08,56.58-38.09,82.52-2.09-3.91-4.51-14.59-4.88-18.8-1.61-18.17.84-75.42.49-98.88.94.45,7.35,1.88,7.81,1.22-1.09-12.42-1.31-24.89-.73-37.35,2.03,14.82.68,29.78,1.71,44.68h4.39c.42-6.75-1.9-8.39,3.91-5.13Z"/>
    <path class="cls-16" d="M341.92,146.97c-.67-3.88-3.36-11.49-6.35-14.16-7.59-17.68-41.89-34.94-59.08-30.76-3.45.84-6.81,4.14-9.28,6.59,0,.89,11.6,10.51,13.18,11.96-.38,1.6-7.77-1.82-13.67-2.93-16.23-3.05-32.53-2.82-48.34,1.95-13.43,4.06-22.34,9.75-31.25,20.51-13.28,16.04-10.96,22.65-11.72,24.66-.79,2.1-2.8-2.48-7.81,2.69-4.02,4.15-6,14.22-4.39,2.44,2.14-15.69,9.07-30.35,15.87-44.43l-2.44-.98c-8.05,10.55-14.44,29.47-17.33,42.48-.49-31.66-7.7-63.51,32.47-69.82,26.87.68,92.57-2.38,113.77-.49,28.71,2.56,40.07,23.01,36.38,50.29Z"/>
  </g>
  <g>
    <g>
      <path class="cls-10" d="M346.8,388.67c6.66,2.28,24.37,11.55,26.86,18.31,8.41,22.84-62.86,33.8-76.9,35.4-47.87,5.45-110.57,2.12-156.01-15.14,9.4,1.22,33.85-3.05,48.1-2.44,4.57.19,9.34,1.58,13.92,1.95,21.44,1.77,34.81,3.95,57.62,2.93,11.35-.51,24.59-1.84,35.64-4.39,30.45-7.03,28.87-17.87,35.64-31.25,1.05-2.07,2.69-4.76,3.91-6.84.17-.28.32-.7.49-.98,3.25,1.25,7.58,1.36,10.74,2.44Z"/>
      <path class="cls-6" d="M163.7,383.79c.3-.06.66.03.98,0,.57,1.04,7.57,9.09,7.81,10.5.91,5.19-5.96,14.79,14.89,26.12,1.31.71,2.68.36,2.93.49.52.26-.03,1.22.49,1.46,3.83,1.79,10.84,2.69,11.96,4.39-4.58-.38-9.34-1.76-13.92-1.95-14.25-.61-38.7,3.66-48.1,2.44-5.95-.77-20.95-8.71-23.44-14.4-6.27-14.33,24.69-24.67,34.67-27.1,3.82-.93,7.85-1.21,11.72-1.95Z"/>
    </g>
    <g>
      <path class="cls-11" d="M163.21,169.92c-1.67-.26-.58,1.49-1.22,1.95-.35.25-2.01-2.81-3.91,6.35.08-.98-.75-4.17-.73-4.39.02-.35,1.31-3.92,1.95-6.84,2.89-13.01,9.28-31.93,17.33-42.48l2.44.98c-6.8,14.09-13.73,28.75-15.87,44.43Z"/>
      <path class="cls-16" d="M341.92,154.79c.14,3.98,1.31,8.21,0,12.21-2.3-6.45-6.52-14.12-7.32-17.09-.42-1.55-.7-2.77-.49-4.39,1.19-.72,3.87,9.25,7.81,9.28Z"/>
      <path class="cls-16" d="M331.67,152.34c4.24,6.75,5.93,14.28,7.32,21.97-1.79-1.95-5.58-4.38-6.84-5.86-2.27-2.69-3.69-6.22-5.37-9.28-.97-1.76-1.75-3.61-3.42-4.88,6.32-2.49,7.9-1.81,8.3-1.95Z"/>
    </g>
    <g>
      <path class="cls-5" d="M254.03,270.02c-.55,2.88,3,.14,5.37,2.69-3.97,2.65-9.59.03-8.79,2.69-13.44.29-26.63-1.72-40.04-1.46-.26,0-1.38-.91-5.13-.49-20.09,2.29-36.38,20.84-40.77,39.79-1.21,5.22-3.07,26.34-1.95,30.27,1.36,4.8,17.17,14.51,29.79,16.85,1.82.34,3.5.85,5.37.98-7.46,13.41-17.88,15.82-15.62,32.96.11.36,1.3.39,1.95.73,14.81,11.7,37.9,14.09,56.64,14.16.84,8.79,7.7,6.57,8.79,7.57.61.56-1.16,8.49,8.3,7.08,1.28,1.87-2.27.08-.98,1.95,1.71,2.79-.09,3.15,3.42,3.91-22.81,1.02-36.18-1.16-57.62-2.93-1.12-1.71-8.13-2.6-11.96-4.39-.52-.24.03-1.21-.49-1.46-.25-.12-1.62.22-2.93-.49-20.86-11.34-13.98-20.94-14.89-26.12-.25-1.41-7.24-9.46-7.81-10.5-5.03-9.1-8.12-26.71-8.79-37.11-.16-2.55-.49-5.9-.49-8.3,0-25.94,11.84-70.71,38.09-82.52,14.5,10.61,42.95,14.6,60.55,14.16Z"/>
      <path class="cls-6" d="M335.57,387.21c-1.22,2.07-2.86,4.76-3.91,6.84-15.38,13.16-49.21,31.77-68.85,26.37.09-.12.28-2.69.73-2.93.72-.39,12.46,1.91,9.52-8.79,22.07-2.79,44.32-8.06,62.5-21.48Z"/>
      <path class="cls-23" d="M331.67,394.04c-6.77,13.38-5.19,24.22-35.64,31.25-3.08-2.75-15.45.67-24.17.98-5,.18-9.91-.45-14.89-.49-1.29-1.87,2.26-.08.98-1.95,2.63-.39,3.3-1.38,4.88-3.42,19.64,5.4,53.47-13.21,68.85-26.37Z"/>
      <path class="cls-6" d="M296.02,425.29c-11.06,2.55-24.29,3.89-35.64,4.39-3.51-.76-1.7-1.12-3.42-3.91,4.99.04,9.89.67,14.89.49,8.72-.31,21.09-3.72,24.17-.98Z"/>
      <path class="cls-22" d="M356.57,210.45c-1,.2-.91,1.26-1.46,2.44-.26-4.84-1.11-9.8-3.42-14.16,4.14.54,1.78-4.1,3.42-8.79,2.29,8.4,1.29,12.04,1.46,20.51Z"/>
      <path class="cls-23" d="M274.05,363.28c.41-6.29-.09-1.35,3.91-.49,1.43,2.05,5.35,6.07,5.86,7.81.7,2.4-5.67,28.19-10.74,28.81-2.99-13.11-11.99-5.17-12.94-5.37-.89-.19-2.37-5.44-7.81-4.88-8.01.82-5.77,10.7-6.1,11.47-.2.48-4.67,1.74-5.37,4.64-13.93-.13-45.11-4.27-56.64-10.25-.66-.34-1.84-.37-1.95-.73-2.25-17.14,8.17-19.54,15.62-32.96,1.76.11,5.47.74,6.1.49.25-.1.41-1.17.73-1.46.81-.73,3.06-4.43,3.91-5.86.73,7.07.5,17.07,1.22,17.58,2.87,2.03,60.91-1.83,70.31.49,1.93-.39-2.65-5.09-6.1-9.28Z"/>
      <path class="cls-3" d="M341.92,306.64c1.45,13.5.19,28.64-8.79,39.55-2.62,3.18-8.9,7.71-12.7,9.77.16-3.17,5.77-5.23,3.91-22.95-2.04-19.39-16.48-50.99-36.38-57.62-1.98-.66-8.65-1.76-10.99-1.95-.37-.03-.54-.07-.49-.49,7.65-1.64,28.25-9.93,32.71-16.6.11-.08.38.08.49,0,19.69,12.13,26.71,28.64,32.23,50.29Z"/>
      <path class="cls-10" d="M324.34,333.01c-16.7,4.39-22.63-4.24-32.71-15.62.98-8.7,1.59-17.46,2.93-26.12-.45-.54-12.29-.22-14.16-.24l-10.25-9.28c.44-.31,6.37-6.88,6.84-8.3,2.34.19,9.01,1.29,10.99,1.95,19.89,6.63,34.34,38.23,36.38,57.62Z"/>
      <path class="cls-10" d="M320.44,355.96c3.79-2.05,10.08-6.59,12.7-9.77l12.21,2.69c-1.77,6.3.48,15.13-8.06,16.36-7.19,1.04-17.04-5.47-16.85-9.28Z"/>
      <g>
        <path class="cls-21" d="M346.8,336.43c.12,2.64.05,5.18,0,7.81-.29,15.54-2.05,25.72-9.77,39.55-1.44,2.06-.91,2.33-.98,2.44-.17.28-.32.69-.49.98-18.18,13.43-40.43,18.69-62.5,21.48-.7-2.55-3.63-.51,0-9.28,5.07-.62,11.44-26.41,10.74-28.81,3.33-17.55,5.8-35.44,7.81-53.22,10.09,11.39,16.01,20.02,32.71,15.62,1.86,17.72-3.74,19.78-3.91,22.95-.2,3.81,9.66,10.31,16.85,9.28,8.54-1.23,6.29-10.06,8.06-16.36l-12.21-2.69c8.98-10.91,10.24-26.05,8.79-39.55,2.7,10.61,4.37,18.75,4.88,29.79Z"/>
        <path class="cls-15" d="M308.47,342.29c10.58-2.18,13.32,11.18,5.37,13.67-10.78,3.38-13.71-11.95-5.37-13.67Z"/>
      </g>
      <path class="cls-23" d="M210.57,273.93c2.69,10.04,6.67,16.06,12.21,24.41q-7.81.37-15.62.73c.3,13.2-1.25,26.61-.49,39.79l-7.81-3.17c1.78,8.74,8.16,11.92,5.37,12.94-4.35-4.35-9.06-8.36-13.43-12.7-.62.41.48,4.6.73,5.37-.5,5.25-1.62,16.23.98,19.04-12.61-2.33-28.43-12.05-29.79-16.85-1.11-3.93.75-25.06,1.95-30.27,4.39-18.95,20.68-37.51,40.77-39.79,3.75-.43,4.87.49,5.13.49Z"/>
      <path class="cls-23" d="M276.49,272.95c-.05.41.12.46.49.49-.47,1.42-6.4,7.99-6.84,8.3-2.04,1.47-19.37,8.32-21.97,8.79-8.98,1.61-18.36-.58-27.34.73,6.53,7.91,34.06,39.72,36.62,45.17.11.23.1,1.62,1.46,2.69-.85,1.6-6.39-4.98-7.32-3.66-8.48-10.77-21.88-26.66-28.81-37.11-5.54-8.35-9.51-14.37-12.21-24.41,13.41-.25,26.6,1.75,40.04,1.46,7.52-.16,18.63-.89,25.88-2.44Z"/>
      <path class="cls-6" d="M309.21,256.35c-4.46,6.67-25.06,14.96-32.71,16.6-7.25,1.55-18.36,2.28-25.88,2.44-.81-2.66,4.82-.04,8.79-2.69-2.37-2.54-5.92.19-5.37-2.69,14.83-.37,33.53-3.16,47.12-9.28.6-.27,7.68-4.14,8.06-4.39Z"/>
      <path class="cls-6" d="M240.85,405.27c-.14.57-.08,3.04,0,3.91-18.74-.07-41.83-2.46-56.64-14.16,11.54,5.98,42.71,10.12,56.64,10.25Z"/>
      <path class="cls-6" d="M172.98,166.02l-1.95,1.22q-.49,25.15-.98,50.29c-1.43,2.06.77,6.49-1.95,6.59-5.81-3.26-3.49-1.62-3.91,5.13h-4.39c-1.03-14.89.32-29.86-1.71-44.68-.57,12.47-.35,24.93.73,37.35-.46.66-6.87-.77-7.81-1.22-9.53-4.53-7.22-32.93-2.44-40.77,1.35-2.22,6-6.03,8.79-6.1-.01.22.81,3.41.73,4.39,1.89-9.16,3.55-6.09,3.91-6.35.65-.47-.45-2.21,1.22-1.95-1.6,11.78.37,1.7,4.39-2.44,1.5-1.19,3.41-2.98,5.37-1.46Z"/>
      <path class="cls-5" d="M251.59,335.45c7.4,9.4,14.85,18.6,22.46,27.83,3.45,4.19,8.03,8.88,6.1,9.28-9.4-2.32-67.44,1.54-70.31-.49-.72-.51-.49-10.5-1.22-17.58-.05-.48.05-.98,0-1.46-.48-4.61-1.69-9.59-1.95-14.16-.76-13.19.79-26.59.49-39.79q7.81-.37,15.62-.73c6.93,10.45,20.32,26.34,28.81,37.11Z"/>
      <g>
        <path class="cls-3" d="M248.17,290.53c10.71,1.02,21.5.32,32.23.49,1.87.03,13.71-.3,14.16.24-1.34,8.66-1.95,17.42-2.93,26.12-2.01,17.78-4.48,35.67-7.81,53.22-.51-1.74-4.43-5.76-5.86-7.81-1.14-1.64-3.36-3.89-3.42-4.15-.59-2.87,2.94-50.16,2.44-58.59q-16.85-.24-33.69-.49l.24,3.66q14.53.12,29.05.24-.73,24.66-1.46,49.32-6.84-8.18-13.67-16.36c-2.56-5.45-30.09-37.25-36.62-45.17,8.99-1.31,18.36.87,27.34-.73Z"/>
        <path class="cls-11" d="M277.96,362.79c-3.99-.86-3.5-5.8-3.91.49-7.61-9.23-15.06-18.43-22.46-27.83.94-1.32,6.48,5.26,7.32,3.66-1.37-1.07-1.36-2.46-1.46-2.69q6.84,8.18,13.67,16.36.73-24.66,1.46-49.32-14.53-.12-29.05-.24l-.24-3.66q16.85.24,33.69.49c.5,8.43-3.04,55.72-2.44,58.59.05.26,2.28,2.51,3.42,4.15Z"/>
      </g>
      <path class="cls-3" d="M270.14,281.74l10.25,9.28c-10.73-.17-21.52.53-32.23-.49,2.6-.47,19.93-7.31,21.97-8.79Z"/>
      <g>
        <path class="cls-11" d="M341.92,166.99c1.24,3.46,3.46,9.67,2.44,10.74-.45-.09-1.04.11-1.46,0-1.13-.28-2.33-.53-3.42-.98-.13-.81-.34-1.61-.49-2.44-1.39-7.69-3.09-15.22-7.32-21.97.18-.07,2.55-1.87,2.93-2.44.8,2.97,5.02,10.64,7.32,17.09Z"/>
        <g>
          <path class="cls-20" d="M342.9,189.45c0,.16,0,.33,0,.49-.13,5.48-.51,11.13-.98,16.6-.4-3.76-.68-7.52-1.46-11.23.17-2.44-.25-4.9.49-7.32.07.1,1.5,1.18,1.95,1.46Z"/>
          <path class="cls-11" d="M341.92,206.54c.59,5.58,1.42,11.48.98,17.09-.19,2.34-.87,4.68-.49,7.08-5.47.49-3.94-1.08-3.91-7.08.06-9.43,1.28-18.93,1.95-28.32.79,3.71,1.07,7.47,1.46,11.23Z"/>
        </g>
      </g>
      <g>
        <path class="cls-18" d="M273.07,399.41c-3.63,8.77-.7,6.73,0,9.28,2.94,10.7-8.8,8.4-9.52,8.79-.45.24-.64,2.81-.73,2.93-1.58,2.04-2.25,3.03-4.88,3.42-9.46,1.41-7.69-6.52-8.3-7.08-1.09-1-7.95,1.22-8.79-7.57-.08-.87-.14-3.34,0-3.91.7-2.9,5.17-4.16,5.37-4.64.33-.78-1.91-10.65,6.1-11.47,5.44-.56,6.92,4.69,7.81,4.88.95.2,9.95-7.74,12.94,5.37Z"/>
        <path class="cls-17" d="M254.76,401.86h3.42c10.37,11.17-14.6,9.54-3.42,0Z"/>
      </g>
      <path class="cls-5" d="M184.69,173.83c-.71,2.55,3.75,9.25,3.91,9.77,2.21,7.3-.63,26.21-.98,35.4-.38,10.11-.21,20.39,0,30.52-7.65-8.57-11.47-18.88-16.11-22.95l2.44.24c-.13-20.26.82-40.56-.98-60.79-1.96-1.51-3.88.27-5.37,1.46,5.01-5.17,7.02-.59,7.81-2.69.76-2.01-1.57-8.62,11.72-24.66-1.88,6.45-8.36,29.26-2.44,33.69Z"/>
      <g>
        <path class="cls-10" d="M204.71,360.35c-.32.29-.48,1.36-.73,1.46-.63.25-4.34-.37-6.1-.49-1.87-.12-3.56-.64-5.37-.98-2.59-2.81-1.47-13.79-.98-19.04.91,2.74,9.49,17.98,13.18,19.04Z"/>
        <path class="cls-8" d="M204.23,348.63c1.45,1.45,2.59,3.29,4.39,4.39.05.48-.05.98,0,1.46-.85,1.43-3.1,5.13-3.91,5.86-3.69-1.06-12.27-16.3-13.18-19.04-.26-.77-1.35-4.96-.73-5.37,4.36,4.34,9.07,8.35,13.43,12.7Z"/>
        <path class="cls-10" d="M206.67,338.87c.26,4.57,1.47,9.55,1.95,14.16-1.81-1.1-2.94-2.94-4.39-4.39,2.79-1.02-3.59-4.2-5.37-12.94l7.81,3.17Z"/>
      </g>
      <path class="cls-6" d="M172.98,166.02c1.8,20.23.84,40.53.98,60.79l-2.44-.24c-.16-.14-3.23-2.34-3.42-2.44,2.73-.1.52-4.53,1.95-6.59q.49-25.15.98-50.29l1.95-1.22Z"/>
      <path class="cls-5" d="M280.4,120.61c.14.13,1.06-.14,1.22,0,13.61,12.46,23.11,29.93,25.15,48.34-1.06,1.01-3.56,3.61-3.91,4.88-3.39.72-1.66,4.26-2.69,5.37-.58.63-3.79.7-4.64.98.44-21.92-11.69-48.32-29.3-61.77l.49-.73c5.9,1.11,13.29,4.53,13.67,2.93Z"/>
      <g>
        <path class="cls-3" d="M344.36,177.73c3.93.77,3.7.44,3.91.49,3.9,1,5.74,7.71,6.84,11.72-1.64,4.69.72,9.33-3.42,8.79-2.32-4.38-4.94-5.77-8.79-8.79,0-.16,0-.33,0-.49.1-3.91-.21-7.82,0-11.72.43.11,1.02-.09,1.46,0Z"/>
        <path class="cls-21" d="M193.48,178.71c1.31,13.1,2.87,26.18,3.91,39.31,6.25,3.69,4.28,17.78,6.84,21.48,3.28,4.76,43.68,8.79,54.93,8.06,12.34-.8,54.09-11.24,60.79-21.73.88-1.38,1.03-3.13,1.46-4.64q3.91,3.66,7.81,7.32c-2.72,3.46-10.02,21.14-19.53,27.83-.11.08-.38-.08-.49,0-.38.26-7.46,4.13-8.06,4.39-13.59,6.11-32.29,8.91-47.12,9.28-17.6.44-46.04-3.55-60.55-14.16-3.07-2.25-4.16-4.44-5.86-6.35-.21-10.13-.38-20.4,0-30.52.35-9.19,3.18-28.1.98-35.4l2.93-7.08,1.95,2.2Z"/>
        <path class="cls-10" d="M351.69,198.73c2.31,4.36,3.16,9.33,3.42,14.16-.87,1.86-3.58,6.77-4.88,7.81-1.45,1.16-5.33,2.38-7.32,2.93.44-5.61-.39-11.51-.98-17.09.47-5.47.85-11.12.98-16.6,3.85,3.02,6.47,4.41,8.79,8.79Z"/>
        <path class="cls-24" d="M342.9,177.73c-.21,3.9.1,7.81,0,11.72-.45-.29-1.88-1.37-1.95-1.46-2.29-3.13-.95-7.95-1.46-11.23,1.08.45,2.28.69,3.42.98Z"/>
        <path class="cls-10" d="M338.99,174.32c.15.83.36,1.63.49,2.44.52,3.28-.82,8.1,1.46,11.23-.74,2.42-.31,4.88-.49,7.32-.67,9.39-1.9,18.89-1.95,28.32-4.04-2.04-5.38,1.29-7.81,3.91-1.78.05-.07-7.03,0-8.54.66-14.09-.83-33.44.49-47.12.02-.18.71-2.6.98-3.42,1.25,1.48,5.04,3.91,6.84,5.86Z"/>
        <path class="cls-23" d="M330.69,227.54c-1.28,1.38-1.41.91-1.46.98q-3.91-3.66-7.81-7.32c1.71-5.96,2.23-35.03,1.46-41.5l8.3-7.81c-1.32,13.68.17,33.03-.49,47.12-.07,1.51-1.78,8.6,0,8.54Z"/>
        <path class="cls-23" d="M193,175.78c-.29,1.94.46,2.66.49,2.93l-1.95-2.2-2.93,7.08c-.16-.51-4.62-7.22-3.91-9.77,1.51,1.13,5.89,1.42,8.3,1.95Z"/>
        <path class="cls-10" d="M218.39,119.63c20.32,15.34,40.35,38.16,32.71,65.43-16.16-.2-30.98-2.71-46.63-6.35-3.49-.81-7.96-3.14-11.23-3.91-.37-.09-.2.99-.24.98-2.41-.53-6.79-.82-8.3-1.95-5.92-4.43.56-27.24,2.44-33.69,8.91-10.76,17.82-16.45,31.25-20.51Z"/>
        <path class="cls-10" d="M266.73,117.68l-.49.73c17.61,13.45,29.74,39.85,29.3,61.77-12.28,4.01-31.46,5.04-44.43,4.88,7.63-27.27-12.39-50.09-32.71-65.43,15.81-4.78,32.11-5,48.34-1.95Z"/>
        <g>
          <path class="cls-1" d="M329.71,131.84c3.19-.86,3.41-1.2,5.86.98,2.99,2.67,5.68,10.28,6.35,14.16.56,3.25-.1,4.97,0,7.81-3.94-.03-6.62-10-7.81-9.28-.42,1.99-3.87,1.31-9.03,2.93-5.06,1.59-9.82,4.27-14.89,5.86.21-7.52-4.28-19.13-7.81-25.88l.98-.98c6.38,13.65,6.57,19.61,7.57,20.02,1.07.44,18.36-8.25,21.48-8.3,1.57-.63-1.33-5.11-2.69-7.32Z"/>
          <path class="cls-6" d="M276.49,102.05c10.91,4.97,20.37,15.84,25.88,26.37,3.53,6.75,8.03,18.36,7.81,25.88-.13,4.63-2.33,8.59-1.71,8.79,4.21-4.3,9.41-6.63,14.89-8.79,1.66,1.27,2.45,3.12,3.42,4.88-7.09-.75-14.88,4.89-20.02,9.77-2.04-18.41-11.53-35.88-25.15-48.34-.16-.14-1.08.13-1.22,0-1.58-1.45-13.18-11.07-13.18-11.96,2.47-2.45,5.83-5.75,9.28-6.59Z"/>
          <path class="cls-1" d="M335.57,132.81c-2.44-2.18-2.67-1.84-5.86-.98-7.89-12.84-21.02-20.2-35.4-23.44l-1.22.73c3.91,5.83,7.28,11.95,10.25,18.31l-.98.98c-5.51-10.53-14.97-21.4-25.88-26.37,17.19-4.18,51.49,13.08,59.08,30.76Z"/>
          <path class="cls-3" d="M329.71,131.84c1.36,2.21,4.26,6.69,2.69,7.32-3.12.05-20.42,8.74-21.48,8.3-.99-.41-1.19-6.37-7.57-20.02-2.97-6.36-6.34-12.48-10.25-18.31l1.22-.73c14.38,3.24,27.51,10.6,35.4,23.44Z"/>
          <path class="cls-10" d="M334.6,149.9c-.38.58-2.75,2.38-2.93,2.44-.4.15-1.98-.53-8.3,1.95-5.49,2.16-10.68,4.49-14.89,8.79-.62-.2,1.58-4.16,1.71-8.79,5.07-1.59,9.83-4.27,14.89-5.86,5.16-1.62,8.61-.94,9.03-2.93-.21,1.62.07,2.84.49,4.39Z"/>
        </g>
        <path class="cls-10" d="M326.78,159.18c1.68,3.05,3.1,6.59,5.37,9.28-.26.82-.96,3.24-.98,3.42l-8.3,7.81c-.34-2.91-.83-4.83-4.15-5.86-1.97-.61-13.83-.43-15.87,0,.35-1.27,2.84-3.87,3.91-4.88,5.14-4.88,12.93-10.52,20.02-9.77Z"/>
        <g>
          <path class="cls-18" d="M322.88,179.69c.76,6.48.24,35.54-1.46,41.5-.43,1.51-.58,3.26-1.46,4.64-6.7,10.48-48.45,20.93-60.79,21.73-11.25.73-51.65-3.3-54.93-8.06-2.56-3.71-.59-17.8-6.84-21.48-1.03-13.13-2.6-26.21-3.91-39.31-.03-.27-.78-.98-.49-2.93.05.01-.13-1.06.24-.98,3.28.76,7.74,3.1,11.23,3.91,15.66,3.63,30.48,6.15,46.63,6.35,12.97.16,32.15-.87,44.43-4.88.85-.28,4.05-.34,4.64-.98,1.02-1.11-.71-4.65,2.69-5.37,2.04-.43,13.89-.61,15.87,0,3.32,1.03,3.81,2.95,4.15,5.86Z"/>
          <g>
            <path class="cls-7" d="M238.16,218.75c1.56-.84,2.13,4.45,5.86,6.84,11.65,7.46,15.7-10.63,16.36-5.13-3.27,13.38-21.17,11.3-22.22-1.71Z"/>
            <g>
              <path class="cls-23" d="M285.77,197.27c-2.59,1.44,7.61,13.27,7.81,7.81.27,2.83-.16,3.19-1.46,5.37-4.98-3.22-11.92-10.69-16.6-9.77,2.5-3.61,6.16-4.26,10.25-3.42Z"/>
              <path class="cls-13" d="M293.58,205.08c-.2,5.46-10.41-6.37-7.81-7.81,3.59.74,7.44,3.95,7.81,7.81Z"/>
              <g>
                <path class="cls-12" d="M292.12,210.45c-6.11,10.24-24.61,1.79-16.6-9.77,4.68-.92,11.62,6.55,16.6,9.77Z"/>
                <path class="cls-17" d="M285.52,209.96l1.71,1.22c.46,3.54-10.46,3.64-1.71-1.22Z"/>
              </g>
            </g>
            <g>
              <path class="cls-23" d="M222.78,198.73c-3.53-1.57-1.2,5.72,2.93,3.42.79,2.18.66,3.68,0,5.86-6.75.39-10.61-7.27-17.09-7.81,3.68-5.24,9.39-4.74,14.16-1.46Z"/>
              <path class="cls-9" d="M222.78,198.73c-.09,1.71,1.39,1.39,1.46,1.46.06.06.94,1.39.98,1.46.02.03.24-.2.49.49-4.13,2.3-6.46-4.98-2.93-3.42Z"/>
              <path class="cls-14" d="M224.25,200.2c-.07-.07-1.55.24-1.46-1.46,1.5,1.03.71.49,1.46,1.46Z"/>
              <path class="cls-11" d="M225.22,201.66c-.04-.08-.91-1.4-.98-1.46.05.07,1.18.27.98,1.46Z"/>
              <g>
                <path class="cls-12" d="M225.71,208.01c-3.64,12.08-25.89,4.73-17.09-7.81,6.48.54,10.34,8.2,17.09,7.81Z"/>
                <path class="cls-4" d="M218.63,209.96l1.71.73c.72,2.23-8.53,3.08-1.71-.73Z"/>
              </g>
            </g>
          </g>
        </g>
      </g>
    </g>
  </g>
</svg>