<?xml version="1.0" encoding="UTF-8"?>
<svg id="Layer_1" data-name="Layer 1" xmlns="http://www.w3.org/2000/svg" version="1.1" xmlns:xlink="http://www.w3.org/1999/xlink" viewBox="0 0 500 500">
  <defs>
    <style>
      .cls-1 {
        fill: #c1dbc4;
      }

      .cls-1, .cls-2, .cls-3, .cls-4, .cls-5, .cls-6, .cls-7, .cls-8, .cls-9, .cls-10, .cls-11, .cls-12, .cls-13, .cls-14, .cls-15, .cls-16, .cls-17, .cls-18, .cls-19, .cls-20, .cls-21, .cls-22, .cls-23, .cls-24, .cls-25, .cls-26, .cls-27, .cls-28, .cls-29, .cls-30, .cls-31, .cls-32, .cls-33, .cls-34, .cls-35, .cls-36, .cls-37, .cls-38, .cls-39, .cls-40, .cls-41, .cls-42, .cls-43, .cls-44, .cls-45, .cls-46, .cls-47, .cls-48 {
        stroke-width: 0px;
      }

      .cls-2 {
        fill: #0c2b3b;
      }

      .cls-3 {
        fill: #d0b895;
      }

      .cls-4 {
        fill: #18232a;
      }

      .cls-5 {
        fill: #32bcb9;
      }

      .cls-6 {
        fill: #bd3b29;
      }

      .cls-7 {
        fill: #402523;
      }

      .cls-8 {
        fill: url(#linear-gradient);
      }

      .cls-9 {
        fill: #4e182d;
      }

      .cls-10 {
        fill: #67182b;
      }

      .cls-11 {
        fill: #f4f8fa;
      }

      .cls-12 {
        fill: #0da2ac;
      }

      .cls-13 {
        fill: #9e2832;
      }

      .cls-14 {
        fill: #f8e1d1;
      }

      .cls-15 {
        fill: #0e3f4a;
      }

      .cls-16 {
        fill: #4c4d4c;
      }

      .cls-17 {
        fill: #2e3831;
      }

      .cls-18 {
        fill: #781a1d;
      }

      .cls-19 {
        fill: #851b2f;
      }

      .cls-20 {
        fill: #431f26;
      }

      .cls-21 {
        fill: #edf0e7;
      }

      .cls-22 {
        fill: #f4a685;
      }

      .cls-23 {
        fill: #79707a;
      }

      .cls-24 {
        fill: #f9a461;
      }

      .cls-25 {
        fill: #499093;
      }

      .cls-26 {
        fill: #e3e8d4;
      }

      .cls-27 {
        fill: #554b49;
      }

      .cls-28 {
        fill: url(#linear-gradient-2);
      }

      .cls-29 {
        fill: #5b1b1c;
      }

      .cls-30 {
        fill: #8e6b57;
      }

      .cls-31 {
        fill: #7c5050;
      }

      .cls-32 {
        fill: #e6844b;
      }

      .cls-33 {
        fill: #f8e1c0;
      }

      .cls-34 {
        fill: #1b2536;
      }

      .cls-35 {
        fill: #d55143;
      }

      .cls-36 {
        fill: #2f2e29;
      }

      .cls-37 {
        fill: #596678;
      }

      .cls-38 {
        fill: #ede4c6;
      }

      .cls-39 {
        fill: #bb6a5b;
      }

      .cls-40 {
        fill: #099795;
      }

      .cls-41 {
        fill: #f9d3a9;
      }

      .cls-42 {
        fill: #695653;
      }

      .cls-43 {
        fill: #e15e3f;
      }

      .cls-44 {
        fill: #f79351;
      }

      .cls-45 {
        fill: #2e2223;
      }

      .cls-46 {
        fill: #0f565a;
      }

      .cls-47 {
        fill: #904b4f;
      }

      .cls-48 {
        fill: #293e33;
      }
    </style>
    <linearGradient id="linear-gradient" x1="99.88" y1="139.13" x2="294.7" y2="245.11" gradientUnits="userSpaceOnUse">
      <stop offset="0" stop-color="#195d61"/>
      <stop offset="1" stop-color="#373c3f"/>
    </linearGradient>
    <linearGradient id="linear-gradient-2" x1="75.36" y1="132.12" x2="183.27" y2="255.95" gradientUnits="userSpaceOnUse">
      <stop offset="0" stop-color="#1b5459"/>
      <stop offset="1" stop-color="#0d3845"/>
    </linearGradient>
  </defs>
  <g id="Background">
    <rect class="cls-3" x="-3.58" width="503.58" height="504.13"/>
    <path class="cls-3" d="M-3.57,115.56c.04-38.52-.03-77.04,0-115.56h503.56c.02,72.94-.03,145.89,0,218.83-14.21-1.49-21.78,4.38-22.87,3.93-.68-.28-.9-7.83-7.38-12.29-7.4-5.09-13.17-2.06-13.77-2.46-.55-.36-.71-7.45-6.88-10.82-8.47-4.62-12.7-.09-13.28-.49-.93-.65-1.62-16.24-16.23-7.87,1.37-22.79-20.81-37.97-39.83-23.6-2.81-16.11-16.56-28.51-33.44-26.56-3.04.35-7.45,2.95-7.87,2.95-.81,0-5.41-3.9-15.74-.98-9,2.54-19.05,14.07-19.67,23.6-13.96-14.9-16.69,4.14-17.7,4.92-.4.31-3.26-.98-3.44-.98-6.4-.21-7.49,1.11-7.87.98-1.19-.39-4.65-14.72-20.65-6.39-5.12-17.36-17.5-9.95-18.69-10.33-.65-.2-1.43-8.44-9.84-6.88-1.08.2-1.97,2.21-3.44,1.97-.85-.14-7.65-8.12-13.28,3.93-9.53-17.3-20.11-7.58-21.15-8.36-.42-.32.53-4.03-4.92-7.87-.13-.09-2.9-.2-3.2-.74-.34-.61.79-10.19-8.85-5.9,1.32-15.61-18.17-25.87-27.78-11.56-8.47-11.39-12.92.64-13.77.98-.94.38-3.73-.99-3.93-.98-4.4.13-7.02,1.08-7.38.98-1.01-.28-6.63-11.54-17.46.49-3.13-2.17-16.1-10.89-17.7-11.8.18-7.2-1.88-9.14-7.38-3.93-1.9-.91-13.71-5.02-14.75-4.92-.29.03-3.98,2.45-4.92,2.95-16.51-11.14-22.97,4.05-24.34,4.43-.48.13-3.07-.98-5.41-.49-9.37,1.95-8.69,10.45-11.8,12.29-.37.22-7.95,2.61-8.36,2.46-1.15-.41-.12-7.39-8.61-3.93Z"/>
    <path class="cls-5" d="M144.94,336.36c1.83,2.61,15.4,13.82,16.47,13.77,1.61-.08-.96-4.1-1.23-4.92-.97-2.95-2.04-5.89-2.95-8.85l342.76.98c0,14.59.01,29.18,0,43.77-26.06,16.63-48.18,21.43-75.98,30.98-10.26,3.52-20.1,8.58-30.49,11.8-27.56,8.53-83.15,18.71-113.35,23.6q-69.34-22.87-138.68-45.73c0-.16,0-.33,0-.49.33-21.25.27-42.67,0-63.93l3.44-.98Z"/>
    <path class="cls-9" d="M25.44,246.86c15.23,1.68,26.58,11.42,32.46,13.77,7.34,2.93,9.26.13,12.05.98,1.89.58,25.73,26.39,28.28,27.54-.82,1.65-1.82,2.28-2.95,3.44-6.69-.5-35.17,16.85-36.39,20.9-.52,1.75,1.43,1.62,1.48,1.72,1.95,5.08-2.54,1.69-5.41,3.69,1.64,5.3,1.59,11,1.97,16.47h-4.43c.42-1.99-.98-2.62-2.21-3.93-2.58-1.21-1.29.31-1.72.98-1.55,2.44-.88,3.82-3.93.98,1.02-2.66-3.77,4.57-3.93,4.92-.2.41-1.45,1.61-1.48,1.72-.39,2.04.95,30.78,1.97,32.21.04.06-.11.55.49.49-.4,5.09.1,9.74.98,14.75.31,1.78,3.64,15.17,4.67,15.24,2.88.2.31-12.21.25-14.26-.15-4.8-.24-9.46-.49-14.26,0-.05.56.27.49-.98,7.13.2,5.22-8.91,7.87-5.41-1.19.03-2.58,4.47-2.95,6.39-.01.08-.94.92-.98,1.23-.09.72.81,11.96.98,14.51.34,4.98.78,9.81,1.48,14.75-7.81-1.52-15.51-3.07-23.36-4.43-1.74-.3-2.41-2.19-6.15-.74,11.18,2.14,21.94,5.93,32.7,9.59,1.24.26.57-1.67.74-3.93.34-4.63-.39-9.19-.49-13.77-.11-5.18.07-10.05-.49-15.24,1.54-.43,3.06,1.66,4.43.98,1.77-.87.78-1.34.98-1.48.42-.27,1.87.7,2.21-.98.65.38-.29,2.05.74,3.44-.42,4.75-1.18,9.51-1.48,14.26-.24,3.8-.7,7.47-.49,11.31.11,2.04-.08,4.11,0,6.15,49.01,15.73,99.54,26.68,149.25,40.08,18.67,5.03,36.86,12.2,55.57,17.21,29.14,7.81,59.51,12.83,88.27,21.39-14.32-9.65-29.18-20.68-44.75-28.28.34-1.15,1.29-1.08,2.21-.98,10.64,1.1,74.09,19.1,91.47,23.6,11.21,2.9,22.73,4.96,33.93,7.87,10.05,2.61,19.97,6.25,30,8.85,3.8.98,12.46,1.36,13.52,3.93-162.08,1.78-324.26-1.33-486.35,0-.03-42.78.04-85.57,0-128.35q15.12,3.93,30.24,7.87c.55-.45.28-12.43.25-14.26,1.75-.9-.28-10.5-.49-12.29-.29-2.45-.69-4.93-.98-7.38,3.49,4.86,1.17-1.66,2.46-10.08.97-6.37,4.67-17.47,5.9-24.59-.66-1.28-7.54,6.32-7.87,6.88-.22.38.22,1.97,0,2.46-.2.45-.96.18-.98.25-3.56,2.49-5.86,6.29-8.85,9.34-3.68,3.76-7.87,7.05-11.56,10.82-.78-.37,3.24-8.47,3.69-9.34,1.05-2.03,2.18-3.99,3.44-5.9,3.74-5.65,8.77-10.26,13.28-15.24-9.87-3.59-20.2-5.98-28.52-12.79,0-.82,0-1.64,0-2.46,5.98,5.6,12.66,3.71,21.39,4.92,7.35,1.02,12.59,3.51,13.28,3.44.73-.07,2.3-1.96,2.46-1.97,17.44-.8,12.66,8.82,15.24,9.34,3.17-3.96,7.01-7.26,10.08-11.31,1.83-2.42,4.2-4.34,4.67-7.87-8.5,4.92-8.87,2.19-16.47.49q1.97-3.81,3.93-7.62c-.94-1.27-9.09,2.54-9.84.49l4.18-11.06c-22.11,9.89-29.83,13.04-10.08-7.62.32-1.25-2.52-.59-5.9-.74-.11-.38.52-.64.49-.74-.33-1.32-18.74-14.26-15.74-20.41.48-1.51,1.86-.84,2.95-.98,2.12-.29,6.24-.23,8.36,0Z"/>
    <path class="cls-33" d="M499.99,218.83c.01,28.85.01,57.7,0,86.55-5.66-3.39-11.61-6.35-17.21-9.84-5.74-3.57-11.07-7.96-16.97-11.31-26.16-14.88-48.01-19.54-71.55-29.51-30.75-13.01-42.92-29.54-68.11-43.77-4-2.26-18.69-9.81-22.38-9.84-2.22-.02-14.33,11.93-17.46,14.26-4.02,3-6.32,3.72-6.64,3.93-12.89-2.19-39.11-17.19-41.31-17.7-6.54-1.52-18.24.22-20.16,0-3.37-.38-38.53-25.3-45-29.51-8.65-5.62-22.55-12.47-28.77-16.72-9.77-6.68-24.6-22.95-44.75-36.88,10.83-12.03,16.44-.77,17.46-.49.36.1,2.98-.85,7.38-.98.2,0,2.99,1.37,3.93.98.85-.35,5.3-12.38,13.77-.98,9.61-14.32,29.1-4.05,27.78,11.56,9.64-4.29,8.51,5.29,8.85,5.9.3.53,3.06.64,3.2.74,5.45,3.84,4.5,7.55,4.92,7.87,1.04.78,11.62-8.94,21.15,8.36,5.63-12.05,12.43-4.08,13.28-3.93,1.47.25,2.36-1.77,3.44-1.97,8.4-1.56,9.18,6.68,9.84,6.88,1.19.37,13.57-7.03,18.69,10.33,16.01-8.33,19.46,6,20.65,6.39.38.12,1.47-1.2,7.87-.98.18,0,3.04,1.3,3.44.98,1.01-.78,3.75-19.81,17.7-4.92.62-9.54,10.67-21.06,19.67-23.6,10.33-2.91,14.93.99,15.74.98.42,0,4.82-2.6,7.87-2.95,16.88-1.95,30.63,10.44,33.44,26.56,19.02-14.37,41.2.81,39.83,23.6,14.61-8.38,15.29,7.22,16.23,7.87.57.4,4.81-4.13,13.28.49,6.17,3.37,6.33,10.46,6.88,10.82.6.4,6.37-2.63,13.77,2.46,6.48,4.46,6.7,12.01,7.38,12.29,1.08.45,8.66-5.42,22.87-3.93Z"/>
    <path class="cls-38" d="M499.99,320.63c0,5.57,0,11.15,0,16.72l-342.76-.98c-.17-.56-1.77-3.65-1.23-3.93,1.88-.06,3.78.08,5.66,0,3.78-.16,7.58.31,11.31-.74.39-.48-7.86-8.73-8.36-9.1l.25-1.97h335.13Z"/>
    <path class="cls-1" d="M499.99,316.2c0,1.48,0,2.95,0,4.43H164.86l-.25,1.97c-9.8-7.3-11.62-3.3-21.64-.98q5.41-2.46,10.82-4.92,173.1-.25,346.2-.49Z"/>
    <path class="cls-33" d="M54.95,100.81c-14.71,7.83-45.02,37.26-58.52,50.16,0-11.8-.01-23.6,0-35.41,8.48-3.45,7.46,3.52,8.61,3.93.41.15,7.99-2.24,8.36-2.46,3.12-1.85,2.43-10.34,11.8-12.29,2.34-.49,4.93.62,5.41.49,1.37-.38,7.83-15.57,24.34-4.43Z"/>
    <path class="cls-5" d="M23.47,333.9c-.16,7.29,1.41,10.58,1.97,15.24.29,2.45.69,4.93.98,7.38.3,4.11.42,8.17.49,12.29q-15.24-3.44-30.49-6.88c0-8.69,0-17.38,0-26.06q5.9-.49,11.8-.98c-.45.88-4.46,8.98-3.69,9.34,3.68-3.77,7.87-7.06,11.56-10.82q3.69.25,7.38.49Z"/>
    <path class="cls-33" d="M9.71,286.7c18.44,10.89,27.21,13.49,49.18,16.23-3.07,4.05-6.91,7.35-10.08,11.31-2.59-.53,2.19-10.14-15.24-9.34-.16,0-1.73,1.9-2.46,1.97-.68.06-5.93-2.43-13.28-3.44-8.73-1.21-15.41.68-21.39-4.92,0-6.39,0-12.79,0-19.18,4.65,2.06,8.92,4.8,13.28,7.38Z"/>
    <path class="cls-43" d="M26.92,368.82c.03,1.84.31,13.81-.25,14.26q-15.12-3.93-30.24-7.87c0-4.43,0-8.85,0-13.28q15.24,3.44,30.49,6.88Z"/>
    <path class="cls-38" d="M11.67,328.99c-1.26,1.91-2.4,3.87-3.44,5.9q-5.9.49-11.8.98c0-1.8,0-3.61,0-5.41.74.24.94-.42,1.48-.49,4.45-.61,9.25-1.23,13.77-.98Z"/>
    <path class="cls-33" d="M421.55,115.56c2.67-.09,47.14,3.98,52.86,6.64l-.25,2.21c-44.64-.68-89.49,1.71-134-1.23,22.29-4.17,45.07-3.78,67.62-5.16,3.67-.23,11.11-2.37,13.77-2.46Z"/>
    <path class="cls-38" d="M81.99,106.71c-.11-.06-.59.04-.98,0-1.83-1.9-4.08-2.83-6.39-3.93,5.5-5.21,7.56-3.27,7.38,3.93Z"/>
    <path class="cls-43" d="M124.78,395.37c.23,4.72-1.52,14.67,2.95,12.05.06-3.36-.08-6.72,0-10.08,2.17.11,9.77,3.15,10.82,2.95.19,9.52-1.44,20.38,2.95,16.47.06-5-.09-10,0-15q69.34,22.87,138.68,45.73c10.37,4.52,21.28,7.82,31.47,12.79,15.57,7.59,30.43,18.62,44.75,28.28-28.76-8.56-59.13-13.58-88.27-21.39-18.71-5.02-36.89-12.18-55.57-17.21-49.71-13.4-100.24-24.35-149.25-40.08-.08-2.04.11-4.11,0-6.15,17.18.04,34.3,1.18,51.39,2.95-3.64-.72-8.63-3.3-9.1-3.44,0-4.26,0-8.52,0-12.79l19.18,4.92Z"/>
    <path class="cls-43" d="M102.16,388.49c.11,4.55.93,9.18.49,13.77-.06-.02.04.86-1.23.49-12.51-3.58-25.08-6.87-37.62-10.33.3-4.75,1.05-9.51,1.48-14.26,1.14,1.54,34.99,10.62,36.88,10.33Z"/>
    <path class="cls-13" d="M102.65,402.26c.96.28,1.95.68,2.95.98.47.14,5.45,2.72,9.1,3.44-17.09-1.77-34.21-2.91-51.39-2.95-.2-3.84.25-7.51.49-11.31,12.54,3.46,25.11,6.75,37.62,10.33,1.27.36,1.17-.51,1.23-.49Z"/>
    <path class="cls-5" d="M44.62,333.41c1.23,10.94,1.35,21.97,1.97,32.95.12,2.22.87,4.7.98,6.88.06,1.26-.49.93-.49.98q-2.7-.74-5.41-1.48c-.6.05-.45-.44-.49-.49q-.25-16.97-.49-33.93c.17-.34,4.96-7.58,3.93-4.92Z"/>
    <path class="cls-5" d="M36.26,349.64c.16,2.29.33,4.59.49,6.88.06.81-.05,1.65,0,2.46.09,1.41.4,2.93.49,4.43.01.16,0,.33,0,.49.14,2.3.38,4.56.49,6.88.02.33-.01.66,0,.98q-3.44-.98-6.88-1.97c-.82-11.8-3.03-15.97,5.16-26.56.51.25.16,5.24.25,6.39Z"/>
    <path class="cls-38" d="M63.31,335.38h-6.39c-.38-5.47-.32-11.17-1.97-16.47,2.87-2,7.36,1.39,5.41-3.69.84-.58,1.96-1.28,2.95-1.48-.03,7.21.05,14.43,0,21.64Z"/>
    <path class="cls-43" d="M37.74,371.77c.21,4.67.63,9.35.98,14.02-9.68.51-7.04-3.96-7.87-15.98q3.44.98,6.88,1.97Z"/>
    <path class="cls-43" d="M47.08,374.23c.25,4.8.34,9.46.49,14.26l-4.92-.98c-.88-5.01-1.38-9.67-.98-14.75q2.7.74,5.41,1.48Z"/>
    <path class="cls-43" d="M56.91,375.7c.02.16-.02.33,0,.49.57,5.19.38,10.07.49,15.24q-2.46-.74-4.92-1.48c-.18-2.55-1.07-13.79-.98-14.51.04-.31.97-1.15.98-1.23-.01,2.29,2.75,1.29,4.43,1.48Z"/>
    <path class="cls-13" d="M57.41,391.44c.1,4.58.83,9.14.49,13.77-1.34.11-2.64-.24-3.93-.49-.69-4.94-1.13-9.77-1.48-14.75q2.46.74,4.92,1.48Z"/>
    <path class="cls-35" d="M53.96,404.72c1.29.25,2.6.6,3.93.49-.17,2.27.5,4.19-.74,3.93-10.76-3.66-21.53-7.45-32.7-9.59,3.74-1.45,4.41.44,6.15.74,7.85,1.36,15.55,2.9,23.36,4.43Z"/>
    <path class="cls-10" d="M47.57,388.49c.06,2.05,2.64,14.47-.25,14.26-1.03-.07-4.36-13.46-4.67-15.24l4.92.98Z"/>
    <path class="cls-5" d="M138.55,400.29c-1.04.2-8.65-2.84-10.82-2.95.21-8.84.1-23.03-.49-31.72-.27-3.97-1.48-16.03-2.46-4.43-.64,7.57-.4,25.94,0,34.18l-19.18-4.92c0-.16,0-.33,0-.49.11-18,1.1-36.09.49-54.09h21.15c-1.84,3.29-5.09,10.16-2.7,13.28,1.71-.8,2.09-1.88,2.21-1.97,4.57-3.43,7.62-9.53,11.31-13.77-.97,17.18.11,48.2.49,66.88Z"/>
    <path class="cls-6" d="M115.68,406.69q4.79.86,9.59,1.72c.47.9-8.61-.62-9.59-1.72Z"/>
    <path class="cls-38" d="M101.17,321.61l.25,12.79h-29.51c-.48-.3.15-3.21.25-3.93,3.29-3.63,7.17-6.6,10.82-9.84,0,.3-.12.93.25.98,3.5.57,13.04-1.02,17.95,0Z"/>
    <path class="cls-26" d="M74.62,318.17c-.74,3.57-2.03,8.97-2.46,12.29-.09.72-.73,3.63-.25,3.93h29.51l-.25-12.79h.98c.26,4.65-.13,9.22,0,13.77h-34.91c-.16-5.68-.2-11.56.49-17.21h6.88Z"/>
    <path class="cls-1" d="M127.24,319.15l-.98,1.97c-2.5.2-3.14.18-5.41,1.48q-7.87-.25-15.74-.49c-.1-1.67-.38-3.31-.49-4.92,3.16.45,8.83,1.34,10.82-.49,4.1,2.57,7.52,1.3,11.8,2.46Z"/>
    <path class="cls-1" d="M88.39,316.69q6.64.25,13.28.49c.11,1.51.41,2.9.49,4.43h-.98c-4.91-1.02-14.45.57-17.95,0-.36-.06-.25-.68-.25-.98,5.51-4.88,5.17-3.7,5.41-3.93Z"/>
    <path class="cls-5" d="M83.47,361.94c1.49,5.81-2.3,23.8,7.87,19.67,9.46-3.84,8.97-21.17-5.9-26.56l.49-.49c7.04,1.72,11.5,7.34,16.23,12.29-.04,7.19-.18,14.45,0,21.64-1.89.29-35.74-8.79-36.88-10.33.52-5.86,1.12-21.02,1.48-22.38.69-2.63,1.18-1.84,2.46-.25,3.32,4.13,5.9,14.14,1.97-3.69,4.69-1.47,11.26,6.07,12.29,10.08Z"/>
    <path class="cls-5" d="M102.16,335.38c.25,8.86,1,17.67.98,26.56-1.78.57-2.74-4.51-6.64-7.87-5.51-4.76-18.93-8.24-25.33-4.43-2.45-3.23,12.51-5.15,12.79-7.13-4.86-1.51-9.63-.76-14.26.25-3.71,1.55-2.31-2.02-2.46-7.38h34.91Z"/>
    <path class="cls-5" d="M63.31,335.38c-.02,3.29-.42,6.56,0,9.84-.51.69-3.87,2.21-4.92,3.44-1.58-4.05-1.18-9.01-1.48-13.28h6.39Z"/>
    <path class="cls-38" d="M120.84,322.59c-2.64,1.51-7.74,8.63-9.84,11.56.59.76,12.47-1.76,14.26-2.21,2.15-.55,4.23-1.45,6.39-1.97-1.44,1.4-3.43,4.13-4.43,5.9h-21.15c-.15-4.54-.71-9.22-.98-13.77q7.87.25,15.74.49Z"/>
  </g>
  <g>
    <path class="cls-33" d="M310.42,69.34c12.43-1.64,12.04,10.21,12.79,10.82.38.31,6.76-1.41,7.87-1.48,15.81-.95,32.28,2.41,47.45,6.64q-56.43.12-112.86.25c5.46-2.12,32.48-5.7,35.41-7.87.67-.5,3.28-7.56,9.34-8.36Z"/>
    <g>
      <path class="cls-4" d="M499.99,381.11c-.04,40.82.03,81.63,0,122.45-5.74.05-11.48-.06-17.21,0-1.07-2.57-9.73-2.95-13.52-3.93-10.03-2.6-19.95-6.25-30-8.85-11.2-2.9-22.73-4.96-33.93-7.87-17.38-4.5-80.83-22.5-91.47-23.6-.92-.1-1.87-.17-2.21.98-10.19-4.97-21.1-8.26-31.47-12.79,30.21-4.9,85.79-15.07,113.35-23.6,10.39-3.22,20.23-8.28,30.49-11.8,27.8-9.55,49.92-14.35,75.98-30.98Z"/>
      <g>
        <path class="cls-40" d="M279.68,219.32c-4.52,3.08-8.74,6.55-13.77,8.85-8.1-4-16.13-7.4-24.1-11.8-.37-4.82-3.85-10.38-3.44-14.75,2.19.51,28.42,15.51,41.31,17.7Z"/>
        <path class="cls-46" d="M238.37,201.62c-.41,4.37,3.07,9.93,3.44,14.75-1.27-.7-1.88-.44-1.97-.49-7.42-4.16-14.61-9.44-21.64-14.26,1.92.22,13.62-1.52,20.16,0Z"/>
      </g>
      <path class="cls-22" d="M75.11,314.23c-.24.84-.28,2.92-.49,3.93h-6.88c.08-.64-.09-1.33,0-1.97.05-.31-.07-.72,0-.98l7.38-.98Z"/>
      <g>
        <path class="cls-24" d="M287.55,305.87c13.64.39,27.17.82,40.82.98,1.99.02,2.29.49,2.46.49,4.58.06,9.34-.62,14.02-.49,2.98.08,12.07,2.12,13.03-.49,8.71,1.4,17.54,2.48,26.31,3.44,4.1.45,10.7.17,14.02.49,8.23.8,15.62,1.38,23.6,3.69.8-1.16-13.68-4.5-21.15-9.1l64.91,1.48c5.32,1.45,26.37-.04,34.42.98,0,2.95,0,5.9,0,8.85q-173.1.25-346.2.49c3.07-4.57,5.35-9.66,7.38-14.75,42.13,1.09,84.25,2.72,126.38,3.93Z"/>
        <path class="cls-44" d="M482.78,295.55c5.6,3.49,11.55,6.45,17.21,9.84,0,.66,0,1.31,0,1.97-8.05-1.03-29.1.46-34.42-.98-.73-.2-12.16-5.56-13.77-6.39-8.4-4.33-23.04-14.68-30.98-20.65,21.18,2.4,41.38,10.69,61.96,16.23Z"/>
        <path class="cls-39" d="M482.78,295.55c-20.58-5.54-40.78-13.82-61.96-16.23-6.9-5.19-13.64-10.28-19.92-16.23-3.28-3.11-8.14-7.39-6.64-8.36,23.54,9.96,45.39,14.63,71.55,29.51,5.89,3.35,11.23,7.74,16.97,11.31Z"/>
        <path class="cls-47" d="M299.35,244.4c16.17,6.07,36.25,8.06,48.93,16.23,2.25,1.45,4.93,4.28,7.13,5.9,11.84,16.44,28.46,29.38,42.78,43.77-3.31-.32-9.92-.04-14.02-.49-8.77-.96-17.6-2.05-26.31-3.44-11.94-1.92-23.58-4.91-35.41-7.38-11.16-10-34.47-29.87-47.21-35.41l4.43-4.43c10.32,4.99,20.77,9.79,31.96,12.54-11.59-11.76-22.95-23.66-36.88-32.7.06-3.32-2.86-3.56-2.95-4.18-.26-1.71,2.66-.41,1.48-2.7,8.68,4.09,17.05,8.91,26.06,12.29Z"/>
        <path class="cls-39" d="M237.39,252.76c5.25,1.11,10.56,2.52,15.74,3.93,7.43,2.03,15.03,3.8,22.13,6.88,12.74,5.54,36.05,25.41,47.21,35.41,2.83,2.54,5.79,5.53,8.36,8.36-.17,0-.46-.47-2.46-.49-7.96-3.6-46.61-30.2-49.42-30.98-4.47-1.24-24.63-.38-31.96-1.48-2.04,1.23,7.24,7.19,7.62,8.85-6.83-4.62-14.27-8.17-20.9-13.28-7.72-5.95-14.79-13-21.39-20.16,9.65-.82,15.84.99,25.08,2.95Z"/>
        <path class="cls-44" d="M328.37,306.86c-13.65-.16-27.18-.59-40.82-.98-2.22-2.7-6.12-4.14-8.85-5.9-8.19-5.28-16.01-11.25-24.1-16.72-.38-1.66-9.66-7.62-7.62-8.85,7.33,1.1,27.5.24,31.96,1.48,2.81.78,41.46,27.38,49.42,30.98Z"/>
        <path class="cls-32" d="M278.7,299.97c2.73,1.76,6.63,3.2,8.85,5.9-42.13-1.21-84.25-2.85-126.38-3.93.39-.99.64-1.96.98-2.95.25-.71,1.34-1.87,1.48-2.46q57.54,1.72,115.07,3.44Z"/>
        <path class="cls-32" d="M406.56,299.48c15.08.6,30.15.7,45.24.49,1.61.83,13.04,6.19,13.77,6.39l-64.91-1.48c-2.76-1.7-4.96-3.79-7.38-5.9,4.42.53,8.85.32,13.28.49Z"/>
        <path class="cls-39" d="M393.28,298.99c2.42,2.11,4.61,4.2,7.38,5.9,7.47,4.59,21.94,7.93,21.15,9.1-7.98-2.31-15.37-2.89-23.6-3.69-14.33-14.39-30.94-27.33-42.78-43.77,7.23,5.32,17.45,13.4,24.34,19.18,4.94,4.15,10.04,10.24,13.52,13.28Z"/>
        <path class="cls-44" d="M357.87,306.37c-.96,2.61-10.05.57-13.03.49-4.67-.12-9.43.55-14.02.49-2.57-2.83-5.53-5.82-8.36-8.36,11.82,2.47,23.46,5.46,35.41,7.38Z"/>
        <g>
          <path class="cls-47" d="M394.26,254.73c-1.5.97,3.36,5.25,6.64,8.36,6.27,5.95,13.02,11.04,19.92,16.23,7.94,5.97,22.58,16.33,30.98,20.65-15.09.21-30.16.11-45.24-.49l1.97-1.23c-10.37-6.04-37.29-46.47-40.57-48.44-1.46-.88-20.1-5.84-25.08-7.87-19.42-7.91-26.71-21.6-39.59-36.88.04-1.39-.04-2.59.49-3.93,3.69.03,18.37,7.57,22.38,9.84,25.19,14.23,37.36,30.76,68.11,43.77Z"/>
          <path class="cls-2" d="M303.78,201.13c-.53,1.34-.45,2.54-.49,3.93-.22,7.25-.31,14.66-.98,21.88-.48,5.14-1.54,13.19-2.95,17.46-9.01-3.38-17.39-8.2-26.06-12.29-2.52-1.19-4.93-2.73-7.38-3.93,5.03-2.3,9.25-5.78,13.77-8.85.32-.22,2.61-.93,6.64-3.93,3.12-2.33,15.24-14.28,17.46-14.26Z"/>
          <path class="cls-27" d="M406.56,299.48c-4.42-.18-8.86.04-13.28-.49-3.48-3.03-8.58-9.13-13.52-13.28-6.89-5.78-17.12-13.86-24.34-19.18-2.2-1.62-4.88-4.45-7.13-5.9-12.68-8.17-32.76-10.16-48.93-16.23,1.41-4.27,2.47-12.32,2.95-17.46.68-7.22.77-14.63.98-21.88,12.88,15.28,20.17,28.97,39.59,36.88,4.98,2.03,23.62,6.99,25.08,7.87,3.28,1.97,30.2,42.4,40.57,48.44l-1.97,1.23Z"/>
        </g>
        <path class="cls-47" d="M212.31,249.81c6.6,7.16,13.67,14.21,21.39,20.16,6.63,5.11,14.07,8.66,20.9,13.28,8.09,5.47,15.91,11.44,24.1,16.72q-57.54-1.72-115.07-3.44c.16-.73.09-1.51.49-2.21-.96-1.73-20.26,10.76-22.13,12.54-4.7-6.7-15.2-14.71-23.11-17.21,10.99-.54,21.86-2.16,32.7-3.93.28-.3-3.7-5.55-4.18-6.39,11.1-7.64,25.61-12.02,37.37-19.67,6.26-1.89,11.45-5.87,17.7-7.87,3.91-1.25,5.75-1.62,9.84-1.97Z"/>
        <g>
          <path class="cls-2" d="M58.88,104.25c-4.47,9.17-10.4,18.39-13.77,28.03-1.07,3.08-1.78,6.16-2.46,9.34.1-9.37-3.18-1.22-6.88,2.7-13.59,14.4-28.52,27.73-39.34,44.5,0-12.62,0-25.24,0-37.87,13.49-12.9,43.81-42.33,58.52-50.16.94-.5,4.63-2.92,4.92-2.95.19,2.14-.83,4.34-.98,6.39Z"/>
          <path class="cls-2" d="M42.65,141.63c-.6,2.79-1.73,6.03-1.97,8.85-19.76,25.82-30.9,43.82-34.42,77.21-.84-2.08-.93-2.85-3.44-1.97.71-4.03,1.92-8.63,1.97-9.1.09-.86-1-1.28-.98-1.48.24-3.03,2.62-6.08-.25-8.61-3.89,1.17-4.2,5.74-7.13,5.9,0-7.87,0-15.74,0-23.6,10.82-16.78,25.75-30.1,39.34-44.5,3.71-3.93,6.99-12.08,6.88-2.7Z"/>
          <path class="cls-15" d="M2.82,225.72c-1.46,8.23-3.99,16.31-5.41,24.59h-.98c0-12.62,0-25.24,0-37.87,2.93-.17,3.24-4.73,7.13-5.9,2.87,2.52.49,5.57.25,8.61-.02.2,1.07.61.98,1.48-.05.46-1.25,5.07-1.97,9.1Z"/>
          <g>
            <path class="cls-2" d="M6.26,227.68c-1.43,13.57-1.18,27.22,0,40.82-3.17.01-6.59,1.01-9.84.49,0-4.59,0-9.18,0-13.77.56-.64.65-2.97.98-4.92,1.42-8.27,3.95-16.36,5.41-24.59,2.52-.88,2.6-.11,3.44,1.97Z"/>
            <path class="cls-25" d="M-2.59,250.31c-.33,1.95-.42,4.28-.98,4.92,0-1.64,0-3.28,0-4.92h.98Z"/>
          </g>
          <path class="cls-8" d="M81.99,106.71c1.61.92,14.57,9.64,17.7,11.8,20.15,13.93,34.98,30.21,44.75,36.88,27.1,27.34,62.47,44.69,95.4,63.93,11.48,6.71,23.79,12.45,34.91,19.67,13.93,9.04,25.29,20.94,36.88,32.7-11.2-2.75-21.65-7.55-31.96-12.54-34.5-16.68-71.27-42.18-104.99-61.47q-30.37-24.83-60.73-49.67c-6.62-7.02-13.76-13.14-19.67-20.9-3.4-4.46-11.5-18.57-13.28-20.41.39.04.87-.06.98,0Z"/>
          <path class="cls-30" d="M74.62,102.78c2.31,1.11,4.56,2.04,6.39,3.93,1.77,1.84,9.88,15.95,13.28,20.41,5.91,7.76,13.05,13.87,19.67,20.9,5.5,5.84,7.69,5.23,3.44,7.87-10.15-9.34-20.81-18.16-32.46-25.57-1.66-2.52-10.7-11.93-13.77-15,1.28,12.54.79,25.31,4.92,37.37,11.34,9.64,24.25,33.81,29.51,40.32,2.6,3.23,15.05,13.81,19.67,17.95,1.08,4.96-10.36-3.28-13.77-3.93-2.41-2.29-5.52-5.76-7.38-3.93-5.83-7.8-11.9-15.13-17.21-23.36-3.21-4.98-24.17-40.83-25.08-43.27-1.86-5.02-1.96-7.91-2.46-12.79-.04-.39-.95-.11-.98-.49-.08-.94.34-16.93.49-18.93.15-2.05,1.18-4.26.98-6.39,1.04-.1,12.85,4.01,14.75,4.92Z"/>
          <path class="cls-15" d="M68.22,228.67c-.16.21.14,1.37-1.97,4.92-2.13,3.59-4.86,6.88-5.41,11.31-4.06-7.62-5.9-10.07-11.8-16.23-2.39-2.5-2.92-5.07-8.11-7.38-2.81.51-2.03,20.37-.74,12.29.44,12.38,10.31,18.55,17.7,27.05-5.88-2.35-17.22-12.09-32.46-13.77q-3.07-8.85-6.15-17.7l-2.21,17.7c-1.09.15-2.47-.53-2.95.98-4.13-.72-.59,13.55-2.46,20.65-1.8,0-3.62,0-5.41,0-1.18-13.59-1.43-27.25,0-40.82,3.52-33.38,14.67-51.39,34.42-77.21-.78,9.21,1.35,32.42,4.43,41.06,2.39,6.7,17.49,29.76,23.11,37.13Z"/>
          <g>
            <path class="cls-2" d="M14.13,247.85c-3,6.15,15.4,19.09,15.74,20.41.03.1-.6.36-.49.74-5.78-.26-11.94-.5-17.7-.49,1.87-7.11-1.67-21.37,2.46-20.65Z"/>
            <path class="cls-4" d="M25.44,246.86c-2.12-.23-6.24-.29-8.36,0l2.21-17.7q3.07,8.85,6.15,17.7Z"/>
          </g>
          <path class="cls-42" d="M218.21,201.62c7.02,4.82,14.22,10.1,21.64,14.26-2.77.94-.68,1.49,0,3.44-32.93-19.24-68.3-36.59-95.4-63.93,6.22,4.25,20.12,11.1,28.77,16.72,6.47,4.2,41.63,29.12,45,29.51Z"/>
          <path class="cls-15" d="M104.12,203.1c5.97,7.99,25.55,31.75,28.03,36.88-3.82,2.5-8.41,4.07-12.05,6.88-6.42,4.96-11.38,14.02-12.29,14.26-.52.14-8.88-1.74-10.57-1.97,1.56-1.02,11.85-7.13,11.8-8.11-1.76-1.53-5.16-4.95-7.38-4.18,1.13-.28-2.99-3.7-3.44-3.93l.98-.25c-4.69-6.44-9.37-13.16-11.31-20.9-.22-1.77.16-3.84,0-5.66-1.44-3.35-15.96,8.58-17.7,10.57-2.6-10.47-5-21.13-8.85-31.23-9.72-25.47-18.47-24.1-16.23-63.19,3.37-9.64,9.29-18.86,13.77-28.03-.15,2-.57,17.99-.49,18.93.03.38.94.11.98.49.5,4.87.6,7.77,2.46,12.79.91,2.44,21.87,38.3,25.08,43.27,5.31,8.22,11.38,15.56,17.21,23.36Z"/>
          <path class="cls-30" d="M70.19,226.7c-.76.87-1.88,1.86-1.97,1.97-5.62-7.37-20.73-30.43-23.11-37.13-3.08-8.64-5.21-31.85-4.43-41.06.24-2.82,1.37-6.06,1.97-8.85.68-3.18,1.38-6.27,2.46-9.34-2.24,39.09,6.5,37.72,16.23,63.19,3.86,10.1,6.25,20.76,8.85,31.23Z"/>
          <path class="cls-42" d="M279.68,259.16l-4.43,4.43c-7.1-3.08-14.7-4.86-22.13-6.88l.98-.74c-.26-1.49-18.78-10.98-25.82-15.49-10.58-6.78-20.51-14.67-30.98-21.64-9.8-6.52-20.33-11.85-30-18.69-25.51-18.04-30.81-26.69-49.91-44.26,4.25-2.64,2.05-2.03-3.44-7.87q30.37,24.83,60.73,49.67c33.72,19.29,70.49,44.79,104.99,61.47Z"/>
          <path class="cls-31" d="M241.82,216.37c7.96,4.4,16,7.81,24.1,11.8,2.45,1.21,4.86,2.75,7.38,3.93,1.18,2.29-1.74.99-1.48,2.7.09.62,3.01.86,2.95,4.18-11.12-7.22-23.43-12.96-34.91-19.67-.68-1.95-2.77-2.51,0-3.44.09.05.7-.21,1.97.49Z"/>
          <path class="cls-28" d="M84.94,130.32c7.27,11.06,5.06,18.67,26.06,41.8,27.3,30.06,59.5,54.89,91.47,79.67-6.25,2-11.44,5.98-17.7,7.87l-16.23-12.29c-1.69-2.26-36.94-30.7-43.27-36.39-4.62-4.14-17.07-14.72-19.67-17.95-5.25-6.52-18.16-30.69-29.51-40.32-4.13-12.07-3.64-24.83-4.92-37.37,3.07,3.07,12.11,12.48,13.77,15Z"/>
          <path class="cls-16" d="M117.4,155.89c19.1,17.57,24.41,26.22,49.91,44.26,9.67,6.84,20.2,12.17,30,18.69,10.47,6.96,20.4,14.86,30.98,21.64,7.04,4.51,25.56,14,25.82,15.49l-.98.74c-5.18-1.41-10.48-2.82-15.74-3.93-34.96-25.91-74.49-45.06-109.91-70.32-6.75-4.81-16.49-14.99-16.47-10.33-21-23.13-18.8-30.74-26.06-41.8,11.64,7.41,22.31,16.23,32.46,25.57Z"/>
          <path class="cls-42" d="M111.5,207.03c3.9,3.69,8.21,9.89,13.52,14.75,13,11.9,28.77,20.42,42.78,30.98,4.39-.61,2.58-2.94.74-5.41l16.23,12.29c-11.76,7.65-26.27,12.03-37.37,19.67-.55-.96-1.44-1.98-1.97-2.95-2.56-4.76-8.63-20.47-9.34-21.39-.41-.54-.46.31-.98.25-.05,0,.18-.68-.98-.49.29-.3,1.95-2.07,1.97-2.21.08-.65-2.2-8.94-3.93-12.54-2.48-5.13-22.06-28.9-28.03-36.88,1.86-1.82,4.96,1.65,7.38,3.93Z"/>
          <path class="cls-42" d="M125.27,210.97c6.34,5.69,41.58,34.13,43.27,36.39,1.85,2.47,3.66,4.8-.74,5.41-14.01-10.56-29.78-19.08-42.78-30.98-5.31-4.86-9.62-11.06-13.52-14.75,3.41.65,14.85,8.89,13.77,3.93Z"/>
          <path class="cls-42" d="M237.39,252.76c-9.24-1.96-15.43-3.77-25.08-2.95-4.09.35-5.93.72-9.84,1.97-31.96-24.78-64.17-49.6-91.47-79.67-.01-4.67,9.73,5.51,16.47,10.33,35.42,25.26,74.94,44.41,109.91,70.32Z"/>
        </g>
      </g>
      <g>
        <path class="cls-47" d="M11.67,268.5c5.76,0,11.93.23,17.7.49,3.38.15,6.22-.52,5.9.74-19.75,20.67-12.03,17.52,10.08,7.62l-4.18,11.06c.74,2.05,8.9-1.76,9.84-.49q-1.97,3.81-3.93,7.62c-12.45-2.78-25.15-6.97-37.37-8.85-4.36-2.57-8.63-5.31-13.28-7.38,0-3.44,0-6.88,0-10.33,3.24.52,6.67-.48,9.84-.49,1.79,0,3.61,0,5.41,0Z"/>
        <path class="cls-33" d="M24.95,313.74c-1.3.08-2.64-.11-3.93,0-8.1.7-17.17,3.52-24.59,6.88,0-6.56,0-13.11,0-19.67,8.32,6.81,18.65,9.19,28.52,12.79Z"/>
        <path class="cls-32" d="M47.08,295.55c7.61,1.7,7.97,4.43,16.47-.49-.47,3.52-2.84,5.45-4.67,7.87-21.97-2.74-30.73-5.34-49.18-16.23,12.22,1.88,24.92,6.07,37.37,8.85Z"/>
        <path class="cls-17" d="M49.05,335.38c.16,3.46.33,27.89,1.72,28.52.27-.76,1.02-1.88,1.23-2.46-.74,11.36-3.51-3.95-5.41,4.92-.62-10.98-.74-22.01-1.97-32.95,3.06,2.84,2.38,1.45,3.93-.98.33,1.01.44,1.88.49,2.95Z"/>
        <path class="cls-5" d="M52.49,335.38h.49q.49,10.08.98,20.16c-1.87,3.69-1.62,4.92-1.97,5.9-.21.58-.96,1.7-1.23,2.46-1.39-.63-1.56-25.06-1.72-28.52h3.44Z"/>
        <path class="cls-17" d="M56.91,335.38c.29,4.27-.11,9.23,1.48,13.28-1.86,2.2-3.13,4.32-4.43,6.88q-.49-10.08-.98-20.16h3.93Z"/>
        <path class="cls-12" d="M55.44,367.84c.59,2.59,1.14,5.23,1.48,7.87-1.68-.19-4.44.81-4.43-1.48.37-1.92,1.76-6.37,2.95-6.39Z"/>
        <path class="cls-21" d="M52.49,335.38h-3.44c-.05-1.07-.16-1.94-.49-2.95.43-.67-.86-2.2,1.72-.98,1.23,1.31,2.63,1.94,2.21,3.93Z"/>
        <g>
          <path class="cls-10" d="M21.02,313.74c.06,1.84-6.25,1.24-7.62,1.97-1.32.7.27,1.51-.49,1.97-5.48,3.28-11.31,6.75-15,12.29-.53.07-.73.73-1.48.49,0-3.28,0-6.56,0-9.84,7.42-3.36,16.49-6.19,24.59-6.88Z"/>
          <path class="cls-10" d="M25.44,349.15c-.55-4.66-2.12-7.95-1.97-15.24.07-3.38.27-6.63,1.48-9.84.02-.06.78.2.98-.25.22-.49-.22-2.08,0-2.46.32-.56,7.21-8.16,7.87-6.88-1.23,7.12-4.93,18.22-5.9,24.59-1.28,8.42,1.03,14.94-2.46,10.08Z"/>
          <path class="cls-19" d="M24.95,313.74c-4.51,4.98-9.54,9.59-13.28,15.24-4.51-.25-9.32.37-13.77.98,3.69-5.54,9.52-9.01,15-12.29.76-.46-.83-1.27.49-1.97,1.37-.72,7.68-.13,7.62-1.97,1.29-.11,2.63.08,3.93,0Z"/>
          <path class="cls-21" d="M24.95,324.07c-1.21,3.21-1.4,6.45-1.48,9.84q-3.69-.25-7.38-.49c2.99-3.06,5.29-6.85,8.85-9.34Z"/>
          <path class="cls-17" d="M26.92,368.82c-.07-4.12-.2-8.19-.49-12.29.21,1.79,2.24,11.39.49,12.29Z"/>
        </g>
        <g>
          <path class="cls-17" d="M41.18,372.26c-1.01-1.43-2.36-30.17-1.97-32.21.02-.11,1.27-1.31,1.48-1.72q.25,16.97.49,33.93Z"/>
          <path class="cls-48" d="M37.74,370.79c-.11-2.33-.35-4.58-.49-6.88,1.59-.32,1.23,5.41.49,6.88Z"/>
          <path class="cls-48" d="M36.75,356.53c-.16-2.3-.33-4.59-.49-6.88,1.59-.32,1.23,5.41.49,6.88Z"/>
          <path class="cls-48" d="M37.24,363.41c-.1-1.49-.4-3.01-.49-4.43,1.45-.47,1.33,3.45.49,4.43Z"/>
        </g>
        <path class="cls-17" d="M127.73,397.34c-.08,3.36.06,6.72,0,10.08-4.47,2.62-2.72-7.32-2.95-12.05-.4-8.24-.64-26.6,0-34.18.98-11.6,2.19.45,2.46,4.43.59,8.69.71,22.88.49,31.72Z"/>
        <path class="cls-2" d="M145.43,276.37c-3.11.27-7.18-.36-10.08,0-.39.05-.1.92-.49.98-2.2.33-4.17-.09-10.33,1.97-2.17.73-4.4,3.68-6.64,1.48,8.54-6.19,13.9-15.75,17.21-25.57.52.07.57-.78.98-.25.71.93,6.78,16.63,9.34,21.39Z"/>
        <path class="cls-2" d="M98.22,242.93c-5.05-2.56-10.47,2.05-14.51,5.41-3.05,2.54-6.3,7.38-6.64,5.9,7.91-13.73,12.56-14.57,10.82-30.98-.05-.48.06-1,0-1.48,1.94,7.74,6.62,14.46,11.31,20.9l-.98.25Z"/>
        <path class="cls-24" d="M101.66,315.71c.04.49-.04.99,0,1.48q-6.64-.25-13.28-.49c4.27-4.15,9.4-12.08,11.56-17.7.82.17,1.58,14.97,1.72,16.72Z"/>
        <path class="cls-24" d="M115.43,316.69c-1.99,1.83-7.66.94-10.82.49-.12-1.62.13-3.3,0-4.92-.15-1.77-1.89-14.36-1.23-13.77,1.78,4.59,8.4,15.91,12.05,18.2Z"/>
        <path class="cls-45" d="M67.73,316.2c-.09.63.08,1.33,0,1.97-.69,5.65-.65,11.53-.49,17.21.15,5.36-1.26,8.93,2.46,7.38-1.82.4-.48,2.1-5.66-.98-.65.52.29,2.07-.74,3.44-.42-3.28-.02-6.55,0-9.84.05-7.21-.03-14.43,0-21.64,4.31-.85,3.47-.34,4.43,2.46Z"/>
        <path class="cls-12" d="M62.82,370.79c-.59-.19-1.78-2.03-1.97-2.46-1.89-4.29-.39-5.66,0-9.59,4.49-8.31,3.12-2.01,1.97,12.05Z"/>
        <g>
          <path class="cls-13" d="M77.08,254.24c-2.36.64,6.64,4.97,7.13,4.92,1.06-.12,16.45-11.95,17.46-12.29,2.22-.77,5.62,2.65,7.38,4.18.05.99-10.24,7.1-11.8,8.11-1.16.76-7.89,4.17-7.87,5.16,9.97,9.91,11.74,19.91,12.79,7.87,10.5-.99,5.69,5.04,7.13,6.15,6.62-10.14,23.63-22.38,24.83-23.6,1.16-.18.93.48.98.49-3.31,9.82-8.67,19.38-17.21,25.57-1.37.99-13.43,7.59-14.26,7.87-1.68.56-3.65,1.28-5.41.49-2.55-1.15-26.39-26.96-28.28-27.54-2.79-.86-4.7,1.95-12.05-.98-7.39-8.49-17.26-14.67-17.7-27.05l16.97,15.24c-.94-10.5-11.12-17.64-8.11-20.16,5.9,6.16,7.75,8.61,11.8,16.23,1.65,3.09,2.69,6.68,3.44,6.64-.33-4.68,2.45-11.83,2.46-15.98,2.15-3.23,5.32,8.95,7.13,8.36,3.86-7.38,8.42-14.5,14.02-20.65,1.75,16.41-2.91,17.25-10.82,30.98Z"/>
          <path class="cls-9" d="M103.63,288.66c.84.88-.31,1.33,0,1.97.99,2.03,8.52,4.14,11.31,5.9,1.47.93,5.36,4.18,6.39,5.41,4.27,5.06,6.41,12.01,8.36,18.2-.65-.15-1.78-.8-2.46-.98-4.28-1.16-7.7.11-11.8-2.46-3.65-2.29-10.27-13.61-12.05-18.2-.66-.59,1.08,12,1.23,13.77l-.98-.25c-.75-7.38.71,1.96-1.97,3.69-.14-1.75-.9-16.55-1.72-16.72-2.15,5.62-7.29,13.56-11.56,17.7-.24.23.1-.94-5.41,3.93-3.65,3.23-7.53,6.2-10.82,9.84.43-3.32,1.72-8.72,2.46-12.29.21-1.02.25-3.09.49-3.93.04-.15,1.9-2.21.98-2.95,2.46-1.18,15.85-15.27,19.18-18.69,1.13-1.16,2.13-1.8,2.95-3.44,1.76.79,3.72.07,5.41-.49Z"/>
          <path class="cls-10" d="M95.27,292.6c-3.33,3.42-16.72,17.5-19.18,18.69-3.58,1.72-7.43.39-8.36,3.93-.07.26.05.67,0,.98-.96-2.8-.11-3.31-4.43-2.46-.99.2-2.11.89-2.95,1.48-.04-.11-2,.03-1.48-1.72,1.22-4.05,29.7-21.4,36.39-20.9Z"/>
          <path class="cls-9" d="M87.89,221.78c.06.48-.05.99,0,1.48-5.59,6.15-10.16,13.27-14.02,20.65-1.82.59-4.98-11.59-7.13-8.36,0-.37-.75-.74-.49-1.97,2.1-3.55,1.81-4.71,1.97-4.92.08-.11,1.21-1.1,1.97-1.97,1.74-1.99,16.26-13.92,17.7-10.57.16,1.82-.22,3.88,0,5.66Z"/>
          <path class="cls-9" d="M49.05,228.67c-3,2.53,7.17,9.66,8.11,20.16l-16.97-15.24c-1.29,8.08-2.07-11.78.74-12.29,5.19,2.3,5.72,4.88,8.11,7.38Z"/>
          <path class="cls-34" d="M66.75,235.55c-.01,4.15-2.79,11.3-2.46,15.98-.75.04-1.8-3.55-3.44-6.64.55-4.43,3.28-7.72,5.41-11.31-.26,1.22.49,1.6.49,1.97Z"/>
          <path class="cls-9" d="M134.12,254.73c-1.2,1.23-18.21,13.47-24.83,23.6-1.44-1.1,3.37-7.14-7.13-6.15-1.04,12.04-2.81,2.05-12.79-7.87-.02-1,6.7-4.4,7.87-5.16,1.69.23,10.05,2.11,10.57,1.97.91-.24,5.87-9.3,12.29-14.26,3.64-2.81,8.23-4.38,12.05-6.88,1.74,3.6,4.02,11.89,3.93,12.54-.02.15-1.68,1.92-1.97,2.21Z"/>
          <path class="cls-9" d="M145.43,276.37c.52.97,1.41,1.99,1.97,2.95.48.84,4.46,6.1,4.18,6.39-10.84,1.77-21.72,3.4-32.7,3.93-4.6.23-7.12-.5-7.87-.49-2.11.04-5.39.57-7.38,1.48-.31-.64.84-1.09,0-1.97.83-.28,12.9-6.88,14.26-7.87,2.24,2.21,4.47-.75,6.64-1.48,6.16-2.06,8.13-1.64,10.33-1.97.39-.06.1-.93.49-.98,2.9-.36,6.97.27,10.08,0Z"/>
          <path class="cls-9" d="M98.22,242.93c.45.23,4.57,3.66,3.44,3.93-1.01.35-16.4,12.17-17.46,12.29-.49.06-9.49-4.28-7.13-4.92.33,1.48,3.59-3.36,6.64-5.9,4.04-3.36,9.45-7.97,14.51-5.41Z"/>
          <path class="cls-13" d="M118.88,289.65c7.92,2.5,18.41,10.51,23.11,17.21.69.99,4.3,6.88,2.7,6.88-7.16-10.13-14.57-16.06-26.56-19.67,1.83,2.33,3.77,4.59,5.66,6.88l-2.46.98c-1.04-1.23-4.93-4.48-6.39-5.41l2.46-3.2c-4.27-2.36-7.68-2.36-6.39-4.18.75-.01,3.27.72,7.87.49Z"/>
          <path class="cls-19" d="M111.01,289.15c-1.29,1.82,2.13,1.82,6.39,4.18l-2.46,3.2c-2.79-1.76-10.32-3.87-11.31-5.9,1.99-.91,5.27-1.44,7.38-1.48Z"/>
          <path class="cls-41" d="M76.09,311.28c.92.74-.94,2.8-.98,2.95l-7.38.98c.93-3.54,4.78-2.21,8.36-3.93Z"/>
          <g>
            <g>
              <path class="cls-17" d="M140.51,327.02c-.04.57.51,1.12.49,2.95-.02,2.49.46,4.99.49,7.38.27,21.26.33,42.67,0,63.93-.78-.21-.87-2.89-1.23-2.95-.21-.04.08,1.63-1.72,1.97-.38-18.68-1.46-49.7-.49-66.88.07-1.26-.19-2.94,0-3.93.37-1.98.72-2.18,2.46-2.46Z"/>
              <path class="cls-29" d="M141.5,401.28c0,.16,0,.33,0,.49-.09,5,.06,10,0,15-4.39,3.9-2.76-6.95-2.95-16.47,1.8-.34,1.51-2,1.72-1.97.36.06.45,2.74,1.23,2.95Z"/>
            </g>
            <g>
              <path class="cls-13" d="M161.66,332.43c-1.88.08-3.77-.06-5.66,0-.54.29,1.06,3.37,1.23,3.93.91,2.96,1.98,5.9,2.95,8.85l-.74,2.46c-6.56-11.74-13.63-11.82-14.51-12.29-1.44-.77-2.69-4.15-3.93-5.41.02-1.83-.54-2.38-.49-2.95.33-4.35,4.3-3.87,8.11-2.95.94.23,15.23,6.56,13.03,8.36Z"/>
              <path class="cls-18" d="M160.18,345.22c.27.82,2.84,4.84,1.23,4.92-1.08.05-14.65-11.16-16.47-13.77-.06-.08.03-.58,0-.98.88.47,7.95.56,14.51,12.29l.74-2.46Z"/>
              <path class="cls-11" d="M144.94,335.38c.03.4-.06.9,0,.98l-3.44.98c-.03-2.38-.51-4.88-.49-7.38,1.24,1.26,2.49,4.64,3.93,5.41Z"/>
              <path class="cls-10" d="M164.61,322.59c.5.37,8.75,8.62,8.36,9.1-3.73,1.05-7.53.58-11.31.74,2.2-1.8-12.09-8.13-13.03-8.36-3.82-.92-7.79-1.4-8.11,2.95-1.74.28-2.09.48-2.46,2.46-.52-.06-1.25.1-1.48,0-.11-.05-1.49-1.14-1.97-1.48-.15-.11.29-1.65-.25-1.97-2.36-1.37-13.83,5.53-9.1,5.9-1.79.46-13.67,2.97-14.26,2.21,2.1-2.92,7.2-10.05,9.84-11.56,2.27-1.3,2.91-1.27,5.41-1.48,1.94-.16,3.95.11,5.9,0,1.37.34,2.5.7,3.93.98,1.29.25,2.19,1.09,3.69.98.3-.02,2.94-1.42,3.2-1.48,10.01-2.32,11.84-6.32,21.64.98Z"/>
              <path class="cls-13" d="M162.15,298.99c-.34.99-.59,1.96-.98,2.95-2.02,5.09-4.31,10.18-7.38,14.75q-5.41,2.46-10.82,4.92c-3.28.61.33-3.56,1.97-5.9,3.24-4.65,12.63-13.87,17.21-16.72Z"/>
              <path class="cls-13" d="M138.05,329.48c-.19.99.07,2.67,0,3.93-3.69,4.24-6.75,10.34-11.31,13.77-3.74.46,6.9-12.34,9.84-17.7.23.1.95-.06,1.48,0Z"/>
              <path class="cls-13" d="M123.79,300.96c3.4,4.14,10.57,13.07,12.29,17.7.42,1.13.84,2.31,0,3.44-1.43-.28-2.56-.65-3.93-.98-.13-.03.28-.36-2.46-.98-1.95-6.18-4.09-13.13-8.36-18.2l2.46-.98Z"/>
              <path class="cls-14" d="M129.69,320.14c2.74.62,2.33.95,2.46.98-1.95.11-3.96-.16-5.9,0l.98-1.97c.68.18,1.81.84,2.46.98Z"/>
              <path class="cls-18" d="M136.58,329.48c-2.93,5.36-13.57,18.17-9.84,17.7-.12.09-.5,1.17-2.21,1.97-2.39-3.12.86-9.99,2.7-13.28.99-1.77,2.99-4.5,4.43-5.9.95-.93,1.67-1.5,2.95-1.97.48.34,1.86,1.42,1.97,1.48Z"/>
              <path class="cls-13" d="M144.94,315.71c-1.63,2.34-5.25,6.51-1.97,5.9-.26.06-2.89,1.45-3.2,1.48-1.5.1-2.4-.73-3.69-.98.84-1.13.42-2.31,0-3.44,3.12-1.62,7.16-6.41,8.85-2.95Z"/>
              <path class="cls-18" d="M134.61,328c-1.28.47-2,1.04-2.95,1.97-2.16.51-4.24,1.42-6.39,1.97-4.74-.37,6.74-7.28,9.1-5.9.53.31.09,1.86.25,1.97Z"/>
              <path class="cls-10" d="M141.99,306.86c1.87-1.78,21.17-14.27,22.13-12.54-.4.7-.33,1.49-.49,2.21-.13.59-1.23,1.75-1.48,2.46-4.58,2.84-13.97,12.07-17.21,16.72-1.7-3.46-5.73,1.33-8.85,2.95-1.72-4.63-8.9-13.57-12.29-17.7-1.89-2.3-3.82-4.55-5.66-6.88,11.99,3.61,19.39,9.54,26.56,19.67,1.6,0-2.01-5.9-2.7-6.88Z"/>
            </g>
          </g>
        </g>
        <g>
          <path class="cls-29" d="M105.6,389.97c0,.16,0,.33,0,.49,0,4.26,0,8.52,0,12.79-1-.31-1.99-.71-2.95-.98.44-4.59-.38-9.22-.49-13.77,4.93-.77.99-12.82,2.95-16.72.08,6.04-.46,12.2.49,18.2Z"/>
          <path class="cls-36" d="M104.61,312.27c.13,1.62-.12,3.29,0,4.92.12,1.61.39,3.25.49,4.92.27,4.55.83,9.23.98,13.77.61,18-.38,36.09-.49,54.09-.96-6-.41-12.16-.49-18.2-.03-2.22,1.25-13.88-1.97-8.85,0-.33,0-.66,0-.98.02-8.88-.73-17.69-.98-26.56-.13-4.55.26-9.12,0-13.77-.08-1.53-.38-2.91-.49-4.43-.04-.49.04-.99,0-1.48,2.68-1.73,1.22-11.07,1.97-3.69l.98.25Z"/>
          <path class="cls-7" d="M105.11,371.77c-1.97,3.9,1.98,15.95-2.95,16.72-.18-7.19-.04-14.45,0-21.64,0-.2.97-1.23.98-3.93,3.21-5.03,1.94,6.64,1.97,8.85Z"/>
        </g>
        <g>
          <path class="cls-37" d="M62.82,370.79c-.14,1.65-.78,3.21-.49,4.92-.21.13.79.6-.98,1.48-1.69-.65-1.09-6.14-.49-8.85.19.43,1.37,2.27,1.97,2.46Z"/>
          <g>
            <path class="cls-20" d="M69.7,342.76c4.63-1.01,9.4-1.76,14.26-.25-.28,1.98-15.23,3.9-12.79,7.13-2.78,1.65-3.08,3.23-1.97,5.9-1.28-1.59-1.77-2.39-2.46.25-.35,1.36-.95,16.52-1.48,22.38-1.03-1.39-.09-3.06-.74-3.44-.35,1.68-1.79.71-2.21.98-.29-1.71.36-3.26.49-4.92,1.16-14.06,2.52-20.36-1.97-12.05-.39,3.93-1.89,5.3,0,9.59-.6,2.72-1.2,8.2.49,8.85-1.37.68-2.89-1.41-4.43-.98-.02-.16.02-.33,0-.49-.34-2.64-.88-5.27-1.48-7.87-2.65-3.51-.74,5.61-7.87,5.41-.11-2.19-.86-4.67-.98-6.88,1.9-8.87,4.67,6.45,5.41-4.92.35-.98.1-2.21,1.97-5.9,1.3-2.56,2.56-4.69,4.43-6.88,1.05-1.23,4.4-2.76,4.92-3.44,1.03-1.37.08-2.92.74-3.44,5.17,3.09,3.83,1.38,5.66.98Z"/>
            <path class="cls-18" d="M103.14,361.94c0,.33,0,.66,0,.98,0,2.71-.98,3.73-.98,3.93-4.73-4.95-9.18-10.58-16.23-12.29-.91-1.24-2.29-.19-.49.49,14.87,5.38,15.36,22.72,5.9,26.56-2.98-1.04,2.47-8.36.49-15-1.32-4.43-10.05-8.61-8.36-4.67-1.03-4.01-7.6-11.56-12.29-10.08,3.93,17.83,1.36,7.82-1.97,3.69-1.11-2.67-.81-4.25,1.97-5.9,6.4-3.81,19.82-.33,25.33,4.43,3.89,3.36,4.86,8.44,6.64,7.87Z"/>
            <path class="cls-13" d="M91.34,381.61c-10.17,4.13-6.37-13.86-7.87-19.67-1.69-3.93,7.04.25,8.36,4.67,1.98,6.63-3.47,13.96-.49,15Z"/>
            <path class="cls-23" d="M85.93,354.56l-.49.49c-1.8-.68-.42-1.73.49-.49Z"/>
          </g>
        </g>
      </g>
    </g>
  </g>
</svg>