<?xml version="1.0" encoding="UTF-8"?>
<svg id="Layer_1" data-name="Layer 1" xmlns="http://www.w3.org/2000/svg" version="1.1" xmlns:xlink="http://www.w3.org/1999/xlink" viewBox="0 0 500 500">
  <defs>
    <style>
      .cls-1 {
        fill: #cf6b3d;
      }

      .cls-1, .cls-2, .cls-3, .cls-4, .cls-5, .cls-6, .cls-7, .cls-8, .cls-9, .cls-10, .cls-11, .cls-12, .cls-13, .cls-14, .cls-15, .cls-16, .cls-17, .cls-18, .cls-19, .cls-20, .cls-21, .cls-22, .cls-23, .cls-24, .cls-25, .cls-26 {
        stroke-width: 0px;
      }

      .cls-2 {
        fill: #181c23;
      }

      .cls-3 {
        fill: #634637;
      }

      .cls-4 {
        fill: url(#linear-gradient);
      }

      .cls-5 {
        fill: #461a17;
      }

      .cls-6 {
        fill: url(#linear-gradient-6);
      }

      .cls-7 {
        fill: #f4dd86;
      }

      .cls-8 {
        fill: #c35c36;
      }

      .cls-9 {
        fill: #704541;
      }

      .cls-10 {
        fill: url(#linear-gradient-5);
      }

      .cls-11 {
        fill: #cf7a29;
      }

      .cls-12 {
        fill: #311416;
      }

      .cls-13 {
        fill: #4b3026;
      }

      .cls-14 {
        fill: #727171;
      }

      .cls-15 {
        fill: url(#linear-gradient-2);
      }

      .cls-16 {
        fill: #ab4f2e;
      }

      .cls-17 {
        fill: #382120;
      }

      .cls-18 {
        fill: url(#linear-gradient-7);
      }

      .cls-19 {
        fill: url(#linear-gradient-3);
      }

      .cls-20 {
        fill: url(#linear-gradient-8);
      }

      .cls-21 {
        fill: #5b595b;
      }

      .cls-22 {
        fill: #151110;
      }

      .cls-23 {
        fill: #8b3d1f;
      }

      .cls-24 {
        fill: url(#linear-gradient-4);
      }

      .cls-25 {
        fill: #702d1c;
      }

      .cls-26 {
        fill: #1a1012;
      }
    </style>
    <linearGradient id="linear-gradient" x1="654.98" y1="361.8" x2="1130.84" y2="393.65" gradientTransform="translate(-175.23 -755.76) scale(.5 2.66)" gradientUnits="userSpaceOnUse">
      <stop offset="0" stop-color="#7a624e"/>
      <stop offset=".23" stop-color="#a28d75"/>
      <stop offset=".28" stop-color="#aa9379"/>
      <stop offset=".43" stop-color="#b29a80"/>
      <stop offset=".72" stop-color="#ad957b"/>
      <stop offset="1" stop-color="#88725b"/>
    </linearGradient>
    <linearGradient id="linear-gradient-2" x1="654.97" y1="-533.01" x2="1130.83" y2="-501.15" gradientTransform="translate(-175.23 584.23) scale(.5)" xlink:href="#linear-gradient"/>
    <linearGradient id="linear-gradient-3" x1="889.01" y1="-906.13" x2="894.22" y2="-541.68" gradientTransform="translate(-175.23 584.23) scale(.5)" gradientUnits="userSpaceOnUse">
      <stop offset="0" stop-color="#8c7861"/>
      <stop offset=".9" stop-color="#ad947c"/>
    </linearGradient>
    <linearGradient id="linear-gradient-4" x1="833.9" y1="-816.94" x2="920.41" y2="-772.1" gradientTransform="translate(-175.23 584.23) scale(.5)" gradientUnits="userSpaceOnUse">
      <stop offset="0" stop-color="#833321"/>
      <stop offset=".8" stop-color="#ae5130"/>
    </linearGradient>
    <linearGradient id="linear-gradient-5" x1="352.66" y1="344.36" x2="1347.7" y2="410.97" xlink:href="#linear-gradient"/>
    <linearGradient id="linear-gradient-6" x1="352.63" y1="-385.34" x2="1347.68" y2="-318.73" gradientTransform="translate(-175.23 584.23) scale(.5)" xlink:href="#linear-gradient"/>
    <linearGradient id="linear-gradient-7" x1="842.02" y1="-1165.57" x2="852.93" y2="-403.49" xlink:href="#linear-gradient-3"/>
    <linearGradient id="linear-gradient-8" x1="726.78" y1="-979.07" x2="907.69" y2="-885.3" xlink:href="#linear-gradient-4"/>
  </defs>
  <g>
    <g id="Background">
      <rect class="cls-4" x="151.29" y="130.21" width="239.82" height="239.79"/>
      <path class="cls-15" d="M158.8,307c-.83,1.88-2.43,3.2-1.64,5.5.78,2.27,3.26,1.91,3.75,1.99-2.25,3.15-4.69,9.41.82,10.77,2.55.63,44.18,2.11,52.45,3.51l.59-.47c23.15,3.21,54.48,4.31,77.86,3.28,8.81-.39,30.29-1.95,38.52-3.04,12.5-.25,25.07-1.69,37.58-2.58,3.39-.24,13.22-.25,14.28-.47,4.59-.94,3.23-8.39-.12-11.01,5.52-.8,3.31-4.07,1.64-7.49.71-3.37,3.64-4.94,6.56-2.81-.01,14.67.05,29.35,0,44.02h-239.78c-.05-14.52.01-29.04,0-43.55,3.44-2.66,5.98-1.55,7.49,2.34Z"/>
      <path class="cls-12" d="M240.52,130.21c-17.81,3.08-34.77,9.83-50.46,18.73-11.49,6.51-18.21,12.24-22.13,25.41-.79,15.7.67,108.63-.23,114.27-.21,1.29-7.5,15.2-8.9,18.38-1.51-3.89-4.05-5.01-7.49-2.34-.05-58.15.04-116.3,0-174.45,29.74-.01,59.48.02,89.21,0Z"/>
      <path class="cls-12" d="M302.81,130.21c29.43.02,58.85-.01,88.28,0-.04,57.99.05,115.99,0,173.98-2.92-2.13-5.85-.56-6.56,2.81-3.02-6.19-7.02-12.06-9.37-18.62v-113.1c-2.31-8.3-6.68-16-13.7-21.19-5.81-4.3-27-14.63-34.19-17.33-7.97-2.99-16.15-4.87-24.47-6.56Z"/>
      <path class="cls-26" d="M391.08,358.28c-.03,3.9.02,7.81,0,11.71h-239.78c-.02-3.9.03-7.81,0-11.71h239.78Z"/>
      <path class="cls-3" d="M391.08,348.21c-.01,3.36.03,6.71,0,10.07h-239.78c-.03-3.36.01-6.71,0-10.07h239.78Z"/>
      <path class="cls-13" d="M163.25,314.5c.17.05.32.15.47.23.46.27.57,3.2,8.78,5.62,4.82,1.42,35.8,7.06,42.27,7.96l-.59.47c-8.27-1.4-49.9-2.88-52.45-3.51-5.51-1.36-3.07-7.62-.82-10.77.68.11,1.85-.14,2.34,0Z"/>
      <path class="cls-13" d="M379.85,314.5c.62-.16,2.15.13,3.04,0,3.35,2.62,4.7,10.07.12,11.01-1.07.22-10.9.23-14.28.47-12.51.89-25.09,2.33-37.58,2.58,6.02-.8,35.11-6.42,39.92-7.96,8.08-2.59,7.75-5.46,8.31-5.85.19-.13.01-.12.47-.23Z"/>
      <path class="cls-22" d="M334.54,339.78c4.23-.81,4.88,5.43,1.17,5.85-3.85.44-4.36-5.24-1.17-5.85Z"/>
      <path class="cls-22" d="M172.5,339.78c4.79-.88,4.59,6.86-.47,5.62-2.57-.63-2.23-5.12.47-5.62Z"/>
      <path class="cls-22" d="M214.88,339.78c4.4-.81,4.55,5.56.94,5.85-3.66.29-4.21-5.25-.94-5.85Z"/>
      <path class="cls-26" d="M165.24,339.78c4.38-.19,3.89,6.5-.7,5.62-3.06-.59-2.41-5.49.7-5.62Z"/>
      <path class="cls-22" d="M376.68,339.78c3.87-.41,4.05,4.98,1.4,5.62-4.53,1.09-5.04-5.24-1.4-5.62Z"/>
    </g>
    <g>
      <path class="cls-19" d="M302.81,130.21c8.32,1.69,16.5,3.57,24.47,6.56,7.19,2.69,28.38,13.03,34.19,17.33,7.01,5.19,11.39,12.89,13.7,21.19v113.1c2.34,6.56,6.35,12.43,9.37,18.62,1.67,3.43,3.88,6.69-1.64,7.49-.89.13-2.43-.16-3.04,0v-.23c1.02-3.09-7.24-17.95-8.9-20.02-.84-1.06-1.93-1.92-3.04-2.69-5.49-3.84-10.83-2.77-11.36-3.04-.23-.12-.07-.5-.12-.7v-97.53c.61-29.79-52.1-43.04-74.81-45.08-25.37-2.27-60.58,5.47-81.49,20.61-8.33,6.03-11.57,11.57-13.7,21.66v100.57c-.37.03-.16.45-.35.47-2.74.24-6.45-.17-10.42,2.11-4.64,2.66-12.67,17.99-12.41,23.65v.23c-.49-.14-1.66.11-2.34,0-.49-.08-2.97.28-3.75-1.99-.79-2.3.81-3.62,1.64-5.5,1.39-3.18,8.69-17.09,8.9-18.38.91-5.64-.55-98.57.23-114.27,3.92-13.16,10.64-18.89,22.13-25.41,15.7-8.9,32.65-15.66,50.46-18.73,20.76-.01,41.52-.01,62.29,0Z"/>
      <path class="cls-2" d="M356.43,287.8q-5.56.12-11.12.23l-.12,3.75c-.59-.54,0-1.63-.23-2.22-.08-.21-.45-.09-.47-.12-1.26-2.73-5.46-4.25-7.96-2.81-.69-.99-.45-1.44-.7-1.87,2.3-.6,5.48,1.73,5.62,1.29-.04-18.93.27-37.85.23-56.78,0-3.44-.21-6.88-.23-10.3-.04-6.11.87-19.87.23-24.94-.25-2.01-3.29-9.44-4.45-11.47-3.64-6.41-9.41-11.31-16.04-14.4-2.06-.96-4.34-1.36-6.44-2.11-.14-.05-.59-.74-2.69-1.4-2.05-.65-4.34-1.11-6.44-1.64-4.65-1.17-8.83-1.95-13.58-2.58-3.34-.44-5.21-.49-8.43-.7-12.51-.81-24.85-.54-37.23,1.87-6.9,1.34-7.11-.19-9.13,7.73-1.31-.15,1.85-5.9,1.52-6.09-2.88.67-5.84,1.26-8.66,2.11-4.45,1.34-13.47,4.96-17.09,7.73-5.75,4.39-10.92,13.81-11.82,20.96-.69,5.44-.19,27.44-.23,35.47-.09,18.5.07,37,0,55.5-.58.34-2.07,2.41-2.11,2.58l-.12-.47c-.87,1.07-1.23.88-1.29.94-3.56.19-7.49-.26-11.01,0v-100.57c2.13-10.09,5.36-15.63,13.7-21.66,20.91-15.14,56.12-22.88,81.49-20.61,22.71,2.04,75.42,15.29,74.81,45.08v97.53Z"/>
      <path class="cls-26" d="M379.38,314.73c-.56.39-.23,3.26-8.31,5.85-4.82,1.54-33.9,7.16-39.92,7.96-8.23,1.09-29.71,2.65-38.52,3.04-23.38,1.04-54.7-.06-77.86-3.28-6.46-.9-37.45-6.54-42.27-7.96-8.21-2.42-8.32-5.35-8.78-5.62h215.66Z"/>
      <g>
        <g>
          <path class="cls-23" d="M296.95,218.26c1.75.8,3.9.4,5.85.47,2.8.09,5.62-.05,8.43,0,2.42.04,4.84-.03,7.26,0,7.65.08,15.3.42,22.95.23.02,3.42.23,6.87.23,10.3q-52.45.12-104.9.23c0-.16-.06-.41.12-.47.8-.28,11.08.21,13.58,0v-.47c-2.61-.51-1.06-2.35-1.29-4.57-.07-.71-2.47-3.89,1.64-5.03.16,0,.31,0,.47,0,1.72.02,3.43,0,5.15,0,1.09,0,2.19,0,3.28,0,5.53.02,15.9.4,20.02.23.31-.01.46-.48.59-.7.72.43,1.76.18,2.58.23,1.91.12,3.74-.16,5.62-.23.37-.01,3.06.82,3.75-.23.55.74,4.79.73,4.68,0Z"/>
          <path class="cls-25" d="M226.71,188.52c.99,7.51,4.65,14.67,4.21,16.51-.18.74-6.07,5.12-6.09,13.35.27.6,5.13.33,6.09.35,2.3.04,4.5-.13,6.79-.23.65-.03,3.28.82,5.39-.47-.29,1.23,2.18.87,3.75.94,1.32.05,2.66-.02,3.98,0-4.11,1.14-1.71,4.33-1.64,5.03.22,2.21-1.32,4.06,1.29,4.57v.47c-2.5.21-12.78-.28-13.58,0-.18.06-.12.31-.12.47h-19.67c.36-.8-1.29-.96-1.4-1.29-.37-1.1,2.58-8.15-.7-10.07.85-3.58,8.96-27.56,9.83-28.8.61-.87.74-.46,1.87-.82Z"/>
        </g>
        <g>
          <path class="cls-24" d="M283.61,159.72c2.73,7.26,10.36,14.81,5.39,22.83-.99,1.6-6.39,6.36-7.49,10.77-2.02,8.1,5.13,17.28,7.02,25.17-1.88.07-3.71.36-5.62.23-.77-3.9-.88-10.42-1.87-13.93-1.5-5.32-7.05-8.57-5.39-15.92.8-3.51,8.3-12.32,1.76-18.38-3.63.22.03,3.07-1.52,7.84-.93,2.87-10.84,13.32-3.98,27.4.34.69,7.77,12.37,8.43,12.76-.12.22-.27.69-.59.7-4.12.17-14.49-.22-20.02-.23,4.06-4.69,6.06-10.14,1.87-15.57-3.5-4.53-8.05-4.16-7.02-1.64.39.95,11.36,4.23,1.87,17.21-1.72,0-3.43.02-5.15,0,8.34-9.1-3.71-17.58-7.02-25.17-4.08-9.35-2.72-23.29,2.11-32.2,12.38-2.41,24.72-2.68,37.23-1.87Z"/>
          <path class="cls-16" d="M341.44,218.96c-7.65.18-15.3-.15-22.95-.23,8-13.9-11.64-14.58-9.83-25.64.39-2.41,9.54-16.52,6.09-27.05,2.1.75,4.37,1.15,6.44,2.11,6.63,3.09,12.4,7.99,16.04,14.4,1.16,2.04,4.2,9.46,4.45,11.47.64,5.07-.27,18.82-.23,24.94Z"/>
          <path class="cls-5" d="M237.24,169.32c-.3,1.18-.21,2.35-.47,3.51-.54-1.35.29-2.17-1.87-1.4-.39-5.15-5.73-.28-7.49,4.33-1.61,4.2-1.28,8.39-.7,12.76-1.13.36-1.26-.05-1.87.82-.88,1.25-8.99,25.22-9.83,28.8,3.28,1.92.33,8.97.7,10.07.11.33,1.76.49,1.4,1.29h-16.16c.04-8.03-.46-30.03.23-35.47.91-7.15,6.08-16.57,11.82-20.96,3.62-2.76,12.64-6.39,17.09-7.73,2.83-.85,5.79-1.44,8.66-2.11.33.19-2.84,5.94-1.52,6.09Z"/>
          <path class="cls-16" d="M305.62,163c3.01,7.59-.48,14.75-3.98,21.54-.87,1.68-1.12,2.94-1.64,2.34,1.67-10.87-2.33-17.65-7.96-26.46,4.75.62,8.93,1.4,13.58,2.58Z"/>
          <path class="cls-7" d="M259.72,218.96c-1.09,0-2.19,0-3.28,0,9.48-12.98-1.49-16.26-1.87-17.21-1.03-2.52,3.53-2.89,7.02,1.64,4.19,5.43,2.19,10.88-1.87,15.57Z"/>
          <g>
            <path class="cls-7" d="M246.38,161.59c-4.83,8.91-6.19,22.85-2.11,32.2,3.32,7.59,15.36,16.08,7.02,25.17-.16,0-.31,0-.47,0-1.32-.02-2.66.05-3.98,0,5.08-4.34,2.14-11.05-.82-10.07-1.64.54.85,6.81-2.93,9.13-2.1,1.29-4.74.44-5.39.47-2.12-2.84,1.07-3.64,1.17-3.86.28-.66.33-6.46-1.76-5.97l-6.21,10.07c-.96-.02-5.82.25-6.09-.35.02-8.23,5.91-12.61,6.09-13.35.44-1.83-3.22-8.99-4.21-16.51-.58-4.37-.91-8.56.7-12.76,1.77-4.61,7.1-9.48,7.49-4.33.23,2.96-2.78,4.91-1.99,5.39,2.73.23,3.36-1.74,3.86-3.98.26-1.17.17-2.33.47-3.51,2.02-7.92,2.23-6.38,9.13-7.73Z"/>
            <path class="cls-25" d="M236.78,172.83c-.5,2.24-1.13,4.21-3.86,3.98-.79-.47,2.22-2.42,1.99-5.39,2.17-.77,1.33.06,1.87,1.4Z"/>
          </g>
          <path class="cls-16" d="M311.24,218.73c-2.81-.05-5.63.09-8.43,0,2.4-3.69,2.24-9.37,5.27-9.13,2.97,1.67,2.67,6.11,3.16,9.13Z"/>
          <path class="cls-16" d="M294.85,212.4c-.18,2.06-.23,4.79,2.11,5.85.1.73-4.13.74-4.68,0,.18-.27,1.38-5.35,1.64-6.32l.35,2.58c.37,0-.31-2.4.59-2.11Z"/>
          <path class="cls-16" d="M237.71,218.49c-2.29.11-4.49.28-6.79.23l6.21-10.07c2.08-.49,2.03,5.32,1.76,5.97-.1.23-3.29,1.02-1.17,3.86Z"/>
          <path class="cls-16" d="M246.84,218.96c-1.57-.06-4.04.29-3.75-.94,3.78-2.32,1.29-8.59,2.93-9.13,2.96-.98,5.9,5.73.82,10.07Z"/>
          <g>
            <path class="cls-7" d="M314.75,166.04c3.45,10.53-5.69,24.64-6.09,27.05-1.8,11.06,17.83,11.74,9.83,25.64-2.42-.03-4.84.04-7.26,0-.49-3.02-.19-7.46-3.16-9.13-3.03-.24-2.87,5.44-5.27,9.13-1.95-.07-4.1.33-5.85-.47-2.34-1.07-2.29-3.79-2.11-5.85.31-3.54,5.52-22.13,6.79-27.86,3.5-6.79,6.99-13.96,3.98-21.54,2.1.53,4.38.99,6.44,1.64,2.1.67,2.55,1.35,2.69,1.4Z"/>
            <path class="cls-7" d="M292.04,160.42c5.63,8.81,9.63,15.59,7.96,26.46-.41,2.66-4.94,20.83-6.09,25.05-.26.97-1.46,6.05-1.64,6.32-.69,1.06-3.37.22-3.75.23-1.89-7.89-9.04-17.08-7.02-25.17,1.1-4.41,6.5-9.17,7.49-10.77,4.98-8.02-2.66-15.57-5.39-22.83,3.22.21,5.09.26,8.43.7Z"/>
            <path class="cls-7" d="M282.9,218.73c-.82-.05-1.86.2-2.58-.23-.66-.39-8.09-12.07-8.43-12.76-6.86-14.08,3.05-24.53,3.98-27.4,1.55-4.78-2.11-7.62,1.52-7.84,6.54,6.06-.96,14.87-1.76,18.38-1.66,7.35,3.88,10.6,5.39,15.92.99,3.51,1.11,10.03,1.87,13.93Z"/>
            <path class="cls-11" d="M294.85,212.4c-.89-.29-.22,2.11-.59,2.11l-.35-2.58c1.15-4.23,5.68-22.39,6.09-25.05.52.6.77-.66,1.64-2.34-1.27,5.74-6.48,24.33-6.79,27.86Z"/>
          </g>
        </g>
        <g>
          <path class="cls-17" d="M335.82,284.76c-.85-1.44-2-2.27-3.75-2.34.61-.29,1.11-.21,1.17-.35-6.18-4.73-7.67-3.88-8.08-4.1-.55-.3-.96-1.83-1.87-2.34-.25-.14-.44.32-.59.23-.94-.51-2.01-1.1-3.04-1.4-2.3-2.96-7.41-1.52-8.31-1.64-.33-.04-3.86-2.22-5.97-.7-1.48.08-5.29.93-6.79,1.4l-.23-.7c1.56-.25,3.06-.76,4.45-1.52-1.38-2.2-14.68-1.81-9.6,1.05-.32.39-.32.11-.47.7-2.41-2.16-4.75-2.93-7.96-2.34.57-1.46,3.99.07,3.98-.82-5.56-2.7-9.89-1.45-10.42-1.52-1.1-.15-3.56-1.5-4.68-1.64-3.85-.47-5.91,1.56-6.32,1.64-.6.11-7.91-3.18-9.72-.94-1.25.2-2.09.96-2.81,1.17-.04.01-.14-.56-.59-.47-.75.15.97,1.79-1.52,2.11-1.64-.23-3.33-.36-4.92.23-1.34-.58-11.67-.4-11.71,1.17-.08.01-.16-.01-.23,0-.04,0-.5-.49-.59-.47-.11.02-.28.67-1.87,1.17-6.96,2.16-7.9,3.91-8.9,4.21-.69.21-4.12.27-5.15.7-1.23.52-2.31,2.82-2.81,3.04-1.81.8-3.66-2.96-10.42,4.92-1.79-1.02-2.82-.84-4.68-.23-.02,0,.08-.32-.47,0,.07-18.5-.09-37,0-55.5h35.83q52.45-.12,104.9-.23c.03,18.93-.27,37.85-.23,56.78-.14.44-3.32-1.89-5.62-1.29Z"/>
          <path class="cls-23" d="M266.87,239.1c18.49-1.09,35.62,4.31,47.88,18.62l-85.82.35-.35-.35c9.59-11.34,23.54-17.74,38.28-18.62Z"/>
          <g>
            <path class="cls-26" d="M230.1,236.05c8.04-1.52,9.44,9.96,2.81,11.01-7.6,1.2-8.84-9.87-2.81-11.01Z"/>
            <path class="cls-17" d="M230.81,236.52c3.3-.5,8.35,4.43,3.51,4.92.38-5.92-7.99-1.89-3.51-4.92Z"/>
          </g>
          <g>
            <path class="cls-2" d="M310.42,235.12c1.97-.21,5.65,1.16,6.67,2.93,2.39,4.12-.09,9.39-4.8,9.95-9.07,1.08-8.88-12.13-1.87-12.88Z"/>
            <path class="cls-26" d="M308.43,237.46c.97.83-.52,1.02-.12,2.11,1.07-1.3,2.96-1.98,4.57-1.64,1.76.38,1.77,3.11,1.4,4.57,1.37,1.01,1.66-.26,1.87-1.29,0-.05.56-.03,0-.94,1.04-1.54,1.19,2.88,0,4.57-1.24,1.75-2.89,1.59-3.86,2.46-6.17.23-8.41-6.71-3.86-9.83Z"/>
            <path class="cls-26" d="M312.88,237.93c-1.6-.35-3.5.34-4.57,1.64-.4-1.09,1.08-1.28.12-2.11,1.46-1,2.67-1.48,4.57-1.17,3.76.62.33.78-.12,1.64Z"/>
            <path class="cls-9" d="M316.15,240.27c.56.9,0,.89,0,.94-3.2-.77-.28-3.47,0-.94Z"/>
          </g>
        </g>
      </g>
      <g>
        <path class="cls-21" d="M371.18,307.24c1.35,1.04,3.48,4.67,3.51,5.27.06,1.1-1.77,1.3-1.29,1.76h6.44v.23c-.45.12-.28.1-.47.23h-215.66c-.15-.09-.3-.19-.47-.23v-.23h5.97c-2.11-2.38-.23-2.06.12-2.93.13-.34.06-1.55.23-1.87.39-.73,1.75-1.16,2.11-2.46,66.49.59,133,.05,199.5.23Z"/>
        <path class="cls-21" d="M367.9,291.55c1.11.78,2.2,1.64,3.04,2.69,1.65,2.07,9.92,16.93,8.9,20.02h-6.44c-.48-.46,1.35-.66,1.29-1.76-.04-.6-2.16-4.23-3.51-5.27.61-3-4.27-11.37-6.56-13.11,1.62-.62-.23-3.79,3.28-2.58Z"/>
        <path class="cls-21" d="M177.77,294.12c-2.52,2.09-5.32,8.44-6.32,11.59-.21.64.25,1.22.23,1.29-.36,1.3-1.72,1.73-2.11,2.46-.17.32-.1,1.54-.23,1.87-.34.86-2.23.55-.12,2.93h-5.97c-.26-5.66,7.77-20.99,12.41-23.65-.31,1.26,1.33.38,2.11,3.51Z"/>
        <path class="cls-14" d="M367.9,291.55c-3.51-1.21-1.66,1.95-3.28,2.58-3.85-2.93-10.49-1.66-15.22-1.87-.66-.03-2.45.02-2.58,0-.45-.05-1.34-.19-1.64-.47l.12-3.75q5.56-.12,11.12-.23c.05.21-.11.58.12.7.53.28,5.86-.8,11.36,3.04Z"/>
        <path class="cls-14" d="M197.44,288.04c-1.1,1.11-1.37,2.71-1.87,3.75-.22.46-.46.44-.47.47-1.12-.56-2.2-.03-3.28,0-4.46.14-10.54-1.04-14.05,1.87-.77-3.13-2.42-2.25-2.11-3.51,3.97-2.28,7.68-1.87,10.42-2.11.19-.02-.02-.44.35-.47,3.51-.26,7.44.19,11.01,0Z"/>
        <g>
          <path class="cls-23" d="M332.08,282.42c1.74.07,2.9.9,3.75,2.34.25.43.02.88.7,1.87.4.58.67.66.7.7,2.05,6.51-9.29,11.52-12.64,5.97l.35-.35c11.36.96,5.79-9.74,6.21-10.42.16-.27.74-.02.94-.12Z"/>
          <path class="cls-23" d="M344.49,289.44c-3.09,3.76-5.37.64-7.26-2.11-.03-.04-.3-.13-.7-.7,2.51-1.44,6.7.08,7.96,2.81Z"/>
          <path class="cls-16" d="M198.84,287.57c-.67,2.81,1.9,4.78-3.28,4.21.51-1.04.77-2.64,1.87-3.75.06-.06.42.13,1.29-.94l.12.47Z"/>
          <path class="cls-16" d="M195.1,292.25c-.25.59-1.14,2.21-1.17,2.34q-2.81,1.05-5.62,2.11c.04-1.87,2.22-3.4,3.51-4.45,1.08-.03,2.15-.56,3.28,0Z"/>
          <path class="cls-16" d="M305.38,272.11c.71-.04,4.45-.19,4.45.59-2.96,2.43-6.43,3.63-10.19,4.1-12.66-.23-2.19,1.34,3.51.23,2.02,4.63-9.46,6.63-13.23,2.93.12-2.46,2.76-2.55,2.93-2.69.17-.15-.41-.7.94-1.64,1.42-.99,3.16-1.59,4.8-2.11,1.5-.48,5.31-1.32,6.79-1.4Z"/>
          <path class="cls-16" d="M206.1,285.23c-.5,1.56,5.18,4.4,1.76,9.83-3.4-3.16-9.76-3.9-6.44-10.07,1.86-.61,2.89-.79,4.68.23Z"/>
          <path class="cls-16" d="M254.81,268.6c.72-.21,1.56-.97,2.81-1.17,3.65-.59,8.1-.27,10.3,3.16-3.08,3.29-10.88,1.66-13.11-1.99Z"/>
          <path class="cls-16" d="M292.74,273.05c-.14.58.32,2.4-2.22,2.81-1.16.19-9.7-1.4-9.95-1.99.3-1.86,2.51-2.85,4.21-3.16,3.22-.59,5.55.18,7.96,2.34Z"/>
          <path class="cls-16" d="M252.7,270.24c5.95.84-1.95,1.83,4.45,9.72-6.83,2.81-3.86-7.12-9.37-9.48,1.58-.6,3.28-.47,4.92-.23Z"/>
          <path class="cls-16" d="M298.36,272.82c-1.83.3-3.28.58-5.15-.47-5.08-2.86,8.22-3.25,9.6-1.05-1.38.76-2.89,1.27-4.45,1.52Z"/>
          <path class="cls-16" d="M319.67,274.45c1.03.3,2.1.89,3.04,1.4-1.08,2.25-3.23,3.81-5.5,4.68-2.66-1.77,2-1.1,1.52-6.44.11-.21.6.25.94.35Z"/>
          <path class="cls-23" d="M193.93,294.59c-1.22,4.81,2.55,3.79-3.4,5.62-1.17-.57-2.25-2.22-2.22-3.51q2.81-1.05,5.62-2.11Z"/>
          <path class="cls-8" d="M240.99,273.52c-.59-1.28-2.73-.7-4.45-2.11,7.55-1.13,5.36-.65,4.45,2.11Z"/>
          <g>
            <path class="cls-26" d="M284.78,270.71c-1.7.31-3.92,1.3-4.21,3.16.25.59,8.79,2.18,9.95,1.99,2.54-.41,2.08-2.23,2.22-2.81.15-.6.15-.31.47-.7,1.87,1.05,3.32.77,5.15.47l.23.7c-1.64.52-3.38,1.12-4.8,2.11-1.34.94-.77,1.49-.94,1.64-.16.14-2.81.24-2.93,2.69,3.77,3.7,15.25,1.7,13.23-2.93-5.7,1.1-16.17-.47-3.51-.23,3.76-.47,7.23-1.67,10.19-4.1,0-.77-3.74-.62-4.45-.59,2.11-1.51,5.65.66,5.97.7.9.12,6.01-1.32,8.31,1.64-.34-.1-.83-.56-.94-.35.48,5.34-4.18,4.67-1.52,6.44,2.27-.87,4.42-2.43,5.5-4.68.15.08.34-.37.59-.23.91.51,1.32,2.05,1.87,2.34.41.22,1.89-.64,8.08,4.1-.06.14-.56.06-1.17.35-.2.09-.77-.15-.94.12-.41.68,5.15,11.38-6.21,10.42l-.35.35c3.35,5.55,14.69.54,12.64-5.97,1.89,2.75,4.17,5.87,7.26,2.11.01.03.38-.09.47.12.24.59-.36,1.68.23,2.22.3.27,1.19.41,1.64.47,4.88,3.31.56,5.82,3.86,6.79,1.43-.06,1.96-4.12-1.29-6.79,4.73.21,11.37-1.06,15.22,1.87,2.29,1.74,7.16,10.11,6.56,13.11-66.5-.18-133.01.35-199.5-.23.02-.06-.44-.64-.23-1.29,1.01-3.15,3.8-9.5,6.32-11.59,3.51-2.91,9.58-1.73,14.05-1.87-1.29,1.05-3.47,2.58-3.51,4.45-.03,1.29,1.05,2.95,2.22,3.51,5.94-1.83,2.18-.81,3.4-5.62.03-.13.92-1.75,1.17-2.34.01-.03.24,0,.47-.47,5.18.56,2.61-1.4,3.28-4.21.04-.16,1.53-2.24,2.11-2.58.55-.32.45,0,.47,0-3.32,6.17,3.04,6.91,6.44,10.07,3.43-5.44-2.26-8.28-1.76-9.83,6.76-7.87,8.61-4.12,10.42-4.92.5-.22,1.58-2.53,2.81-3.04,1.04-.44,4.46-.49,5.15-.7,1-.3,1.94-2.05,8.9-4.21,1.6-.5,1.77-1.15,1.87-1.17.09-.02.55.48.59.47,6,6.85,4.92,2.57,5.15,1.87.91-2.76,3.1-3.24-4.45-2.11-.22.03-.25.19-.47.23.04-1.57,10.37-1.75,11.71-1.17,5.5,2.37,2.54,12.29,9.37,9.48-6.4-7.89,1.5-8.88-4.45-9.72,2.49-.32.77-1.96,1.52-2.11.45-.09.55.48.59.47,2.23,3.65,10.04,5.28,13.11,1.99-2.2-3.43-6.65-3.76-10.3-3.16,1.81-2.25,9.12,1.05,9.72.94.41-.08,2.47-2.11,6.32-1.64,1.12.14,3.59,1.49,4.68,1.64.53.07,4.86-1.18,10.42,1.52.01.89-3.41-.64-3.98.82Z"/>
            <g>
              <path class="cls-16" d="M349.41,292.25c3.25,2.67,2.72,6.73,1.29,6.79-3.31-.97,1.02-3.48-3.86-6.79.13.02,1.91-.03,2.58,0Z"/>
              <path class="cls-16" d="M240.99,273.52c-.23.7.85,4.98-5.15-1.87.08-.01.16.01.23,0,.22-.04.25-.2.47-.23,1.71,1.41,3.85.83,4.45,2.11Z"/>
              <path class="cls-16" d="M277.64,274.92c3.2,1.27,13,.86,10.54,5.39-2.78-.05-4.73.65-7.49-.47,3.2,1.15-4.11,7.45-7.73,7.96-1.88-.56-.48-8,6.67-8.55-1.15-.11-3.16-3.87-1.99-4.33Z"/>
              <path class="cls-23" d="M224.48,296c5.81-.68,13.8,9.62,1.87,8.9-9.21-.56-7.8-8.21-1.87-8.9Z"/>
              <path class="cls-16" d="M282.55,295.06c2.43-.86,11.15,3.06,9.25,7.14-5.35,4.91-8.14-1.47-12.41-3.98,1.77-1.13,2.95-3.09,3.16-3.16Z"/>
              <path class="cls-23" d="M314.63,295.29c3.31-.55,9.53.38,11.82,3.16-3.64,6.06-11.48,4.24-14.28-1.87.06-.44,2.04-1.22,2.46-1.29Z"/>
              <path class="cls-16" d="M276.93,288.04c6.28-1.07,6.05,6.03,1.4,8.66-7.92,4.49-7.37-7.64-1.4-8.66Z"/>
              <path class="cls-16" d="M236.89,277.26c7.09-1.22,7.03,6.77,3.98,7.26-1.07.17-3.71-2.49-7.02,1.4-5.64-1.27-.25-8.1,3.04-8.66Z"/>
              <path class="cls-16" d="M303.63,288.97c2.91-.54,6.69,2.99,8.78,4.8-2.1,2.09-3.16.74-5.5,1.05-3.18.42-3.44,4.23-7.61-2.46.97-.67,3.47-3.24,4.33-3.4Z"/>
              <path class="cls-16" d="M286.53,281.95c6.94-.56,9.35,5.51-4.45,7.02-4.35-2.71,1.36-6.77,4.45-7.02Z"/>
              <path class="cls-16" d="M229.17,283.12c2.11,5.2-4.67,13.24-8.78,6.67.66-4.88,4.6-5.7,8.78-6.67Z"/>
              <path class="cls-16" d="M312.76,273.52c9.86-1.33-1.43,10.11-8.31,6.67-.83-2.34,6.32-6.41,8.31-6.67Z"/>
              <path class="cls-16" d="M222.38,277.03c3.47-.51,6.91,1.28,10.42.59-3.29,5.02-9.91,5.94-14.28,1.87-.13-1.03,3.11-2.35,3.86-2.46Z"/>
              <path class="cls-23" d="M212.54,293.66c1.66-.31,3.56.47,3.75.47,3.82.03,5.52-.71,6.44.59-4.54,3.59-8.07,6.78-13.35,2.11-.2-1,2.22-2.99,3.16-3.16Z"/>
              <path class="cls-16" d="M209.03,285.23c3.18-1.19,8.75,4.8,10.89,6.91-4.88,1.88-11.77-1.06-10.89-6.91Z"/>
              <path class="cls-16" d="M322.36,279.14c2.18-.39,6.01.12,7.61,1.99.11,1.34-11.18,6.24-12.18.47,1.25-.52,3.38-2.25,4.57-2.46Z"/>
              <path class="cls-16" d="M231.27,287.57c2-.86,7.64,2.77,2.34,6.56-3.12,2.23-3.86,1.41-6.44-.82,2.97-2.35,3.77-5.6,4.1-5.74Z"/>
              <path class="cls-16" d="M287.24,289.91c4.18-.45,7.73,4.26,5.15,7.96-3.28-3.98-8.84-4.31-9.02-4.8.24-1.5,2.51-3.01,3.86-3.16Z"/>
              <path class="cls-16" d="M273.66,275.16c5.51-.18-1.95,7.67-4.45,7.26-6.94-1.65,1.37-7.16,4.45-7.26Z"/>
              <path class="cls-16" d="M237.13,284.99c2.31-.42,3.02,1.96,6.56,0,.98,3.57-2.7,7.91-6.32,5.62-2.29-1.45-2.87-5.14-.23-5.62Z"/>
              <path class="cls-16" d="M213.24,280.78c4.78-.63,9.97,3.44,4.92,7.26-2.91-3.14-4.1-4.52-8.55-5.27.83-.93,2.41-1.83,3.63-1.99Z"/>
              <path class="cls-16" d="M244.39,271.18c2.77-.1,5.28,2.68,4.8,5.5-4.2-.2-5.25,3.09-5.74,2.93-1.92-3.02-1.82-6.05.94-8.43Z"/>
              <path class="cls-16" d="M316.27,289.44c3.44-.72,6.86,1.78,7.14,5.27-4.6-1.98-8.33-.57-10.07-3.28,0-.18,2.62-1.93,2.93-1.99Z"/>
              <path class="cls-16" d="M269.44,271.18c4.39-.74,6.03,2.56,5.74,2.93-.29.36-4.32-.78-8.55,2.69l-1.52-2.93c.03-.34,3.51-2.55,4.33-2.69Z"/>
              <g>
                <path class="cls-23" d="M206.34,295.53l.35,1.17c-4.37-.54-9.13.89-11.36.23-.95-3.53,6.64-5.52,11.01-1.4Z"/>
                <path class="cls-25" d="M195.33,296.93c2.23.66,6.98-.78,11.36-.23l-.35-1.17c1.12,1.06,1.48.92.23,2.46-2.74,3.41-10.46,1.97-11.24-1.05Z"/>
              </g>
              <g>
                <path class="cls-16" d="M302.11,285.46c-3.72.41-6.68,2.93-9.83,4.68-.31-.28-1.15-.35-1.17-1.05,3.42-4.99,4.74-5.5,10.65-6.44.51.18.41,2.35.35,2.81Z"/>
                <path class="cls-16" d="M302.11,285.46c-.37,3.06-5.74,8.38-9.83,4.68,3.16-1.75,6.12-4.27,9.83-4.68Z"/>
              </g>
              <path class="cls-16" d="M270.14,267.9c4.41-.5,11.81,2.58,8.43,5.62-1.39.44-2.14-1.6-6.09-3.28-.72-.31-1.22,1.01-2.93-1.99l.59-.35Z"/>
              <path class="cls-23" d="M298.24,292.72c3.57,3.68.67,7.12-3.98,5.85-.42-.47,1.66-4.74,3.98-5.85Z"/>
              <g>
                <path class="cls-23" d="M245.21,296.7c-.83,4.7-3.64,2.4-6.44,2.58-2.96.18-3.55,2.75-5.97-1.05.14-.97,1.06-1.36,1.4-1.76,2.47-.09,8.31-.79,10.19-.47.33.06.25.88.82.7Z"/>
                <path class="cls-16" d="M245.21,296.7c-.57.18-.49-.65-.82-.7-1.88-.32-7.71.38-10.19.47,4.4-5.04,10.78-2.48,11.01.23Z"/>
              </g>
              <g>
                <path class="cls-16" d="M255.51,300.91c-3.39.56-6.67-1.26-10.07-.23-.03-.04-.76-.36-.7-.82,2.87-6.07,4.3.83,12.29-3.16.31,1.7-.53,3-1.52,4.21Z"/>
                <path class="cls-23" d="M255.51,300.91c-2.82,3.45-7.96,2.93-10.07-.23,3.4-1.02,6.68.79,10.07.23Z"/>
              </g>
              <path class="cls-16" d="M232.91,273.52c7.86-.86.34,5.28-5.74,2.46,1.63-.86,3.91-2.26,5.74-2.46Z"/>
              <g>
                <path class="cls-23" d="M326.93,302.79c2.58-1.33,5.12-3.5,7.49-5.39,1.58,2.8,2.52,2.81,2.34,3.86-2.84,4.43-9.34,5.3-9.83,1.52Z"/>
                <path class="cls-16" d="M334.42,297.4c-2.37,1.89-4.91,4.06-7.49,5.39-.56-4.26,6.4-6.65,6.91-6.56.6.12.14.38.59,1.17Z"/>
              </g>
              <g>
                <path class="cls-16" d="M266.28,289.21c3.91,1.38-1.33,6.53-5.74,6.09-2.84-.28-7.29-4.69-4.33-7.26,2.01,4.52,7.05,5.35,10.07,1.17Z"/>
                <path class="cls-23" d="M266.28,289.21c-3.01,4.18-8.06,3.35-10.07-1.17,5.5,3.9,7.38.22,10.07,1.17Z"/>
              </g>
              <path class="cls-25" d="M187.6,297.87c-2.3.83-4.37,4.76-3.04,5.85-4.44,2.17-3.36-6.23,2.93-6.32l.12.47Z"/>
              <g>
                <path class="cls-25" d="M200.72,301.85c.06.05.83,0,1.17,1.05-2.37,3.88-10.69,4.16-13.11.35,3.96-2.06,7.58-2.27,11.94-1.4Z"/>
                <path class="cls-8" d="M200.72,301.85c-4.36-.86-7.98-.65-11.94,1.4l-.23-.59c2.85-3.51,8.75-3.36,12.18-.82Z"/>
              </g>
              <g>
                <path class="cls-25" d="M215.23,302.09c2.44,2.7-7.91,5.6-11.47,3.16-.18-1.41.43-1.67.47-1.76,1.91.4,2.76-1.77,5.27-2.11,3.09-.41,4.62,1.15,5.74.7Z"/>
                <path class="cls-1" d="M215.23,302.09c-1.12.45-2.64-1.11-5.74-.7-2.51.33-3.36,2.5-5.27,2.11,1.83-4.03,8.2-4.75,11.01-1.4Z"/>
              </g>
              <g>
                <path class="cls-23" d="M312.88,303.26c-3.01.61-5.95-.39-8.9-.94-.15-.89,0-1.93.23-2.81,6.22-.41,4.89.8,5.27.94,2.29.83,1.68-1.91-1.99-3.75,3.44-.35,6.93,3.16,5.39,6.56Z"/>
                <path class="cls-25" d="M312.88,303.26c-1.52,3.34-8.15,3.51-8.9-.94,2.95.55,5.89,1.54,8.9.94Z"/>
                <path class="cls-8" d="M307.49,296.7c3.67,1.84,4.28,4.58,1.99,3.75-.38-.14.95-1.35-5.27-.94.45-1.63,1.59-2.64,3.28-2.81Z"/>
              </g>
              <g>
                <path class="cls-23" d="M245.91,279.37c1.63,3.22,3.55,5.03,7.26,5.5-2.19-3.63-3.94-3.66-7.02-5.74,4.79-3.63,11.41,5.23,7.14,7.73-3.43,2.01-11.01-3.69-7.38-7.49Z"/>
                <path class="cls-1" d="M245.91,279.37s.03-.08.23-.23c3.08,2.08,4.84,2.11,7.02,5.74-3.71-.47-5.63-2.28-7.26-5.5Z"/>
              </g>
              <g>
                <path class="cls-16" d="M264.17,278.67c-.12,6.52-9.06-1.49-6.79-5.15,1.59,2.5,5.35,1.1,6.21,6.09l.59-.94Z"/>
                <path class="cls-16" d="M264.17,278.67l-.59.94c-.86-4.98-4.62-3.59-6.21-6.09,3.67-.4,6.87,1.03,6.79,5.15Z"/>
              </g>
              <path class="cls-8" d="M184.56,303.72c-1.33-1.09.74-5.03,3.04-5.85.06.34.95,1.66.94,1.76-.04.28-3.72,3.97-3.98,4.1Z"/>
              <path class="cls-16" d="M303.39,282.42c1.47-.1,4.07,1.85,3.63,3.4-.28,1.01-4.41,2.18-3.63-3.4Z"/>
              <g>
                <path class="cls-23" d="M360.88,301.15c1.99,5.06-6.81,3.35-8.66-1.64,4.86-.53,5.69,1.05,8.66,1.64Z"/>
                <path class="cls-1" d="M360.88,301.15c-2.98-.59-3.81-2.17-8.66-1.64.14-1.72,6.97-2.66,8.66,1.64Z"/>
              </g>
              <g>
                <path class="cls-23" d="M347.77,294.36c3.05,5.28-12.53,7.74-11.71,1.05,1.1-1.32,1.56-1.23,1.64-1.29,2.43.3,4.45-.59,6.44-.47,1.24.07,2.43,1.14,3.63.7Z"/>
                <path class="cls-16" d="M347.77,294.36c-1.2.44-2.39-.63-3.63-.7-1.99-.12-4.01.77-6.44.47,2.44-1.83,8.35-2.74,10.07.23Z"/>
              </g>
              <g>
                <path class="cls-25" d="M352.68,302.79c.51,2.96-9.58,5.15-13.58-.12.53-.56,1.19-.95,1.87-1.29.47.57,2.54-.46,2.69-.47.17,0,.06.47.23.47,4.14-.11,4.46-.07,8.78,1.4Z"/>
                <path class="cls-8" d="M352.68,302.79c-4.32-1.48-4.64-1.51-8.78-1.4-.17,0-.06-.48-.23-.47-.15,0-2.23,1.04-2.69.47,3.24-1.63,9.54-2.15,11.71,1.4Z"/>
              </g>
              <g>
                <path class="cls-16" d="M271.2,297.87c-1.92-.68-3.7.87-5.62.94-.42-4.11,4.44-6.22,4.68-5.74-.73,1.68.17,3.34.94,4.8Z"/>
                <path class="cls-23" d="M271.2,297.87c.29.56.82.73.59.94-.22.19-3.44.23-4.92,2.81-.64-.76-1.19-1.81-1.29-2.81,1.92-.06,3.7-1.61,5.62-.94Z"/>
              </g>
              <g>
                <path class="cls-16" d="M262.77,302.09c-1.77.4-5.51,2.12-6.79.94,2.63-4.33,1.1-6.11,1.76-6.32.27-.09,2.57,2.21,5.39.7,1.37.27.16,3.77-.35,4.68Z"/>
                <path class="cls-23" d="M262.77,302.09c-1.41,2.53-5.6,4.31-7.73,1.76.15-.28.9-.77.94-.82,1.28,1.18,5.03-.53,6.79-.94Z"/>
              </g>
              <g>
                <path class="cls-16" d="M255.04,293.66c1,4.59-16.01.65-9.83-6.09,2.04.86,4.27,3.05,5.03,3.51,1.15.7,3.36,1.07,3.51,1.17.67.43.62,2.03,1.29,1.4Z"/>
                <path class="cls-8" d="M255.04,293.66c-.67.63-.62-.98-1.29-1.4-.16-.1-2.36-.47-3.51-1.17-.77-.46-3-2.65-5.03-3.51l.35-.47c2.93,3.59,8.35,1.34,9.48,6.56Z"/>
              </g>
              <g>
                <path class="cls-23" d="M326.46,284.99c-.51,1.04,1.99,2.93,2.34,4.45-3.5,4.03-7.12-1.17-10.77-1.99,1.77-3.2,2.21-1.27,5.97-1.76.13-.02,1.3-.51,2.46-.7Z"/>
                <path class="cls-16" d="M328.8,289.44c-.35-1.52-2.85-3.41-2.34-4.45.17-.03,1.69-1.21,2.81.82,1.07,1.94.37,2.67-.47,3.63Z"/>
              </g>
              <g>
                <path class="cls-25" d="M294.14,300.91c1.74,2.56,8.26,1.27,7.73-2.34.33-.16.63-.87,1.17-.12-.39,9.32-10.85,6.26-9.37,2.34l.47.12Z"/>
                <path class="cls-8" d="M294.14,300.91c4.23,1.56,5.94-1.48,7.73-2.34.53,3.61-5.99,4.9-7.73,2.34Z"/>
              </g>
              <path class="cls-16" d="M279.74,268.37c7,.8,6.04-.04.94,2.34-.59-.91-1.77-2.01-.94-2.34Z"/>
              <g>
                <path class="cls-16" d="M258.08,281.48c1.74,2.09,3.54,5,5.62,1.64,2.8.42,8.45-.06,6.91,7.26h-.7c-2.79-5.74-6.93-2.87-7.96-2.81-7.12.41-7.3-6.29-3.86-6.09Z"/>
                <path class="cls-8" d="M263.7,283.12c-2.08,3.36-3.88.45-5.62-1.64.54.03,2.2,1.46,3.16,1.64.68.13,1.73-.11,2.46,0Z"/>
              </g>
              <g>
                <path class="cls-23" d="M316.39,282.18c-.38,1.24-1.76,1.12-2.34,1.4-.17.08-.85.15-.94.35-.09.21-.23,4.44.47,4.1-.1.08-.29.49-.23.7-2.37,1.19-3.31,1.24-5.62-.35,3.82-3.17,0-6.04.23-6.32,1.1-.11,2.16-.37,3.28-.12.06.01.6.9.82.94.66.1,1.31-1.52,2.11,0,.55-.64,1.43-.86,1.29-1.87,1.01.56.9,1.11.94,1.17Z"/>
                <path class="cls-8" d="M313.35,288.74c-.05-.21.13-.62.23-.7,1.53-1.31.36-.38.47-1.29.17-1.38.45-1.78,0-3.16.59-.28,1.96-.16,2.34-1.4,1.59,2.86-.46,5.26-3.04,6.56Z"/>
                <path class="cls-25" d="M315.45,281.01c.15,1.01-.74,1.23-1.29,1.87-.8-1.52-1.45.1-2.11,0-.22-.03-.76-.92-.82-.94-.44-.47,2.77-2.17,4.21-.94Z"/>
                <path class="cls-16" d="M314.05,283.59c.45,1.38.17,1.78,0,3.16-.11.91,1.07-.02-.47,1.29-.69.34-.55-3.89-.47-4.1.08-.2.77-.27.94-.35Z"/>
              </g>
              <g>
                <path class="cls-23" d="M238.88,302.55c-.26,1.63,5.32,2.1,4.92.7.05,0,.71-.45.94-.47.73.55,2.43,1.15,1.05,2.11-3.63,1.88-7.87.72-11.36-1.05-.13-.54,1.83-1.77,2.34-1.99.46.74,1.24.61,2.11.7Z"/>
                <path class="cls-1" d="M244.74,302.79c-.23.02-.88.47-.94.47-.27.02-3.46-.55-4.92-.7-.87-.09-1.65.04-2.11-.7,2.85-1.21,5.44-.94,7.96.94Z"/>
                <path class="cls-16" d="M243.8,303.26c.41,1.4-5.17.93-4.92-.7,1.46.15,4.64.72,4.92.7Z"/>
              </g>
              <g>
                <path class="cls-16" d="M280.56,301.62c.73,1.4-1.21,1.51-2.11,1.64-.7.1-2.81-.49-3.75.23-.58-.11-2.62-.56-3.04-.7-1.75-.58-.83-1.52-2.81-.94.53-.57,1.85-1.42,2.58-1.64-1.87,1.94,1.06.8,6.67.94.44.01-.95-.83,2.46.47Z"/>
                <path class="cls-23" d="M281.03,301.62c.51.4.97.81,1.4,1.29-2.31,2.3-5.68,3.06-8.9,2.69,2.27-1.28-4.28-1.03-1.87-2.81.43.14,2.47.6,3.04.7.21.04,2.58,1.43,3.75-.23.9-.13,2.83-.24,2.11-1.64.31.12.44.41.47,0Z"/>
                <path class="cls-23" d="M271.67,302.79c-2.4,1.78,4.14,1.53,1.87,2.81-2.04-.24-4.26-.89-5.62-2.46-.03-.27.71-1.05.94-1.29,1.98-.58,1.06.35,2.81.94Z"/>
                <path class="cls-8" d="M281.03,301.62c-.03.41-.15.12-.47,0-3.41-1.3-2.02-.46-2.46-.47-5.62-.13-8.54,1.01-6.67-.94,2.8-.84,7.21-.47,9.6,1.4Z"/>
                <path class="cls-23" d="M278.46,303.26c-1.17,1.66-3.53.27-3.75.23.93-.72,3.05-.14,3.75-.23Z"/>
              </g>
            </g>
          </g>
        </g>
      </g>
    </g>
  </g>
  <g>
    <g id="Background-2" data-name="Background">
      <rect class="cls-10" x="-.73" y="-.7" width="501.47" height="501.4"/>
      <path class="cls-6" d="M14.98,368.99c-1.73,3.94-5.08,6.69-3.43,11.51,1.63,4.75,6.81,3.99,7.83,4.16-4.71,6.6-9.81,19.68,1.71,22.52,5.34,1.31,92.38,4.41,109.68,7.34l1.22-.98c48.42,6.72,113.91,9.02,162.8,6.85,18.41-.82,63.33-4.09,80.54-6.37,26.13-.52,52.43-3.53,78.59-5.39,7.08-.5,27.64-.52,29.87-.98,9.59-1.97,6.75-17.54-.24-23.01,11.55-1.68,6.92-8.51,3.43-15.67,1.48-7.05,7.61-10.33,13.71-5.88-.03,30.68.11,61.37,0,92.05H-.69c-.11-30.36.03-60.71,0-91.07,7.2-5.57,12.5-3.23,15.67,4.9Z"/>
      <path class="cls-12" d="M185.86-.68c-37.25,6.43-72.7,20.56-105.52,39.17-24.02,13.62-38.07,25.6-46.27,53.12-1.64,32.83,1.41,227.14-.49,238.94-.43,2.7-15.69,31.79-18.61,38.44-3.17-8.13-8.47-10.47-15.67-4.9C-.8,242.5-.61,120.91-.69-.68c62.18-.03,124.37.04,186.55,0Z"/>
      <path class="cls-12" d="M316.1-.68c61.53.04,123.06-.03,184.59,0-.08,121.26.1,242.53,0,363.79-6.1-4.45-12.23-1.18-13.71,5.88-6.31-12.93-14.69-25.21-19.59-38.93V93.57c-4.83-17.35-13.97-33.45-28.64-44.31-12.15-8.99-56.46-30.6-71.49-36.23-16.67-6.25-33.76-10.18-51.17-13.71Z"/>
      <path class="cls-26" d="M500.69,476.22c-.07,8.16.05,16.32,0,24.48H-.69c-.05-8.16.07-16.32,0-24.48h501.38Z"/>
      <path class="cls-3" d="M500.69,455.16c-.02,7.02.06,14.04,0,21.05H-.69c-.06-7.02.02-14.04,0-21.05h501.38Z"/>
      <path class="cls-13" d="M24.28,384.66c.35.1.67.31.98.49.97.57,1.19,6.69,18.36,11.75,10.07,2.97,74.87,14.77,88.38,16.65l-1.22.98c-17.3-2.93-104.34-6.03-109.68-7.34-11.52-2.84-6.43-15.93-1.71-22.52,1.42.23,3.87-.29,4.9,0Z"/>
      <path class="cls-13" d="M477.19,384.66c1.29-.33,4.5.27,6.37,0,7,5.47,9.84,21.05.24,23.01-2.23.46-22.79.48-29.87.98-26.16,1.85-52.46,4.87-78.59,5.39,12.6-1.67,73.41-13.42,83.48-16.65,16.9-5.42,16.21-11.42,17.38-12.24.4-.28.03-.25.98-.49Z"/>
      <path class="cls-22" d="M382.44,437.54c8.85-1.7,10.21,11.35,2.45,12.24-8.06.92-9.11-10.96-2.45-12.24Z"/>
      <path class="cls-22" d="M43.62,437.54c10.03-1.85,9.6,14.35-.98,11.75-5.38-1.32-4.66-10.71.98-11.75Z"/>
      <path class="cls-22" d="M132.24,437.54c9.21-1.7,9.52,11.63,1.96,12.24-7.66.62-8.81-10.98-1.96-12.24Z"/>
      <path class="cls-26" d="M28.44,437.54c9.17-.39,8.13,13.6-1.47,11.75-6.4-1.23-5.04-11.47,1.47-11.75Z"/>
      <path class="cls-22" d="M470.58,437.54c8.1-.85,8.47,10.42,2.94,11.75-9.48,2.29-10.54-10.95-2.94-11.75Z"/>
    </g>
    <g>
      <path class="cls-18" d="M316.1-.68c17.4,3.53,34.5,7.46,51.17,13.71,15.03,5.64,59.34,27.24,71.49,36.23,14.67,10.86,23.81,26.96,28.64,44.31v236.49c4.9,13.71,13.27,25.99,19.59,38.93,3.5,7.16,8.12,13.99-3.43,15.67-1.87.27-5.08-.33-6.37,0v-.49c2.14-6.45-15.15-37.53-18.61-41.86-1.77-2.21-4.04-4.01-6.37-5.63-11.49-8.04-22.64-5.78-23.75-6.37-.48-.25-.14-1.04-.24-1.47V124.91c1.27-62.29-108.94-90-156.44-94.25-53.04-4.75-126.67,11.43-170.39,43.09-17.43,12.62-24.19,24.2-28.64,45.29v210.3c-.77.06-.34.95-.73.98-5.73.5-13.49-.36-21.79,4.41-9.7,5.57-26.49,37.62-25.95,49.45v.49c-1.02-.29-3.47.23-4.9,0-1.02-.17-6.2.59-7.83-4.16-1.65-4.82,1.7-7.57,3.43-11.51,2.92-6.65,18.17-35.74,18.61-38.44,1.9-11.8-1.15-206.11.49-238.94,8.2-27.53,22.25-39.5,46.27-53.12C113.16,19.88,148.61,5.75,185.86-.68c43.41-.03,86.83-.03,130.24,0Z"/>
      <path class="cls-2" d="M428.22,328.84q-11.63.24-23.26.49-.12,3.92-.24,7.83c-1.24-1.13,0-3.41-.49-4.65-.18-.44-.95-.18-.98-.24-2.63-5.7-11.41-8.9-16.65-5.88-1.44-2.07-.94-3.02-1.47-3.92,4.81-1.25,11.45,3.62,11.75,2.69-.08-39.58.55-79.15.49-118.74-.01-7.19-.44-14.39-.49-21.54-.08-12.78,1.83-41.54.49-52.15-.53-4.21-6.88-19.73-9.3-23.99-7.6-13.4-19.68-23.66-33.54-30.11-4.32-2.01-9.07-2.84-13.46-4.41-.3-.11-1.23-1.54-5.63-2.94-4.3-1.36-9.06-2.32-13.46-3.43-9.73-2.45-18.47-4.08-28.4-5.39-6.99-.92-10.9-1.03-17.63-1.47-26.16-1.7-51.97-1.12-77.85,3.92-14.43,2.81-14.88-.4-19.1,16.16-2.75-.31,3.86-12.34,3.18-12.73-6.02,1.4-12.2,2.63-18.12,4.41-9.32,2.8-28.17,10.38-35.74,16.16-12.01,9.17-22.83,28.87-24.73,43.82-1.44,11.38-.4,57.38-.49,74.18-.2,38.68.15,77.36,0,116.04-1.21.71-4.33,5.05-4.41,5.39l-.24-.98c-1.81,2.24-2.58,1.84-2.69,1.96-7.45.4-15.66-.54-23.01,0V119.03c4.46-21.09,11.22-32.67,28.64-45.29,43.72-31.66,117.35-47.84,170.39-43.09,47.5,4.26,157.7,31.96,156.44,94.25v203.93Z"/>
      <path class="cls-26" d="M476.21,385.15c-1.17.82-.48,6.82-17.38,12.24-10.07,3.23-70.89,14.98-83.48,16.65-17.21,2.28-62.13,5.55-80.54,6.37-48.89,2.17-114.39-.14-162.8-6.85-13.51-1.87-78.3-13.68-88.38-16.65-17.17-5.06-17.39-11.18-18.36-11.75h450.95Z"/>
      <g>
        <g>
          <path class="cls-23" d="M303.86,183.42c3.66,1.67,8.16.84,12.24.98,5.86.2,11.76-.1,17.63,0,5.06.09,10.12-.05,15.18,0,15.99.17,31.98.87,47.98.49.05,7.16.48,14.36.49,21.54q-109.68.24-219.35.49c0-.34-.13-.85.24-.98,1.68-.58,23.18.44,28.4,0v-.98c-5.46-1.06-2.22-4.92-2.69-9.55-.15-1.48-5.16-8.14,3.43-10.53.33,0,.65,0,.98,0,3.6.04,7.18-.02,10.77,0,2.28.01,4.57,0,6.85,0,11.56.03,33.26.84,41.86.49.65-.03.97-1,1.22-1.47,1.5.9,3.67.38,5.39.49,3.99.26,7.81-.34,11.75-.49.78-.03,6.39,1.72,7.83-.49,1.15,1.55,10.01,1.52,9.79,0Z"/>
          <path class="cls-25" d="M156.97,121.24c2.07,15.71,9.73,30.68,8.81,34.52-.37,1.55-12.69,10.7-12.73,27.91.56,1.26,10.73.7,12.73.73,4.82.09,9.41-.27,14.2-.49,1.36-.06,6.87,1.72,11.26-.98-.61,2.57,4.56,1.82,7.83,1.96,2.76.11,5.56-.04,8.32,0-8.59,2.38-3.58,9.04-3.43,10.53.47,4.63-2.76,8.49,2.69,9.55v.98c-5.22.44-26.72-.58-28.4,0-.38.13-.25.64-.24.98h-41.13c.75-1.68-2.7-2-2.94-2.69-.78-2.3,5.39-17.03-1.47-21.05,1.78-7.49,18.73-57.62,20.56-60.22,1.28-1.82,1.56-.97,3.92-1.71Z"/>
        </g>
        <g>
          <path class="cls-20" d="M275.95,61.01c5.7,15.17,21.67,30.98,11.26,47.74-2.08,3.35-13.37,13.29-15.67,22.52-4.22,16.93,10.73,36.14,14.69,52.64-3.94.15-7.76.75-11.75.49-1.6-8.15-1.84-21.79-3.92-29.13-3.14-11.13-14.74-17.93-11.26-33.29,1.66-7.35,17.35-25.77,3.67-38.44-7.59.47.07,6.42-3.18,16.4-1.95,6-22.67,27.85-8.32,57.29.7,1.44,16.26,25.86,17.63,26.68-.26.47-.57,1.44-1.22,1.47-8.61.35-30.3-.46-41.86-.49,8.49-9.82,12.67-21.21,3.92-32.56-7.31-9.48-16.83-8.7-14.69-3.43.81,1.99,23.75,8.85,3.92,35.99-3.59-.02-7.18.04-10.77,0,17.44-19.02-7.75-36.75-14.69-52.64-8.54-19.54-5.69-48.7,4.41-67.32,25.88-5.04,51.69-5.61,77.85-3.92Z"/>
          <path class="cls-16" d="M396.89,184.89c-16,.38-31.99-.32-47.98-.49,16.73-29.07-24.34-30.49-20.56-53.61.82-5.04,19.94-34.54,12.73-56.55,4.4,1.56,9.15,2.4,13.46,4.41,13.86,6.46,25.94,16.71,33.54,30.11,2.42,4.26,8.77,19.78,9.3,23.99,1.34,10.6-.57,39.36-.49,52.15Z"/>
          <path class="cls-5" d="M179,81.09c-.63,2.46-.43,4.91-.98,7.34-1.13-2.82.61-4.55-3.92-2.94-.82-10.77-11.97-.58-15.67,9.06-3.37,8.79-2.67,17.54-1.47,26.68-2.36.75-2.64-.1-3.92,1.71-1.84,2.61-18.79,52.74-20.56,60.22,6.86,4.02.69,18.75,1.47,21.05.24.69,3.69,1.02,2.94,2.69h-33.78c.08-16.8-.95-62.8.49-74.18,1.9-14.95,12.71-34.65,24.73-43.82,7.57-5.78,26.43-13.36,35.74-16.16,5.91-1.78,12.1-3.01,18.12-4.41.68.39-5.93,12.42-3.18,12.73Z"/>
          <path class="cls-16" d="M321.98,67.87c6.29,15.87-1,30.85-8.32,45.05-1.81,3.51-2.35,6.15-3.43,4.9,3.49-22.74-4.87-36.91-16.65-55.33,9.93,1.31,18.67,2.93,28.4,5.39Z"/>
          <path class="cls-7" d="M226.01,184.89c-2.28,0-4.57.01-6.85,0,19.83-27.14-3.11-34-3.92-35.99-2.15-5.28,7.38-6.05,14.69,3.43,8.75,11.35,4.57,22.75-3.92,32.56Z"/>
          <g>
            <path class="cls-7" d="M198.1,64.93c-10.1,18.62-12.94,47.78-4.41,67.32,6.94,15.88,32.13,33.62,14.69,52.64-.33,0-.65,0-.98,0-2.77-.04-5.56.11-8.32,0,10.62-9.07,4.47-23.1-1.71-21.05-3.42,1.13,1.77,14.25-6.12,19.1-4.4,2.7-9.9.92-11.26.98-4.44-5.94,2.25-7.6,2.45-8.08.58-1.37.68-13.51-3.67-12.49l-12.98,21.05c-2-.04-12.17.53-12.73-.73.04-17.2,12.36-26.36,12.73-27.91.92-3.83-6.74-18.81-8.81-34.52-1.21-9.14-1.9-17.89,1.47-26.68,3.7-9.64,14.84-19.83,15.67-9.06.47,6.2-5.81,10.27-4.16,11.26,5.72.47,7.02-3.64,8.08-8.32.55-2.44.35-4.88.98-7.34,4.22-16.56,4.66-13.35,19.1-16.16Z"/>
            <path class="cls-25" d="M178.02,88.43c-1.05,4.68-2.36,8.8-8.08,8.32-1.65-.99,4.64-5.06,4.16-11.26,4.53-1.61,2.78.12,3.92,2.94Z"/>
          </g>
          <path class="cls-16" d="M333.73,184.4c-5.87-.1-11.77.2-17.63,0,5.01-7.71,4.68-19.6,11.02-19.1,6.22,3.5,5.58,12.78,6.61,19.1Z"/>
          <path class="cls-16" d="M299.45,171.18c-.37,4.31-.49,10.01,4.41,12.24.21,1.52-8.64,1.55-9.79,0,.37-.57,2.88-11.19,3.43-13.22q.37,2.69.73,5.39c.77,0-.65-5.02,1.22-4.41Z"/>
          <path class="cls-16" d="M179.98,183.91c-4.79.22-9.38.58-14.2.49l12.98-21.05c4.35-1.02,4.25,11.12,3.67,12.49-.2.47-6.89,2.14-2.45,8.08Z"/>
          <path class="cls-16" d="M199.08,184.89c-3.27-.14-8.44.61-7.83-1.96,7.89-4.85,2.7-17.97,6.12-19.1,6.18-2.04,12.33,11.98,1.71,21.05Z"/>
          <g>
            <path class="cls-7" d="M341.07,74.23c7.21,22.01-11.91,51.51-12.73,56.55-3.77,23.13,37.29,24.55,20.56,53.61-5.06-.05-10.12.09-15.18,0-1.03-6.32-.39-15.59-6.61-19.1-6.34-.51-6.01,11.38-11.02,19.1-4.08-.14-8.58.69-12.24-.98-4.9-2.23-4.78-7.93-4.41-12.24.64-7.4,11.53-46.27,14.2-58.27,7.32-14.2,14.61-29.18,8.32-45.05,4.4,1.11,9.17,2.07,13.46,3.43,4.4,1.39,5.33,2.83,5.63,2.94Z"/>
            <path class="cls-7" d="M293.58,62.48c11.77,18.41,20.14,32.59,16.65,55.33-.85,5.57-10.33,43.55-12.73,52.39-.55,2.03-3.05,12.65-3.43,13.22-1.44,2.21-7.06.46-7.83.49-3.95-16.49-18.9-35.71-14.69-52.64,2.3-9.23,13.59-19.17,15.67-22.52,10.41-16.76-5.56-32.57-11.26-47.74,6.73.44,10.64.55,17.63,1.47Z"/>
            <path class="cls-7" d="M274.48,184.4c-1.72-.11-3.89.41-5.39-.49-1.37-.82-16.93-25.25-17.63-26.68-14.35-29.43,6.37-51.29,8.32-57.29,3.25-9.99-4.41-15.93,3.18-16.4,13.68,12.67-2.01,31.09-3.67,38.44-3.48,15.37,8.12,22.17,11.26,33.29,2.07,7.34,2.31,20.98,3.92,29.13Z"/>
            <path class="cls-11" d="M299.45,171.18c-1.87-.61-.46,4.4-1.22,4.41q-.37-2.69-.73-5.39c2.4-8.84,11.88-46.82,12.73-52.39,1.08,1.26,1.62-1.39,3.43-4.9-2.67,11.99-13.56,50.87-14.2,58.27Z"/>
          </g>
        </g>
        <g>
          <path class="cls-17" d="M385.14,322.47c-1.77-3.02-4.19-4.75-7.83-4.9,1.28-.61,2.32-.45,2.45-.73-12.93-9.9-16.04-8.11-16.89-8.57-1.16-.62-2.02-3.82-3.92-4.9-.52-.29-.91.66-1.22.49-1.98-1.07-4.2-2.31-6.37-2.94-4.81-6.2-15.5-3.19-17.38-3.43-.68-.09-8.07-4.63-12.49-1.47-3.09.17-11.06,1.94-14.2,2.94l-.49-1.47c3.25-.53,6.41-1.59,9.3-3.18-2.88-4.6-30.69-3.78-20.07,2.2-.67.82-.67.22-.98,1.47-5.03-4.52-9.92-6.12-16.65-4.9,1.2-3.06,8.35.14,8.32-1.71-11.63-5.65-20.67-3.03-21.79-3.18-2.29-.3-7.45-3.14-9.79-3.43-8.06-.99-12.36,3.26-13.22,3.43-1.25.24-16.54-6.65-20.32-1.96-2.62.43-4.38,2.01-5.88,2.45-.08.02-.29-1.17-1.22-.98-1.56.32,2.02,3.74-3.18,4.41-3.43-.49-6.97-.76-10.28.49-2.81-1.21-24.41-.83-24.48,2.45-.16.03-.33-.03-.49,0-.08.02-1.04-1.02-1.22-.98-.23.05-.58,1.41-3.92,2.45-14.54,4.52-16.52,8.19-18.61,8.81-1.45.44-8.61.56-10.77,1.47-2.57,1.08-4.82,5.9-5.88,6.37-3.79,1.68-7.65-6.18-21.79,10.28-3.74-2.14-5.91-1.76-9.79-.49-.05.02.16-.67-.98,0,.15-38.68-.2-77.36,0-116.04h74.91q109.68-.24,219.35-.49c.06,39.58-.57,79.15-.49,118.74-.3.92-6.94-3.95-11.75-2.69Z"/>
          <path class="cls-23" d="M240.94,227c38.66-2.29,74.48,9.01,100.13,38.93q-89.72.37-179.45.73l-.73-.73c20.04-23.71,49.22-37.1,80.05-38.93Z"/>
          <g>
            <path class="cls-26" d="M164.07,220.63c16.82-3.18,19.73,20.83,5.88,23.01-15.9,2.5-18.48-20.63-5.88-23.01Z"/>
            <path class="cls-17" d="M165.54,221.61c6.9-1.05,17.46,9.27,7.34,10.28.8-12.38-16.7-3.95-7.34-10.28Z"/>
          </g>
          <g>
            <path class="cls-2" d="M332.01,218.67c4.13-.44,11.81,2.42,13.95,6.12,5,8.61-.2,19.63-10.04,20.81-18.96,2.27-18.57-25.35-3.92-26.93Z"/>
            <path class="cls-26" d="M327.85,223.57c2.02,1.73-1.09,2.13-.24,4.41,2.23-2.73,6.2-4.15,9.55-3.43,3.68.79,3.69,6.5,2.94,9.55,2.87,2.1,3.47-.55,3.92-2.69.02-.1,1.18-.07,0-1.96,2.18-3.22,2.49,6.02,0,9.55-2.58,3.65-6.05,3.33-8.08,5.14-12.9.48-17.58-14.02-8.08-20.56Z"/>
            <path class="cls-26" d="M337.15,224.55c-3.35-.72-7.31.7-9.55,3.43-.84-2.28,2.26-2.68.24-4.41,3.05-2.1,5.58-3.1,9.55-2.45,7.87,1.3.7,1.63-.24,3.43Z"/>
            <path class="cls-9" d="M344.01,229.45c1.18,1.89.02,1.86,0,1.96-6.68-1.61-.58-7.25,0-1.96Z"/>
          </g>
        </g>
      </g>
      <g>
        <path class="cls-21" d="M459.07,369.48c2.82,2.18,7.27,9.76,7.34,11.02.13,2.3-3.69,2.71-2.69,3.67h13.46v.49c-.95.24-.58.21-.98.49H25.26c-.31-.18-.63-.39-.98-.49v-.49h12.49c-4.41-4.97-.47-4.32.24-6.12.28-.71.13-3.24.49-3.92.82-1.52,3.66-2.42,4.41-5.14,139.04,1.23,278.11.11,417.16.49Z"/>
        <path class="cls-21" d="M452.22,336.67c2.32,1.62,4.6,3.42,6.37,5.63,3.46,4.33,20.75,35.41,18.61,41.86h-13.46c-1-.96,2.83-1.37,2.69-3.67-.07-1.26-4.52-8.84-7.34-11.02,1.27-6.27-8.93-23.77-13.71-27.42,3.38-1.3-.48-7.92,6.85-5.39Z"/>
        <path class="cls-21" d="M54.64,342.06c-5.27,4.38-11.12,17.65-13.22,24.24-.43,1.35.53,2.56.49,2.69-.75,2.72-3.59,3.62-4.41,5.14-.36.68-.21,3.21-.49,3.92-.72,1.8-4.66,1.15-.24,6.12h-12.49c-.54-11.83,16.25-43.88,25.95-49.45-.66,2.64,2.79.8,4.41,7.34Z"/>
        <path class="cls-14" d="M452.22,336.67c-7.34-2.54-3.48,4.08-6.85,5.39-8.05-6.13-21.94-3.48-31.83-3.92-1.39-.06-5.12.03-5.39,0-.94-.11-2.8-.41-3.43-.98q.12-3.92.24-7.83,11.63-.24,23.26-.49c.11.43-.24,1.22.24,1.47,1.11.58,12.26-1.67,23.75,6.37Z"/>
        <path class="cls-14" d="M95.77,329.33c-2.31,2.31-2.86,5.67-3.92,7.83-.47.96-.95.92-.98.98-2.35-1.18-4.6-.07-6.85,0-9.34.3-22.05-2.17-29.38,3.92-1.62-6.55-5.06-4.7-4.41-7.34,8.3-4.77,16.06-3.91,21.79-4.41.4-.03-.03-.92.73-.98,7.35-.54,15.56.4,23.01,0Z"/>
        <g>
          <path class="cls-23" d="M377.3,317.58c3.65.15,6.07,1.87,7.83,4.9.53.9.03,1.84,1.47,3.92.83,1.2,1.41,1.38,1.47,1.47,4.29,13.61-19.43,24.1-26.44,12.49l.73-.73c23.75,2,12.11-20.37,12.98-21.79.34-.56,1.55-.05,1.96-.24Z"/>
          <path class="cls-23" d="M403.25,332.27c-6.46,7.87-11.22,1.34-15.18-4.41-.06-.09-.63-.26-1.47-1.47,5.24-3.02,14.01.18,16.65,5.88Z"/>
          <path class="cls-16" d="M98.7,328.35c-1.4,5.88,3.97,9.99-6.85,8.81,1.06-2.17,1.61-5.52,3.92-7.83.12-.12.88.28,2.69-1.96l.24.98Z"/>
          <path class="cls-16" d="M90.87,338.14c-.52,1.23-2.38,4.63-2.45,4.9l-11.75,4.41c.09-3.9,4.64-7.11,7.34-9.3,2.26-.07,4.51-1.18,6.85,0Z"/>
          <path class="cls-16" d="M321.49,296.03c1.48-.08,9.31-.39,9.3,1.22-6.19,5.08-13.44,7.59-21.3,8.57-26.47-.48-4.58,2.8,7.34.49,4.22,9.68-19.78,13.87-27.66,6.12.25-5.14,5.78-5.33,6.12-5.63.36-.31-.85-1.47,1.96-3.43,2.97-2.06,6.62-3.32,10.04-4.41,3.14-.99,11.11-2.77,14.2-2.94Z"/>
          <path class="cls-16" d="M113.88,323.45c-1.06,3.26,10.84,9.19,3.67,20.56-7.11-6.6-20.4-8.15-13.46-21.05,3.89-1.27,6.05-1.65,9.79.49Z"/>
          <path class="cls-16" d="M215.73,288.69c1.5-.43,3.26-2.02,5.88-2.45,7.64-1.24,16.93-.57,21.54,6.61-6.43,6.89-22.75,3.47-27.42-4.16Z"/>
          <path class="cls-16" d="M295.05,297.99c-.3,1.21.66,5.01-4.65,5.88-2.43.4-20.28-2.94-20.81-4.16.62-3.9,5.25-5.96,8.81-6.61,6.73-1.22,11.62.38,16.65,4.9Z"/>
          <path class="cls-16" d="M211.32,292.12c12.43,1.76-4.08,3.82,9.3,20.32-14.28,5.87-8.08-14.88-19.59-19.83,3.31-1.25,6.85-.98,10.28-.49Z"/>
          <path class="cls-16" d="M306.8,297.5c-3.84.62-6.87,1.22-10.77-.98-10.61-5.98,17.19-6.8,20.07-2.2-2.89,1.59-6.05,2.66-9.3,3.18Z"/>
          <path class="cls-16" d="M351.35,300.93c2.16.63,4.39,1.86,6.37,2.94-2.26,4.71-6.76,7.97-11.51,9.79-5.57-3.7,4.18-2.29,3.18-13.46.23-.44,1.25.53,1.96.73Z"/>
          <path class="cls-23" d="M88.42,343.04c-2.55,10.06,5.33,7.93-7.1,11.75-2.45-1.19-4.71-4.65-4.65-7.34l11.75-4.41Z"/>
          <path class="cls-8" d="M186.84,298.97c-1.24-2.68-5.72-1.46-9.3-4.41,15.8-2.36,11.2-1.37,9.3,4.41Z"/>
          <g>
            <path class="cls-26" d="M278.4,293.1c-3.56.65-8.19,2.71-8.81,6.61.53,1.22,18.38,4.56,20.81,4.16,5.31-.87,4.35-4.67,4.65-5.88.31-1.25.31-.64.98-1.47,3.91,2.2,6.94,1.6,10.77.98l.49,1.47c-3.42,1.08-7.07,2.34-10.04,4.41-2.81,1.96-1.6,3.11-1.96,3.43-.34.3-5.87.49-6.12,5.63,7.88,7.75,31.89,3.56,27.66-6.12-11.92,2.31-33.82-.97-7.34-.49,7.86-.98,15.11-3.48,21.3-8.57,0-1.61-7.82-1.31-9.3-1.22,4.41-3.17,11.81,1.38,12.49,1.47,1.88.24,12.57-2.77,17.38,3.43-.71-.21-1.73-1.17-1.96-.73,1,11.17-8.75,9.76-3.18,13.46,4.75-1.83,9.24-5.08,11.51-9.79.31.17.71-.78,1.22-.49,1.9,1.07,2.76,4.28,3.92,4.9.86.46,3.96-1.33,16.89,8.57-.13.29-1.17.12-2.45.73-.41.2-1.62-.31-1.96.24-.86,1.41,10.77,23.79-12.98,21.79l-.73.73c7.01,11.61,30.73,1.12,26.44-12.49,3.96,5.74,8.72,12.28,15.18,4.41.03.06.8-.2.98.24.49,1.24-.75,3.52.49,4.65.63.57,2.48.87,3.43.98,10.21,6.93,1.17,12.16,8.08,14.2,2.99-.13,4.09-8.62-2.69-14.2,9.88.44,23.78-2.22,31.83,3.92,4.78,3.65,14.98,21.15,13.71,27.42-139.05-.38-278.12.74-417.16-.49.04-.13-.92-1.35-.49-2.69,2.1-6.58,7.95-19.86,13.22-24.24,7.33-6.09,20.04-3.62,29.38-3.92-2.7,2.19-7.25,5.4-7.34,9.3-.06,2.69,2.2,6.16,4.65,7.34,12.43-3.82,4.55-1.69,7.1-11.75.07-.27,1.93-3.66,2.45-4.9.03-.06.51-.02.98-.98,10.82,1.18,5.46-2.94,6.85-8.81.08-.34,3.19-4.68,4.41-5.39,1.14-.67.93.02.98,0-6.94,12.9,6.36,14.45,13.46,21.05,7.16-11.37-4.73-17.3-3.67-20.56,14.13-16.46,18-8.61,21.79-10.28,1.05-.47,3.31-5.29,5.88-6.37,2.17-.91,9.32-1.03,10.77-1.47,2.09-.63,4.06-4.29,18.61-8.81,3.34-1.04,3.69-2.4,3.92-2.45.18-.04,1.15.99,1.22.98,12.54,14.32,10.29,5.38,10.77,3.92,1.9-5.77,6.49-6.77-9.3-4.41-.45.07-.52.41-.98.49.07-3.28,21.68-3.65,24.48-2.45,11.51,4.95,5.31,25.7,19.59,19.83-13.38-16.5,3.13-18.56-9.3-20.32,5.2-.66,1.62-4.09,3.18-4.41.94-.19,1.15,1,1.22.98,4.67,7.63,20.99,11.05,27.42,4.16-4.61-7.18-13.9-7.85-21.54-6.61,3.78-4.7,19.07,2.19,20.32,1.96.86-.16,5.16-4.42,13.22-3.43,2.34.29,7.5,3.12,9.79,3.43,1.12.15,10.16-2.47,21.79,3.18.02,1.85-7.12-1.34-8.32,1.71Z"/>
            <g>
              <path class="cls-16" d="M413.54,338.14c6.79,5.58,5.68,14.07,2.69,14.2-6.91-2.04,2.13-7.27-8.08-14.2.27.03,4-.06,5.39,0Z"/>
              <path class="cls-16" d="M186.84,298.97c-.48,1.46,1.77,10.4-10.77-3.92.16-.03.33.03.49,0,.46-.08.53-.42.98-.49,3.59,2.95,8.06,1.73,9.3,4.41Z"/>
              <path class="cls-16" d="M263.46,301.91c6.7,2.65,27.19,1.8,22.03,11.26-5.82-.1-9.9,1.36-15.67-.98,6.69,2.41-8.59,15.57-16.16,16.65-3.93-1.18-1.01-16.73,13.95-17.87-2.4-.23-6.6-8.09-4.16-9.06Z"/>
              <path class="cls-23" d="M152.32,345.98c12.15-1.42,28.86,20.12,3.92,18.61-19.26-1.17-16.3-17.16-3.92-18.61Z"/>
              <path class="cls-16" d="M273.75,344.02c5.08-1.79,23.31,6.4,19.34,14.93-11.18,10.26-17.02-3.07-25.95-8.32,3.71-2.37,6.17-6.45,6.61-6.61Z"/>
              <path class="cls-23" d="M340.83,344.51c6.92-1.14,19.93.8,24.73,6.61-7.62,12.67-24.01,8.88-29.87-3.92.13-.91,4.28-2.55,5.14-2.69Z"/>
              <path class="cls-16" d="M262,329.33c13.14-2.24,12.65,12.61,2.94,18.12-16.56,9.39-15.42-15.98-2.94-18.12Z"/>
              <path class="cls-16" d="M178.27,306.81c14.83-2.55,14.7,14.16,8.32,15.18-2.24.36-7.76-5.2-14.69,2.94-11.8-2.66-.51-16.93,6.37-18.12Z"/>
              <path class="cls-16" d="M317.81,331.29c6.09-1.13,13.99,6.24,18.36,10.04-4.4,4.38-6.6,1.56-11.51,2.2-6.66.88-7.19,8.84-15.91-5.14,2.02-1.4,7.26-6.77,9.06-7.1Z"/>
              <path class="cls-16" d="M282.07,316.6c14.52-1.18,19.56,11.52-9.3,14.69-9.09-5.66,2.84-14.17,9.3-14.69Z"/>
              <path class="cls-16" d="M162.11,319.05c4.42,10.88-9.76,27.69-18.36,13.95,1.38-10.21,9.61-11.93,18.36-13.95Z"/>
              <path class="cls-16" d="M336.91,298.97c20.62-2.77-2.98,21.14-17.38,13.95-1.74-4.89,13.22-13.39,17.38-13.95Z"/>
              <path class="cls-16" d="M147.91,306.32c7.26-1.07,14.46,2.67,21.79,1.22-6.87,10.5-20.73,12.42-29.87,3.92-.27-2.15,6.51-4.91,8.08-5.14Z"/>
              <path class="cls-23" d="M127.35,341.08c3.48-.64,7.44.98,7.83.98,7.99.06,11.55-1.48,13.46,1.22-9.49,7.5-16.87,14.18-27.91,4.41-.41-2.09,4.64-6.25,6.61-6.61Z"/>
              <path class="cls-16" d="M120,323.45c6.64-2.48,18.29,10.04,22.77,14.44-10.21,3.92-24.61-2.21-22.77-14.44Z"/>
              <path class="cls-16" d="M356.98,310.72c4.57-.81,12.57.26,15.91,4.16.22,2.81-23.38,13.06-25.46.98,2.61-1.09,7.06-4.7,9.55-5.14Z"/>
              <path class="cls-16" d="M166.52,328.35c4.17-1.8,15.98,5.79,4.9,13.71-6.53,4.66-8.08,2.96-13.46-1.71,6.22-4.91,7.88-11.7,8.57-12Z"/>
              <path class="cls-16" d="M283.54,333.25c8.73-.95,16.17,8.91,10.77,16.65-6.86-8.33-18.49-9.01-18.85-10.04.51-3.14,5.24-6.3,8.08-6.61Z"/>
              <path class="cls-16" d="M255.14,302.4c11.53-.37-4.09,16.04-9.3,15.18-14.51-3.45,2.87-14.97,9.3-15.18Z"/>
              <path class="cls-16" d="M178.76,322.96c4.84-.88,6.31,4.1,13.71,0,2.04,7.47-5.65,16.54-13.22,11.75-4.78-3.03-5.99-10.75-.49-11.75Z"/>
              <path class="cls-16" d="M128.82,314.15c9.99-1.32,20.84,7.19,10.28,15.18-6.08-6.57-8.57-9.44-17.87-11.02,1.74-1.95,5.03-3.82,7.59-4.16Z"/>
              <path class="cls-16" d="M193.94,294.08c5.78-.2,11.05,5.6,10.04,11.51-8.78-.42-10.98,6.46-12,6.12-4.01-6.31-3.81-12.66,1.96-17.63Z"/>
              <path class="cls-16" d="M344.25,332.27c7.19-1.5,14.35,3.71,14.93,11.02-9.61-4.13-17.43-1.2-21.05-6.85,0-.37,5.48-4.03,6.12-4.16Z"/>
              <path class="cls-16" d="M246.33,294.08c9.19-1.55,12.61,5.36,12,6.12-.6.74-9.04-1.64-17.87,5.63l-3.18-6.12c.07-.72,7.33-5.34,9.06-5.63Z"/>
              <g>
                <path class="cls-23" d="M114.37,345l.73,2.45c-9.14-1.13-19.09,1.86-23.75.49-1.98-7.39,13.88-11.55,23.01-2.94Z"/>
                <path class="cls-25" d="M91.36,347.94c4.66,1.37,14.6-1.62,23.75-.49l-.73-2.45c2.35,2.22,3.09,1.91.49,5.14-5.74,7.14-21.88,4.13-23.5-2.2Z"/>
              </g>
              <g>
                <path class="cls-16" d="M314.63,323.94c-7.77.86-13.96,6.12-20.56,9.79-.64-.58-2.39-.74-2.45-2.2,7.15-10.43,9.92-11.51,22.28-13.46,1.07.38.85,4.9.73,5.88Z"/>
                <path class="cls-16" d="M314.63,323.94c-.78,6.41-12.01,17.53-20.56,9.79,6.61-3.67,12.79-8.94,20.56-9.79Z"/>
              </g>
              <path class="cls-16" d="M247.8,287.22c9.22-1.05,24.69,5.4,17.63,11.75-2.91.92-4.48-3.35-12.73-6.85-1.51-.64-2.56,2.11-6.12-4.16l1.22-.73Z"/>
              <path class="cls-23" d="M306.55,339.12c7.47,7.69,1.4,14.89-8.32,12.24-.87-.99,3.46-9.91,8.32-12.24Z"/>
              <g>
                <path class="cls-23" d="M195.65,347.45c-1.73,9.84-7.61,5.02-13.46,5.39-6.19.38-7.43,5.74-12.49-2.2.28-2.04,2.21-2.84,2.94-3.67,5.17-.18,17.37-1.65,21.3-.98.69.12.53,1.84,1.71,1.47Z"/>
                <path class="cls-16" d="M195.65,347.45c-1.19.38-1.02-1.35-1.71-1.47-3.93-.67-16.13.8-21.3.98,9.21-10.55,22.54-5.19,23.01.49Z"/>
              </g>
              <g>
                <path class="cls-16" d="M217.19,356.26c-7.09,1.16-13.95-2.63-21.05-.49-.06-.09-1.6-.76-1.47-1.71,5.99-12.69,8.99,1.74,25.71-6.61.65,3.56-1.12,6.28-3.18,8.81Z"/>
                <path class="cls-23" d="M217.19,356.26c-5.89,7.22-16.65,6.14-21.05-.49,7.1-2.14,13.96,1.65,21.05.49Z"/>
              </g>
              <path class="cls-16" d="M169.95,298.97c16.43-1.8.71,11.04-12,5.14,3.42-1.8,8.19-4.72,12-5.14Z"/>
              <g>
                <path class="cls-23" d="M366.53,360.18c5.4-2.77,10.71-7.32,15.67-11.26,3.3,5.86,5.28,5.87,4.9,8.08-5.95,9.26-19.52,11.08-20.56,3.18Z"/>
                <path class="cls-16" d="M382.2,348.91c-4.96,3.95-10.27,8.49-15.67,11.26-1.18-8.9,13.38-13.91,14.44-13.71,1.26.24.3.8,1.22,2.45Z"/>
              </g>
              <g>
                <path class="cls-16" d="M239.72,331.78c8.18,2.89-2.79,13.65-12,12.73-5.93-.59-15.24-9.8-9.06-15.18,4.2,9.46,14.75,11.19,21.05,2.45Z"/>
                <path class="cls-23" d="M239.72,331.78c-6.3,8.74-16.86,7.01-21.05-2.45,11.49,8.16,15.43.46,21.05,2.45Z"/>
              </g>
              <path class="cls-25" d="M75.2,349.89c-4.81,1.73-9.15,9.95-6.37,12.24-9.29,4.54-7.02-13.02,6.12-13.22l.24.98Z"/>
              <g>
                <path class="cls-25" d="M102.62,358.22c.13.1,1.73.02,2.45,2.2-4.95,8.11-22.35,8.7-27.42.73,8.28-4.3,15.86-4.74,24.97-2.94Z"/>
                <path class="cls-8" d="M102.62,358.22c-9.11-1.8-16.69-1.36-24.97,2.94l-.49-1.22c5.96-7.34,18.3-7.03,25.46-1.71Z"/>
              </g>
              <g>
                <path class="cls-25" d="M132.98,358.71c5.11,5.65-16.53,11.7-23.99,6.61-.37-2.94.9-3.5.98-3.67,3.99.83,5.77-3.71,11.02-4.41,6.47-.86,9.66,2.4,12,1.47Z"/>
                <path class="cls-1" d="M132.98,358.71c-2.33.93-5.53-2.33-12-1.47-5.25.7-7.03,5.24-11.02,4.41,3.82-8.42,17.15-9.94,23.01-2.94Z"/>
              </g>
              <g>
                <path class="cls-23" d="M337.15,361.16c-6.29,1.27-12.45-.81-18.61-1.96-.31-1.86-.02-4.04.49-5.88,13.01-.87,10.23,1.67,11.02,1.96,4.78,1.74,3.5-3.99-4.16-7.83,7.19-.74,14.49,6.61,11.26,13.71Z"/>
                <path class="cls-25" d="M337.15,361.16c-3.18,6.99-17.04,7.35-18.61-1.96,6.16,1.15,12.32,3.23,18.61,1.96Z"/>
                <path class="cls-8" d="M325.89,347.45c7.67,3.85,8.94,9.58,4.16,7.83-.79-.29,1.99-2.83-11.02-1.96.94-3.41,3.33-5.51,6.85-5.88Z"/>
              </g>
              <g>
                <path class="cls-23" d="M197.12,311.21c3.4,6.74,7.42,10.52,15.18,11.51-4.58-7.59-8.24-7.65-14.69-12,10.02-7.59,23.86,10.93,14.93,16.16-7.17,4.2-23.01-7.72-15.42-15.67Z"/>
                <path class="cls-1" d="M197.12,311.21c.09-.1.06-.16.49-.49,6.45,4.34,10.11,4.4,14.69,12-7.76-.98-11.78-4.77-15.18-11.51Z"/>
              </g>
              <g>
                <path class="cls-16" d="M235.31,309.74c-.25,13.63-18.94-3.13-14.2-10.77,3.32,5.22,11.18,2.31,12.98,12.73l1.22-1.96Z"/>
                <path class="cls-16" d="M235.31,309.74l-1.22,1.96c-1.8-10.42-9.65-7.51-12.98-12.73,7.68-.83,14.36,2.16,14.2,10.77Z"/>
              </g>
              <path class="cls-8" d="M68.84,362.13c-2.78-2.29,1.55-10.51,6.37-12.24.12.7,1.99,3.47,1.96,3.67-.08.59-7.79,8.31-8.32,8.57Z"/>
              <path class="cls-16" d="M317.32,317.58c3.08-.2,8.51,3.86,7.59,7.1-.6,2.1-9.21,4.55-7.59-7.1Z"/>
              <g>
                <path class="cls-23" d="M437.53,356.75c4.16,10.58-14.23,7.01-18.12-3.43,10.15-1.1,11.89,2.2,18.12,3.43Z"/>
                <path class="cls-1" d="M437.53,356.75c-6.22-1.23-7.96-4.53-18.12-3.43.3-3.59,14.57-5.57,18.12,3.43Z"/>
              </g>
              <g>
                <path class="cls-23" d="M410.11,342.55c6.39,11.05-26.2,16.19-24.48,2.2,2.3-2.76,3.25-2.56,3.43-2.69,5.09.63,9.3-1.23,13.46-.98,2.6.15,5.08,2.38,7.59,1.47Z"/>
                <path class="cls-16" d="M410.11,342.55c-2.51.91-4.99-1.31-7.59-1.47-4.17-.25-8.38,1.61-13.46.98,5.1-3.82,17.46-5.73,21.05.49Z"/>
              </g>
              <g>
                <path class="cls-25" d="M420.39,360.18c1.07,6.18-20.04,10.78-28.4-.24,1.11-1.17,2.5-1.98,3.92-2.69.98,1.2,5.32-.96,5.63-.98.36-.02.13.99.49.98,8.65-.22,9.33-.15,18.36,2.94Z"/>
                <path class="cls-8" d="M420.39,360.18c-9.03-3.09-9.71-3.16-18.36-2.94-.36,0-.13-1-.49-.98-.31.02-4.65,2.18-5.63.98,6.77-3.41,19.95-4.49,24.48,2.94Z"/>
              </g>
              <g>
                <path class="cls-16" d="M250,349.89c-4.01-1.41-7.74,1.83-11.75,1.96-.88-8.59,9.28-13.01,9.79-12-1.52,3.52.35,6.98,1.96,10.04Z"/>
                <path class="cls-23" d="M250,349.89c.61,1.17,1.72,1.52,1.22,1.96-.46.4-7.2.49-10.28,5.88-1.35-1.59-2.48-3.78-2.69-5.88,4.01-.13,7.74-3.37,11.75-1.96Z"/>
              </g>
              <g>
                <path class="cls-16" d="M232.37,358.71c-3.69.84-11.52,4.43-14.2,1.96,5.51-9.05,2.31-12.78,3.67-13.22.57-.18,5.37,4.63,11.26,1.47,2.87.57.33,7.89-.73,9.79Z"/>
                <path class="cls-23" d="M232.37,358.71c-2.95,5.29-11.71,9.02-16.16,3.67.32-.59,1.89-1.6,1.96-1.71,2.68,2.47,10.51-1.12,14.2-1.96Z"/>
              </g>
              <g>
                <path class="cls-16" d="M216.22,341.08c2.1,9.61-33.47,1.36-20.56-12.73,4.26,1.81,8.93,6.37,10.53,7.34,2.41,1.46,7.02,2.24,7.34,2.45,1.41.9,1.3,4.25,2.69,2.94Z"/>
                <path class="cls-8" d="M216.22,341.08c-1.4,1.32-1.29-2.04-2.69-2.94-.33-.21-4.94-.99-7.34-2.45-1.6-.97-6.27-5.54-10.53-7.34l.73-.98c6.12,7.51,17.45,2.81,19.83,13.71Z"/>
              </g>
              <g>
                <path class="cls-23" d="M365.55,322.96c-1.07,2.17,4.15,6.13,4.9,9.3-7.31,8.43-14.88-2.45-22.52-4.16,3.7-6.68,4.62-2.65,12.49-3.67.27-.03,2.72-1.06,5.14-1.47Z"/>
                <path class="cls-16" d="M370.45,332.27c-.74-3.18-5.97-7.13-4.9-9.3.35-.06,3.54-2.54,5.88,1.71,2.23,4.06.77,5.58-.98,7.59Z"/>
              </g>
              <g>
                <path class="cls-25" d="M297.98,356.26c3.64,5.35,17.27,2.66,16.16-4.9.68-.33,1.33-1.82,2.45-.24-.81,19.49-22.7,13.09-19.59,4.9l.98.24Z"/>
                <path class="cls-8" d="M297.98,356.26c8.84,3.26,12.42-3.1,16.16-4.9,1.12,7.55-12.52,10.25-16.16,4.9Z"/>
              </g>
              <path class="cls-16" d="M267.87,288.2c14.63,1.67,12.64-.08,1.96,4.9-1.23-1.89-3.69-4.21-1.96-4.9Z"/>
              <g>
                <path class="cls-16" d="M222.58,315.62c3.63,4.38,7.4,10.46,11.75,3.43,5.86.88,17.67-.13,14.44,15.18h-1.47c-5.83-12.01-14.48-6-16.65-5.88-14.88.86-15.26-13.15-8.08-12.73Z"/>
                <path class="cls-8" d="M234.33,319.05c-4.35,7.04-8.12.95-11.75-3.43,1.13.07,4.6,3.06,6.61,3.43,1.42.26,3.62-.23,5.14,0Z"/>
              </g>
              <g>
                <path class="cls-23" d="M344.5,317.09c-.79,2.6-3.67,2.35-4.9,2.94-.35.17-1.79.32-1.96.73-.18.43-.47,9.28.98,8.57-.21.18-.6,1.03-.49,1.47-4.95,2.49-6.92,2.6-11.75-.73,7.98-6.63,0-12.63.49-13.22,2.31-.24,4.52-.78,6.85-.24.13.03,1.25,1.89,1.71,1.96,1.38.2,2.73-3.17,4.41,0,1.15-1.35,3-1.8,2.69-3.92,2.12,1.18,1.88,2.31,1.96,2.45Z"/>
                <path class="cls-8" d="M338.13,330.8c-.11-.44.28-1.29.49-1.47,3.21-2.73.75-.78.98-2.69.35-2.89.95-3.72,0-6.61,1.22-.59,4.11-.34,4.9-2.94,3.33,5.99-.96,10.99-6.37,13.71Z"/>
                <path class="cls-25" d="M342.54,314.64c.31,2.12-1.54,2.57-2.69,3.92-1.68-3.17-3.02.2-4.41,0-.46-.07-1.59-1.93-1.71-1.96-.93-.98,5.79-4.53,8.81-1.96Z"/>
                <path class="cls-16" d="M339.6,320.03c.95,2.89.35,3.72,0,6.61-.23,1.91,2.23-.04-.98,2.69-1.45.71-1.16-8.14-.98-8.57.17-.41,1.61-.57,1.96-.73Z"/>
              </g>
              <g>
                <path class="cls-23" d="M182.43,359.69c-.53,3.41,11.13,4.39,10.28,1.47.11,0,1.48-.94,1.96-.98,1.53,1.14,5.09,2.4,2.2,4.41-7.59,3.94-16.45,1.5-23.75-2.2-.28-1.13,3.83-3.71,4.9-4.16.96,1.54,2.6,1.28,4.41,1.47Z"/>
                <path class="cls-1" d="M194.67,360.18c-.48.04-1.85.97-1.96.98-.57.03-7.23-1.15-10.28-1.47-1.81-.19-3.45.07-4.41-1.47,5.96-2.54,11.38-1.97,16.65,1.96Z"/>
                <path class="cls-16" d="M192.71,361.16c.85,2.92-10.82,1.94-10.28-1.47,3.05.32,9.71,1.5,10.28,1.47Z"/>
              </g>
              <g>
                <path class="cls-16" d="M269.58,357.73c1.52,2.93-2.53,3.17-4.41,3.43-1.47.21-5.88-1.02-7.83.49-1.21-.22-5.47-1.17-6.37-1.47-3.66-1.22-1.73-3.18-5.88-1.96,1.1-1.19,3.87-2.97,5.39-3.43-3.91,4.06,2.21,1.68,13.95,1.96.93.02-1.98-1.75,5.14.98Z"/>
                <path class="cls-23" d="M270.56,357.73c1.07.84,2.03,1.69,2.94,2.69-4.83,4.82-11.89,6.41-18.61,5.63,4.74-2.69-8.94-2.15-3.92-5.88.89.3,5.16,1.25,6.37,1.47.44.08,5.39,2.98,7.83-.49,1.87-.26,5.93-.49,4.41-3.43.66.25.91.86.98,0Z"/>
                <path class="cls-23" d="M250.98,360.18c-5.02,3.73,8.66,3.19,3.92,5.88-4.26-.49-8.91-1.87-11.75-5.14-.06-.57,1.49-2.19,1.96-2.69,4.14-1.22,2.22.74,5.88,1.96Z"/>
                <path class="cls-8" d="M270.56,357.73c-.07.86-.32.25-.98,0-7.12-2.72-4.21-.96-5.14-.98-11.74-.28-17.86,2.1-13.95-1.96,5.86-1.76,15.07-.99,20.07,2.94Z"/>
                <path class="cls-23" d="M265.18,361.16c-2.45,3.47-7.39.57-7.83.49,1.95-1.51,6.37-.28,7.83-.49Z"/>
              </g>
            </g>
          </g>
        </g>
      </g>
    </g>
  </g>
</svg>