<?xml version="1.0" encoding="UTF-8"?>
<svg id="Layer_1" data-name="Layer 1" xmlns="http://www.w3.org/2000/svg" version="1.1" xmlns:xlink="http://www.w3.org/1999/xlink" viewBox="0 0 500 500">
  <defs>
    <style>
      .cls-1 {
        fill: #f7ebbc;
      }

      .cls-1, .cls-2, .cls-3, .cls-4, .cls-5, .cls-6, .cls-7, .cls-8, .cls-9, .cls-10, .cls-11, .cls-12, .cls-13, .cls-14, .cls-15, .cls-16, .cls-17, .cls-18, .cls-19, .cls-20, .cls-21, .cls-22, .cls-23, .cls-24 {
        stroke-width: 0px;
      }

      .cls-2 {
        fill: #aa5f35;
      }

      .cls-3 {
        fill: url(#linear-gradient);
      }

      .cls-4 {
        fill: #3c1611;
      }

      .cls-5 {
        fill: #a87566;
      }

      .cls-6 {
        fill: #764339;
      }

      .cls-7 {
        fill: #82391f;
      }

      .cls-8 {
        fill: #c3958d;
      }

      .cls-9 {
        fill: #6d2a18;
      }

      .cls-10 {
        fill: #693128;
      }

      .cls-11 {
        fill: #b79e89;
      }

      .cls-12 {
        fill: #946054;
      }

      .cls-13 {
        fill: url(#linear-gradient-2);
      }

      .cls-14 {
        fill: #2b1211;
      }

      .cls-15 {
        fill: #501f13;
      }

      .cls-16 {
        fill: url(#linear-gradient-3);
      }

      .cls-17 {
        fill: #b88779;
      }

      .cls-18 {
        fill: #d5c0b8;
      }

      .cls-19 {
        fill: #f4ceb1;
      }

      .cls-20 {
        fill: #8e492a;
      }

      .cls-21 {
        fill: #dcb2a7;
      }

      .cls-22 {
        fill: #f9f4db;
      }

      .cls-23 {
        fill: #c1c5ac;
      }

      .cls-24 {
        fill: url(#linear-gradient-4);
      }
    </style>
    <linearGradient id="linear-gradient" x1="-335.13" y1="-158.11" x2="94.43" y2="28.93" gradientTransform="translate(283.86 276.12) scale(.86 1)" gradientUnits="userSpaceOnUse">
      <stop offset="0" stop-color="#baa892"/>
      <stop offset="1" stop-color="#bcc4ad"/>
    </linearGradient>
    <linearGradient id="linear-gradient-2" x1="-91.4" y1="-167.47" x2="338.16" y2="19.56" gradientTransform="translate(68.62 131.67) scale(.5)" xlink:href="#linear-gradient"/>
    <linearGradient id="linear-gradient-3" x1="853.83" y1="-18.03" x2="479.84" y2="58.74" gradientTransform="translate(68.62 131.67) scale(.5)" gradientUnits="userSpaceOnUse">
      <stop offset="0" stop-color="#b9a992"/>
      <stop offset="1" stop-color="#bec6ae"/>
    </linearGradient>
    <linearGradient id="linear-gradient-4" x1="262.36" y1="19.59" x2="279.89" y2="69.43" gradientTransform="translate(68.62 131.67) scale(.5)" gradientUnits="userSpaceOnUse">
      <stop offset="0" stop-color="#211112"/>
      <stop offset="1" stop-color="#361613"/>
    </linearGradient>
  </defs>
  <g id="Background">
    <rect class="cls-3" x="-2.17" y="-6.89" width="510.21" height="510.38"/>
    <path class="cls-13" d="M317.7-6.71c-9.2,6.29-18.94,12.39-29.15,16.94-13.59,6.05-28.86,8.69-41.6,15.94-31.55,11.19-51.65,44.82-60.79,75.23-4.84-.71-5.75-.1-5.98,2.99-.15,2.04,1.68,2.64,2.49,3.99,2.61,4.36,7.6,8.91,4.98,14.45-.31.66-3.56,2.27-3.99,3.49-.48,1.37,1.6,2.39,1.99,2.99,1.82,2.81,4.02,4.87,5.98,7.47,14.69,19.55,16.36,26.38,18.93,50.82.89,8.46,1.97,19.53,1.99,27.9-45.39,2.82-107.46,14.06-148.48,33.38C13.85,191.81,14.68,104.83,27.72,35.4c1.55-.15.46-1.86.5-1.99,3.53-13.54,9.22-26.62,12.95-40.11,92.17-.37,184.35-.05,276.52,0Z"/>
    <path class="cls-11" d="M41.18-6.71c-3.74,13.49-9.43,26.57-12.95,40.11-.03.13,1.05,1.84-.5,1.99-13.04,69.43-13.87,156.41,36.37,213.5C22.61,268.43-2.72,297.64-.18,345.8c4.69,88.89,150.28,115.69,218.98,118.33,80.65,3.1,247.14-11.38,289.23-93.67-.03,44.34.03,88.69,0,133.03H-2.17V-6.71c14.45-.04,28.9.06,43.35,0Z"/>
    <path class="cls-11" d="M497.06-6.71c3.65.09,7.31-.06,10.96,0-.04,99.81.05,199.63,0,299.44-14.16-22.8-36.05-36.27-60.29-46.34,34.76-44.36,39.04-94.33,40.36-148.72-2.54-28.58-4.12-57.44-9.96-85.45,6.42-6.14,12.69-12.6,18.93-18.93Z"/>
    <path class="cls-16" d="M447.74,246.4c-41.77-17.35-88.34-24.42-133.03-29.4,1.49-24.53,2.66-29.67,5.98-52.56.48-3.3,3.13-2.34-1-7.97l6.23,1.74c50.02-49.41,101.41-97.39,152.21-145.98,5.84,28.01,7.42,56.87,9.96,85.45-1.32,54.39-5.6,104.37-40.36,148.72Z"/>
    <path class="cls-23" d="M236.49,160.7c4.91,10.18,10.52,28.25,12.95,39.36,1.03,4.72,1.91,9.65,2.49,14.45q-17.44.5-34.88,1c-.37-7.93,1.39-42.84,2.99-49.57,1.6-6.74,6.07-10,11.46-13.7,1.61,2.8,3.58,5.57,4.98,8.47Z"/>
  </g>
  <g>
    <g>
      <g>
        <path class="cls-24" d="M223.53,137.78c-.39,1.76.73,2.68,1.49,3.99,2.07,3.54,4.42,6.89,6.48,10.46-5.39,3.7-9.86,6.96-11.46,13.7-1.6,6.74-3.36,41.64-2.99,49.57.09,1.89-.24,4.46,0,5.98.78,4.9,3.76,6.28,4.98,7.97.98,1.36,3.23,3.1,3.49,4.48.22,1.19-.46,4.9-1,5.98-1.1,2.23-3.24,2.97-5.48,3.49-4.2.97-9.95.99-12.46-2.99,9.92.62,17.77-7.52,2.49-7.47,2.49-3.5,3.26-7.39,3.49-11.46.11-1.97,0-4,0-5.98-.02-8.37-1.1-19.44-1.99-27.9,2.07,4.58,1.66-6.76,1.49-9.22-1.03-15.46-5.79-35.3-20.18-43.1l-.25,1.49c-1.96-2.6-4.16-4.67-5.98-7.47,12.25,4.56,25.04,6.36,37.87,8.47Z"/>
        <path class="cls-4" d="M210.58,187.61c-2.57-24.44-4.25-31.27-18.93-50.82l.25-1.49c14.39,7.8,19.15,27.63,20.18,43.1.16,2.46.58,13.79-1.49,9.22Z"/>
        <path class="cls-9" d="M209.08,232.95c-2.96,4.16-2.91.98-3.49,1,1.53-2.03,1.72-4.77,1.99-5.48.75-1.98,2.92-4.04,1.99-6.48,1.07-.1,2,.27,2.99-.5-.23,4.07-1,7.96-3.49,11.46Z"/>
      </g>
      <g>
        <path class="cls-21" d="M398.41-6.71q-58.79,59.79-117.58,119.58c-22.69-.62-60.22-7.55-85.2-8.47,0-.33-.14-.85.25-1,49.03-18.92,117.12-68.42,150.72-110.11,17.27.01,34.54-.02,51.82,0Z"/>
        <path class="cls-4" d="M440.76-6.71l-.5,1.74q-63.4,65.64-126.8,131.29c-1.48.36-22.77-14.11-27.15-13.45q58.79-59.79,117.58-119.58c12.29.02,24.58-.03,36.87,0Z"/>
        <path class="cls-9" d="M403.89-6.71q-58.79,59.79-117.58,119.58c-.43-.01-.5.41-1,.5-1.37.25-2.7-.45-4.48-.5q58.79-59.79,117.58-119.58c1.83,0,3.65,0,5.48,0Z"/>
        <g>
          <path class="cls-9" d="M335.63-6.71c-20.45,18.43-41.74,36.37-67.51,46.83,27.42-8.45,49.78-27.18,70-46.83,2.82,0,5.65,0,8.47,0-33.6,41.69-101.69,91.19-150.72,110.11-.39.15-.25.66-.25,1-2.83-1.37-6.16-1.52-9.22-1.99-.42-.06-.2-.99-.25-1,9.14-30.41,29.24-64.04,60.79-75.23,6.65-2.36,19.29-4.43,27.15-6.98,18.32-5.92,35.01-15.42,51.07-25.91,3.49,0,6.98,0,10.46,0Z"/>
          <path class="cls-1" d="M325.17-6.71c-16.06,10.49-32.75,19.99-51.07,25.91-7.86,2.54-20.5,4.62-27.15,6.98,12.74-7.26,28.02-9.89,41.6-15.94,10.2-4.55,19.95-10.65,29.15-16.94,2.49,0,4.98,0,7.47,0Z"/>
          <path class="cls-19" d="M338.13-6.71c-20.22,19.65-42.59,38.39-70,46.83,25.77-10.47,47.06-28.41,67.51-46.83.83,0,1.66,0,2.49,0Z"/>
        </g>
        <path class="cls-15" d="M289.3,118.85c-.96-1.06-1.6-2.41-2.49-3.49,4.46.72,20.21,12.33,21.42,15.2,1.24,2.93.12,5.28-1.49,7.72-.26.4-3.58,3.4-3.99,3.49-.08-.11.18-1.94-1.25-2.49-1.9-.74-34.29-4.06-40.36-4.98-24.5-3.72-48.94-8.01-73.49-11.46,2.62-5.54-2.37-10.09-4.98-14.45,5.2-.59,10.92,1.62,16.19,2.49,24.14,1.97,48.13,6.41,72.24,8.47,6.13.53,22.74,1.75,18.19-.5Z"/>
        <path class="cls-7" d="M302.75,141.77c-4.31.91-14.66-4.41-13.95,1-31.11-6.11-67.16-8.69-98.9-13.95l-6.23-2.49c.43-1.21,3.67-2.83,3.99-3.49,24.55,3.45,48.99,7.74,73.49,11.46,6.07.92,38.46,4.25,40.36,4.98,1.43.55,1.16,2.38,1.25,2.49Z"/>
        <path class="cls-4" d="M288.8,142.77c6.74,1.32,13.74.96,17.69,7.47l.75-1c.58.97,1.84,1.55,1.49,2.99-7.57-1.66-15.05-4.09-22.67-5.48-7.45-1.36-15.41-1.23-22.92-2.49-8.48-1.43-16.89-4.09-25.41-5.48-4.34-.71-10.97-.47-14.2-1-12.83-2.11-25.62-3.91-37.87-8.47-.39-.6-2.47-1.62-1.99-2.99l6.23,2.49c31.74,5.26,67.79,7.84,98.9,13.95Z"/>
        <path class="cls-9" d="M186.16,101.41c.05,0-.17.93.25,1,3.06.47,6.39.63,9.22,1.99,24.98.92,62.51,7.85,85.2,8.47,1.79.05,3.12.75,4.48.5-.19,1.29,1.36,1.83,1.49,1.99.89,1.08,1.53,2.43,2.49,3.49-32.45-6.26-65.64-7.83-98.4-11.96-3.06-.39-7.94-1.22-10.71-2.49.23-3.09,1.13-3.7,5.98-2.99Z"/>
        <path class="cls-15" d="M289.3,118.85c4.55,2.25-12.05,1.02-18.19.5-24.11-2.06-48.11-6.5-72.24-8.47-5.27-.87-10.99-3.08-16.19-2.49-.81-1.35-2.64-1.94-2.49-3.99,2.77,1.27,7.65,2.11,10.71,2.49,32.76,4.13,65.95,5.7,98.4,11.96Z"/>
        <path class="cls-14" d="M308.73,152.23c.35-1.44-.91-2.02-1.49-2.99-1.46-2.45-2.83-5.16-4.48-7.47.41-.09,3.72-3.09,3.99-3.49.19,2.48,2.1-.04,2.24,0,1.31.37,10.88,13.37,12.71,15.69-.36,1.7-11.49-1.42-12.95-1.74Z"/>
        <path class="cls-20" d="M302.75,141.77c1.66,2.32,3.02,5.02,4.48,7.47l-.75,1c-3.94-6.51-10.95-6.15-17.69-7.47-.71-5.41,9.64-.09,13.95-1Z"/>
        <g>
          <path class="cls-14" d="M497.06-6.71c-6.24,6.34-12.51,12.79-18.93,18.93-50.8,48.59-102.19,96.58-152.21,145.98l-6.23-1.74c4.12,5.63,1.48,4.67,1,7.97-3.32,22.9-4.49,28.03-5.98,52.56-.13,2.08-.9,4.33-1,6.48-.1,2.29-.44,4.76-.5,6.98-.11,4.6.5,3.79.5,3.99,0,.41-.52.45-.5,1.49.13,5.33-1.38,7.64,2.49,8.97l-.5.5c-1.15-.07-1.49-.9-1.99-.25-.1,1.04.15,2.23,0,3.24-.44,2.91.08,4.78,0,7.47-.02.5.01,1,0,1.49-.05,1.78,0,3.24,0,4.98,0,.83,0,1.66,0,2.49.11,12.41-3.67,15.83,4.48,15.45-4.32,13.76-32.47,18.26-34.13,19.43-.96.68-.68,2.47-1.74,3.74-3.96,4.71-20.91,24.53-16.44,27.15,3.24,3.51,31.14,1,24.16-6.98-5.95.77-11.96,1.15-17.94,1.49-.24.01-2.12-.11-1.74-1,9.29-11.13,6.59-6.23,11.21-5.98,12.92.71,9.22-8.04,14.95-11.46,2.49-1.48,11.65-2.06,12.46-2.49.44-.23,3.39-6.21,5.48-7.47,4.04-2.45,16.71-2.02,12.46-10.96l-9.22,4.24,6.23-7.22c1.2-.33,6.14,3.95,5.73,8.47-.18,1.94-1.6,4.63-1.49,5.73.04.37,3.09,5.37,3.49,6.48.25.7-.25,2.55,0,3.24-4.08-1.83.18,7.37-4.98,14.45-4.16,5.7-13.98,5.6-14.7,5.98-.27.14-1.33,2.67-1.99,2.99-14.89,7.25-22.2,6.49-37.62,7.47-.66.04-1.33-.04-1.99,0,.81-3.82-7.19-3.86-14.2-6.48-4.39-1.64-10.96-5.26-15.45-6.48-.51-.14-2.58-.11-10.21-1.99-2.95-4.26-2.06-2.29-6.98-1-3.22-.98-2.4-1.59-3.24-1.99-7.55-3.62-7.85-4.35-12.71-10.96-.14-.18-.76-3.21-2.24-3.99-2.12-1.11-1.61.5-1.74.5-3.68-.06-1.42-1.31-4.48-2.99-.33-.94-.36-1.96-.5-2.49l.25-1c4.45,5.08,8.68,1.7,10.21,3.49-.15.75-1.47,2.16.5,4.48,8.45,6.99,12.91-16.09,15.69-16.44.37-.05,6.68,2.77,6.73,3.24-6.27,6.31-6.06,17.93-17.69,15.69-2.67,4.75,10.17,7.67,13.45-1,1.65,5.32,5.21,12.76,11.21,7.47,2.77-2.44,1.74-2.49,2.99-5.98,1.54,4.16,3.02,7.19,6.98,9.47,1.39.8,3.44,1.84,4.98,1.99,12.91,1.24,16.4-11.62,22.42-20.68l-.75-1.25c-3.56,2.86-16.55,11.73-18.19,6.98,1.08-4.87,2.6-9.69,2.99-14.7,1.08-13.96-.33-53.84,0-73.74.15-9.28,3.65-63.43,1.99-67.26-.43-1-6.52-1.68-6.98-1,1.94,18.18.6,36.54,1,54.81-3.49,1.34-3.69-1.19-4.48-3.74-.41-1.32-2.39-14.04-3.49-19.43l1.99-.25c-1.86-6.51,1.07-32.13-4.24-35.13-3.98-.58-5.47-3.02-6.73,1-5.4-8.41-2.89,1.31-1.99,8.47-2.56,5.36-2.42-14.4-11.96-13.45-.76-1.3-1.88-2.23-1.49-3.99,3.23.53,9.86.29,14.2,1,8.52,1.39,16.93,4.05,25.41,5.48,7.5,1.27,15.47,1.13,22.92,2.49,7.62,1.39,15.1,3.82,22.67,5.48,1.46.32,12.59,3.44,12.95,1.74-1.82-2.32-11.4-15.32-12.71-15.69-.14-.04-2.05,2.48-2.24,0,1.62-2.44,2.73-4.8,1.49-7.72-1.21-2.86-16.96-14.48-21.42-15.2-.14-.17-1.69-.71-1.49-1.99.5-.09.56-.51,1-.5,4.39-.65,25.67,13.81,27.15,13.45Q376.86,60.68,440.27-4.96l.5-1.74c18.74.04,37.57-.44,56.3,0Z"/>
          <g>
            <path class="cls-23" d="M296.77,177.14c4.51,8.33,6.32,30.25,5.98,39.86q-17.69-1.49-35.37-2.99c.68-10.85,1.36-32.56,7.97-41.1,7.14-9.24,16.66-4.56,21.42,4.24Z"/>
            <g>
              <g>
                <path class="cls-9" d="M272.36,288.25c-.05-.62.49-.46.5-.5,8.62.78,13.95-5.56,19.43-11.21-.17-1.86-12.6-3.01-22.42.25-1.16.38-2.25,1.01-3.49,1-.05-2.32.03-4.65,0-6.98,6.87.51,13.83.64,20.68,1.49,8.25,1.03,11.51,5.18,13.7.25-10.72-3.68-22.19-3.82-33.38-3.74,0-.76-.99-.36-1-.75-.02-2.91.5-5.92.5-8.72,6.12.72,12.33.64,18.43,1.49l.25,2.49c6.63-.23,15.68,5.43,16.69,1.49.87.09,2.1,1.82,1.25-2.49-12.03-3.23-24.63-5.74-37.12-4.48,0-2.84.47-5.73.5-8.47,9.95-.98,26.36-1.21,17.44,2.49-2.97,1.16,3.87.71,7.22,1.49,10.59,2.48,11.93,6.45,12.21.5.32-6.91-1.29-3.84-1.74-3.99-15.39-4.8-24.27-3.87-25.41-4.48-.49-.26-.17-1.44-.25-1.99,8.98.28,17.93,1.9,26.66,3.99v-4.98c-11.78-2.78-24.07-3.82-36.12-2.49.02-.62-.02-1.27,0-1.99,12.03-.93,23.98-.6,35.62,2.99,1.24-.42.25-4.7.25-5.48,0-.82.74-4.55-.25-4.98-.79-.35-14.64-.85-17.19-1-6.13-.35-12.33-.03-18.43-1,.1-2.48-.12-4.99,0-7.47q17.81,1,35.62,1.99c.5-.35.21-4.98.25-5.98.34-9.61-1.47-31.53-5.98-39.86,3.23-5.94,7.7,11,8.47,17.69,1.84,15.89-.59,65.9,1,87.69-3.31,3.24-21.7,15.21-24.66,15.2-2.55-.01-6.9-7.65-9.22-9.47Z"/>
                <g>
                  <path class="cls-9" d="M317.95,301.21c.53-.23,10.85,1.28,9.72,3.24-16.24,2.76-.67,24.97-23.67,10.21-2.01,16.68-12.09,19.44-9.22,5.73,3.8-18.1,15.85-6.86,18.19-7.72,1.1-.4,3.9-10.99,4.98-11.46Z"/>
                  <path class="cls-4" d="M269.87,276.79c1.85,6.76,4.19,3.99,2.99,10.96,0,.03-.55-.12-.5.5-1.03-.81-1.39-2.04-1.99,0l-3.49,3.49c-.3-4.63-.4-9.31-.5-13.95,1.24.02,2.33-.61,3.49-1Z"/>
                  <path class="cls-15" d="M266.88,291.74l3.49-3.49c.17,2.01,4.39,8.14,3.24,9.47-8.99,2.6-6.23,1.73-6.73-5.98Z"/>
                  <path class="cls-4" d="M272.86,287.75c1.2-6.97-1.14-4.2-2.99-10.96,9.82-3.26,22.25-2.11,22.42-.25-5.48,5.65-10.81,11.99-19.43,11.21Z"/>
                </g>
              </g>
              <g>
                <path class="cls-5" d="M285.31,229.46c-1.81,3.16,9.66,2.09,17.44,5.98,0,.78.99,5.06-.25,5.48-11.64-3.59-23.59-3.92-35.62-2.99.09-3.15-.12-6.32,0-9.47,6.1.96,12.3.65,18.43,1Z"/>
                <path class="cls-22" d="M302.75,217c-.04,1,.25,5.63-.25,5.98q-17.81-1-35.62-1.99c.12-2.32.35-4.65.5-6.98q17.69,1.49,35.37,2.99Z"/>
                <path class="cls-4" d="M276.34,243.41c.08.55-.24,1.73.25,1.99,1.14.62,10.02-.31,25.41,4.48.46.14,2.07-2.92,1.74,3.99l-19.43-1.99c8.92-3.7-7.49-3.47-17.44-2.49.02-2-.04-3.92,0-5.98,3.12.39,6.31-.1,9.47,0Z"/>
                <path class="cls-17" d="M276.34,243.41c-3.16-.1-6.35.39-9.47,0,.02-1.16-.03-2.33,0-3.49,12.05-1.33,24.34-.29,36.12,2.49v4.98c-8.72-2.09-17.68-3.71-26.66-3.99Z"/>
                <path class="cls-12" d="M266.38,270.81c-.03-2.19,1-1.23,1-1.99,11.19-.08,22.66.06,33.38,3.74-2.19,4.93-5.45.78-13.7-.25-6.84-.85-13.8-.98-20.68-1.49Z"/>
                <path class="cls-5" d="M302.25,264.83c-1.01-.1-7.8-2.71-16.94-3.99-6.11-.85-12.32-.77-18.43-1.49,0-.08-.5.44-.5-1.49,12.49-1.26,25.08,1.26,37.12,4.48.86,4.31-.38,2.58-1.25,2.49Z"/>
                <path class="cls-18" d="M230.01,322.63c-2.31-.57-4.63-.28-6.98-1,4.92-1.3,4.03-3.27,6.98,1Z"/>
                <path class="cls-8" d="M207.09,308.68l-3.99-3.49c.13,0-.38-1.61,1.74-.5,1.48.77,2.11,3.8,2.24,3.99Z"/>
                <path class="cls-12" d="M302.75,235.44c-7.78-3.89-19.25-2.81-17.44-5.98,2.55.14,16.4.65,17.19,1,.98.43.25,4.16.25,4.98Z"/>
                <path class="cls-15" d="M302.25,264.83c-1.01,3.94-10.06-1.72-16.69-1.49l-.25-2.49c9.14,1.27,15.93,3.88,16.94,3.99Z"/>
                <path class="cls-5" d="M284.32,251.88l19.43,1.99c-.28,5.95-1.61,1.98-12.21-.5-3.36-.79-10.19-.34-7.22-1.49Z"/>
              </g>
            </g>
          </g>
        </g>
      </g>
      <g>
        <path class="cls-7" d="M238.98,146.75c5.2,8.1,6.96,24.52,8.97,34.38,1.1,5.39,3.07,18.11,3.49,19.43-.84-.23-1.18.51-1.25.5-.41-.09-.02-1.07-.75-1-2.43-11.11-8.04-29.18-12.95-39.36,1.94-.97.72-3.72.5-5.48-.9-7.16-3.41-16.88,1.99-8.47Z"/>
        <path class="cls-15" d="M247.94,181.13c-2.01-9.86-3.77-26.28-8.97-34.38,1.26-4.01,2.75-1.58,6.73-1,5.31,2.99,2.38,28.61,4.24,35.13l-1.99.25Z"/>
        <path class="cls-10" d="M320.19,267.33c-.39,2.98-2.93.22-3.49,4.48-1.25.95,1.11,2.15,2.99,2.99-2.12.33-.02.4,0,.5.22.9-.53,1.19-.5,1.25.26.51,5.4,3.41-1.49,3.74-8.15.39-4.37-3.03-4.48-15.45,1.86,1.63,4.78,1.71,6.98,2.49Z"/>
        <path class="cls-9" d="M236.98,155.22c.22,1.76,1.44,4.51-.5,5.48-1.4-2.9-3.37-5.67-4.98-8.47-2.05-3.57-4.41-6.92-6.48-10.46,9.54-.95,9.4,18.81,11.96,13.45Z"/>
        <g>
          <path class="cls-4" d="M253.43,321.14c1.11-4.99,2.38-9.95,3.49-14.95,1.63,4.75,14.63-4.11,18.19-6.98l.75,1.25c-6.02,9.05-9.51,21.92-22.42,20.68Z"/>
          <path class="cls-4" d="M265.38,330.6c.71-2.36,2.91-4.6,4.48-6.48-.38.89,1.5,1.01,1.74,1,5.98-.35,11.99-.72,17.94-1.49,6.97,7.97-20.92,10.48-24.16,6.98Z"/>
          <path class="cls-4" d="M248.44,298.22c-8.12,6.09-6.4,9.86-6.98,11.46-1.25,3.48-.22,3.54-2.99,5.98.44-1.54-2.37-.15-4.98-3.74-1.86-2.55-2.03-5.3-1.49-8.22,11.52,1.66,10.16-2.31,12.21-3.49,3.77-2.16,4.03-1.87,4.24-1.99Z"/>
          <path class="cls-2" d="M251.43,297.22c-7.65,5.43-8,14.48-2.99,21.92-3.95-2.27-5.44-5.31-6.98-9.47.57-1.6-1.14-5.37,6.98-11.46.41-.25,2.55-.74,2.99-1Z"/>
          <path class="cls-4" d="M331.15,306.69c.04.1.67,1.27,1,1.99.15.33-.53.68-.5.75.2.46.96.18,1,.25.09.17,1.41.54,1.49.75.9,2.38-4.81,11.46-7.97,10.71,5.16-7.07.9-16.28,4.98-14.45Z"/>
          <path class="cls-14" d="M251.43,297.22c-.44.25-2.58.75-2.99,1-.2.12-.46-.17-4.24,1.99-2.05,1.17-.69,5.15-12.21,3.49,1.8-9.86,14.55-17.87,24.41-16.69-1.79,4.2-.78,7.78-4.98,10.21Z"/>
          <path class="cls-14" d="M220.54,284.76c-5.71,2-5.78,6.33-7.97,10.46-11.33-5.06-15.55,3.42-15.45-5.23,11.71,2.61,16.97-11.92,32.14-17.19l.75.75c-4.43,4.66-4.09,10.04-4.48,10.46-.41.44-2.97.04-4.98.75Z"/>
          <g>
            <path class="cls-9" d="M256.91,306.19c-1.1,5-2.38,9.95-3.49,14.95-1.54-.15-3.59-1.19-4.98-1.99-5.01-7.44-4.66-16.49,2.99-21.92,4.2-2.43,3.19-6.01,4.98-10.21-9.86-1.18-22.61,6.83-24.41,16.69-.53,2.92-.36,5.67,1.49,8.22,2.61,3.59,5.42,2.2,4.98,3.74-6,5.29-9.56-2.15-11.21-7.47-3.28,8.66-16.13,5.75-13.45,1,11.63,2.23,11.42-9.38,17.69-15.69-.04-.47-6.36-3.29-6.73-3.24-2.79.35-7.24,23.44-15.69,16.44,4.55-7.09,5.31-15.82,11.46-21.92,2.02-.7,4.57-.3,4.98-.75.39-.43.06-5.81,4.48-10.46l-.75-.75c-15.17,5.27-20.43,19.8-32.14,17.19-.11,8.65,4.12.17,15.45,5.23-.51.96-3.11,2.66-3.99,6.98-1.53-1.79-5.77,1.59-10.21-3.49l-.25,1c-.6-2.29-3.79-9.05-1.49-15.94,1.78-5.32,13.36-9.96,11.46-11.46,6.89-3.21-4.98-.7-14.45,2.49-52.39,17.67-48.37,55.31,7.47,65.77,4.32,3.65,10.32,5.28,17.94,5.98-1.86,2.99,3.49.15,3.49,2.49-20.28-1.23-60.14-12.56-72.24-30.14-15.26-22.17,10.24-41.85,12.71-41.6,2.84.29-1.55,2.99,5.23.5.62,2.25,12.26-3.07,17.19-4.48,3.35-.96,25.99-7.05,27.4-6.98,1.63.09,1.37,1.76,4.48,1.49,2.09-.17,22.09-6.52,36.87-3.49,1.19-.66.5-1.75.75-2.49.8-2.44-.01-1.89,0-1.99,1.05-8.28-.46-8.5-.5-8.97-.02-.21,1.45.21,1-3.74-.8-2.09-23.63-2.67-27.4-2.74h26.66c.57-.4.1-2.7.25-3.49.53-2.8.51-4.24,0-6.98-.17-.92.22-2.84,0-3.24-.83-1.52-28.94-2.45-32.88-1.25-1.22-1.69-4.21-3.07-4.98-7.97q17.81-.25,35.62-.5c1.1-.77-.62-5.41-.75-6.48-.58-4.8-1.46-9.73-2.49-14.45.73-.07.34.9.75,1,.07.02.41-.73,1.25-.5.8,2.55.99,5.08,4.48,3.74-.4-18.26.95-36.63-1-54.81.45-.68,6.54,0,6.98,1,1.66,3.83-1.84,57.98-1.99,67.26-.33,19.9,1.08,59.78,0,73.74-.39,5.01-1.91,9.83-2.99,14.7Z"/>
            <path class="cls-2" d="M220.54,284.76c-6.15,6.1-6.91,14.84-11.46,21.92-1.97-2.32-.65-3.73-.5-4.48.88-4.31,3.47-6.01,3.99-6.98,2.19-4.13,2.26-8.47,7.97-10.46Z"/>
            <path class="cls-14" d="M246.45,279.78c.31-5.85-1.74-3.6-4.48-1-3.39,3.21-4.28,8.59-11.21,7.97-6.48-6.92,10.75-19.51,20.68-14.2-3.11,3.64-4.89,10.07-4.98,7.22Z"/>
            <path class="cls-14" d="M206.84,278.29c8-1.12,4.74,4.92-4.98,6.48-2.65-1.04,1.98-6.06,4.98-6.48Z"/>
            <path class="cls-9" d="M246.45,279.78c0,.05-.94-.17-1,.25-.17,1.26,2.67,3.25-6.73,8.22-2.16-1.57,6.66-7.02,3.24-9.47,2.74-2.6,4.79-4.86,4.48,1Z"/>
          </g>
          <path class="cls-7" d="M208.09,272.31c1.9,1.5-9.68,6.14-11.46,11.46h-.5c.97-2.9,4.96-7,6.48-9.96,1.8-.58,5.22-1.37,5.48-1.49Z"/>
          <g>
            <path class="cls-9" d="M318.2,272.31c8.2,2.31,13.08,2.9,21.18,8.47,2.43-1.64-2.96-2.01-3.24-5.98,19.79,14.22,23.59,32.24,2.99,47.83q-1.74-1.49-3.49-2.99c11.13-7.9,2.15-22.26-6.48-28.4.41-4.52-4.53-8.8-5.73-8.47l-6.23,7.22,9.22-4.24c4.26,8.94-8.41,8.51-12.46,10.96-2.09,1.26-5.04,7.24-5.48,7.47-.8.43-9.97,1.01-12.46,2.49-5.73,3.42-2.03,12.17-14.95,11.46-4.62-.26-1.92-5.15-11.21,5.98-1.57,1.88-3.78,4.11-4.48,6.48-4.47-2.62,12.48-22.45,16.44-27.15,1.06-1.27.78-3.05,1.74-3.74,1.66-1.17,29.81-5.67,34.13-19.43,6.9-.33,1.75-3.23,1.49-3.74-.03-.06.72-.35.5-1.25,8.21,2.95,14.98,8.1,21.92,13.2-2.51-3.36-5.66-6.49-9.22-8.72-.52-.32-9.83-4.98-10.96-5.48-.54-.24-1,.83-1.74.5-1.88-.84-4.24-2.04-2.99-2.99.58.45,1,.36,1.49.5Z"/>
            <path class="cls-14" d="M306.49,297.22c3.32-.45-2.64,2.78-5.48,3.99-10.52,4.47-10.43-.73-20.43,11.96-4.41,3.05,2.39-11.07,2.99-11.46.98-.64,19.52-2.05,22.92-4.48Z"/>
            <path class="cls-6" d="M329.66,271.31c2.18,1.09,4.49,2.06,6.48,3.49.28,3.97,5.67,4.34,3.24,5.98-8.1-5.57-12.97-6.16-21.18-8.47,3.93-2.48,9.3.8,11.46-1Z"/>
            <path class="cls-12" d="M319.69,275.3c-.02-.1-2.12-.17,0-.5.74.33,1.2-.74,1.74-.5,1.13.5,10.44,5.16,10.96,5.48,3.56,2.23,6.71,5.36,9.22,8.72-6.95-5.1-13.71-10.25-21.92-13.2Z"/>
          </g>
        </g>
      </g>
    </g>
    <g>
      <path class="cls-22" d="M212.57,215.51c0,1.98.11,4.01,0,5.98-.99.77-1.92.4-2.99.5-50.16,4.69-107.71,12.34-151.22,39.86-44.45,28.11-65.08,73.07-31.64,119.58,24.22,33.69,70.21,51.9,109.61,60.29,19.57,4.16,39.62,6.41,59.54,7.97,10.41.82,26.88.1,35.37,1,6.25.66,17.21,4.25,20.43,4.48,10.31.76,16.85-6.1,22.42-7.97,15.61-5.23,31.31,2.84,39.86,1.49,3.36-.53,14.33-10.06,30.39-8.97,4.16.28,11.32,3.92,18.93,1.99,5.36-1.35,12.62-10.54,16.44-12.95,9.5-6.02,41.12-7.43,59.29-19.43,1.92-1.27,6.12-5.71,10.46-8.47,7.74-4.92,19.22-6.77,30.64-23.17,16.13-23.16,17.52-55.64,4.48-80.47-1.75-3.34-3.72-6.45-5.98-9.47-31.71-42.38-115.06-58.63-164.92-64.27.1-2.15.87-4.4,1-6.48,44.69,4.98,91.26,12.04,133.03,29.4,24.23,10.07,46.13,23.54,60.29,46.34-.01,25.91.02,51.82,0,77.73-42.09,82.29-208.57,96.76-289.23,93.67C150.11,461.49,4.51,434.69-.18,345.8c-2.54-48.15,22.79-77.36,64.27-96.91,41.01-19.32,103.08-30.57,148.48-33.38Z"/>
      <path class="cls-15" d="M196.13,283.77c-2.25,6.73-.81,13.92,1.99,20.18-12.44.39,7.56,15.74,17.94,16.94-9.36-4.61-14-8.87-17.44-18.68,3.06,1.68.8,2.93,4.48,2.99l3.99,3.49c4.85,6.61,5.15,7.34,12.71,10.96.84.4.02,1.01,3.24,1.99,2.34.72,4.67.43,6.98,1,7.63,1.89,9.7,1.85,10.21,1.99,4.49,1.22,11.05,4.83,15.45,6.48,7.01,2.62,15.01,2.66,14.2,6.48-2.5.14-4.97.41-7.47.5-.24-2.27,5.16.26,4.24-1.99-8.94-.16-18.57.32-27.4-1-.47-.07-.02-1.42-.5-1.49-6.59-.98-13.13-1.69-19.68-2.99-11.02-2.92-25.58-8.5-31.89-18.68-5.45-8.79-2.98-11.8,1.49-19.68.04-.07,1.62-.58.75-1.49-1.01.68-.69,1.44-.75,1.49-18.94,17.84-1.48,31.98,23.42,37.37-6.36,2.93,10.82,3.98,19.68,5.98,1.88,3.7-1.73.91-5.23,2.49-7.14-.54-14.7-1.38-21.67-2.99-39.1-9.01-60.5-41.53-11.21-58.79,2.9-1.01,6.01-1.53,8.97-2.49-1.52,2.96-5.51,7.07-6.48,9.96Z"/>
      <path class="cls-21" d="M322.18,234.94c27.84,2.54,50.59,12.74,73.49,28.4,17.41,11.9,31.56,26.17,29.65,49.08-2.87,34.31-48.57,55.52-77.97,61.53-6.15,1.26-19.35,2.9-14.95.5,32.6-5.09,104.45-42.59,83.95-84.2-1.94-3.95-8.05-11.66-11.96-13.95-2-2.11-4.3-3.92-6.73-5.48-5.43-3.48-40.5-16.6-48.33-18.93-7.59-2.26-15.43-3.81-23.17-5.48,17.68-2.21,2.66-8.32-12.95-10.46-.03-1.05.5-1.09.5-1.49,2.84-.15,5.65.24,8.47.5Z"/>
      <path class="cls-15" d="M335.63,319.64c-1.6,1.13-12.79,6.15-16.19,7.97-3.37,1.81-7.02,6.3-17.44,9.47-3.66,1.11-12.93,1.18-10.71,3.49-7.86,2.3-16.64,3.71-26.16,4.48l-.25,1c-5.39.24-9.78,1.52-14.45,1.99-.33.03-.67-.03-1,0l.25-1.99c-8.26.24-16.48-.46-24.66-1.49-8.09-1.03-16.11-2.59-23.92-4.98-5.05-1.55-25.01-9.54-27.65-12.95-2.2-3.48,2.21,1.22,8.47,3.99,19.24,8.51,51.83,10.89,72.74,9.96,5.68-.25,18.43-.99,17.19-2.99,15.41-.98,22.73-.23,37.62-7.47.67-.32,1.72-2.85,1.99-2.99.72-.38,10.54-.28,14.7-5.98,3.16.75,8.88-8.33,7.97-10.71-.08-.21-1.41-.58-1.49-.75q1.49-2.12,2.99-4.24l-3.49,3.24c-.33-.72-.96-1.89-1-1.99-.25-.69.25-2.53,0-3.24-.39-1.1-3.45-6.11-3.49-6.48-.11-1.1,1.32-3.79,1.49-5.73,8.62,6.14,17.6,20.5,6.48,28.4Z"/>
      <path class="cls-21" d="M193.64,276.29c-49.29,17.26-27.89,49.78,11.21,58.79,6.97,1.61,14.53,2.45,21.67,2.99,11.99.9,23.89.44,35.87,0,2.5-.09,4.97-.35,7.47-.5.66-.04,1.33.04,1.99,0,1.24,2-11.51,2.74-17.19,2.99-20.91.93-53.5-1.45-72.74-9.96-6.26-2.77-10.67-7.46-8.47-3.99,2.65,3.42,22.6,11.41,27.65,12.95.03.4-.05.96,0,1-55.85-10.46-59.87-48.1-7.47-65.77v1.49Z"/>
      <path class="cls-17" d="M326.17,246.4c-3.4-.74-9.96-1.32-10.46-1.49-3.87-1.33-2.36-3.64-2.49-8.97,15.61,2.14,30.64,8.25,12.95,10.46Z"/>
      <path class="cls-21" d="M198.12,299.71c.14.54.17,1.55.5,2.49,3.43,9.81,8.08,14.07,17.44,18.68-10.38-1.2-30.37-16.55-17.94-16.94-2.8-6.26-4.24-13.44-1.99-20.18h.5c-2.3,6.89.9,13.66,1.49,15.94Z"/>
      <path class="cls-10" d="M322.18,234.94c-2.82-.26-5.63-.65-8.47-.5,0-.2-.61.62-.5-3.99,7.03,1.11,16.23,2.54,8.97,4.48Z"/>
      <path class="cls-4" d="M478.63,287.75c2.26,3.02,4.23,6.13,5.98,9.47.49,24.35-4.41,41.57-20.43,60.04-26.24,30.26-76.9,50.77-114.35,63.03-14.41,4.72-29.41,7.87-43.85,12.46-5.48,1.74-33.96,13.29-35.87,13.45-2.58.22-21.07-5.09-25.91-5.48-7.58-.61-35.09,2.27-49.82,1.99-13.05-.25-48.38-4.96-57.3-2.49-.19.05-.38.91-.75,1.49-39.4-8.38-85.39-26.6-109.61-60.29,3.47,3.85,4.9.1,6.23.5.31.09,3.01,4.48,3.74,5.23,3.14,3.27,14.64,14.78,15.94,10.21,11.57,9.02,25.18,15.37,38.86,20.43-3.17,2.82,6.33,5.89,9.22,6.98.25.09.09-1.31,1-1,.5.17,0,1.33.5,1.49,7.38,2.38,12.58,4.23,11.71-.5,2.03.53,27.52,7.95,25.41,3.24-5.41-1.41-10.95-2.6-16.44-4.24,3.84.11.64-4.31,1.99-6.98,5.44,1.06,25.38,4.28,29.4,4.48l-.5,1.25c76.04,12.99,192.48-9.07,260.33-45.09,36.88-19.58,70.87-51.27,30.64-89.43.36-1.25,8.5,4.64,12.21,5.73,8.78,2.58,15.93,1.44,21.67-5.98Z"/>
      <path class="cls-14" d="M136.34,441.71c.37-.58.56-1.44.75-1.49,8.92-2.47,44.25,2.25,57.3,2.49,14.74.28,42.24-2.6,49.82-1.99,4.84.39,23.33,5.7,25.91,5.48,1.91-.17,30.39-11.71,35.87-13.45,14.44-4.58,29.43-7.74,43.85-12.46,37.45-12.25,88.11-32.77,114.35-63.03,16.02-18.47,20.92-35.68,20.43-60.04,13.03,24.83,11.64,57.31-4.48,80.47-11.42,16.39-22.9,18.25-30.64,23.17-4.34,2.76-8.54,7.2-10.46,8.47-18.17,12.01-49.79,13.41-59.29,19.43-3.82,2.42-11.09,11.6-16.44,12.95-7.61,1.92-14.78-1.71-18.93-1.99-16.06-1.09-27.04,8.44-30.39,8.97-8.55,1.35-24.25-6.73-39.86-1.49-5.57,1.87-12.11,8.73-22.42,7.97-3.22-.24-14.18-3.82-20.43-4.48-8.49-.9-24.96-.18-35.37-1-19.92-1.56-39.97-3.81-59.54-7.97Z"/>
      <path class="cls-21" d="M206.59,240.42c2.5,3.98,8.25,3.96,12.46,2.99v1c-14.06,0-28.7.34-42.6,2.49-9.03,1.4-39,8.94-45.59,13.95-23.42,9.27-43.72,26.12-37.62,53.81-23.5-51.18,77.53-76.05,113.35-74.24Z"/>
      <path class="cls-22" d="M251.93,214.51c.13,1.06,1.84,5.7.75,6.48q-17.81.25-35.62.5c-.24-1.52.09-4.09,0-5.98q17.44-.5,34.88-1Z"/>
      <path class="cls-10" d="M254.92,233.94c.51,2.74.53,4.17,0,6.98-10.02-2-20.28-1.38-30.39-1,.54-1.08,1.22-4.79,1-5.98h29.4Z"/>
      <path class="cls-17" d="M254.92,233.94h-29.4c-.26-1.39-2.51-3.12-3.49-4.48,3.94-1.2,32.06-.28,32.88,1.25.22.4-.17,2.32,0,3.24Z"/>
      <path class="cls-17" d="M254.92,240.92c-.15.79.32,3.09-.25,3.49h-26.66c-2.98-.06-5.98,0-8.97,0v-1c2.24-.52,4.38-1.25,5.48-3.49,10.11-.38,20.38-1,30.39,1Z"/>
      <path class="cls-21" d="M154.28,421.28c-4.02-.21-23.96-3.42-29.4-4.48-33.45-6.52-74.23-26.23-88.19-59.54-11.14-26.58-5.61-63.2,23.67-74.98-9.21,17.31-10.96,31.5-3.74,50.07,23.19,59.61,136.85,75.81,192.32,73.74-67.02,10.76-149.83,1.04-198.05-51.57,13.15,32.99,58.43,51.41,90.18,61.28,3.98,1.24,18.32,3.22,16.19,5.73-1.63.82-2.68-.23-2.99-.25Z"/>
      <path class="cls-21" d="M207.59,228.46c-.27.71-.47,3.45-1.99,5.48-35.38,1.26-119.56,14.69-128.05,57.55-8.61,43.45,47.77,71.89,81.96,81.46,35.76,10.01,84.47,11.14,121.32,6.73-35.65,8.73-80.56,6.71-116.84,1.25-5.27-.79-12.42-3.58-17.44-4.48-.83-.15-2.21,2.72-16.44-1.99-4.94-1.64-31.5-14.94-19.43-6.98,6.65,4.39,14.8,7.38,21.92,10.96l-1,.5c-32.6-11.29-76.87-43.97-71-82.96,1.43-9.51,7.37-15.86,7.97-17.94.29-1-4.42-4.33,10.21-16.69,25.49-21.52,95.05-31.1,128.79-32.88Z"/>
      <path class="cls-21" d="M254.92,259.85c-.01.1.8-.45,0,1.99-23.47,0-47.96,2.62-70.5,9.47-5.58,1.69-10.77,4.48-16.19,6.48-6.78,2.49-2.39-.21-5.23-.5-2.46-.25-27.97,19.43-12.71,41.6,12.1,17.58,51.97,28.91,72.24,30.14,8.95.54,17.99-.17,26.9-1,.33-.03.67.03,1,0l-.5,1.49c-40.92,4.66-74.8,4.69-112.35-14.95,14.36,12.59,43.66,20.24,62.53,23.42-1.73,4.25,4.07.4,4.98,3.49-22.05-2.33-45.67-8.29-65.02-19.43-17.05-9.82-29.55-21.66-21.18-42.6,8.83-22.08,43.74-34.27,65.52-37.62l-.5,1.49c-20.44,3.8-66.89,22.03-56.55,49.57,2.94,7.84,21.89,21.34,30.14,24.66-20.17-12.91-25.22-28.92-9.72-48.58,19.6-24.85,77.41-28.79,107.12-29.15Z"/>
      <path class="cls-4" d="M416.35,290.24c-1.84.1-1.76-3.17-2.49-.25,13.04,23.8-20.45,52.7-39.61,63.53-14.16,8-41.6,18.57-57.05,14.2-.37-2.38,26.3-8.07,31.14-9.72,21.08-7.16,50.83-24.51,59.54-46.09,4.8-11.9,4.62-18.99-.5-30.39-.27-.59,2.51.58-2.99-5.23,3.9,2.29,10.01,10,11.96,13.95Z"/>
      <path class="cls-9" d="M228.02,244.41c3.77.07,26.6.65,27.4,2.74.46,3.95-1.02,3.53-1,3.74-20.27-.55-40.8-1.49-61.03.5-11.12,1.09-23.15,4.79-33.38,5.48-2.27.15-6.5-1.61-10.96-1-4.52.62-27.98,12.43-18.19,4.98,6.59-5.01,36.56-12.55,45.59-13.95,13.9-2.15,28.54-2.48,42.6-2.49,2.99,0,5.98-.06,8.97,0Z"/>
      <path class="cls-6" d="M324.18,331.6l.5.5c-20.4,9.37-35.41,11.6-57.3,14.95-.91-2.7-1.83-1.03-2.49-1l.25-1c9.52-.77,18.3-2.18,26.16-4.48,5.54-.01,11.53-2.77,16.69-2.99,4.94-3.12,9.61-3.06,16.19-5.98Z"/>
      <g>
        <path class="cls-9" d="M209.58,221.99c.93,2.44-1.24,4.49-1.99,6.48-33.75,1.78-103.3,11.36-128.79,32.88-14.64,12.36-9.92,15.69-10.21,16.69-.61,2.07-6.54,8.42-7.97,17.94-5.87,38.98,38.4,71.67,71,82.96l1-.5c-7.12-3.58-15.27-6.57-21.92-10.96-12.07-7.97,14.49,5.34,19.43,6.98,14.23,4.71,15.61,1.84,16.44,1.99,5.02.9,12.17,3.69,17.44,4.48,36.28,5.46,81.18,7.48,116.84-1.25-36.85,4.42-85.56,3.29-121.32-6.73-34.19-9.57-90.57-38.01-81.96-81.46,8.49-42.86,92.66-56.29,128.05-57.55.57-.02.53,3.16,3.49-1,15.28-.05,7.43,8.09-2.49,7.47-35.82-1.81-136.85,23.06-113.35,74.24-6.11-27.69,14.2-44.54,37.62-53.81-9.79,7.44,13.66-4.36,18.19-4.98,4.46-.61,8.7,1.15,10.96,1,10.23-.7,22.26-4.39,33.38-5.48,20.23-1.99,40.76-1.05,61.03-.5.04.46,1.55.69.5,8.97-29.71.36-87.52,4.29-107.12,29.15-15.5,19.66-10.46,35.66,9.72,48.58-8.26-3.32-27.2-16.82-30.14-24.66-10.34-27.54,36.11-45.78,56.55-49.57l.5-1.49c-21.78,3.34-56.69,15.53-65.52,37.62-8.38,20.94,4.13,32.78,21.18,42.6,19.35,11.15,42.97,17.1,65.02,19.43,15.27,1.61,30.85,2.16,46.09,0-17.15.67-34.17-.65-51.07-3.49-18.87-3.17-48.17-10.82-62.53-23.42,37.55,19.64,71.43,19.6,112.35,14.95,5.85-.67,11.62-1.6,17.44-2.49,21.89-3.35,36.9-5.57,57.3-14.95,54.82-25.19,41.43-58.34-11.46-69.75,0-1.74-.05-3.2,0-4.98,31.29,8.23,82.28,29.61,45.09,66.76,36.18-32.54,16.23-48.99-20.18-61.78,1.08-.81,1.62-1.48.25-2.49-1.02-.75-23.1-7.95-15.69-1.99-3.22-.88-8.28-2.76-9.47-1.99.08-2.69-.44-4.57,0-7.47,15.76,2.15,34.11,6.46,48.83,12.46,31.56,12.87,53.49,37.84,22.67,67.26-15.74,15.02-46.38,26.38-67.26,31.89-5.8,1.53-22.28,4.45-11.96,3.49,32.1-3.01,107.63-28.69,97.41-72-4-16.94-23.5-24.9-37.87-31.14-12.58-5.47-36.7-14.18-49.82-14.95l.5-.5c.5.17,7.06.76,10.46,1.49,7.73,1.67,15.58,3.22,23.17,5.48,7.83,2.33,42.9,15.45,48.33,18.93,2.43,1.56,4.73,3.37,6.73,5.48,5.5,5.81,2.72,4.64,2.99,5.23,5.12,11.41,5.3,18.49.5,30.39-8.71,21.57-38.46,38.93-59.54,46.09-4.84,1.64-31.51,7.33-31.14,9.72,15.44,4.37,42.89-6.2,57.05-14.2,19.16-10.83,52.65-39.73,39.61-63.53.73-2.93.65.35,2.49.25,20.5,41.61-51.36,79.11-83.95,84.2-4.4,2.4,8.8.76,14.95-.5,29.41-6.01,75.1-27.22,77.97-61.53,1.92-22.91-12.24-37.17-29.65-49.08-22.9-15.66-45.65-25.86-73.49-28.4,7.26-1.94-1.94-3.38-8.97-4.48.06-2.22.4-4.69.5-6.98,49.85,5.65,133.21,21.9,164.92,64.27-5.74,7.42-12.9,8.56-21.67,5.98-3.71-1.09-11.85-6.98-12.21-5.73,40.23,38.16,6.24,69.85-30.64,89.43-67.85,36.02-184.29,58.08-260.33,45.09l.5-1.25c.31.02,1.36,1.07,2.99.25,2.12-2.51-12.22-4.49-16.19-5.73-31.76-9.88-77.03-28.29-90.18-61.28,48.22,52.61,131.03,62.33,198.05,51.57-55.47,2.07-169.13-14.13-192.32-73.74-7.23-18.57-5.48-32.76,3.74-50.07-29.28,11.78-34.8,48.41-23.67,74.98,13.96,33.31,54.74,53.02,88.19,59.54-1.35,2.67,1.85,7.08-1.99,6.98-44.63-13.27-105.06-42.06-105.38-96.16-3.67,25.89,15.33,54.31,35.13,69.75-1.3,4.57-12.8-6.95-15.94-10.21-.73-.75-3.43-5.14-3.74-5.23-1.33-.4-2.76,3.35-6.23-.5-33.44-46.5-12.81-91.47,31.64-119.58,43.51-27.51,101.05-35.17,151.22-39.86Z"/>
        <g>
          <path class="cls-21" d="M322.68,257.86c5.18,1.41,10.38,2.7,15.45,4.48,36.4,12.79,56.36,29.24,20.18,61.78,37.18-37.15-13.8-58.53-45.09-66.76.01-.5-.02-1,0-1.49,1.19-.76,6.25,1.12,9.47,1.99Z"/>
          <path class="cls-8" d="M315.21,245.4c13.12.77,37.24,9.48,49.82,14.95l-2.99.5c-14.72-6-33.07-10.3-48.83-12.46.15-1.01-.1-2.2,0-3.24.5-.65.84.18,1.99.25Z"/>
          <path class="cls-4" d="M425.57,275.8c33.74,15.98,30.79,56.89,5.48,79.22-14.26,12.58-48.47,26.67-67.76,28.9,20.32-10.17,41.91-18.81,59.29-33.88,29.5-25.56,28.68-44.37,2.74-72.99l.25-1.25Z"/>
          <path class="cls-21" d="M122.89,423.77c5.49,1.63,11.03,2.82,16.44,4.24,2.11,4.71-23.38-2.71-25.41-3.24-7.58-1.97-15.08-4.26-22.42-6.98-13.68-5.06-27.3-11.4-38.86-20.43-19.8-15.44-38.79-43.87-35.13-69.75.31,54.1,60.75,82.89,105.38,96.16Z"/>
          <path class="cls-21" d="M365.03,260.35c14.36,6.24,33.87,14.2,37.87,31.14,10.22,43.3-65.31,68.99-97.41,72-10.32.97,6.16-1.96,11.96-3.49,20.88-5.51,51.52-16.86,67.26-31.89,30.82-29.42,8.89-54.39-22.67-67.26l2.99-.5Z"/>
          <path class="cls-4" d="M360.3,325.12l1.25,1.25c-25.42,25.06-61.26,40.79-97.16,38.86l.75-1.74c35.32-4.32,67.18-16.11,95.16-38.36Z"/>
          <path class="cls-17" d="M84.77,361.99c18.74,13.41,40.72,21.11,61.53,30.64-21.57-6.68-45.31-15.25-61.53-30.64Z"/>
          <path class="cls-17" d="M360.3,238.93c20.14,6.02,39.02,16.01,55.06,29.65-17.54-11.5-36.01-20.93-55.06-29.65Z"/>
          <path class="cls-10" d="M354.32,264.34c5.06-1.49,36.27,19.09,23.92,15.45-1.32-.39-18.52-12.26-23.92-13.45v-1.99Z"/>
          <path class="cls-8" d="M205.1,361.49c-.91-3.09-6.71.76-4.98-3.49,16.9,2.84,33.92,4.15,51.07,3.49-15.24,2.16-30.82,1.61-46.09,0Z"/>
          <path class="cls-5" d="M103.21,305.19c1.24,16.6,10.99,25.8,21.92,36.87-11.79-8-23.08-22.04-21.92-36.87Z"/>
          <path class="cls-9" d="M338.13,262.34c-5.07-1.78-10.27-3.07-15.45-4.48-7.41-5.96,14.67,1.24,15.69,1.99,1.37,1.01.83,1.68-.25,2.49Z"/>
          <path class="cls-12" d="M127.12,263.84v1c-11.38,5.73-21.94,15.79-27.65,27.15-3.15,3.58,2.8-7.49,5.98-11.46,5.11-6.38,14.36-12.87,21.67-16.69Z"/>
        </g>
      </g>
      <path class="cls-12" d="M267.38,347.04c-5.82.89-11.59,1.83-17.44,2.49l.5-1.49c4.67-.47,9.06-1.76,14.45-1.99.66-.03,1.58-1.7,2.49,1Z"/>
      <path class="cls-9" d="M254.92,261.85c-.24.74.44,1.84-.75,2.49-14.78-3.03-34.78,3.31-36.87,3.49-3.11.26-2.86-1.4-4.48-1.49-1.41-.08-24.06,6.01-27.4,6.98-4.92,1.42-16.57,6.74-17.19,4.48,5.42-1.99,10.62-4.78,16.19-6.48,22.54-6.85,47.03-9.47,70.5-9.47Z"/>
      <path class="cls-6" d="M249.44,348.04c-8.91.83-17.96,1.54-26.9,1,0-2.34-5.35.5-3.49-2.49,3.57.33,4.89,2.28,5.98-1.99,8.18,1.04,16.41,1.74,24.66,1.49l-.25,1.99Z"/>
      <path class="cls-6" d="M225.03,344.55c-1.09,4.28-2.41,2.32-5.98,1.99-7.62-.7-13.62-2.33-17.94-5.98-.05-.04.03-.59,0-1,7.8,2.39,15.82,3.96,23.92,4.98Z"/>
      <path class="cls-12" d="M208.09,272.31c-.26.12-3.68.91-5.48,1.49-2.96.96-6.07,1.48-8.97,2.49v-1.49c9.47-3.19,21.34-5.7,14.45-2.49Z"/>
      <path class="cls-21" d="M219.05,330.6c-.96-.19-3.52-.25-6.98-1-24.9-5.39-42.35-19.53-23.42-37.37-4.48,7.88-6.94,10.89-1.49,19.68,6.31,10.18,20.86,15.77,31.89,18.68Z"/>
      <path class="cls-4" d="M219.05,330.6c6.55,1.3,13.09,2.01,19.68,2.99.47.07.02,1.42.5,1.49,8.84,1.32,18.46.83,27.4,1,.92,2.26-4.47-.28-4.24,1.99-11.98.44-23.88.9-35.87,0,3.5-1.58,7.11,1.21,5.23-2.49-8.86-2-26.04-3.05-19.68-5.98,3.45.75,6.02.81,6.98,1Z"/>
      <path class="cls-21" d="M188.65,292.24c.06-.06-.26-.81.75-1.49.87.91-.71,1.42-.75,1.49Z"/>
      <path class="cls-4" d="M335.63,319.64q1.74,1.49,3.49,2.99c-3.7,2.8-10.75,7.11-14.95,8.97-6.59,2.91-11.25,2.86-16.19,5.98-5.16.22-11.15,2.98-16.69,2.99-2.22-2.31,7.05-2.37,10.71-3.49,10.42-3.17,14.07-7.66,17.44-9.47,3.41-1.82,14.6-6.84,16.19-7.97Z"/>
      <path class="cls-10" d="M329.66,271.31c-2.16,1.8-7.53-1.48-11.46,1-.49-.14-.91-.05-1.49-.5.56-4.26,3.1-1.51,3.49-4.48,3.13,1.11,6.49,2.5,9.47,3.99Z"/>
      <path class="cls-5" d="M332.65,309.68c-.04-.07-.8.21-1-.25-.03-.07.65-.42.5-.75l3.49-3.24q-1.49,2.12-2.99,4.24Z"/>
      <g>
        <path class="cls-21" d="M324.67,332.1l-.5-.5c4.2-1.86,11.25-6.17,14.95-8.97,20.6-15.59,16.8-33.61-2.99-47.83-1.99-1.43-4.3-2.4-6.48-3.49-2.98-1.49-6.33-2.88-9.47-3.99-2.2-.78-5.11-.86-6.98-2.49,0-.83,0-1.66,0-2.49,52.89,11.41,66.28,44.56,11.46,69.75Z"/>
        <path class="cls-9" d="M353.32,288.75c5.67,8.98,3.22,16.6-2.99,24.41,4.26-8.36,5.52-15.25,2.99-24.41Z"/>
      </g>
      <path class="cls-15" d="M113.92,424.77c.87,4.73-4.33,2.88-11.71.5-.5-.16,0-1.32-.5-1.49-.91-.31-.74,1.09-1,1-2.89-1.08-12.39-4.16-9.22-6.98,7.34,2.72,14.84,5,22.42,6.98Z"/>
    </g>
  </g>
</svg>