<?xml version="1.0" encoding="UTF-8"?>
<svg id="Layer_1" data-name="Layer 1" xmlns="http://www.w3.org/2000/svg" version="1.1" xmlns:xlink="http://www.w3.org/1999/xlink" viewBox="0 0 500 500">
  <defs>
    <style>
      .cls-1 {
        fill: #a88c60;
      }

      .cls-1, .cls-2, .cls-3, .cls-4, .cls-5, .cls-6, .cls-7, .cls-8, .cls-9, .cls-10, .cls-11, .cls-12, .cls-13, .cls-14, .cls-15, .cls-16, .cls-17, .cls-18, .cls-19, .cls-20, .cls-21, .cls-22, .cls-23, .cls-24, .cls-25, .cls-26, .cls-27, .cls-28, .cls-29, .cls-30, .cls-31, .cls-32, .cls-33, .cls-34, .cls-35, .cls-36, .cls-37, .cls-38, .cls-39, .cls-40, .cls-41, .cls-42, .cls-43, .cls-44, .cls-45, .cls-46, .cls-47, .cls-48, .cls-49, .cls-50, .cls-51, .cls-52, .cls-53, .cls-54, .cls-55, .cls-56, .cls-57, .cls-58, .cls-59, .cls-60, .cls-61, .cls-62, .cls-63, .cls-64 {
        stroke-width: 0px;
      }

      .cls-2 {
        fill: #695146;
      }

      .cls-3 {
        fill: url(#linear-gradient);
      }

      .cls-4 {
        fill: #d9c19a;
      }

      .cls-5 {
        fill: #f2be88;
      }

      .cls-6 {
        fill: #b3c1bb;
      }

      .cls-7 {
        fill: #988d7c;
      }

      .cls-8 {
        fill: #421f16;
      }

      .cls-9 {
        fill: #7e5148;
      }

      .cls-10 {
        fill: #849193;
      }

      .cls-11 {
        fill: #bf9c48;
      }

      .cls-12 {
        fill: #e9f2f1;
      }

      .cls-13 {
        fill: #d9ab84;
      }

      .cls-14 {
        fill: #98743a;
      }

      .cls-15 {
        fill: #e1d4c7;
      }

      .cls-16 {
        fill: #95a6a5;
      }

      .cls-17 {
        fill: #f4d7aa;
      }

      .cls-18 {
        fill: #bc655c;
      }

      .cls-19 {
        fill: #7c4b2b;
      }

      .cls-20 {
        fill: #8d6a54;
      }

      .cls-21 {
        fill: #806a5b;
      }

      .cls-22 {
        fill: #dac447;
      }

      .cls-23 {
        fill: #7d4032;
      }

      .cls-24 {
        fill: #bb946f;
      }

      .cls-25 {
        fill: #ddb956;
      }

      .cls-26 {
        fill: #966a5f;
      }

      .cls-27 {
        fill: #d09c68;
      }

      .cls-28 {
        fill: #ab7c62;
      }

      .cls-29 {
        fill: #753d19;
      }

      .cls-30 {
        fill: #bdc5cc;
      }

      .cls-31 {
        fill: #c79a8c;
      }

      .cls-32 {
        fill: #c39133;
      }

      .cls-33 {
        fill: #9e684d;
      }

      .cls-34 {
        fill: #cfbfaf;
      }

      .cls-35 {
        fill: #444948;
      }

      .cls-36 {
        fill: url(#linear-gradient-2);
      }

      .cls-37 {
        fill: #412926;
      }

      .cls-38 {
        fill: #673528;
      }

      .cls-39 {
        fill: #69423c;
      }

      .cls-40 {
        fill: #f2e4c6;
      }

      .cls-41 {
        fill: #b1a8aa;
      }

      .cls-42 {
        fill: #b5b1ac;
      }

      .cls-43 {
        fill: url(#linear-gradient-3);
      }

      .cls-44 {
        fill: #99929a;
      }

      .cls-45 {
        fill: #77817f;
      }

      .cls-46 {
        fill: #cfa52d;
      }

      .cls-47 {
        fill: #9b5846;
      }

      .cls-48 {
        fill: #72312f;
      }

      .cls-49 {
        fill: #ebe5d6;
      }

      .cls-50 {
        fill: #a37b73;
      }

      .cls-51 {
        fill: #7f7878;
      }

      .cls-52 {
        fill: #a6998e;
      }

      .cls-53 {
        fill: #84513c;
      }

      .cls-54 {
        fill: #ffebd9;
      }

      .cls-55 {
        fill: #75707f;
      }

      .cls-56 {
        fill: #bd8565;
      }

      .cls-57 {
        fill: #86776c;
      }

      .cls-58 {
        fill: #4e2423;
      }

      .cls-59 {
        fill: #bbab9b;
      }

      .cls-60 {
        fill: #717374;
      }

      .cls-61 {
        fill: #d7958d;
      }

      .cls-62 {
        fill: #e0b2a8;
      }

      .cls-63 {
        fill: #a8712f;
      }

      .cls-64 {
        fill: #955e28;
      }
    </style>
    <linearGradient id="linear-gradient" x1="625.05" y1="63.85" x2="609.55" y2="69.06" gradientUnits="userSpaceOnUse">
      <stop offset="0" stop-color="#6a554c"/>
      <stop offset="1" stop-color="#b6a999"/>
    </linearGradient>
    <linearGradient id="linear-gradient-2" x1="244.9" y1="217.1" x2="262.62" y2="217.53" gradientUnits="userSpaceOnUse">
      <stop offset="0" stop-color="#7a4832"/>
      <stop offset="1" stop-color="#3e1e18"/>
    </linearGradient>
    <linearGradient id="linear-gradient-3" x1="412.1" y1="305.7" x2="467.72" y2="397.92" gradientUnits="userSpaceOnUse">
      <stop offset="0" stop-color="#665a58"/>
      <stop offset="1" stop-color="#7e5744"/>
    </linearGradient>
  </defs>
  <g id="Background">
    <rect class="cls-37" x="-88.55" y="-5.59" width="698.09" height="507.7"/>
    <path class="cls-37" d="M357.94-5.28c55.15,11.88,130.18,29.09,167,75.32,40.61,51,30.54,124.28,38.85,153.37,3.81,13.32,10.47,12.04,18.06,18.74,36.44,32.17.76,106.71-39.87,119.97-2.54-.14-4.86-1.15-6.82-2.73-15.09-12.16-6.52-34.69-5.45-47.03,2.89-33.28-9.65-66.11-1.36-89.97,2.76-7.95,11.7-14.56,9.2-15.68-13.28,10.19-15.17-9.63-28.63-19.77-11.26-8.47-28.04-10.27-38.51.34-13.11,13.28-7.25,35.18-10.91,51.8-1.93,8.76-14.77,33.08-15.68,38.51-2.01-1.86-3.5-4.45-4.77-6.82-.09-.18.09-.5,0-.68,6.34-4.81,6.28-16.4-2.73-17.04-1.12-.08-3.72.35-4.77.68-.45-.84-.61-1.01-.68-2.04-.64-9.49,3.35-12.94,0-16.36-.85-.87-3.11-1.87-4.09-2.04v-.68c2.95-20.71-2.65-16.48-5.45-20.45-2.35-3.33,3.66-16.33-9.88-16.36-13.03-.03-4.93,8.55-3.75,16.02-20.64-.51-1.3,14.21-6.82,19.77-3.38,3.4-19.31-5.01-4.77,17.04-18.39,5.28-9.46,14.63-10.22,21.81-.09.87-5.28,8.87-6.13,16.02-.58,4.8.96,10.25-.68,15-.68-.26-4.52-1.37-4.77-1.36-.79-24.63.94-43.77-14.31-64.75,10.07-5.08,18.38-10.18,24.54-20.11,3.81-6.13,13.1-29.82,7.5-32.38,1.93-23.3-11.29-49.95-12.27-69.53-.01-.25,3.41-2.62.34-4.09-1.26-.6-26.81-.81-27.95,0-.7.5-.23,3.11-.34,4.09-.99,8.44-.35,17.2-2.73,25.56l3.41-.34c-.02.06,1.24.18.68,1.02-1.44,2.18-4.58,1.18-4.77,1.36-1.19,1.16-2.38,12.48-12.27,30.67-5.31,9.77-13.41,18.05-17.72,28.29-6.37,9.33-12.19,19.73-15,30.67-2.48,6.58-2.16,13.89-4.77,20.45-6.14,4.88-10.63,8.93-15.68,15-16.7,20.09-12.79,27.35-16.36,38.85-1.79,5.76-3.17,4.08-9.54,6.13-4.67,1.51-13.21,2.8-17.04,4.09l-2.39-30.67c-8.79,2.68-17.77,4.57-26.92,5.45-1.87-1.82-5.09,1.17-5.45-3.41,1.35-.08,2.74.11,4.09,0,17.98-1.51,35.23-8.78,25.22-6.82q1.36-2.04,2.73-4.09c1.83.21,15.98.43,16.7,0,1.12-.67,2.14-13.37,1.7-15.68.68-.01,1.36.01,2.04,0,2.33-.05,16.45.37,17.04-.34-1.75-10.99-3.01-21.99-4.09-33.06-.07-.76-1.35-2.25-1.36-2.39-.52-5.3-.15-10.58-.68-16.02-.02-.19,1.01-.22.68-3.75-.84-8.94-2.79-18.03-4.09-26.92-.23-1.59-.97,1.36-.68-5.45,0-.09,1.35-.52,1.36-1.02.49-20.71.43-41.82-1.02-62.37-1.46-.1-2.98.15-4.43,0-1.75-.18-3.67.06-5.45,0-2.03-.06-4.1-.04-6.13,0-2.18.05-15.19-.35-15.68.34v63.05c-8.85-.06-2.12,5.27-2.04,5.79,1.66,11.83-1.54,25.19,0,37.15-.17,3.43-.53,6.81-.68,10.22-.03.64.71.72.68,1.36-.23,6.24-1.83,12.73-2.04,19.09-2.85-.47-.02,4.82-2.39,4.77-3.82-4.31-7.79-18.67-12.61-19.77-5.13-1.17-34.55.84-44.65,0-1.99,15.3-4.91,13.22-5.11,13.97-1.17,4.28-1.04,23.81-10.22,37.83-.53-.32-1.91-1.21-2.04-1.7-1.65-6.22,1.78-82.4,0-94.4-.58-3.88-9.03,2.22-10.91-5.45,3.28-.15,6.6.11,9.88,0,3.83-14.42-.43-10.55-12.61-10.91-3-.09-18.97.77-19.77-1.02-1.15-2.59-1.02-53.94,0-56.57,1.46-3.78,27.78-1.92,32.72-2.39,12.9,14.2,17.82-16.15,9.2-2.04.1-12.51-19.25-3.2-25.22-4.09-1.6-.24.93-11.44-3.07-9.54-3.54-1.07-5.2,3.67-1.36,2.04-.05,1.69.94,4.5,2.04,6.13-7.05-1.17-19.37.83-21.13,9.2-1.24,5.9,1.26,45.22-1.02,58.28l-9.2-1.02c2.39-57.43-5.31-38.45-25.22-42.6-2.91-.61-8.91-7.19-11.59-9.54-5.02-4.41-16.94-18.75-22.49-19.77-13.48-2.47-13.88,5.08-14.65,5.45-.49.23-1.88-.23-2.39,0-.71.33-3.03-1.09-5.45,2.39-.32,2.89.31,5.73,3.41,6.48,2.45.59,11.63-.4,16.36,0,8.93.76,6.7,1.56,18.4,11.59,2.48,2.12,10.87,11.67,13.29,12.27,3.06.76,16.55-.56,22.15,0,.12.89,1.34,1.41,1.36,1.7.33,4.01.4,32.1-1.02,33.06-.3.2-1.98-.15-3.07,0-2.49.34-5.59-.24-8.18,0-2.62,11.66,1.21,10.32,1.36,10.91,1.46,5.69-2.78,2.73-3.41,5.11-1.78,6.75,1.87,23.18-.68,31.01-10.95-40.28-50.04-59.01-68.84-34.42-12.63,16.51-17.03,65.42-21.81,87.25-5.55,25.32-13.36,50.35-18.4,75.66,6.09,3.72,14.85-.27,15.68-.34,6.83-.56,13.35-.3,20.11-.68,1.41-.08,7.1-2.77,7.5-2.73.95.09,12.12,10.14,12.61,12.27.51,2.2-.37,7.74,0,10.91-.22.03-.46-.04-.68,0-1.5.3-5.97,2.54-7.84,2.73-63.89,6.37-103.4-80.02-78.73-122.35,13.22-22.68,35.3-22.64,41.58-36.81,8.3-18.74,4.29-72.55,19.77-109.74C30.55,27.1,132.16,3.29,201.17-5.28c52.26-.02,104.52-.03,156.77,0Z"/>
    <path class="cls-49" d="M201.17-5.28C132.16,3.29,30.55,27.1.77,98.66c-15.47,37.19-11.47,91-19.77,109.74-6.28,14.17-28.36,14.13-41.58,36.81-24.68,42.33,14.84,128.73,78.73,122.35,1.87-.19,6.34-2.43,7.84-2.73,1.46,10.15.39,20.47.68,30.67-11.64,7.11-23.25,8.17-24.54,23.86-1.34,16.23,5.39,22.75,18.06,32.04,88.28,64.67,394.89,57.9,488.72,4.09,14.63-8.39,37.97-25.04,25.56-44.31-2.9-4.5-5.68-4.57-9.54-6.82-5.41-3.14-12.43-5.65-12.95-6.13-2.98-2.77-.58-22.24-1.36-27.95,5.35.07,28.89-3.57,31.35-8.18,40.63-13.25,76.32-87.79,39.87-119.97-7.59-6.7-14.26-5.43-18.06-18.74-8.31-29.08,1.76-102.36-38.85-153.37C488.13,23.8,413.09,6.6,357.94-5.28c75.19.05,150.44-.72,225.62,0,.96,8.07,3.26,15.9,4.77,23.86,3.26,17.17,6.13,34.53,8.86,51.8,4.31,27.22,6.46,54.86,12.27,81.79.08,80.2.13,160.41,0,240.61-6.21,36.05-10.52,72.67-15,109.06-208.12-.61-416.25.82-624.37,0-.8-9.07-5.11-19.02-7.5-28.29-15.17-58.79-26.69-117.95-30.67-178.59-.03-.53-1.33-.16-1.36-.68.1-23.68.39-47.2,2.04-70.89C-62.42,152.1-49.59,61.32-23.77-5.28c74.98-.25,149.96.04,224.94,0Z"/>
    <path class="cls-59" d="M-23.77-5.28c-25.82,66.61-38.65,157.39-43.62,228.68-1.65,23.69-1.94,47.21-2.04,70.89.03.53,1.33.16,1.36.68,3.98,60.63,15.5,119.8,30.67,178.59,2.39,9.27,6.7,19.22,7.5,28.29-6.82-.03-13.63.04-20.45,0-8.98-39.16-19.58-78.45-25.22-118.26-2.26-15.95-2.13-32.66-4.09-48.4-.08-.66-1.85-.01-2.04-.68-.61-2.05,2.62-1.39,0-7.84-.31-7.24,1-18.26.68-24.88-.01-.26-1.36-2.25-1.36-2.39-.75-14.63-2.23-28.63-.68-43.28-3.25-3.28,1.95-6.22,2.04-8.86.35-9.35-1.38-28.06-.68-37.49.11-1.53,2.69-8.4,2.73-8.86,5.48-69.31,10.85-138.67,28.63-206.19,8.86-.06,17.72.03,26.58,0Z"/>
    <path class="cls-21" d="M-50.35-5.28c-17.78,67.53-23.15,136.88-28.63,206.19-.04.46-2.61,7.33-2.73,8.86-.69,9.43,1.03,28.14.68,37.49-.1,2.64-5.3,5.58-2.04,8.86-1.55,14.65-.07,28.65.68,43.28-3.38,3.93-1.64,16.84-.68,22.15.02.12-1.4,1.93-1.36,2.04.51,1.89,2.65,2.88,2.73,3.07,2.62,6.44-.61,5.78,0,7.84.2.67,1.96.03,2.04.68,1.96,15.73,1.83,32.45,4.09,48.4,5.64,39.81,16.24,79.11,25.22,118.26-2.73-.02-5.45.02-8.18,0q-1.87-8.52-3.75-17.04c-1.1,6.12,1.61,11.18,1.7,17.04-.68,0-1.36,0-2.04,0-6.43-34.55-20.46-104.87-21.81-136.32,3.91,3.11,2.97-20.78,2.73-22.15-.1-.58-1.34-.27-1.36-.34-.78-2.81.58-3.72-3.41-4.09.57-16.09,1.01-128.69,0-139.05,4.39.94,2.17-4.14,2.73-7.5.01-.07,1.28.23,1.36-.34,2.7-18.83,3.16-72.04,6.13-100.2,3.46-32.71,10.95-64.85,17.04-97.13,2.95-.02,5.91.02,8.86,0Z"/>
    <path class="cls-37" d="M-66.71-5.28c-7.37,42.44-12.31,85.52-15.68,128.49-.41,5.27,1.54,14.26,1.36,15-.07.28-3.35,3.78-3.41,4.77-.98,16.39.96,33.01.68,49.42-.55,3.36,1.67,8.44-2.73,7.5-.36-3.71.69-9.03-2.04.68.05-68.62-.04-137.23,0-205.85,7.27-.07,14.54.1,21.81,0Z"/>
    <path class="cls-37" d="M-86.48,338.94c3.99.37,2.63,1.28,3.41,4.09-.55,7.32-1.68,15.15-1.36,22.49,1.35,31.45,15.39,101.77,21.81,136.32-8.63-.09-17.27.07-25.9,0-.04-58.62.05-117.24,0-175.86l1.36.34c-.27,4.05.22,25.4.68,12.61Z"/>
    <path class="cls-3" d="M583.56-5.28c8.63.08,17.27-.06,25.9,0,.04,52.48-.05,104.97,0,157.45-5.81-26.93-7.96-54.57-12.27-81.79,8.34-2.77-3.59-14.45.68-20.11-3.02-5.41-2.6-12.28-2.73-12.95-.05-.27-2.22-2.27-2.73-4.77-.15-.74,3.02-5.27-2.04-14.31l-2.04.34c-1.51-7.95-3.81-15.79-4.77-23.86Z"/>
    <path class="cls-59" d="M609.46,392.78c-.06,36.35.05,72.71,0,109.06h-15c4.47-36.39,8.79-73.01,15-109.06Z"/>
    <path class="cls-2" d="M-59.21-5.28c-6.09,32.28-13.58,64.43-17.04,97.13-2.98,28.16-3.43,81.37-6.13,100.2-.08.57-1.35.27-1.36.34.28-16.41-1.66-33.03-.68-49.42.06-.99,3.34-4.49,3.41-4.77.18-.73-1.78-9.72-1.36-15,3.37-42.97,8.31-86.04,15.68-128.49,2.5-.03,5,.02,7.5,0Z"/>
    <path class="cls-2" d="M-86.48,199.89c1.01,10.36.57,122.96,0,139.05-.46,12.79-.95-8.56-.68-12.61l-1.36-.34c-.04-41.81-.03-83.61,0-125.42,2.73-9.71,1.68-4.4,2.04-.68Z"/>
    <path class="cls-2" d="M-58.53,501.84c-.68,0-1.36,0-2.04,0-.09-5.86-2.81-10.92-1.7-17.04q1.87,8.52,3.75,17.04Z"/>
    <path class="cls-37" d="M359.99,235.33c-2.6-3.58-6.25-6.62-8.86-10.22,18.98-6.33,38.39-11.97,40.9-42.26,5.61,2.56-3.69,26.24-7.5,32.38-6.16,9.93-14.46,15.03-24.54,20.11Z"/>
    <path class="cls-38" d="M355.9,131.04c-4.92,33.79-25.79,51.71-37.49,68.84,4.31-10.23,12.41-18.51,17.72-28.29,9.88-18.19,11.08-29.52,12.27-30.67.19-.19,3.33.82,4.77-1.36.56-.84-.71-.97-.68-1.02,1.4-3.41.35-7.07,3.41-7.5Z"/>
    <path class="cls-9" d="M356.58,113.32c.01,5.9.17,11.86-.68,17.72-3.06.43-2,4.09-3.41,7.5l-3.41.34c2.38-8.37,1.74-17.12,2.73-25.56h4.77Z"/>
    <path class="cls-46" d="M201.51,168.53c2.49.12-4.22,11.8-6.48,4.43q3.24-2.22,6.48-4.43Z"/>
    <path class="cls-22" d="M199.47,133.09l1.7,1.02c-10.27,7.38-13.8,2.89-1.7-1.02Z"/>
    <path class="cls-46" d="M165.38,133.77c3.01-.73,10.98,15.43-1.02,1.7l1.02-1.7Z"/>
    <path class="cls-22" d="M176.29,105.82c5.04,2.18,5.18,17.41-.34,2.39l.34-2.39Z"/>
    <path class="cls-25" d="M209.01,75.83c2-.19-4.45,11.62-5.11,5.11l5.11-5.11Z"/>
    <path class="cls-15" d="M597.19,70.38c-2.73-17.27-5.6-34.63-8.86-51.8l2.04-.34c5.06,9.05,1.89,13.57,2.04,14.31.51,2.5,2.68,4.5,2.73,4.77.12.67-.29,7.54,2.73,12.95-4.27,5.66,7.66,17.34-.68,20.11Z"/>
    <path class="cls-21" d="M-81.7,326.67c-.08-.19-2.21-1.18-2.73-3.07-.03-.12,1.38-1.92,1.36-2.04-.95-5.32-2.7-18.22.68-22.15,0,.14,1.35,2.12,1.36,2.39.32,6.62-.99,17.64-.68,24.88Z"/>
    <path class="cls-2" d="M-84.43,365.52c-.32-7.34.81-15.17,1.36-22.49.02.07,1.26-.24,1.36.34.24,1.37,1.18,25.26-2.73,22.15Z"/>
    <path class="cls-2" d="M-64.66,475.94c-4.43-12.44.31-7.68.68-3.07.19,2.33-.71,2.68-.68,3.07Z"/>
    <path class="cls-2" d="M-64.66,475.94c.12.32,3.08.15,1.02,5.45-2.81-4.23-.99-5.02-1.02-5.45Z"/>
    <path class="cls-2" d="M-68.07,460.95c-.05-.16-1.49-.37-.34-3.41,2.19,1.68.29,2.88.34,3.41Z"/>
    <path class="cls-2" d="M-67.73,463.67l1.7.34c.23,2.7-1.64,2.24-1.7-.34Z"/>
    <path class="cls-2" d="M-68.07,460.95c.05.16,2.88-.33.34,2.04-.59-.16-.28-1.34-.34-2.04Z"/>
    <path class="cls-38" d="M61.44,302.81c-.23,2.4.09,5.05,0,7.5-.27,7.59.2,15.24,0,22.83.46.86,12.2-4.52,13.63-5.11,7.19,3.4-7.45,4.19-10.22,9.54-.78-.07-2.26-1.41-2.39-1.36-2.51.95-.35,27.67-.34,32.04.01,4.77.08,9.55,0,14.31-.18,10.52,2,19.17-5.45,14.65.54-4.47-.43-8.89-.68-13.29-.3-5.29-.07-11.03,0-16.36.03-2.56,3.11-26.2.34-26.58-1.88,2.54-10.18,11.07-10.57,12.61-.38,1.54.14,7.35,0,10.57-.33,7.72.86,15.59.68,23.18-.1,4.45,0,10.74-.68,15-.92,5.69-2.44,3.49-6.13,5.45v-18.4c.01-9.32-.02-18.63,0-27.95.01-6.88.13-13.55,0-20.45-.32-16.95,2.76-21.85-5.45-29.31-1.9-1.72-3.64-5.51-6.13-2.04-.43-1.74-3.72-4.12-5.45-6.13,4.75.18,4.27-4.76,8.18-6.13.98.95,2.3,1.9,3.41,2.73l.68,2.04c-5.98,2.68,2.54,9.01,5.45,12.27,1.61,1.8-.2,4.49,4.09,3.41,3.36-.85,13.69-11.15,11.59-3.75l2.04.68c1.62-23.07-3.45-16.19-5.45-20.11q2.22-.34,4.43-.68,10.39-8.86,20.79-17.72c.09.01-.31-.98,1.7-.68-2.94,16.54-17.27,20.1-18.06,22.15-.28.73.15,3.54,0,5.11Z"/>
    <path class="cls-53" d="M51.89,290.54c.11.73.59,3.91.68,4.09,2,3.92,7.07-2.96,5.45,20.11l-2.04-.68c2.1-7.4-8.23,2.9-11.59,3.75.49-4.73-.67-13.8,0-17.04.28-1.34,6.1-9.63,6.13-10.22h1.36Z"/>
    <path class="cls-53" d="M77.8,276.23q-10.39,8.86-20.79,17.72-2.22.34-4.43.68c-.09-.18-.57-3.36-.68-4.09-.13-.86,2.83-4.41-.68-4.43,9.32-4.39,15.43-11.26,26.58-9.88Z"/>
    <path class="cls-23" d="M81.2,294.63c-.04,4.32.04,8.63,0,12.95-2.62.53-.56-3.87-1.7-4.77l-17.38,7.5h-.68c.09-2.45-.23-5.1,0-7.5q9.88-4.09,19.77-8.18Z"/>
    <path class="cls-49" d="M39.62,361.43c-.02,9.32.01,18.63,0,27.95l-4.77,2.73c-.34-10.34-1.16-20.65-.68-31.01l5.45.34Z"/>
    <path class="cls-49" d="M55.98,367.56c-.07,5.33-.3,11.07,0,16.36l-9.54,3.41c.18-7.58-1.01-15.46-.68-23.18l10.22,3.41Z"/>
    <path class="cls-33" d="M81.2,333.48c-.05,6.65.87,31.74.68,33.4-.03.27-.83,1.81-1.02,4.09q-9.37-1.36-18.74-2.73c-.01-4.36-2.17-31.08.34-32.04.13-.05,1.61,1.29,2.39,1.36,8.11.77,8.93-.98,16.36-4.09Z"/>
    <path class="cls-33" d="M81.2,308.94c-.05,5.66-.66,11.46-.68,17.04-1.87.48-3.68,1.31-5.45,2.04-1.43.6-13.17,5.98-13.63,5.11.2-7.6-.27-15.24,0-22.83h.68c8.12,5.37,11.26.85,19.09-1.36Z"/>
    <path class="cls-38" d="M81.2,307.58c0,.45,0,.91,0,1.36-7.83,2.21-10.97,6.73-19.09,1.36l17.38-7.5c1.15.9-.92,5.3,1.7,4.77Z"/>
    <path class="cls-53" d="M57.69,315.76c1.6,22.13,1.21,18.78-12.27,34.08-.1-4.33-.99-23.75-.34-25.56.26-.72,11.14-6.69,12.61-8.52Z"/>
    <path class="cls-53" d="M55.98,367.56l-10.22-3.41c.14-3.22-.38-9.02,0-10.57.38-1.54,8.68-10.07,10.57-12.61,2.77.38-.31,24.02-.34,26.58Z"/>
    <path class="cls-49" d="M464.28,368.93c.32,6.8-.87,13.8-.68,20.45l-15-.68c-.48-4.65-.02-14.03,0-19.77h15.68Z"/>
  </g>
  <g>
    <path class="cls-38" d="M255.7,259.87c.44,2.3-.58,15.01-1.7,15.68-.72.43-14.87.21-16.7,0-2.36-.27-3.75.79-5.45-1.7-.55-4.33-3.17-12.8-3.41-16.02,4.33-1.81,1.99,1.44,3.07,2.04,1.06.59,21,.05,24.2,0Z"/>
    <g>
      <path class="cls-6" d="M445.19,158.31c-2.68.46-10.91,8.93-12.61,8.86-4.01-.17-6.01-19.66-18.06,1.02.81,1.08,4.61-.83,4.09,1.7-9.8-.26-17.43,2.17-16.36-5.79,10.06-9.76,13.19-3.53,14.65-3.75,1.15-.17,4.9-6.56,6.13-6.82,1.49-.31,6,2.23,6.82,2.04,1.02-.23,6.83-12.29,15.34,2.73Z"/>
      <path class="cls-16" d="M445.19,158.31c10.75-1.86,11.83,8.3,5.79,10.91-2.83,1.22-27.01.82-32.38.68.52-2.53-3.28-.63-4.09-1.7,12.06-20.68,14.06-1.19,18.06-1.02,1.7.07,9.93-8.4,12.61-8.86Z"/>
    </g>
    <path class="cls-38" d="M353.85,103.09c6.34-.15,13.7.47,19.77,0,3.72,8.27-12.33,5.74-24.54,4.43-1.27-7.72.9-4.34,4.77-4.43Z"/>
    <g>
      <path class="cls-6" d="M212.08,26.75c-3.4,6.51,1.39,17.63-6.48,20.45-10.86,3.89-2.07-8.74-19.09-12.95-4.51,3.78-3.71,10.58-3.75,16.02.85,1.19,5.99-.99,5.45,1.7-4.99.06-10.01.06-15,0-.7-10.62-11-11.26-12.27,0-12.85-.31-22.45,2.43-22.49-5.79,4.47-10,13.19-4.16,13.97-4.43.39-.14,1.89-4.7,4.77-6.82,8.62-6.33,17.24.32,18.4,0,.28-.08,1.69-3.57,3.41-4.77,7.87-5.49,14.07,1.94,17.04,1.36,1.74-.34,5.55-10.58,16.02-4.77Z"/>
      <path class="cls-16" d="M188.22,51.97c.54-2.69-4.61-.51-5.45-1.7.04-5.44-.76-12.24,3.75-16.02,17.02,4.21,8.23,16.84,19.09,12.95,7.87-2.82,3.07-13.93,6.48-20.45,4.97,2.76,6.6,9.3,7.16,9.54,1.69.73,9.63-1.76,11.93,3.07,7.9,16.61-25.46,12.4-42.94,12.61Z"/>
      <path class="cls-16" d="M173.22,51.97c-4.09-.05-8.18.1-12.27,0,1.26-11.26,11.57-10.62,12.27,0Z"/>
    </g>
    <g>
      <path class="cls-16" d="M211.39,198.52c3.72,15.2,7.32,16.49,10.22,0,9.94,1.7,7.82,10.96,3.07,12.95-3.4,1.42-17.65.57-22.83.68,5.4-2.68,7.84-9.89,6.13-15.68,1.42.66,1.31,1.62,3.41,2.04Z"/>
      <path class="cls-6" d="M221.62,198.52c-2.9,16.49-6.51,15.2-10.22,0,2.55.51,7.45-.47,10.22,0Z"/>
      <g>
        <path class="cls-6" d="M207.99,196.48c1.71,5.79-.73,13-6.13,15.68-4.64.1-33.46.61-35.1,0-1.75-.65-1.9-3.89-2.39-5.45l6.82-2.73c.24,1.08.12.97.68,2.04,3.3,6.33,11.92,4.54,12.95,2.39.23-.48-.21-1.77,0-2.39,16.48,1.5,7.59-2.26,14.31-12.95,5.76-1.33,6.47,2.3,8.86,3.41Z"/>
        <path class="cls-6" d="M199.12,193.07c-6.72,10.69,2.17,14.45-14.31,12.95.36-1.04-.7-3.33,1.02-4.09.92-.41,4.63.4,5.45,0,.76-.38,1.39-7.37,7.84-8.86Z"/>
      </g>
      <path class="cls-38" d="M171.86,206.02c-.56-1.07-.44-.97-.68-2.04-.15-.67-.69-.78-.68-1.36,18.86-7.43,18.25,7.82,1.36,3.41Z"/>
      <path class="cls-12" d="M170.5,202.61c0,.58.53.69.68,1.36l-6.82,2.73c-.56-3.74,4.01-3.25,6.13-4.09Z"/>
    </g>
    <g>
      <path class="cls-38" d="M151.41,109.91c5.01-10.1-13.5-.27-18.4-7.5-1.11-1.63-2.1-4.44-2.04-6.13.03-.88,1.32-1.16,1.36-2.04,4-1.9,1.46,9.3,3.07,9.54,5.97.89,25.32-8.42,25.22,4.09,8.62-14.1,3.7,16.25-9.2,2.04Z"/>
      <path class="cls-61" d="M132.33,94.23c-.05.89-1.34,1.17-1.36,2.04-3.84,1.63-2.17-3.12,1.36-2.04Z"/>
    </g>
    <g>
      <path class="cls-32" d="M483.02,127.63l9.88,6.48c-6.16,10.1-12.79-5.38-9.88-6.48Z"/>
      <path class="cls-32" d="M301.03,157.62c11.84,12.3-1.2,18.65-2.73.68q1.36-.34,2.73-.68Z"/>
      <path class="cls-32" d="M306.48,180.12c3.39-.61,10.83,5.59,5.45,8.18-6.52-10.55-8.7,1.48-8.52-5.79l3.07-2.39Z"/>
      <g>
        <path class="cls-16" d="M452.69,116.05c2.07-4.15,3.59-10.39,5.45-10.22.82.31.91.76,2.04.68-2.16,8.49,6.4,3.46,9.54-2.04,12.73.58,10.45,9.06,6.48,10.91-3.01,1.4-18.56.59-23.52.68Z"/>
        <g>
          <path class="cls-6" d="M458.14,105.82c-1.86-.17-3.39,6.08-5.45,10.22-4.97.1-10.03.14-15,0-6.5-6.76,1.58-10.3-6.13-9.2l1.36-1.7c11.47-1.19,10.66,1.41,11.25,1.36.32-.03,2.29-2.81,4.09-3.41,6.8-2.26,9.15,2.45,9.88,2.73Z"/>
          <path class="cls-6" d="M432.92,105.14l-1.36,1.7c7.71-1.1-.36,2.45,6.13,9.2-8.34-.23-16.29,1.42-18.4-2.39-.02-5.98,5.95-4.08,6.48-4.43.27-.18,1.77-4.19,3.41-4.77,2.2-.78,3.56.7,3.75.68Z"/>
        </g>
        <path class="cls-6" d="M469.73,104.46c-3.14,5.51-11.7,10.53-9.54,2.04.5-.03,1.48-2.41,9.54-2.04Z"/>
      </g>
      <g>
        <path class="cls-16" d="M455.41,72.42l-3.75-8.86q-2.56,4.43-5.11,8.86c-6.19-.2-16.04,2.03-15-5.45,13.82,1.04,9.28-1.93,10.57-2.73.1-.06.63,1.56,2.39,0,.24-.21,1.09-1.79,1.36-2.04,3.68,5,1.84,1.22,4.43,0,.66-.31,2.26,1.75,8.52-4.77,2.35,1.29,3.42,4.67,3.75,4.77,1.06.33,13.65-5.02,19.43,5.79-.41,6.31-14.18,4.51-26.58,4.43Z"/>
        <path class="cls-6" d="M458.82,57.43c-6.26,6.52-7.86,4.46-8.52,4.77-2.59,1.22-.75,5-4.43,0,4.39-4.15,4.88-9.22,12.95-4.77Z"/>
        <path class="cls-16" d="M455.41,72.42c-2.95-.02-5.92.1-8.86,0q2.56-4.43,5.11-8.86l3.75,8.86Z"/>
        <path class="cls-6" d="M444.51,64.24c-1.76,1.56-2.28-.06-2.39,0-1.28.8,3.26,3.77-10.57,2.73,1.82-5.74,8.22-4.73,12.95-2.73Z"/>
      </g>
      <g>
        <path class="cls-48" d="M131.64,150.13c.66.08,1.41-.14,2.04,0,9.48,2.02,6.88-3.29,12.95-8.18,14.21,15.58,7.2,8.43-16.02,10.22-2.24-1.77.31-1.06,1.02-2.04Z"/>
        <path class="cls-23" d="M146.64,141.95c-6.07,4.89-3.47,10.2-12.95,8.18q5.45-5.79,10.91-11.59c2.02,1.27,1.66,2.99,2.04,3.41Z"/>
        <path class="cls-62" d="M144.59,138.54q-5.45,5.79-10.91,11.59c-.63-.14-1.39.08-2.04,0,2.68-3.71,10.74-13.56,12.95-11.59Z"/>
      </g>
      <g>
        <path class="cls-23" d="M14.4,147.4l6.82-1.02c-5.06-3.05,1.08-4.87,2.04-9.2.11-.08.95-1.64,1.7-2.04,19.08,19.79,9.95,15.32-11.59,15.68-2.43-3.44.62-2.6,1.02-3.41Z"/>
        <path class="cls-47" d="M14.4,147.4c1.99-4,5.03-7.48,8.86-10.22-.96,4.33-7.1,6.15-2.04,9.2l-6.82,1.02Z"/>
      </g>
      <g>
        <path class="cls-23" d="M482,164.44q5.79-5.79,11.59-11.59c13.34,16.14,9.19,12.59-11.59,11.59Z"/>
        <path class="cls-62" d="M493.59,152.85q-5.79,5.79-11.59,11.59c-1.29-1.11,11.23-16.15,11.59-11.59Z"/>
      </g>
      <g>
        <path class="cls-38" d="M88.02,110.59c3.39-1.83,5.21-10.37,7.5-15q5.96,2.73,11.93,5.45c4.27,2.61-20.17,17.88-19.43,9.54Z"/>
        <path class="cls-31" d="M95.52,95.6c-2.28,4.62-4.11,13.17-7.5,15,1.87-5.43,5.78-17.19,7.5-15Z"/>
      </g>
      <g>
        <path class="cls-23" d="M499.04,135.13q5.79-5.11,11.59-10.22c3.58-.1,7.68,8.17,9.2,11.59-7.97-.54-22.83,1.32-20.79-1.36Z"/>
        <path class="cls-62" d="M510.63,124.91q-5.79,5.11-11.59,10.22c-.13-1.42,13.72-15.99,11.59-10.22Z"/>
      </g>
      <g>
        <path class="cls-23" d="M291.14,143.99c1.28,1.89,7.34-6.28,12.27-10.22.88,2,9.65,11.86,7.84,12.95h-21.13c-2.62-2.29.19-1.72,1.02-2.73Z"/>
        <path class="cls-31" d="M303.41,133.77c-4.93,3.94-10.99,12.12-12.27,10.22,2.81-3.38,10.62-12.28,12.27-10.22Z"/>
      </g>
      <g>
        <path class="cls-23" d="M87.34,49.93l10.22-10.22c2.51-.6,11.72,11.85,9.88,12.95-13.2-1.08-23.11,2.75-20.11-2.73Z"/>
        <path class="cls-62" d="M97.56,39.7l-10.22,10.22c1.74-3.17,11.6-13.84,10.22-10.22Z"/>
      </g>
      <g>
        <path class="cls-23" d="M173.9,77.87q4.43-4.43,8.86-8.86c15.78,18.08,10.71,12.98-10.57,13.63-2.76-1.09,1.14-3.84,1.7-4.77Z"/>
        <path class="cls-62" d="M182.77,69.01q-4.43,4.43-8.86,8.86c2.11-3.48,7.04-10.37,8.86-8.86Z"/>
      </g>
      <g>
        <path class="cls-23" d="M142.55,72.42c3.5,1.21,2.95-1.54,2.04-4.09,3.58-4.12,5.92,6.06,10.22,13.97-14.33-1.33-16.09-.77-12.27-9.88Z"/>
        <path class="cls-54" d="M142.55,72.42c.58-1.38.78-3.08,2.04-4.09.9,2.55,1.46,5.3-2.04,4.09Z"/>
      </g>
      <g>
        <g>
          <path class="cls-23" d="M198.44,105.14c3.22-.45,6.33-2.29,7.5-5.45q3.75,6.31,7.5,12.61c-6.59,8.85-9.48,1.43-15-7.16Z"/>
          <path class="cls-18" d="M205.94,99.69c-1.17,3.16-4.28,5-7.5,5.45-.39-1.97,6.55-5.94,7.5-5.45Z"/>
        </g>
        <path class="cls-5" d="M212.42,121.5l1.02.34c-2.64,3.3-5.63,1.19-1.02-.34Z"/>
      </g>
      <g>
        <path class="cls-37" d="M174.59,171.94l-.34,2.73,1.02-2.04c2.04,1.33,1.96,2.48,4.77,2.39.3,6.35-7.5,12.05-8.86,7.16,5.44-4.37,2.14-4.39,2.04-5.45-.15-1.75-1.63-6.77,1.36-4.77Z"/>
        <path class="cls-38" d="M171.18,182.16c-3.45-.34-.18-2.52,2.04-5.45.09,1.06,3.39,1.08-2.04,5.45Z"/>
        <path class="cls-17" d="M175.27,172.62l-1.02,2.04.34-2.73c-.07.83.58.62.68.68Z"/>
      </g>
    </g>
    <path class="cls-56" d="M39.62,407.78c-.41.22-.75.34-1.36.68-5.85,3.09-3.06-5.87-3.41-16.36l4.77-2.73v18.4Z"/>
    <g>
      <path class="cls-15" d="M378.39,70.38c-5.3,5.93,5.97,15.44-7.5,13.29,9.89,6.41,6.29,7.26,6.82,18.74-1.14.21-3.12.61-4.09.68-6.06.47-13.42-.15-19.77,0-1.26-7.59,1.06-18.65-8.18-22.49-.73-7.43,4.55-12.81-5.45-11.59-.03-.22.04-.46,0-.68-.22-1.26.16-1.25-.68-2.73.76-1.04.62-1.58.68-2.73,11.25,1.42,4.79-2.91,7.5-15,12,2.22,25.07,11.6,30.67,22.49Z"/>
      <path class="cls-49" d="M248.88,108.55c-1.22,15.62,1.36,8.46,2.73,10.22-3.61,2.35-1.21,5.15-1.36,6.13-.04.24-1.94,2.43-2.04,4.43-.62,11.45,1.68,28.01.68,40.22,2.89,2.86,6.75.21,4.77-3.41,9.88-6.12,1.9.72,3.41,5.79-13.02-1.25-12.57,2.7-13.29,2.73-.56.02-3.04-2.68-10.57-2.73v-63.05c.49-.69,13.5-.29,15.68-.34Z"/>
      <path class="cls-59" d="M322.5,69.01c5.85-.01,11.94.56,17.72-.68.04.22-.03.46,0,.68.2,1.68-.57,8.19-.68,10.91-18.73-1.56-47.79.42-70.21-.68,1.37-3.98,5.83-8.77,4.09-9.54.11-.17-.25-.56,2.04-3.41l1.02,3.41c15.33-1,30.67-.65,46.01-.68Z"/>
      <path class="cls-49" d="M338.86,47.2c-2.61,10.56,3.39,15.01-6.82,13.63-2.13-16.68-2.13-13.57-2.04,1.02-3.87,1.61-4.53,5.66-6.13,3.41.35-15.33-.98-27.57-1.36-3.07-7.9,1.16-15.92.62-23.86.68.18-1.27-.45-2.2-.68-3.41-.25-1.34-.41-2.72-.68-4.09,5.68.95,10.13-2.7,8.18-8.18,10.54,0,23.24-.57,33.4,0Z"/>
      <path class="cls-49" d="M250.25,54.02c-3.13,14.53,3.94,35.32-6.48,30.67-.82,16.63,7.98,18.94-9.2,17.72.11-19.77-2.36-36.01,15.68-48.4Z"/>
      <path class="cls-7" d="M264.56,171.94h-4.09v-11.59c-1.02-13.46,3.05-26.02-4.09-21.81.09-1.21,3.6-8.09,2.04-10.91,6.48-.93,5.08-7.6,4.09-12.27-.35-1.65-3.4-2.43-2.04-6.82,1.45.15,2.97-.1,4.43,0,1.45,20.55,1.51,41.66,1.02,62.37-.01.5-1.36.94-1.36,1.02Z"/>
      <path class="cls-38" d="M233.21,171.94c7.52.05,10,2.75,10.57,2.73.72-.03.27-3.98,13.29-2.73h7.5c-.28,6.81.45,3.86.68,5.45h-4.77c-1.36,0-2.73,0-4.09,0-.45,0-.91-.03-1.36,0-4.88.34-7.85-1.87-8.86,3.75.57,1.6,7.78-.13,5.45,7.16-7.84,2.52-13.49-4.98-13.63-5.79-.62-3.57,8.61-4.89-5.79-4.43-.95,9.97.1,20.02-.34,29.99-.09,2.15-.57,4.55-.68,6.82-1.54-11.96,1.66-25.32,0-37.15-.07-.53-6.8-5.85,2.04-5.79Z"/>
      <path class="cls-59" d="M256.38,177.39v18.74c8.97,2.69,2.56-4.11,4.09-18.74h4.77c1.3,8.89,3.25,17.99,4.09,26.92.33,3.53-.7,3.56-.68,3.75-3.89-.5-7.77.55-11.59.68,2.34-16.98-1.31-8.68-3.41-11.25-.33-.4.67.74.68-9.2,0-.79,1.36-1.42,1.36-1.7.02-1.66-2.9-4.65-.68-9.2.45-.03.91,0,1.36,0Z"/>
      <path class="cls-49" d="M305.46,47.2c1.95,5.48-2.5,9.13-8.18,8.18-.97-4.87.12-7.19-3.07-7.5.18,10.66-3.89,4.86-17.72,8.18-.35-11.68-2.09-10.92-1.7.34-9.19,1.64-6.52-.31-6.82-9.2,7.8-.7,27.05,0,37.49,0Z"/>
      <path class="cls-59" d="M271.38,72.42c-1.39,2.42-2.3,4.96-3.41,7.5-2.03,4.66-4.67,8.04-4.77,8.52-2,9.53,4.47,13.71-4.77,14.65q-.34-8.18-.68-16.36c1.08-1.09,1.46-2.05,2.04-3.41,2.4-5.6-1.12-4-.68-9.88,3.04-1.8,2.89,6.18,4.77,1.02,1.23-.24,2.9,1.39,3.07,1.36.72-.13,2.27-2.83,3.07-3.41.12.08.8-.05,1.36,0Z"/>
      <path class="cls-7" d="M377.71,102.41c-.53-11.49,3.08-12.33-6.82-18.74,13.47,2.15,2.2-7.36,7.5-13.29,6.14,11.94,3.67,18.77,4.09,31.7-.55.77-3.69.14-4.77.34Z"/>
      <g>
        <path class="cls-36" d="M268.65,208.06c.53,5.44.16,10.72.68,16.02.01.14,1.29,1.63,1.36,2.39h-39.53c.02-.64-.71-.72-.68-1.36,14.65,1.22,7.41-1.31,8.18-16.36,6.1.07,12.31.21,18.4,0,3.81-.13,7.7-1.19,11.59-.68Z"/>
        <path class="cls-53" d="M238.66,208.75c-.77,15.05,6.47,17.58-8.18,16.36.15-3.42.51-6.79.68-10.22.12-2.27.59-4.67.68-6.82,2.02,1.14,4.56.65,6.82.68Z"/>
      </g>
      <path class="cls-49" d="M252.29,52.65c1.98-1.14,3.94-2.67,6.13-3.41,1.03,11.86,3.32,18.7-6.13,18.06v-14.65Z"/>
      <path class="cls-49" d="M347.72,47.88c-2.71,12.09,3.75,16.41-7.5,15,.29-5.19-.21-10.47,0-15.68,2.86.2,4.52.13,7.5.68Z"/>
      <path class="cls-15" d="M255.02,108.55c-.11,2.26.15,4.56,0,6.82-.99,14.96-2.35,4.77-3.41,3.41-1.37-1.76-3.95,5.39-2.73-10.22,2.03-.04,4.1-.06,6.13,0Z"/>
      <path class="cls-59" d="M345.67,80.6c-2.55-1.06-3.77-.48-6.13-.68.11-2.71.88-9.23.68-10.91,10-1.22,4.72,4.16,5.45,11.59Z"/>
      <path class="cls-49" d="M340.22,47.2c-.21,5.2.29,10.48,0,15.68-.06,1.15.08,1.69-.68,2.73-3.35-5.91-7.03,1.32-7.5-4.77,10.21,1.37,4.21-3.07,6.82-13.63.45.03.91-.03,1.36,0Z"/>
      <path class="cls-49" d="M260.47,108.55c-1.35,4.39,1.69,5.17,2.04,6.82-3.09-1.38-4.25-1-7.5,0,.15-2.25-.11-4.56,0-6.82,1.78.06,3.7-.18,5.45,0Z"/>
      <path class="cls-38" d="M230.82,103.09c5.99-.61,6.62,5.32,0,4.09v-4.09Z"/>
      <path class="cls-21" d="M269.33,79.24c-.08,0,.26.94-1.36.68,1.1-2.54,2.02-5.08,3.41-7.5.58-1,1.44-1.79,2.04-2.73,1.74.78-2.72,5.56-4.09,9.54Z"/>
      <path class="cls-59" d="M332.04,60.83c.47,6.09,4.15-1.14,7.5,4.77.84,1.48.46,1.46.68,2.73-5.78,1.24-11.87.67-17.72.68-1.01-2.29-.04-4.57,0-6.82.39-24.5,1.72-12.26,1.36,3.07,1.6,2.25,2.27-1.8,6.13-3.41-.09-14.6-.09-17.7,2.04-1.02Z"/>
      <path class="cls-15" d="M258.43,127.63c1.55,2.81-1.95,9.7-2.04,10.91-.15,1.87,3.9,2.22-1.36,3.07,3.48,1.18-.53,4.37,0,6.13.26.85,2.71,1.34,2.73,2.04.05,1.77-1.7.57-2.04,1.36-.18.41,1.91,2.22,2.04,3.41.22,1.98-1.48,11.45,2.73,5.79v11.59h-3.41c-1.51-5.08,6.48-11.91-3.41-5.79,1.98,3.62-1.88,6.27-4.77,3.41.99-12.21-1.3-28.76-.68-40.22.11-2,2.01-4.19,2.04-4.43,2.66,2.39,4.49,3.26,8.18,2.73Z"/>
      <path class="cls-38" d="M262.52,115.36c.99,4.67,2.39,11.34-4.09,12.27-3.69.53-5.52-.34-8.18-2.73.15-.99-2.25-3.79,1.36-6.13,1.06,1.36,2.41,11.55,3.41-3.41,3.25-1,4.41-1.38,7.5,0Z"/>
      <path class="cls-15" d="M322.5,62.2c-.04,2.24-1.01,4.53,0,6.82-15.34.03-30.68-.32-46.01.68l-1.02-3.41c.85-1.05.44-2.79,1.7-3.41.6-.29,11.59.05,13.29,0,2.61-.07,5.51.02,8.18,0,7.94-.06,15.96.48,23.86-.68Z"/>
      <g>
        <path class="cls-15" d="M267.97,47.2c.3,8.89-2.37,10.84,6.82,9.2-.38-11.26,1.35-12.02,1.7-.34,13.83-3.32,17.9,2.49,17.72-8.18,3.19.3,2.1,2.63,3.07,7.5.27,1.37.43,2.75.68,4.09-9.5,3.17-4.24-3.53-5.11-4.09-17.09,1.12-27.09,7.33-2.04,5.45l-.34,2.04c-1.7.05-12.69-.29-13.29,0-1.27.62-.85,2.35-1.7,3.41-2.29,2.84-1.94,3.24-2.04,3.41-.61.93-1.47,1.72-2.04,2.73-.56-.05-1.25.08-1.36,0-.75-.53-1.91-3.34-3.07-3.41-3.82,1.04-2.55,4.02-3.07,5.45-1.88,5.16-1.73-2.82-4.77-1.02-.44,5.88,3.08,4.28.68,9.88-3.48-10.76-11.94,13.34-2.04,3.41q.34,8.18.68,16.36c-2.61.27-23.28.36-23.86-.68,17.19,1.22,8.38-1.09,9.2-17.72,10.41,4.64,3.35-16.14,6.48-30.67.83-.57.92-.72,2.04-1.36v14.65c9.45.64,7.16-6.2,6.13-18.06,1.1-.37,2.32-.43,3.41-.68q-.34,7.33-.68,14.65c8.81,1.33,4.72-7.6,4.77-16.02.67-.08,1.37.06,2.04,0Z"/>
        <g>
          <path class="cls-49" d="M261.83,48.56c1.05-.24,3.42-1.28,4.09-1.36-.05,8.42,4.04,17.35-4.77,16.02q.34-7.33.68-14.65Z"/>
          <path class="cls-49" d="M297.96,59.47c.23,1.21.86,2.13.68,3.41-2.67.02-5.57-.07-8.18,0l.34-2.04c-25.04,1.88-15.05-4.33,2.04-5.45.87.56-4.38,7.26,5.11,4.09Z"/>
          <path class="cls-15" d="M259.79,83.33c-.58,1.36-.96,2.32-2.04,3.41-9.9,9.94-1.44-14.16,2.04-3.41Z"/>
          <path class="cls-15" d="M270.01,72.42c-.8.58-2.35,3.28-3.07,3.41-.17.03-1.84-1.6-3.07-1.36.52-1.43-.76-4.41,3.07-5.45,1.15.06,2.31,2.88,3.07,3.41Z"/>
          <path class="cls-49" d="M268.99,58.79h5.45c2.95,5.95-8.39,5.99-5.45,0Z"/>
        </g>
      </g>
      <g>
        <path class="cls-49" d="M249.56,226.47c.71,4.2-.94,31.06,0,32.38.51.72,6.15.24,7.5.34.52.04.75.1.68.68-.68.01-1.36-.01-2.04,0-3.2.05-23.14.59-24.2,0-1.08-.6,1.26-3.86-3.07-2.04-.32-4.29.54-8.1.68-12.27.22-6.35,1.81-12.84,2.04-19.09h18.4Z"/>
        <path class="cls-59" d="M270.69,226.47c1.08,11.07,2.34,22.07,4.09,33.06-.59.71-14.71.29-17.04.34.07-.58-.16-.64-.68-.68.63-10.93-3.84-10.14,3.41-11.93-3.97-7.68.6-7.05.68-7.5,1.71-8.87-2.91-4.5-2.73-13.29h12.27Z"/>
        <path class="cls-15" d="M258.43,226.47c-.19,8.8,4.44,4.42,2.73,13.29-.09.45-4.65-.18-.68,7.5-7.24,1.79-2.78,1-3.41,11.93-1.34-.1-6.99.38-7.5-.34-.94-1.32.71-28.17,0-32.38h8.86Z"/>
      </g>
      <path class="cls-49" d="M251.61,188.3c.65-.21,1.89.13,2.73,0-.02,9.94-1.01,8.8-.68,9.2,2.1,2.57,5.75-5.74,3.41,11.25-6.09.21-12.3.07-18.4,0-2.26-.03-4.8.46-6.82-.68.44-9.97-.61-20.02.34-29.99,14.41-.46,5.18.86,5.79,4.43.14.81,5.79,8.31,13.63,5.79Z"/>
      <path class="cls-59" d="M260.47,160.35c-4.2,5.66-2.5-3.81-2.73-5.79-.13-1.19-2.22-3-2.04-3.41.34-.79,2.1.4,2.04-1.36-.02-.7-2.47-1.19-2.73-2.04-.53-1.76,3.48-4.96,0-6.13,5.26-.85,1.22-1.2,1.36-3.07,7.14-4.21,3.07,8.35,4.09,21.81Z"/>
      <path class="cls-59" d="M260.47,177.39c-1.53,14.63,4.88,21.43-4.09,18.74v-18.74c1.36,0,2.73,0,4.09,0Z"/>
      <path class="cls-34" d="M255.02,177.39c-2.22,4.55.7,7.55.68,9.2,0,.29-1.36.91-1.36,1.7-.84.13-2.07-.21-2.73,0,2.33-7.29-4.88-5.56-5.45-7.16,1.01-5.62,3.98-3.41,8.86-3.75Z"/>
    </g>
    <g>
      <path class="cls-15" d="M421.33,212.15c-1.51,3.97-6.25,9.89-7.5,12.95-4.57,11.19-11.9,57.76-13.63,60.32-1.5,2.23-17.14.44-20.45,1.02.86-7.15,6.04-15.15,6.13-16.02.76-7.19-8.17-16.53,10.22-21.81-14.54-22.05,1.39-13.64,4.77-17.04,5.52-5.56-13.82-20.28,6.82-19.77-1.18-7.47-9.28-16.05,3.75-16.02,13.55.03,7.53,13.03,9.88,16.36Z"/>
      <path class="cls-57" d="M439.06,270.77c1.28,2.36,2.76,4.96,4.77,6.82-1.17,6.99,3.49,7.46,4.09,9.54h-21.13c-.49-6.9-2.44-13.04-3.41-19.77,4.56-.16,10.95,5.6,15.68,3.41Z"/>
      <path class="cls-59" d="M426.79,232.6c-1.11.05-2.4-.3-3.41-.68q.17-6.13.34-12.27c-2.89,2.49-4.85,5.42-6.48,8.86-.02.04-.76-.16-.68.68-.66-1.98-.52-3.58-2.73-4.09,1.25-3.06,5.99-8.98,7.5-12.95,2.8,3.97,8.4-.26,5.45,20.45Z"/>
      <path class="cls-59" d="M426.79,233.28c.98.17,3.24,1.17,4.09,2.04-2.63,4.74-4.59,9.36-10.91,10.91-1.12-5.94-1.84-12.02-2.04-12.95,2.68.3,6.5-.42,8.86,0Z"/>
      <path class="cls-59" d="M430.88,251.69q-4.77-.68-9.54-1.36c-.04-.21-.36,1.23-1.36-4.09,6.31-1.54,8.28-6.16,10.91-10.91,3.35,3.42-.64,6.86,0,16.36Z"/>
      <g>
        <path class="cls-52" d="M436.33,253.05c2.55,9.94-.31,13.98,0,14.65.23.49,1.46-.14,2.73,2.39.09.18-.09.51,0,.68-4.73,2.19-11.12-3.57-15.68-3.41-.39-2.71-.91-5.47-1.36-8.18,2.2-.29,9.02-5.29,9.54-5.45,1.05-.34,3.65-.76,4.77-.68Z"/>
        <path class="cls-57" d="M439.06,270.09c-1.27-2.52-2.5-1.9-2.73-2.39-.31-.68,2.55-4.71,0-14.65,9.01.64,9.07,12.23,2.73,17.04Z"/>
      </g>
      <path class="cls-21" d="M430.88,251.69c.07,1.04.23,1.21.68,2.04-.52.17-7.34,5.16-9.54,5.45-1.1-6.65-.6-8.42-.68-8.86q4.77.68,9.54,1.36Z"/>
      <path class="cls-57" d="M423.38,231.92c1.01.38,2.3.73,3.41.68v.68c-2.36-.42-6.18.3-8.86,0-.05-.21-1.06-3.17-1.36-4.09-.07-.84.66-.64.68-.68,1.93,1.26,3.98,2.59,6.13,3.41Z"/>
      <g>
        <path class="cls-42" d="M416.56,229.19c.31.92,1.32,3.88,1.36,4.09.21.94.92,7.01,2.04,12.95,1.01,5.32,1.32,3.88,1.36,4.09.08.44-.42,2.21.68,8.86.45,2.71.97,5.47,1.36,8.18.97,6.73,2.91,12.87,3.41,19.77.43,6,1.94,112.68,0,118.26-.18.52-.89.34-1.36.34-1.72-.68-16.14-4.94-18.4-5.45-1.08-18,3.66-50.7-2.73-66.46-1.48-3.66-7.23-8.67-7.5-9.2-.48-.94-.67-.64-.68-.68-.05-.13.29-.8,0-2.73-.61-3.97,1.4-4.91-.68-6.82-2.47-2.26-8.28-2.81-11.59-4.09.38-1.85-.23-3.09-.68-4.77-.21-.79,2.31-1.66-4.09-4.09,1.64-4.74.11-10.2.68-15,3.31-.59,18.95,1.2,20.45-1.02,1.73-2.56,9.06-49.13,13.63-60.32,2.21.51,2.07,2.11,2.73,4.09Z"/>
        <path class="cls-43" d="M447.92,287.13c1.07,3.71-1.32,21.98.68,28.63-2.85,3.69.68,9.04.68,9.54,0,.72-4.26,5.79.68,12.95-2.7,1.32-1.55,6.64,0,8.86-2.3,1.85-1.34,13.96-1.36,21.81-.02,5.74-.48,15.12,0,19.77.18,1.72-.66,3.6,1.02,4.77h14.65c.17,6-.16,15.32,0,18.4q-16.02-1.02-32.04-2.04c-1.55-2.56-1.26-1.49-2.04-2.04-1.43-1.01-3.17-1.41-4.77-2.04.47,0,1.18.18,1.36-.34,1.94-5.58.43-112.26,0-118.26h21.13Z"/>
        <path class="cls-51" d="M407.02,400.28c-4.89-1.1-5.28-1.58-10.91-.68,2.05-4.37-.15-63.93.68-74.98.27.53,6.01,5.54,7.5,9.2,6.39,15.76,1.65,48.46,2.73,66.46Z"/>
      </g>
      <path class="cls-15" d="M423.38,231.92c-2.16-.82-4.21-2.15-6.13-3.41,1.63-3.44,3.58-6.37,6.48-8.86q-.17,6.13-.34,12.27Z"/>
    </g>
    <path class="cls-8" d="M80.52,325.99c-.01,2.25.7,5.01.68,7.5-7.43,3.11-8.25,4.86-16.36,4.09,2.77-5.35,17.41-6.14,10.22-9.54,1.78-.74,3.58-1.56,5.45-2.04Z"/>
    <g>
      <path class="cls-33" d="M39.62,340.98c-2.25.41-.95-1.68-1.36-2.73-.9-2.31-2.87-4.55-4.77-6.13.02-.68-.03-1.37,0-2.04.28-6.09-.77-12.39.68-18.4,8.21,7.46,5.14,12.36,5.45,29.31Z"/>
      <path class="cls-38" d="M44.4,317.81c-4.29,1.09-2.48-1.61-4.09-3.41q-.34-5.79-.68-11.59c1.8-.24,3.17-1.36,4.77-2.04-.67,3.24.49,12.31,0,17.04Z"/>
    </g>
    <g>
      <g>
        <path class="cls-38" d="M47.12,285.77c-1.51-.18-2.06,1.03-2.73,2.04-2.47-.04-4.42.36-6.82-.68-.11-.05-1.22-1.95-1.36-2.04,7.02-11.42,5.24-5.34,7.16-6.13,6.11-2.53,7.87-10,11.25-14.65.96-1.32,5.92-3.79,6.13-4.09.04-.06-1.1-.73-.68-1.36,1.35-2.06,4.56-3.74,2.04-7.84l1.36-.34c3.68,9.53.76,22.11-7.84,28.29-7.1,5.1-11.16,1.84-8.52,6.82Z"/>
        <path class="cls-38" d="M36.22,285.09c-3.46-2.31-12.89-10.91-8.52-10.91,11.03,6.96,10.48,4.8,2.39-3.75,8.46,2.1,10.99,12.04,12.27,1.36,3.04-2.79-.81,4.3,2.04,1.36q8.86-11.08,17.72-22.15c2.51,4.1-.7,5.78-2.04,7.84-.42.63.73,1.3.68,1.36-.22.3-5.17,2.77-6.13,4.09-3.38,4.66-5.13,12.13-11.25,14.65-1.92.79-.14-5.28-7.16,6.13Z"/>
      </g>
      <path class="cls-53" d="M-20.36,337.57c3.93-5.68,20-9.09,26.58-11.59.62,1.79,5.82,9.66,3.07,10.91q-14.83.34-29.65.68Z"/>
      <path class="cls-38" d="M30.76,297.36c-3.91,1.37-3.43,6.32-8.18,6.13-.66-.76-12.68-11.94-10.57-12.95,7.56,5.4,15.25,9.24,5.79-.34,5.09-1.94,9.5,3.81,12.95,7.16Z"/>
      <path class="cls-38" d="M34.17,311.67c-1.45,6.01-.4,12.31-.68,18.4-1.74.01-2.67-4.43-6.13-9.54.95-1.77,1.01-9.58.68-10.91,2.5-3.46,4.24.32,6.13,2.04Z"/>
      <g>
        <path class="cls-38" d="M47.12,285.77c.22.41,3.52,2.66,3.41,4.77-.03.6-5.86,8.88-6.13,10.22-1.6.68-2.98,1.81-4.77,2.04-.6.08-1.45.08-2.04,0,1.17-3.79,4.86-12,6.82-15,.67-1.02,1.22-2.23,2.73-2.04Z"/>
        <path class="cls-23" d="M44.4,287.81c-1.96,2.99-5.65,11.21-6.82,15-1.06-.14-1.69.13-2.73-.68l-.68-2.04,3.41-12.95c2.4,1.05,4.35.64,6.82.68Z"/>
      </g>
      <g>
        <path class="cls-33" d="M79.84,216.93c.74,2.73.49,4.59,2.04,4.09-.19,24.54-.48,49.08-.68,73.62q-9.88,4.09-19.77,8.18c.15-1.57-.28-4.38,0-5.11.8-2.06,15.13-5.61,18.06-22.15-2.01-.29-1.61.69-1.7.68-11.16-1.38-17.26,5.5-26.58,9.88,3.51.02.55,3.57.68,4.43h-1.36c.11-2.11-3.19-4.36-3.41-4.77-2.64-4.97,1.42-1.71,8.52-6.82,8.6-6.18,11.52-18.75,7.84-28.29l-1.36.34q-8.86,11.08-17.72,22.15c-2.86,2.94.99-4.16-2.04-1.36-1.28,10.67-3.81.73-12.27-1.36,8.09,8.55,8.65,10.71-2.39,3.75-4.37,0,5.06,8.6,8.52,10.91.14.09,1.25,2,1.36,2.04l-3.41,12.95c-1.11-.83-2.43-1.78-3.41-2.73-3.45-3.34-7.86-9.1-12.95-7.16,9.46,9.58,1.77,5.74-5.79.34-2.11,1.01,9.91,12.19,10.57,12.95,1.73,2.01,5.02,4.39,5.45,6.13.33,1.33.27,9.14-.68,10.91-3.64-5.37-7.74-10.63-13.97-12.95-2.36.05.38,1.23.34,1.36-1.46,4.89-4.51,3.2-8.86,3.41-7.05-8.1-3.88-1.42,1.36,13.63-6.59,2.49-22.65,5.91-26.58,11.59-3.38,1.11,1.97,3.55,6.82,7.5-.83.07-9.59,4.06-15.68.34,5.05-25.31,12.86-50.34,18.4-75.66,4.78-21.83,9.18-70.74,21.81-87.25,18.81-24.59,57.9-5.86,68.84,34.42Z"/>
        <path class="cls-37" d="M38.26,338.25q-.34,10.74-.68,21.47c-6.79.29-4.32-3.18-4.77-7.84-.52-5.34-.81-12.7-.68-18.06,0-.36,1.36-1.6,1.36-1.7,1.9,1.58,3.87,3.83,4.77,6.13Z"/>
      </g>
      <g>
        <path class="cls-38" d="M39.62,340.98c.13,6.9.01,13.57,0,20.45l-5.45-.34c-.48,10.37.34,20.67.68,31.01.35,10.49-2.44,19.45,3.41,16.36-1.97,1.11-4.12,1.51-3.41,4.09-2.17.28-7.97,3.19-7.5.68h2.39c2.31-1.68-.56-41.88.34-47.37-1.51-3.12-2.32-1.18-3.41-1.02-.37-3.16.51-8.71,0-10.91,2.68.14,4.45.27,6.13-2.04.46,4.65-2.02,8.13,4.77,7.84q.34-10.74.68-21.47c.41,1.05-.89,3.13,1.36,2.73Z"/>
        <path class="cls-23" d="M27.36,413.23c-.02-5.93-.51-11.8-.68-17.72-.29-10.2.78-20.52-.68-30.67.22-.04.46.03.68,0,1.09-.16,1.9-2.1,3.41,1.02-.9,5.49,1.97,45.69-.34,47.37h-2.39Z"/>
        <g>
          <path class="cls-38" d="M27.36,320.53c3.47,5.11,4.39,9.55,6.13,9.54-.03.68.02,1.36,0,2.04,0,.11-1.35,1.34-1.36,1.7-.13,5.37.16,12.72.68,18.06-1.69,2.31-3.46,2.18-6.13,2.04-.49-2.13-11.66-12.18-12.61-12.27-.4-.04-6.09,2.65-7.5,2.73-6.76.38-13.28.13-20.11.68-4.85-3.95-10.2-6.39-6.82-7.5q14.83-.34,29.65-.68c2.75-1.24-2.44-9.11-3.07-10.91-5.24-15.05-8.41-21.73-1.36-13.63,6.73,7.74,2.59,10.91,13.63,3.75-.17-3.66-.83-6.3-4.77-7.16.04-.13-2.7-1.31-.34-1.36,6.23,2.33,10.33,7.58,13.97,12.95Z"/>
          <path class="cls-53" d="M4.86,312.35c4.35-.2,7.4,1.48,8.86-3.41,3.94.85,4.6,3.5,4.77,7.16-11.05,7.16-6.9,3.99-13.63-3.75Z"/>
          <path class="cls-37" d="M17.81,335.53c.37.32,7.25,2.83,8.86,4.09-.04,1.31.33,6.29-.34,6.82-4.41-3.26-15.78-4.63-8.52-10.91Z"/>
          <path class="cls-23" d="M26.67,339.62c-1.62-1.26-8.49-3.77-8.86-4.09-.31-.27-1.94-2.21-1.02-2.73,8.42,2.17,10.19-4.46,9.88,6.82Z"/>
        </g>
      </g>
      <path class="cls-33" d="M37.58,302.81c.6.08,1.45.08,2.04,0q.34,5.79.68,11.59c-2.91-3.26-11.44-9.59-5.45-12.27,1.04.82,1.66.55,2.73.68Z"/>
    </g>
    <g>
      <path class="cls-27" d="M484.72,346.43c4.49,9.14,14.77,9.48,22.49,4.09,6.81,12.12,15.38,18.7,27.95,8.86,1.96,1.58,4.28,2.59,6.82,2.73-2.46,4.61-26,8.25-31.35,8.18-.23,0-.45,0-.68,0-.14,0,.83-.46-2.73-.68-3.95-.25-8.9-3.01-12.61-2.73-4.89.38-14.79,10.36-24.2,2.73,0-3.43-1.4-7.34-.68-10.91,1.27-.29,11.82-11.2,14.31-12.95l.68.68Z"/>
      <g>
        <path class="cls-27" d="M529.71,312.35c-1.07,12.34-9.64,34.87,5.45,47.03-12.57,9.84-21.13,3.25-27.95-8.86,7.75-5.4,4.27-4.62,1.36-8.18-.67-.82-1.32-1.97-2.04-2.73.45,0,1.18.19,1.36-.34.47-1.34,5.33-26.53,5.45-27.95,2.44-27.31-13.48-32.75-21.13-43.28-3.68-5.07-5.81-11.28-8.86-16.7,1.53-2.01,13.41,4.42,18.06,2.39,5.7-2.49,1.58-11.75,1.02-16.36.9.09,1.96-.3,2.73.34,2.19,1.84,17.97,37.84,19.77,47.03,1.81,9.25.65,26.45,4.77,27.61Z"/>
        <path class="cls-27" d="M529.71,312.35c-4.12-1.15-2.96-18.35-4.77-27.61-1.8-9.19-17.57-45.19-19.77-47.03-.76-.64-1.83-.26-2.73-.34-2.43-20.23,4.91,5.05,25.9-15-8.29,23.86,4.25,56.69,1.36,89.97Z"/>
        <path class="cls-27" d="M492.22,268.05c7.65,10.54,23.57,15.98,21.13,43.28-.13,1.42-4.98,26.6-5.45,27.95-.19.53-.91.34-1.36.34-2.19-2.29-5.1-4.04-6.82-6.82.1-.07,1.15-1.85,1.36-2.04.86-.76,4.35-3.2,4.09-4.43-10.07-6.58-22.39-4.38-32.38,1.02-2.1-16.97-2.54-14.54,2.39-10.91.14.1.36,1.37,2.73,2.04,13.53,3.85,17.03-21.88,10.91-25.22-1-2-3.63.49-6.13,2.04-2.56-18.29-18.46-26.9-3.07-39.53,5.76,6.37,10.49,16.81,12.61,12.27Z"/>
      </g>
      <g>
        <path class="cls-5" d="M528.35,222.38c-20.99,20.04-28.34-5.24-25.9,15,.55,4.61,4.68,13.87-1.02,16.36-4.66,2.03-16.53-4.39-18.06-2.39,3.05,5.42,5.18,11.63,8.86,16.7-2.12,4.54-6.85-5.9-12.61-12.27-15.39,12.64.51,21.24,3.07,39.53-3.37,2.09-5.84,5.8-9.54,7.5-.42-1.81-3.23-5.36-4.77-6.82-.51-.48-.68-.86-1.36-1.36-.53-.39-6.38-3.87-6.82-3.07-.27.5.47,10.72.68,11.25.3.76,6.02,5.35,7.5,6.82,0,.23,0,.45,0,.68,0,2.37.5,16.67,0,17.38-1.46,2.05-17.5-2.88-15,3.75,4.52,8.67,11.83,6.54,12.27,7.16.98,1.39-.76,11.19-.68,13.29-3.18-3.58-14.27-12.58-15-13.63-4.94-7.17-.67-12.23-.68-12.95h.68c9.26-3.75,7.04-5.85,8.18-14.65-.85-2.32-3.36,1.28-4.09,1.7-1.26.74-4.69,2.42-5.45,3.41-2-6.65.39-24.92-.68-28.63-.6-2.09-5.26-2.55-4.09-9.54.91-5.43,13.75-29.75,15.68-38.51,3.65-16.63-2.21-38.52,10.91-51.8,10.48-10.61,27.26-8.81,38.51-.34,13.46,10.14,15.35,29.96,28.63,19.77,2.5,1.12-6.44,7.73-9.2,15.68Z"/>
        <path class="cls-27" d="M485.75,214.2c3.02-.04.14,4.11-2.04,7.5-13.16-6.51-11.79-6.55,2.04-7.5Z"/>
        <path class="cls-53" d="M467,294.63c-2.85,2.56-2.68,6.69-6.13,8.18-.21-.52-.95-10.75-.68-11.25.43-.81,6.29,2.68,6.82,3.07Z"/>
      </g>
      <path class="cls-5" d="M464.28,368.93h-15.68c.02-7.86-.94-19.96,1.36-21.81.63.9,13.97,10.87,14.31,11.93.35,1.06-.13,7.04,0,9.88Z"/>
    </g>
    <g>
      <path class="cls-38" d="M449.96,338.25c.73,1.05,11.81,10.06,15,13.63.16,4.01-.57,8.05,4.77,6.82-.72,3.56.68,7.48.68,10.91,0,7.19-.72,14.54-.68,21.81.04,8.4.51,16.83,0,25.22-1.2.33-3.86,1.82-4.43,1.36.02-2.2-1.01-5.82-1.02-6.13-.16-3.08.17-12.4,0-18.4-.14-5.05-.68-3.88-.68-4.09-.19-6.65,1-13.64.68-20.45-.13-2.84.35-8.82,0-9.88-.35-1.06-13.68-11.02-14.31-11.93-1.55-2.22-2.7-7.54,0-8.86Z"/>
      <path class="cls-38" d="M468.37,295.99c-.51,4.52-.04,9.1,0,13.63-1.47-1.46-7.19-6.06-7.5-6.82,3.45-1.49,3.29-5.62,6.13-8.18.69.51.85.88,1.36,1.36Z"/>
      <path class="cls-38" d="M473.14,302.81c.53,2.26-1.72,11.74-4.77,7.5,0-.23,0-.45,0-.68-.04-4.54-.51-9.11,0-13.63,1.55,1.45,4.35,5,4.77,6.82Z"/>
      <path class="cls-38" d="M454.05,312.35c5.05,3.02-3.91,6.7-4.09,12.95h-.68c0-.51-3.53-5.85-.68-9.54.76-.98,4.19-2.67,5.45-3.41Z"/>
      <path class="cls-38" d="M449.96,325.3c.18-6.26,9.14-9.93,4.09-12.95.73-.43,3.24-4.03,4.09-1.7-1.14,8.81,1.08,10.9-8.18,14.65Z"/>
      <g>
        <path class="cls-53" d="M499.72,332.8c1.72,2.78,4.63,4.53,6.82,6.82.72.76,1.37,1.9,2.04,2.73-4.12.63-21.95,5.18-23.86,4.09l-.68-.68c-5.67-6.95,13.59-11.65,15.68-12.95Z"/>
        <path class="cls-38" d="M508.58,342.34c2.91,3.56,6.38,2.78-1.36,8.18-7.72,5.39-18,5.05-22.49-4.09,1.91,1.09,19.74-3.46,23.86-4.09Z"/>
      </g>
      <g>
        <path class="cls-38" d="M488.81,293.27c6.13,3.34,2.62,29.07-10.91,25.22,5.57-2.19,8.79-15.5,9.54-21.81.18-1.52.15-3.97,1.36-3.41Z"/>
        <path class="cls-38" d="M477.91,318.49c-2.37-.67-2.59-1.94-2.73-2.04q6.13-9.88,12.27-19.77c-.75,6.31-3.98,19.62-9.54,21.81Z"/>
      </g>
      <g>
        <path class="cls-53" d="M488.81,293.27c-1.21-.56-1.18,1.89-1.36,3.41q-6.13,9.88-12.27,19.77c-4.92-3.64-4.48-6.06-2.39,10.91,9.99-5.4,22.31-7.6,32.38-1.02.26,1.23-3.23,3.67-4.09,4.43-1.46-1.9-22.43-1.89-23.52-1.36-1.93.93,0,4.94-2.73,6.13-2.02.22-.34-3.38-1.36-4.09-.83-.57-17.45-.6-20.11,0-2.51-6.63,13.54-1.7,15-3.75.5-.71,0-15.01,0-17.38,3.05,4.24,5.3-5.23,4.77-7.5,3.7-1.7,6.17-5.41,9.54-7.5,2.5-1.55,5.13-4.04,6.13-2.04Z"/>
        <g>
          <path class="cls-38" d="M501.08,330.76c-.22.19-1.26,1.98-1.36,2.04-2.09,1.3-21.35,6.01-15.68,12.95-2.5,1.75-13.05,12.66-14.31,12.95-5.34,1.23-4.62-2.81-4.77-6.82-.08-2.1,1.66-11.91.68-13.29-.44-.62-7.75,1.51-12.27-7.16,2.66-.6,19.28-.57,20.11,0,1.02.71-.66,4.31,1.36,4.09,2.72-1.19.8-5.2,2.73-6.13,1.09-.53,22.05-.54,23.52,1.36Z"/>
          <path class="cls-27" d="M470.75,336.21c21.08-.73,14.47-.23,0,17.04v-17.04Z"/>
        </g>
      </g>
    </g>
    <g>
      <path class="cls-28" d="M463.59,389.38c0,.21.54-.96.68,4.09h-14.65c-1.68-1.17-.85-3.05-1.02-4.77l15,.68Z"/>
      <path class="cls-53" d="M476.55,414.6c-2.43-.02-4.58,1.44-6.82,2.04.51-8.39.04-16.82,0-25.22,10.4,1.4,5.96,7.73,6.82,23.18Z"/>
    </g>
    <g>
      <g>
        <path class="cls-23" d="M214.12,230.56c-5.41,19.65-8.43,31.33-6.13,52.14l7.5,1.02c-1.98.17-4.25.57-6.13.68-3.42.21-28.71-3.25-23.18,2.04-4.55.04-9.08.03-13.63,0,6.58-5.93-12.45-2.43-17.04-3.41-1.88-.4-1.3-.64-1.36-.68,9.18-14.02,9.05-33.55,10.22-37.83.21-.75,3.13,1.32,5.11-13.97,10.09.84,39.52-1.17,44.65,0Z"/>
        <path class="cls-38" d="M229.12,245.55c-.14,4.17-1,7.98-.68,12.27.24,3.22,2.86,11.69,3.41,16.02,1.7,2.49,3.1,1.43,5.45,1.7q-1.36,2.04-2.73,4.09c-6.46,1.27-12.4,3.51-19.09,4.09l-7.5-1.02c-2.3-20.81.73-32.5,6.13-52.14,4.82,1.1,8.79,15.46,12.61,19.77,2.36.05-.46-5.24,2.39-4.77Z"/>
        <path class="cls-42" d="M209.35,284.41v2.04c-1.35.11-2.74-.08-4.09,0-6.28.38-12.77-.06-19.09,0-5.53-5.3,19.75-1.84,23.18-2.04Z"/>
        <path class="cls-44" d="M209.35,286.45v-2.04c1.88-.11,4.16-.51,6.13-.68,6.69-.58,12.63-2.82,19.09-4.09,10.01-1.96-7.24,5.31-25.22,6.82Z"/>
        <path class="cls-42" d="M172.54,286.45c-5.45-.03-10.91.02-16.36,0-.02-.17-1.05.43-.68-3.41,4.6.98,23.62-2.52,17.04,3.41Z"/>
      </g>
      <path class="cls-38" d="M217.53,411.87c.41-.09.93.07,1.36,0v4.09c-3.41-.07-6.92-.6-10.22-.68,3.12-1.11,5.54-2.72,8.86-3.41Z"/>
      <g>
        <path class="cls-7" d="M240.02,315.08c-5.17,1.75-17.83,6.57-20.45,10.22-3.04,4.23-2.35,5.53-2.73,10.22-1.93,24.09.89,51.93.68,76.34-3.32.69-5.74,2.29-8.86,3.41-.23,0-.45,0-.68,0-2.75-41.82,2.22-83.59,1.36-125.42.45-.04.92.04,1.36,0,9.15-.88,18.13-2.77,26.92-5.45l2.39,30.67Z"/>
        <path class="cls-38" d="M172.54,286.45c4.55.03,9.08.04,13.63,0,6.31-.06,12.8.38,19.09,0,.36,4.57,3.59,1.59,5.45,3.41-.45.04-.91-.04-1.36,0-17.69,1.5-35.46.3-53.17.68.03-1.29.15-2.86,0-4.09,5.45.02,10.91-.03,16.36,0Z"/>
        <g>
          <path class="cls-49" d="M209.35,289.86c.86,41.83-4.12,83.6-1.36,125.42-18.84-.46-37.73.34-56.57,0,1.15-5.49.85-12.71-3.41-17.04,12.81-43.74,7.4-67.63,8.18-107.7,17.71-.39,35.48.82,53.17-.68Z"/>
          <path class="cls-38" d="M175.95,342.34c-4.24,17.36,7.87,17.07,8.18,0,1.81-.02,3.64-.06,5.45,0-5.23,12.44-4.69,13.08,8.52,12.27l-.34-12.27c1.05.1,4.27-.36,4.77.34q-.51,6.65-1.02,13.29h-34.76q-.17-6.65-.34-13.29c.49-.69,8.03-.28,9.54-.34Z"/>
          <path class="cls-23" d="M197.76,342.34l.34,12.27c-13.21.81-13.75.17-8.52-12.27,2.67.09,5.56-.25,8.18,0Z"/>
          <path class="cls-23" d="M184.13,342.34c-.31,17.07-12.42,17.36-8.18,0,2.72-.1,5.46.03,8.18,0Z"/>
        </g>
      </g>
    </g>
    <g>
      <g>
        <path class="cls-49" d="M415.2,438.45c0,.23,0,.45,0,.68-.04,1.56.17,3.25,0,4.77-.06.58-1.03,1.07-.68,2.73-2.05-.25-38.24-9.65-39.87-10.91-2.78-2.14.96-9.69,1.02-10.22q19.77,6.48,39.53,12.95Z"/>
        <path class="cls-2" d="M447.92,430.96q-16.36,6.48-32.72,12.95c.17-1.52-.04-3.21,0-4.77q14.65-6.13,29.31-12.27c.73,2.02-.38,1.99,3.41,4.09Z"/>
      </g>
      <g>
        <g>
          <path class="cls-38" d="M407.02,400.28c2.26.51,16.69,4.77,18.4,5.45,1.6.63,3.35,1.03,4.77,2.04-4.62,2.63-9.81,3.92-14.31,6.82-2.58-3.18-24.22-10.04-27.95-10.22-.27-.01.19-.18-1.36,0,.96-3.08,7.55-.52,9.54-4.77,5.63-.9,6.01-.42,10.91.68Z"/>
          <path class="cls-8" d="M382.48,407.78c4.72-.54,31.81,9.92,33.4,8.52.18-.16-.15-1.61,0-1.7,4.5-2.89,9.69-4.19,14.31-6.82.78.56.5-.52,2.04,2.04.3.5,1.19,2.63,1.36,3.41-1.01.16-16.18,8.68-18.4,8.86-4.17.35-34.28-11.15-37.83-10.22-.64.17-.23,2.01-.34,2.04-5.44,1.7-18.76,6.84-21.13,3.41,5.37-.63,20.67-6.86,26.58-9.54Z"/>
          <path class="cls-39" d="M415.88,414.6c-.15.1.18,1.54,0,1.7-1.59,1.4-28.68-9.06-33.4-8.52,1.71-.78,4.02-2.11,5.45-3.41,3.73.19,25.37,7.04,27.95,10.22Z"/>
        </g>
        <path class="cls-8" d="M415.2,426.87c-.31.83.05,8.82,0,11.59q-19.77-6.48-39.53-12.95c.35-3.06.23-6.41.68-9.54q19.43,5.45,38.85,10.91Z"/>
        <path class="cls-37" d="M441.78,415.28c2.28,2.36,1.66,8.64,2.73,11.59q-14.65,6.13-29.31,12.27c0-.23,0-.45,0-.68.05-2.77-.31-10.76,0-11.59.34-.91.65-.65.68-.68.96-1.03,21.3-7.69,25.9-10.91Z"/>
        <path class="cls-38" d="M415.2,422.09q.34,2.04.68,4.09s-.34-.23-.68.68q-19.43-5.45-38.85-10.91c.11-.74,1.01-1.02.68-2.04.11-.04-.3-1.88.34-2.04,3.55-.93,33.66,10.57,37.83,10.22Z"/>
        <path class="cls-58" d="M441.78,415.28c-4.6,3.22-24.94,9.88-25.9,10.91q-.34-2.04-.68-4.09c2.22-.19,17.4-8.7,18.4-8.86,1.82-.3,6.79.61,8.18,2.04Z"/>
      </g>
    </g>
    <g>
      <g>
        <g>
          <path class="cls-38" d="M86.66,408.46c-5.89-.57,10.25,10.74,12.27,19.43-1.22,4.71-40.45,9.42-44.31-.34,1.01-5.73,11.47-12.71,16.36-17.04-2.7,3.29-5.51,9.43-9.54,12.61-.38,4.42,16.42,6.02,16.36-19.43.76-3.16,6.53,3.11,8.86,4.77Z"/>
          <path class="cls-8" d="M86.66,408.46c6.19,4.41,11.97,8.81,15.68,15.68,1.31,2.42,2.95,5.71,2.04,8.18-1.88.3-12.96,8.24-37.15,5.45-7.07-.81-14.02-2.26-12.61-10.22,3.86,9.77,43.08,5.06,44.31.34-2.02-8.69-18.16-20-12.27-19.43Z"/>
          <path class="cls-50" d="M77.8,403.69c.06,25.45-16.74,23.84-16.36,19.43,4.03-3.18,6.84-9.32,9.54-12.61,1.8-2.2,4.56-6.43,6.82-6.82Z"/>
        </g>
        <g>
          <path class="cls-37" d="M148,398.24c4.25,4.33,4.56,11.55,3.41,17.04-.13.63.17,1.57,0,2.04-2.24,6.45-14.32,10-20.45,10.91-1.21.18-1.65.64-2.73.68-6.64.25-8.24-2.6-11.59-3.41-3.57-4.09-4.89-6.18-4.77-11.59,2.63-1.33,12.67,8.58,13.97,7.5.57-16.68,7.12-16.99,17.38-25.9,1.42.6,3.71,1.64,4.77,2.73Z"/>
          <path class="cls-38" d="M139.14,394.83c.91.2,2.44-.01,4.09.68-10.27,8.91-16.81,9.22-17.38,25.9-1.3,1.08-11.35-8.83-13.97-7.5.18-8.03,2.82-6.11,7.5-10.91,4.91,16.91,1.99-1.13,19.09-8.18.22.04.47-.05.68,0Z"/>
          <path class="cls-9" d="M138.46,394.83c-17.09,7.05-14.18,25.09-19.09,8.18,1.8-1.85,4.93-5.83,6.13-8.18,8.96-2.13,6.77-1.13,12.95,0Z"/>
        </g>
      </g>
      <path class="cls-40" d="M283.65,424.82c-1.11,1.13-2.35,2.29-3.41,3.41-24.02,4.36-3.45,19.23-22.49,11.93l3.41-10.57c5.09-1.43,12.57-5.89,13.63-6.13,5.22-1.21,4.31.68,8.86,1.36Z"/>
      <g>
        <path class="cls-40" d="M128.24,444.59c.11.06,1.21,1.68,1.36,2.04,1.46,3.48.47,10.11-4.09,10.22-2.05-.23-4.07-.43-6.13-.68l.68-11.59c.41.05,4.61-1.85,8.18,0Z"/>
        <g>
          <path class="cls-23" d="M129.6,430.27c2.46.03,6.92-.3,8.18,0-8.53,12.8-14.33,9.14-27.95,9.54-.5-1.89,2.98-6.02,4.09-6.82,4.49-3.25,10.43-2.79,15.68-2.73Z"/>
          <path class="cls-8" d="M141.19,434.36c-4.56,2.63-14.56,8.05-12.95,10.22-3.57-1.85-7.77.05-8.18,0-3.72-.44-10.98.55-10.22-4.77,13.61-.4,19.41,3.26,27.95-9.54,3.48.82,3.09,3.79,3.41,4.09Z"/>
          <path class="cls-8" d="M130.96,446.63c-.26-.1-.89.05-1.36,0-.15-.37-1.25-1.99-1.36-2.04-1.61-2.17,8.39-7.59,12.95-10.22,3.45,3.28,3.99,2.47,8.86,3.07q-9.54,4.6-19.09,9.2Z"/>
        </g>
      </g>
      <path class="cls-40" d="M349.08,430.27c-.22-.29-2.54-2.37-4.77-5.45,1.7-1.22,17.92-2.38,12.61,3.41q-3.92,1.02-7.84,2.04Z"/>
    </g>
    <g>
      <path class="cls-49" d="M507.22,369.61q-1.02,2.04-2.04,4.09c-.89.52-.64.66-.68.68-.39.2-2.08.44-2.73.68,1.57-7.77-3.36-5.66-8.18-2.73-1.87.04-9.03,2.41-9.54,3.75-.87,2.28.66,41.29,0,48.74-1.29-.44-7.01-1.4-7.5-2.39-.28-.57.11-5.9,0-7.84-.85-15.45,3.58-21.78-6.82-23.18-.04-7.27.68-14.62.68-21.81,9.41,7.63,19.31-2.35,24.2-2.73,3.71-.29,8.66,2.48,12.61,2.73Z"/>
      <g>
        <path class="cls-10" d="M510.63,370.29c.78,5.71-1.62,25.17,1.36,27.95-2.04-.65-1.28,2.46-1.36,6.82-3.4-.87-6.23,8.56-10.91,16.36-.87.13-.9-2.03-.68-3.07,3.08-14.69,5.71-29.49,5.45-43.96.04-.02-.2-.16.68-.68,1.74-1.02,3.51-1.67,4.77-3.41.23,0,.45,0,.68,0Z"/>
        <path class="cls-35" d="M509.94,370.29c-1.27,1.73-3.03,2.39-4.77,3.41q1.02-2.04,2.04-4.09c3.56.22,2.59.68,2.73.68Z"/>
        <path class="cls-16" d="M504.49,374.38c.26,14.48-2.37,29.27-5.45,43.96-.22,1.04-.19,3.2.68,3.07-1.2,2-1.28,1.27-2.04,4.09-.01.05-.76-.16-.68.68-2.5-2.01,1.07-14.7,1.36-20.11.51-9.47.19-19.51-.68-28.97,3.01-.65,3.88-1.96,4.09-2.04.64-.25,2.33-.48,2.73-.68Z"/>
        <path class="cls-60" d="M510.63,405.05c0,.23,0,.45,0,.68-.21,14.95,4,19.66-12.95,19.77.76-2.82.84-2.09,2.04-4.09,4.67-7.8,7.51-17.23,10.91-16.36Z"/>
        <path class="cls-10" d="M497.68,377.11c.87,9.46,1.19,19.5.68,28.97-.29,5.41-3.86,18.1-1.36,20.11v.68c-2.12.03-2.29-.67-2.73-.68l.68-48.4c.14,0,1.78-.48,2.73-.68Z"/>
        <path class="cls-45" d="M493.59,372.34c-3.3,2.01-1.6,2.04-2.73,4.09-.05.09-1.65-1.27-2.04.34-1.05,4.32.78,39.18,0,49.42-1.84-.33-3.03-.77-4.77-1.36.66-7.45-.87-46.46,0-48.74.51-1.34,7.67-3.71,9.54-3.75Z"/>
        <path class="cls-42" d="M494.95,377.79l-.68,48.4c-.14,0-.28.92-2.73.68v-49.76c.66.17,3.07.7,3.41.68Z"/>
        <path class="cls-6" d="M490.86,376.43c.85-.07.63.67.68.68v49.76c-2.09-.2-2.32-.61-2.73-.68.78-10.23-1.05-45.1,0-49.42.39-1.61,1.99-.25,2.04-.34Z"/>
        <path class="cls-59" d="M501.77,375.06c-.21.08-1.08,1.4-4.09,2.04-.94.2-2.59.67-2.73.68-.34.02-2.75-.51-3.41-.68-.05-.01.16-.76-.68-.68,1.13-2.05-.57-2.08,2.73-4.09,4.82-2.93,9.74-5.05,8.18,2.73Z"/>
      </g>
    </g>
    <g>
      <path class="cls-15" d="M133.01,102.41c4.9,7.22,23.41-2.6,18.4,7.5-4.94.47-31.26-1.39-32.72,2.39-1.02,2.64-1.15,53.99,0,56.57.8,1.79,16.76.94,19.77,1.02v10.91c-18.15.52-36.37-.39-54.53,0-.15-.59-3.98.76-1.36-10.91v9.2c11.01,1.72,6.06-.69,8.18-9.2,1.09-.15,2.77.2,3.07,0,1.42-.96,1.35-29.05,1.02-33.06-.02-.29-1.24-.82-1.36-1.7-.19-1.39,1.38-2.9,1.36-3.07-.72-5.99-20.5.16-18.4-5.79,19.91,4.15,27.61-14.83,25.22,42.6l9.2,1.02c2.28-13.06-.22-52.38,1.02-58.28,1.76-8.38,14.08-10.37,21.13-9.2Z"/>
      <g>
        <path class="cls-59" d="M76.43,126.27c-2.1,5.96,17.68-.2,18.4,5.79.02.17-1.55,1.68-1.36,3.07-5.6-.56-19.09.76-22.15,0-2.42-.6-10.82-10.15-13.29-12.27q3.41-3.07,6.82-6.13c2.68,2.35,8.68,8.94,11.59,9.54Z"/>
        <path class="cls-16" d="M64.84,116.73q-3.41,3.07-6.82,6.13c-11.7-10.03-9.47-10.83-18.4-11.59l2.73-14.31c5.56,1.02,17.48,15.35,22.49,19.77Z"/>
        <path class="cls-6" d="M42.35,96.96l-2.73,14.31c-4.73-.4-13.91.59-16.36,0,2.82-4.28,4.78-4.74,2.04-8.86.5-.23,1.9.23,2.39,0,.77-.37,1.18-7.93,14.65-5.45Z"/>
        <path class="cls-6" d="M25.31,102.41c2.74,4.12.78,4.58-2.04,8.86-3.1-.75-3.72-3.58-3.41-6.48,2.42-3.47,4.74-2.06,5.45-2.39Z"/>
      </g>
      <g>
        <path class="cls-47" d="M100.97,276.23c-1.74,8-7.89,4.74-8.18,12.61l-2.73,1.02c-2.4-1.29-8.55-10.98-8.18-12.61,3.25-4.61,9.62,2.29,11.25,1.02.45-.35.43-8.59,7.84-2.04Z"/>
        <path class="cls-23" d="M102.33,277.59c2.76,6.43-5.25,10.36-10.22,12.95l-2.04-.68,2.73-1.02c.29-7.87,6.44-4.61,8.18-12.61.07.06,1.27.34,1.36,1.36Z"/>
      </g>
      <g>
        <path class="cls-59" d="M152.09,186.25c1.78,12-1.65,88.18,0,94.4.13.49,1.52,1.38,2.04,1.7.07.04-.51.28,1.36.68-.37,3.84.66,3.24.68,3.41.15,1.23.03,2.8,0,4.09-.78,40.07,4.63,63.96-8.18,107.7-1.06-1.08-3.35-2.13-4.77-2.73-1.65-.69-3.18-.48-4.09-.68-1.4-25.32,1.37-50.74,1.36-76,0-1.46-1.36-8.08-1.36-9.54-.03-41.24.02-82.48,0-123.71,4.07,0,9.18-.56,12.95.68Z"/>
        <path class="cls-38" d="M138.46,180.8c.91-.03,1.82.04,2.73,0,1.88,7.67,10.33,1.57,10.91,5.45-3.77-1.24-8.89-.68-12.95-.68-15.19,0-30.49-.4-45.67,0-1.76.05-11.1-.34-11.59.34-1.02,1.43.04,30.55,0,35.1-1.56.5-1.3-1.36-2.04-4.09,2.55-7.83-1.1-24.26.68-31.01.63-2.38,4.87.58,3.41-5.11,18.16-.39,36.38.52,54.53,0Z"/>
        <path class="cls-7" d="M141.19,180.8c-.91.04-1.82-.03-2.73,0v-10.91c12.18.35,16.44-3.52,12.61,10.91-3.29.11-6.6-.15-9.88,0Z"/>
        <path class="cls-49" d="M90.75,169.89c-2.12,8.51,2.83,10.92-8.18,9.2v-9.2c2.59-.24,5.69.34,8.18,0Z"/>
        <path class="cls-49" d="M93.47,185.57c1.47,11.08-1.91,83.65,0,87.59.26.53,9.12-1.52,8.86,4.43-.1-1.02-1.29-1.3-1.36-1.36-7.41-6.55-7.39,1.69-7.84,2.04-1.63,1.27-8-5.63-11.25-1.02-.37,1.63,5.78,11.32,8.18,12.61l2.04.68c.31,14.26-.24,28.45-2.04,42.6-.98,7.7-4.56,28.25-8.18,33.74.19-1.66-.73-26.75-.68-33.4.02-2.49-.69-5.25-.68-7.5.03-5.58.63-11.38.68-17.04,0-.45,0-.91,0-1.36.04-4.32-.04-8.63,0-12.95.2-24.54.49-49.07.68-73.62.04-4.55-1.02-33.67,0-35.1.49-.68,9.82-.29,11.59-.34Z"/>
        <g>
          <path class="cls-49" d="M139.14,185.57c.02,41.24-.03,82.48,0,123.71,0,1.46,1.36,8.09,1.36,9.54,0,25.26-2.76,50.68-1.36,76-.22-.05-.46.04-.68,0-6.18-1.13-4-2.13-12.95,0-3.31.79-6.65,3.31-7.16,3.41-1.81.36-35.31.38-36.81-.68-1.39-.98,1.06-20.23-1.36-21.13q-9.03,3.07-18.06,6.13c.08-4.76.01-9.55,0-14.31q9.37,1.36,18.74,2.73c.19-2.27.99-3.82,1.02-4.09,3.62-5.49,7.2-26.04,8.18-33.74,1.8-14.15,2.35-28.35,2.04-42.6,4.98-2.59,12.99-6.52,10.22-12.95.26-5.95-8.6-3.9-8.86-4.43-1.91-3.94,1.47-76.51,0-87.59,15.18-.4,30.48,0,45.67,0Z"/>
          <g>
            <path class="cls-23" d="M125.17,220.33c15.59-1.92,4.16,30.7-13.97,9.88-2.14-13.56,8.37-5.68,9.2-5.79.31-.04,1.96-3.74,4.77-4.09Z"/>
            <g>
              <path class="cls-23" d="M133.01,308.26c4.35,5.38-1.87,10.05-2.04,10.91-23.38-.91-15.3,2.03-17.04,14.31-.41,2.86-.74,3.35-3.41,5.45l-2.04-1.7c1.17-29.12-7.6-32.19,24.54-28.97Z"/>
              <path class="cls-8" d="M110.51,338.94c2.67-2.1,3-2.59,3.41-5.45,25.98,1.08,14.24-1,17.04-14.31.18-.85,6.4-5.53,2.04-10.91,5.19.11,1.74,19.98,2.73,30.33q-12.61.17-25.22.34Z"/>
              <path class="cls-38" d="M130.96,319.17c-2.8,13.32,8.94,15.4-17.04,14.31,1.74-12.29-6.34-15.23,17.04-14.31Z"/>
            </g>
            <g>
              <path class="cls-23" d="M126.19,364.16c-3.01,4.76-1.74,6.51-8.18,7.5-6.6,1.02-22.94-.96-5.79,2.04l3.75,5.45c-1.65.45-7.87-.46-8.52,0-1.45,1.03,1.94,12.31-5.11,10.22v-26.92c.58-1.12,23.37-2.9,23.86,1.7Z"/>
              <path class="cls-38" d="M102.33,389.38c7.05,2.08,3.66-9.2,5.11-10.22.65-.46,6.87.45,8.52,0,5.2-1.43.95-4.42,2.04-7.5,6.44-.99,5.17-2.74,8.18-7.5v26.24c-4.26.02-22.91,1.68-23.86-1.02Z"/>
              <path class="cls-23" d="M118.01,371.65c-1.09,3.08,3.16,6.07-2.04,7.5l-3.75-5.45c-17.15-3.01-.8-1.03,5.79-2.04Z"/>
            </g>
          </g>
        </g>
      </g>
    </g>
    <g>
      <path class="cls-37" d="M2.14,419.37c28.45,27.74,79.49,32.22,117.24,36.81,2.06.25,4.08.45,6.13.68,1.54.18,3.16.51,4.77.68,101.67,11.05,215.69,11.82,316.61-5.45,23.01-3.94,68.92-13.15,84.86-30.67,3.45-3.8,4.83-4.07,2.73-10.22,12.41,19.26-10.93,35.91-25.56,44.31-93.83,53.81-400.45,60.58-488.72-4.09-12.68-9.29-19.4-15.8-18.06-32.04Z"/>
      <path class="cls-56" d="M125.51,394.83c-1.2,2.35-4.33,6.33-6.13,8.18-4.68,4.79-7.32,2.87-7.5,10.91-.12,5.41,1.2,7.5,4.77,11.59-5.2-1.25-8.61-1.86-14.31-1.36-3.71-6.87-9.49-11.27-15.68-15.68-2.33-1.66-8.1-7.93-8.86-4.77-2.26.38-5.01,4.62-6.82,6.82-4.89,4.33-15.35,11.31-16.36,17.04-1.41,7.97,5.54,9.41,12.61,10.22,24.19,2.79,35.27-5.15,37.15-5.45.47-.08,7.37,1.43,9.54.68-1.11.8-4.59,4.93-4.09,6.82-.75,5.32,6.5,4.33,10.22,4.77l-.68,11.59c-37.75-4.59-88.79-9.06-117.24-36.81,1.29-15.69,12.9-16.75,24.54-23.86.17,5.93.66,11.8.68,17.72-.48,2.51,5.33-.41,7.5-.68,11.83-1.51,23.59-2.81,35.1-6.13,3.84-2.63-10.64-1.39-16.36-2.04-2.33-.27-5.35-2.02-7.84-2.04.68-4.26.58-10.55.68-15l9.54-3.41c.25,4.41,1.22,8.82.68,13.29,7.45,4.52,5.27-4.14,5.45-14.65q9.03-3.07,18.06-6.13c2.42.9-.02,20.15,1.36,21.13,1.5,1.06,35,1.04,36.81.68.51-.1,3.85-2.62,7.16-3.41Z"/>
      <path class="cls-38" d="M534.48,411.19c2.1,6.16.73,6.43-2.73,10.22-8.72,3.15-25.6,5.31-34.76,5.45v-.68c-.07-.85.67-.64.68-.68,16.95-.11,12.74-4.82,12.95-19.77q7.16-.68,14.31-1.36c3.87,2.25,6.64,2.32,9.54,6.82Z"/>
      <path class="cls-53" d="M511.99,398.24c.52.49,7.54,2.99,12.95,6.13q-7.16.68-14.31,1.36c0-.23,0-.45,0-.68.08-4.36-.68-7.46,1.36-6.82Z"/>
      <path class="cls-33" d="M34.85,412.55c-.72-2.58,1.44-2.98,3.41-4.09.61-.35.95-.46,1.36-.68,3.69-1.96,5.22.24,6.13-5.45,2.48.03,5.51,1.78,7.84,2.04,5.71.65,20.2-.58,16.36,2.04-11.51,3.32-23.27,4.63-35.1,6.13Z"/>
      <path class="cls-33" d="M130.96,446.63c1.97.75,9.08,1.86,8.18,5.11l-8.86,5.79c-1.61-.18-3.23-.51-4.77-.68,4.56-.12,5.55-6.74,4.09-10.22.47.05,1.1-.1,1.36,0Z"/>
      <path class="cls-33" d="M116.65,425.5c3.35.8,4.95,3.66,11.59,3.41l1.36,1.36c-5.25-.06-11.19-.53-15.68,2.73-2.18.75-9.07-.76-9.54-.68.9-2.47-.74-5.76-2.04-8.18,5.7-.49,9.11.12,14.31,1.36Z"/>
      <path class="cls-20" d="M130.96,428.23c6.13-.91,18.21-4.46,20.45-10.91q8.01,3.07,16.02,6.13c-12.03,2.05-24.15,6.02-36.47,4.77Z"/>
      <path class="cls-38" d="M447.92,430.96c2.69,1.49,17.91,4.58,15.34,6.13-9.52.42-44.27,10.86-47.03,10.91-1.57.03-.59-1.22-1.7-1.36-.35-1.66.62-2.14.68-2.73q16.36-6.48,32.72-12.95Z"/>
      <path class="cls-49" d="M316.36,452.09c7,14.7-15.13,12.77-6.82,0,.34.02,4.18-.04,6.82,0Z"/>
      <g>
        <g>
          <path class="cls-38" d="M334.77,415.96c5.59,10.38,9.41,21.65,15.68,31.7l-3.41,2.39c-9.59,1.6-20.99,2.2-30.67,2.04-2.64-.04-6.48.02-6.82,0-.17,0-.67-.47-3.41-.68,9.26-8.11,16.96-9.48,20.11-22.49,6.56,4.3,4-4.09,4.43-11.59.12-2.07,1.09-3.97.68-6.13,4.69,1.59,1.85,1.89,3.41,4.77Z"/>
          <path class="cls-26" d="M330.68,417.32c-.43,7.5,2.13,15.89-4.43,11.59-3.15,13.01-10.84,14.39-20.11,22.49-2.7-.21-5.51-.99-8.18-1.36,5.88-4.56,8.75-12.44,13.63-17.72,2.28-2.46,4.8-3.47,5.45-4.09,1.97-1.87,4.11-3.64,6.13-5.45,1.92-1.72,4.06-3.22,5.45-5.45h2.04Z"/>
          <path class="cls-8" d="M338.86,417.32c1.59,2.64,3.65,5,5.45,7.5,2.23,3.08,4.55,5.16,4.77,5.45,4.04,5.37,7.48,11.21,12.27,16.02-4.71,1.4-9.45,2.94-14.31,3.75l3.41-2.39c-6.27-10.05-10.08-21.32-15.68-31.7q1.02-1.02,2.04-2.04c.47,1.31,1.36,2.26,2.04,3.41Z"/>
        </g>
        <g>
          <path class="cls-38" d="M301.37,407.78c-1.22,2.72-2.64,4.23,1.36,4.77,0,.23.01.46,0,.68-.32,6.29,4.33,14.58,8.86,19.09-4.89,5.28-7.75,13.17-13.63,17.72-6.09-.85-11.78-1.72-17.72-3.41,12.01-13.24,19-14.65,17.72-34.76-.1-1.56-.71-2.58-.68-4.09,1.58-.09,2.75.05,4.09,0Z"/>
          <path class="cls-26" d="M297.96,411.87c1.28,20.11-5.71,21.52-17.72,34.76-1.74-.5-12.17-3.34-12.27-4.43,4.31-4.44,8.03-9.49,12.27-13.97,1.06-1.12,2.3-2.28,3.41-3.41,2.34-2.37,5.1-4.16,7.5-6.82,1.69-1.87,4.49-4.33,4.77-6.13.1,0,.73-1.34,2.04,0Z"/>
          <path class="cls-8" d="M306.14,417.32c1.62,2.09,2.28,2.85,4.09,4.77,2.11,2.24,3.75,4.96,6.82,6.13-.65.62-3.18,1.63-5.45,4.09-4.53-4.51-9.19-12.79-8.86-19.09.98,1.44,2.37,2.75,3.41,4.09Z"/>
        </g>
      </g>
      <path class="cls-24" d="M328.63,417.32c-1.4,2.23-3.54,3.73-5.45,5.45.22-2.29-10.03-1.64-12.95-.68-1.81-1.92-2.47-2.68-4.09-4.77h22.49Z"/>
      <path class="cls-4" d="M323.18,422.78c-2.03,1.82-4.16,3.58-6.13,5.45-3.06-1.17-4.71-3.9-6.82-6.13,2.92-.96,13.17-1.6,12.95.68Z"/>
      <g>
        <path class="cls-56" d="M464.28,411.87c.02.31,1.05,3.94,1.02,6.13.57.46,3.23-1.04,4.43-1.36,2.23-.61,4.39-2.06,6.82-2.04.11,1.94-.28,7.27,0,7.84.49.99,6.2,1.94,7.5,2.39,1.75.6,2.93,1.03,4.77,1.36.4.07.63.48,2.73.68,2.45.24,2.59-.69,2.73-.68.44.01.6.71,2.73.68,9.16-.14,26.05-2.3,34.76-5.45-15.94,17.53-61.86,26.74-84.86,30.67-100.93,17.27-214.95,16.51-316.61,5.45l8.86-5.79c.91-3.25-6.21-4.36-8.18-5.11q9.54-4.6,19.09-9.2c-4.87-.6-5.41.22-8.86-3.07-.31-.3.07-3.27-3.41-4.09-1.26-.3-5.72.03-8.18,0l-1.36-1.36c1.07-.04,1.51-.5,2.73-.68,12.31,1.25,24.43-2.72,36.47-4.77q-8.01-3.07-16.02-6.13c.17-.48-.13-1.42,0-2.04,18.84.34,37.74-.46,56.57,0,.23,0,.45,0,.68,0,3.3.08,6.81.61,10.22.68,24.06.52,48.17,1.76,72.25,2.04-2.4,2.65-5.16,4.45-7.5,6.82-4.55-.69-3.64-2.57-8.86-1.36-2.61-.95-16.74,3.91-20.45,5.45-12.86-19.53-19.89,1.87-2.73,1.36-.76,2.3,7.83-.2,9.54-.68l-3.41,10.57c19.05,7.3-1.53-7.57,22.49-11.93-4.24,4.48-7.96,9.53-12.27,13.97.1,1.09,10.53,3.93,12.27,4.43,5.94,1.69,11.63,2.56,17.72,3.41,2.67.37,5.48,1.15,8.18,1.36,2.74.22,3.23.67,3.41.68-8.31,12.77,13.82,14.7,6.82,0,9.68.16,21.08-.45,30.67-2.04,4.86-.81,9.6-2.35,14.31-3.75-4.79-4.81-8.23-10.65-12.27-16.02q3.92-1.02,7.84-2.04c5.31-5.79-10.91-4.63-12.61-3.41-1.8-2.5-3.86-4.85-5.45-7.5,5.18-.38,11.36.52,16.36,0,.22-.02.46.03.68,0,2.37,3.43,15.69-1.7,21.13-3.41.33,1.03-.58,1.3-.68,2.04-.45,3.13-.33,6.48-.68,9.54-.06.53-3.8,8.09-1.02,10.22,1.64,1.26,37.82,10.65,39.87,10.91,1.12.14.14,1.39,1.7,1.36,2.76-.05,37.52-10.49,47.03-10.91,2.58-1.55-12.65-4.65-15.34-6.13-3.79-2.1-2.68-2.07-3.41-4.09-1.06-2.95-.44-9.23-2.73-11.59-1.39-1.43-6.36-2.34-8.18-2.04-.18-.77-1.06-2.91-1.36-3.41q16.02,1.02,32.04,2.04Z"/>
        <g>
          <g>
            <path class="cls-19" d="M210.03,458.22c-.03-1.36.05-2.73,0-4.09,15.18-1.04,10.37,2.06,0,4.09Z"/>
            <g>
              <path class="cls-40" d="M180.04,445.95c-1.76,2.92,0,3.89,0,4.09-.01.38-1.19,2.62-.68,7.5-.07,0,.22,1.35-.34,1.36-14.49.24-13.75-.37-7.16-15,2.74.04,5.62,1.61,8.18,2.04Z"/>
              <path class="cls-40" d="M210.03,450.72c.17.6-.04,2.15,0,3.41.05,1.36-.03,2.73,0,4.09-.52.1-.49,3.1-10.22-.34l1.36-9.88c1.08-.17,2.59-2.07,3.41-2.73,1.65-1.34,5.34,5.06,5.45,5.45Z"/>
              <g>
                <path class="cls-8" d="M219.57,430.27c.27,1.24.54,5.86.68,6.13.24.45.03.39.68.68-1.11,8.29,2.93,5.78,6.82,8.18.06.04.61,1.07.68,1.36-6.59.84-12.21,1.57-18.4,4.09-.11-.39-3.8-6.79-5.45-5.45.27-.22,1.92-2.9,4.77-5.11-2.59-3.22-1.06.1-6.82,1.02,2.97-4.2,8.39-7.84,9.54-12.95,2.13.22,7.11,2.1,7.5,2.04Z"/>
                <path class="cls-8" d="M204.58,445.27c-.82.66-2.33,2.56-3.41,2.73-1.77.27-9.14-1.06-12.27-1.36-2.58-.25-6.61-.3-8.86-.68-2.56-.44-5.44-2.01-8.18-2.04.15-.33-.2-1.03.68-2.73,9.94.39,20.08,1.58,29.99,0,5.76-.92,4.22-4.25,6.82-1.02-2.85,2.22-4.5,4.89-4.77,5.11Z"/>
                <g>
                  <path class="cls-38" d="M212.08,428.23c-1.16,5.12-6.57,8.75-9.54,12.95-9.91,1.58-20.05.39-29.99,0,1.39-2.68,11.23-15.05,13.29-15.68,2.46-.75,21.31,2.21,26.24,2.73Z"/>
                  <path class="cls-26" d="M198.78,427.55c3.34.39-10.51,16.02-11.25,11.25q5.62-5.62,11.25-11.25Z"/>
                  <path class="cls-26" d="M189.92,426.87l1.7,1.02c-13.8,16.09-17.14,13.96-1.7-1.02Z"/>
                  <path class="cls-26" d="M206.28,428.91l1.02.34c-11.13,15.77-18.06,14.87-1.02-.34Z"/>
                </g>
              </g>
            </g>
          </g>
          <g>
            <path class="cls-40" d="M263.88,452.77c-1.55,1.44-4.55,2.43-6.82,5.11-.1.12-.33,2.51-.68,3.07-1.88,2.97-15.9-2.38-19.43-2.73,1.88-13.24,4.65-7.42,12.27-8.86.87-.16-.7-4.45,16.36-.68,1.8,2.3-.05,2.55-1.7,4.09Z"/>
            <path class="cls-28" d="M225.03,437.09c2.15.23,5.05-.33,6.82,0,3.07.57,2.24,1.26,4.09,3.41q-4.09,2.39-8.18,4.77c-3.88-2.4-7.92.11-6.82-8.18.52.23,2.62-.16,4.09,0Z"/>
            <path class="cls-40" d="M254.34,428.91c-1.06.44-1.4,1.61-2.73,1.36-17.16.5-10.13-20.9,2.73-1.36Z"/>
            <path class="cls-19" d="M256.38,460.95c.36-.56.58-2.95.68-3.07,2.26-2.68,5.27-3.67,6.82-5.11,10.7,5.45-.74,6.44-5.79,10.22l-1.7-2.04Z"/>
            <path class="cls-20" d="M188.22,451.4c-.12,4.24,2.05,5.95-7.84,7.5-.48.08-.03-1.44-1.02-1.36-.51-4.88.67-7.12.68-7.5q4.09.68,8.18,1.36Z"/>
            <path class="cls-33" d="M274.78,423.46c-1.06.25-8.54,4.71-13.63,6.13-1.72.48-10.3,2.99-9.54.68,1.33.25,1.67-.92,2.73-1.36,3.71-1.54,17.84-6.41,20.45-5.45Z"/>
            <path class="cls-13" d="M228.43,446.63c-.07-.29-.62-1.32-.68-1.36q4.09-2.39,8.18-4.77c.25.3,1.23-1.41,2.04-.34,1,9.6-2.49,5.57-9.54,6.48Z"/>
            <path class="cls-28" d="M188.9,446.63c-.61,1.65-.63,3.04-.68,4.77q-4.09-.68-8.18-1.36c0-.2-1.76-1.17,0-4.09,2.25.38,6.28.43,8.86.68Z"/>
            <g>
              <path class="cls-40" d="M231.84,437.09c-1.76-.33-4.67.23-6.82,0-1.23-7.36-1.28-3.12-4.77-.68-.14-.27-.41-4.89-.68-6.13,3.47-.53,6.54-12.5,12.27,6.82Z"/>
              <path class="cls-4" d="M225.03,437.09c-1.47-.16-3.57.23-4.09,0-.66-.29-.45-.23-.68-.68,3.49-2.44,3.54-6.67,4.77.68Z"/>
            </g>
          </g>
        </g>
      </g>
    </g>
    <g>
      <path class="cls-49" d="M374.3,300.08c.25,0,4.1,1.11,4.77,1.36,6.4,2.43,3.88,3.3,4.09,4.09q-3.75,4.43-7.5,8.86c-4.6-2.56-9.35-14.06-1.36-14.31Z"/>
      <path class="cls-30" d="M379.75,113.32h-27.95c.11-.98-.36-3.59.34-4.09,1.14-.81,26.69-.6,27.95,0,3.07,1.46-.35,3.84-.34,4.09Z"/>
      <g>
        <path class="cls-23" d="M366.12,113.32c.1,11.51-2.2,23.05-5.45,34.08l-3.41-.34c-7.72,31.17-32.91,52.17-48.4,79.07l2.04,1.02c-2.68,4.64-5.06,9.57-5.45,14.31-.13,1.56-1.39,2.44,0,4.09-2.26,1.59-4.62,3.71-6.82,5.45,2.61-6.56,2.3-13.86,4.77-20.45,5.44-14.47,27.59-37.45,36.81-52.83,10.98-18.32,20.28-42.87,19.09-64.41h6.82Z"/>
        <path class="cls-50" d="M359.31,113.32c1.19,21.55-8.11,46.09-19.09,64.41-9.21,15.38-31.37,38.36-36.81,52.83,2.81-10.94,8.63-21.35,15-30.67,11.7-17.13,32.57-35.06,37.49-68.84.85-5.86.7-11.82.68-17.72h2.73Z"/>
        <path class="cls-50" d="M368.85,113.32c.82,19.12-13.03,62.94-23.18,78.05-2.73,4.07-7.13,8.07-10.22,11.93-9.96,12.44-23.22,23.92-29.99,38.17.39-4.75,2.77-9.68,5.45-14.31,10.48-18.13,37.54-38.34,49.76-79.75,3.25-11.03,5.55-22.57,5.45-34.08h2.73Z"/>
        <path class="cls-38" d="M372.94,113.32c-3.51,35.42-9.72,66.11-35.79,92.02l-1.7-2.04c3.09-3.86,7.49-7.86,10.22-11.93,10.14-15.1,24-58.92,23.18-78.05h4.09Z"/>
        <g>
          <path class="cls-38" d="M374.98,113.32c.04,22.86-8.39,57.95-21.13,76.68-5.21,7.65-19.39,21.47-27.26,36.13l1.36.68c4.28-6.15,9.4-11.75,14.31-17.38,2.57,2.94,23.6-19.42,17.04-19.77,15.82-22.95,16.75-49.48,18.4-76.34h2.04c.98,19.57,14.2,46.23,12.27,69.53-2.51,30.29-21.91,35.93-40.9,42.26-.69.23-2.04-.23-2.73,0-5.24,1.77-9.85,3.41-15,5.45-2.35.93-4.48,1.62-6.82,2.73-2.28,1.08-4.61,2.2-6.82,3.41-.42.23-.94.45-1.36.68-3.21,1.81-9.92,6.05-12.95,8.18-1.39-1.65-.13-2.53,0-4.09,6.77-14.25,20.03-25.73,29.99-38.17l1.7,2.04c26.06-25.91,32.27-56.6,35.79-92.02h2.04Z"/>
          <path class="cls-50" d="M377.71,113.32c-1.65,26.86-2.59,53.39-18.4,76.34-4.81,6.98-11.44,13.36-17.04,19.77-4.92,5.63-10.04,11.23-14.31,17.38l-1.36-.68c7.87-14.66,22.06-28.47,27.26-36.13,12.74-18.73,21.17-53.82,21.13-76.68h2.73Z"/>
          <path class="cls-50" d="M380.78,137.86c1.72,26.02-1.81,54.14-22.49,72.25-18.8,16.46,1.55-4.44,8.52-16.7,9.65-16.98,14.6-35.98,13.97-55.55Z"/>
        </g>
        <path class="cls-38" d="M342.27,209.43c5.6-6.41,12.23-12.79,17.04-19.77,6.56.35-14.47,22.7-17.04,19.77Z"/>
        <path class="cls-38" d="M360.67,147.4c-12.22,41.41-39.27,61.62-49.76,79.75l-2.04-1.02c15.48-26.9,40.67-47.9,48.4-79.07l3.41.34Z"/>
      </g>
      <path class="cls-41" d="M331.36,411.19c.41,2.16-.56,4.06-.68,6.13h-24.54c-1.04-1.34-2.43-2.65-3.41-4.09.01-.23,0-.45,0-.68-4.19-3.27,25.62-2.38,28.63-1.36Z"/>
      <g>
        <path class="cls-1" d="M383.84,310.31c-.75,3.64-4.42,5.01-8.18,4.09q3.75-4.43,7.5-8.86c.45,1.68,1.06,2.93.68,4.77Z"/>
        <path class="cls-49" d="M355.22,327.35c-29.08.64-58.18-.58-87.25-.68,4.64-3.72,10.2-6.07,15.68-8.18h71.23q.17,4.43.34,8.86Z"/>
        <path class="cls-59" d="M267.97,326.67c29.07.1,58.17,1.32,87.25.68v4.09c-20.67-1.82-122.85,1.4-132.23-2.04.23-.82-.33-2.2,1.02-2.73,2.05-.8,38.08-.02,43.96,0Z"/>
        <g>
          <path class="cls-7" d="M351.13,225.11c2.61,3.6,6.26,6.65,8.86,10.22,15.25,20.98,13.53,40.13,14.31,64.75-7.99.26-3.23,11.76,1.36,14.31,3.76.92,7.43-.45,8.18-4.09,3.3,1.27,9.11,1.83,11.59,4.09v1.36q-20.11,6.82-40.22,13.63v-2.04q-.17-4.43-.34-8.86h-71.23c2.63-1.02,11.54-2.87,18.74-6.13,28.26-12.81,66.58-46.24,48.74-80.43-.78-2.53-1.46-4.49-2.73-6.82.68-.23,2.04.23,2.73,0Z"/>
          <g>
            <path class="cls-40" d="M267.29,315.76c-10.01,2.73-11.64.32-12.61.68-1.04.39,2.21,2.08-5.45.68-.11-3.75,7.17-2.81,7.84-6.13,6.38-2.05,7.76-.37,9.54-6.13,15.54-11.59,25.21-28.22,33.4-45.33-1.16-8.13-12.83,24.05-17.04,17.72v-11.25c5.04-6.07,9.54-10.12,15.68-15,2.2-1.75,4.55-3.87,6.82-5.45,3.03-2.13,9.74-6.36,12.95-8.18-17.16,25.39-24.56,54.61-51.8,72.59l1.7,1.02c18.51-9.96,30.13-28.64,39.87-46.69,3.12-5.77,11.86-23.44,11.59-27.61,2.21-1.21,4.54-2.33,6.82-3.41-10.61,26.49-29.12,74.25-59.3,82.48Z"/>
            <path class="cls-49" d="M283.65,318.49c-5.48,2.11-11.03,4.46-15.68,8.18-5.88-.02-41.92-.8-43.96,0-1.35.53-.79,1.91-1.02,2.73-4.24-1.55.46-3.7-3.41-4.09,2.62-3.65,15.28-8.48,20.45-10.22,3.83-1.29,12.37-2.58,17.04-4.09-.67,3.32-7.95,2.39-7.84,6.13,7.66,1.39,4.41-.29,5.45-.68.97-.36,2.6,2.05,12.61-.68.04.32,1.28,1.32,1.36,1.36,7.23,3.72,30.58-6.48,37.83-10.22,27.08-13.99,54.81-42.08,44.65-74.98,17.84,34.19-20.47,67.62-48.74,80.43-7.21,3.27-16.11,5.12-18.74,6.13Z"/>
            <path class="cls-49" d="M266.61,304.86c3.57-11.51-.34-18.76,16.36-38.85v11.25c4.21,6.33,15.88-25.85,17.04-17.72-8.19,17.11-17.86,33.74-33.4,45.33Z"/>
            <path class="cls-40" d="M348.4,225.11c1.27,2.32,1.95,4.29,2.73,6.82,10.16,32.9-17.57,60.99-44.65,74.98-7.26,3.75-30.6,13.94-37.83,10.22,27.44-3.35,42.4-40.69,52.83-63.39.56,15.57-3.28,33.41-11.93,46.69l2.39.34c17.94-11.78,54.29-53.07,28.63-70.21-3.82,6.64-8.39,9.97-15,13.63l7.84-13.63c5.15-2.04,9.76-3.68,15-5.45Z"/>
            <path class="cls-49" d="M333.4,230.56l-7.84,13.63c6.61-3.66,11.17-6.99,15-13.63,25.66,17.13-10.69,58.42-28.63,70.21l-2.39-.34c8.65-13.28,12.49-31.12,11.93-46.69-10.42,22.7-25.39,60.04-52.83,63.39-.09-.04-1.32-1.05-1.36-1.36,30.18-8.23,48.69-55.99,59.3-82.48,2.33-1.11,4.46-1.79,6.82-2.73Z"/>
            <path class="cls-49" d="M318.41,237.37c.42-.24.94-.45,1.36-.68.27,4.17-8.47,21.83-11.59,27.61-9.75,18.05-21.37,36.73-39.87,46.69l-1.7-1.02c27.24-17.98,34.64-47.2,51.8-72.59Z"/>
          </g>
        </g>
        <path class="cls-15" d="M222.98,329.39c-1.17,4.06,3.07,5.88-6.13,6.13.38-4.69-.31-5.99,2.73-10.22,3.86.39-.83,2.54,3.41,4.09Z"/>
        <g>
          <path class="cls-30" d="M396.11,321.21c.29,1.92-.05,2.6,0,2.73-12.71,3.59-27.42,11.17-40.22,12.27-20.89,1.8-128.47-2.73-134.62,0-3.43,1.52.5,66.52-1.02,74.98-.08,0,.55.38-1.36.68-.43.07-.95-.09-1.36,0,.2-24.41-2.62-52.25-.68-76.34,9.2-.25,4.97-2.07,6.13-6.13,9.38,3.44,111.56.22,132.23,2.04.1,0-.29,1.92.34,2.04,4.93.98,32.86-10.68,40.56-12.27Z"/>
          <path class="cls-37" d="M396.11,321.21c-7.7,1.59-35.63,13.25-40.56,12.27-.63-.12-.24-2.04-.34-2.04v-.68c5.26,1.4,11.56-4.11,16.7-3.41,5.1-3.53,23.36-6.07,23.52-11.59v-1.36c2.08,1.9.07,2.85.68,6.82Z"/>
          <path class="cls-2" d="M395.43,315.76c-.15,5.52-18.42,8.06-23.52,11.59-5.14-.71-11.44,4.81-16.7,3.41v-1.36q20.11-6.82,40.22-13.63Z"/>
          <path class="cls-8" d="M318.41,407.78c7.98-.05,15.85-.86,23.86-.68,3.91.09,7.7.26,11.59.68.15,1.51,1.71,2.67,2.04,4.09q-9.71-.34-19.43-.68c-1.87,1.36-.19,1.23.34,2.73q-1.02,1.02-2.04,2.04c-1.56-2.88,1.28-3.19-3.41-4.77-3-1.02-32.82-1.91-28.63,1.36-4-.55-2.58-2.05-1.36-4.77,3.53-.13,2.59-.68,2.73-.68,4.67-.13,9.61.71,14.31.68Z"/>
          <path class="cls-41" d="M355.9,411.87c.25,1.06-.17,2.82,0,4.09-.11.08-.92-.2-.68,1.36-5,.52-11.18-.38-16.36,0-.69-1.14-1.58-2.09-2.04-3.41-.53-1.5-2.21-1.36-.34-2.73q9.71.34,19.43.68Z"/>
          <path class="cls-55" d="M387.93,404.37c-1.43,1.3-3.74,2.63-5.45,3.41-5.91,2.68-21.21,8.92-26.58,9.54-.22.03-.46-.02-.68,0-.24-1.56.57-1.28.68-1.36,1.78-1.26,28.34-11.32,30.67-11.59,1.55-.18,1.1-.01,1.36,0Z"/>
          <g>
            <path class="cls-37" d="M396.8,324.62c-.83,11.05,1.37,70.61-.68,74.98-2,4.25-8.59,1.69-9.54,4.77-2.34.26-28.89,10.33-30.67,11.59-.17-1.27.25-3.03,0-4.09-.34-1.42-1.89-2.58-2.04-4.09-.01-.14,1.01-.38.68-2.73-.38-2.69.34-5.61-.68-8.86-.09-1,1.2-.46,1.36-1.02,1.35-4.58-1.43-48.56.68-58.96,12.8-1.1,27.5-8.68,40.22-12.27.02.05.21-.26.68.68Z"/>
            <g>
              <path class="cls-58" d="M394.07,351.89c-1.29-3.31-5.02.26-5.45,2.04-5.55-2.49-4.19,1.67-4.77,3.41-4.45,1.88-20.24,5.15-15,10.22-.61.44-3.05,2.94-2.73,3.75,2.48,6.16,30.65-15.04,29.31-5.45-1.62,1.32-10.1,6.11-10.91,6.48-.33.15-3.89.45-6.82,2.73q-8.18,2.22-16.36,4.43c.78-4.74-.55-19.82,0-22.15,3.41-.9,16.83-4.45,15-6.82,6.28-1.23,12.59-2.25,18.74-4.09,1.46,6.62-1,5.13-1.02,5.45Z"/>
              <path class="cls-37" d="M384.53,372.34c.97,13.28,3.38,18.8-5.79,21.13q-.51-9.2-1.02-18.4c2.93-2.27,6.48-2.58,6.82-2.73Z"/>
              <path class="cls-50" d="M383.84,357.34c-.37,1.11.49,2.9-.34,4.09-.47.67-13,4.94-14.65,6.13-5.25-5.07,10.55-8.34,15-10.22Z"/>
              <path class="cls-37" d="M376.35,350.52c1.83,2.37-11.59,5.92-15,6.82,1.97-8.36,8.94-5.63,15-6.82Z"/>
              <path class="cls-48" d="M394.07,351.89c-.28,3.32,2.69,5.57-1.7,7.5-3.89.94-4.51-2.34-3.75-5.45.44-1.78,4.17-5.35,5.45-2.04Z"/>
            </g>
          </g>
          <path class="cls-41" d="M295.91,411.87c-.28,1.8-3.08,4.27-4.77,6.13-24.08-.29-48.19-1.52-72.25-2.04v-4.09c1.91-.3,1.29-.67,1.36-.68,10.07-1.15,64.03-.35,75.66.68Z"/>
          <g>
            <path class="cls-38" d="M355.9,336.21c-2.12,10.4.66,54.38-.68,58.96-.17.57-1.45.02-1.36,1.02-.13-.42-3.73-5.67-4.77-7.5-3.14-5.48-2.5-6.19-2.73-6.48-.54-.67-12.86-10.18-13.63-10.57-.68-.34-13.89-4.06-14.65-4.09-3.84-.16-4.76,1.68-6.48,2.04-7.22,1.54-4.51-.07-11.59-.68-.99-.09-1.72-.09-2.73,0-1.94.17-4.82-.87-4.77,2.04-2.43-.75-7.86-5.79-10.22-2.39-.39.56,1.48,1.85.34,2.39-.73.35-6.61-4.8-14.31,3.41-2.35,2.51.19,6.1-2.73,2.04-3.04,2.66-5.46,5.6-7.84,8.86-5.52,7.58-10.75,17.14-.34,23.18,2.63-10.42,6.94-2.35,12.95-.68,1.54.43,5.38-.37,7.5,0,.21.04,2.58,2.72,3.41,2.73,1.56.02,3.43-3.3,4.09-3.41.49-.08,2.73,1.17,9.88.68.68-.05,1.37.04,2.04,0-.03,1.51.58,2.53.68,4.09-1.31-1.34-1.94,0-2.04,0-11.63-1.03-65.59-1.83-75.66-.68,1.52-8.46-2.4-73.46,1.02-74.98,6.15-2.73,113.73,1.8,134.62,0Z"/>
            <g>
              <path class="cls-41" d="M236.27,357.34h104.29l.34,1.7c-34.87,2.11-69.74.12-104.63.34v-2.04Z"/>
              <path class="cls-32" d="M321.48,343.03h4.09c9.41,11.96-15.21,9.74-4.09,0Z"/>
              <path class="cls-46" d="M275.13,345.07c12.48-1.21,3.3,13.87-2.39,3.75l2.39-3.75Z"/>
              <path class="cls-46" d="M298.98,345.07c12.34-.42,2.1,14.5-2.39,3.75l2.39-3.75Z"/>
              <path class="cls-14" d="M256.38,353.25c2.43-10.45-7.43-9.16-2.73,0-14.75-8.45,13.77-12.94,2.73,0Z"/>
              <path class="cls-11" d="M256.38,353.25h-2.73c-4.7-9.16,5.16-10.45,2.73,0Z"/>
              <g>
                <path class="cls-27" d="M311.59,369.61c1.39,1.71-1.18,2.66-2.73,3.41-2.98-1.18-5.95-2.74-8.86-4.09,7.08.61,4.37,2.23,11.59.68Z"/>
                <path class="cls-32" d="M297.28,368.93l.68,2.73c-.91-.25-2.5.23-5.45-.68-.05-2.91,2.84-1.87,4.77-2.04Z"/>
              </g>
            </g>
          </g>
          <g>
            <path class="cls-63" d="M349.08,388.69c1.05,1.82,4.64,7.07,4.77,7.5,1.02,3.26.3,6.17.68,8.86-5.86-2.78-8.48-7.92-12.27,2.04-8-.18-15.87.63-23.86.68-1.58-3.35,2.06-5.44,2.04-5.79-.05-.92-6.3-6.71,7.84,4.43.13-.7,1.58-2.01,1.7-2.04,13.67-4.22,28.74-12.97,11.25-5.45-1.82-.61-1.55-10.04,3.07-10.22.24.04,2.26-.79,4.77,0Z"/>
            <path class="cls-19" d="M354.53,405.05c.33,2.34-.7,2.59-.68,2.73-3.88-.43-7.68-.6-11.59-.68,3.79-9.96,6.4-4.83,12.27-2.04Z"/>
            <path class="cls-64" d="M292.51,370.97c2.96.91,4.54.43,5.45.68,2.53.69,5.69,1.12,4.09,4.77-.26.6-7.71,9.77-8.18,10.22-1.18,1.15-2.73,2.05-3.75,3.41-2.32-5.62-7.09-6.9-7.84-7.5-1.25-1.01-2.3-3.45-4.09-4.09.49-1.37-2.83-4.23,3.41-4.43-4.71-1.72-10.73,2.59-12.27,7.16-1.35-1-3.52.74-4.77,2.04-.43.45-.37,5.01-4.09,4.09-.13-.11-.52.42-2.73-2.04,2.38-3.26,4.79-6.2,7.84-8.86,2.92,4.05.37.46,2.73-2.04,7.7-8.21,13.58-3.06,14.31-3.41,1.14-.54-.73-1.82-.34-2.39,2.36-3.41,7.79,1.64,10.22,2.39Z"/>
            <path class="cls-64" d="M304.09,407.1c-.14,0,.81.55-2.73.68-1.34.05-2.51-.09-4.09,0-.68.04-1.37-.05-2.04,0-.56-4.68-6.14-6.36-9.54-8.18-4.98-2.67-10.75-9.1-10.91,2.04-.49-.01-3.1,1.5-3.75,1.36-2.11-.45-7.26-4.45,1.36-1.36,3.74-4.77-3.13-3.65,0-6.13,2.27,3.15,1.86-1.32,4.77-2.04,1.01-.25,19.62-.72,19.77,3.41,8.55-17.28,11.07.38,11.93,1.02,2.07,1.56,7.45-2.62,2.39,7.84-1.35.53-4.51-6.63-7.16,1.36Z"/>
            <path class="cls-63" d="M332.72,371.65c-3.62,4.32-6.77.69-4.09,6.48-18.88,4.4-3.99-13.03-16.36-3.75-2.26,1.81-1.84-.74-3.41-1.36,1.55-.75,4.12-1.7,2.73-3.41,1.71-.37,2.63-2.2,6.48-2.04.76.03,13.97,3.75,14.65,4.09Z"/>
            <path class="cls-63" d="M300,368.93c2.91,1.35,5.89,2.91,8.86,4.09,1.57.62,1.15,3.17,3.41,1.36,3.3,3.07-.1,3.27-6.82,2.73-1.32-.11-2.01-.95-3.41-.68,1.6-3.65-1.56-4.08-4.09-4.77l-.68-2.73c1-.09,1.73-.09,2.73,0Z"/>
            <path class="cls-32" d="M285.69,399.6c-9.6,6.09-10.31,2.06-10.91,2.04.16-11.14,5.92-4.72,10.91-2.04Z"/>
            <path class="cls-63" d="M305.46,377.11c1.51,1.58-9.98,11.18-11.59,9.54.47-.46,7.92-9.62,8.18-10.22,1.39-.27,2.08.57,3.41.68Z"/>
            <path class="cls-63" d="M269.33,381.2c4.29,5.12.9,1.12-4.09,5.45l-.68-3.41c1.25-1.3,3.42-3.04,4.77-2.04Z"/>
            <g>
              <path class="cls-64" d="M332.72,371.65c.77.38,13.09,9.89,13.63,10.57.23.29-.42.99,2.73,6.48-2.52-.79-4.54.04-4.77,0-1.62-.28-4.61-1.9-4.77-1.7-2.31,10.33,4.51,10.49-5.45,14.65-5.33-8.99,7.63-7.28-2.04-10.91,2.8-3.27-7.76-7.73-9.54-6.13-6.31.41-1.95,4.06,7.5,6.13-.41,2.07-2.29,6.73,1.36,1.36,3.4,3.72-4.63,6.38-11.25,1.36-3.86,3.32,4.27,3.9,9.88,10.22v.68c-.13.04-1.57,1.34-1.7,2.04-14.14-11.14-7.88-5.35-7.84-4.43.02.35-3.63,2.44-2.04,5.79-4.7.03-9.65-.81-14.31-.68,2.65-8,5.81-.83,7.16-1.36,5.06-10.46-.32-6.27-2.39-7.84-.85-.65-3.38-18.3-11.93-1.02-.15-4.13-18.76-3.66-19.77-3.41-2.91.73-2.5,5.2-4.77,2.04-3.13,2.48,3.74,1.36,0,6.13-8.62-3.09-3.47.91-1.36,1.36.65.14,3.26-1.38,3.75-1.36.6.02,1.3,4.04,10.91-2.04,3.4,1.82,8.98,3.5,9.54,8.18-7.15.49-9.39-.76-9.88-.68-.66.11-2.53,3.42-4.09,3.41-.83,0-3.19-2.69-3.41-2.73-2.12-.37-5.96.43-7.5,0-6.01-1.67-10.32-9.74-12.95.68-10.4-6.04-5.18-15.6.34-23.18,2.21,2.47,2.6,1.93,2.73,2.04,6.44,5.85,2.5,1.29,4.77-.68,4.99-4.33,8.38-.33,4.09-5.45,1.54-4.57,7.56-8.88,12.27-7.16-6.24.2-2.92,3.06-3.41,4.43-1.94,5.44-5.48,11.49,4.09,4.09.75.6,5.52,1.88,7.84,7.5,1.02-1.35,2.57-2.26,3.75-3.41,1.61,1.64,13.09-7.96,11.59-9.54,6.71.54,10.12.35,6.82-2.73,12.37-9.28-2.52,8.15,16.36,3.75-2.68-5.78.47-2.15,4.09-6.48Z"/>
              <g>
                <path class="cls-19" d="M344.31,388.69c-4.61.18-4.89,9.61-3.07,10.22,17.5-7.51,2.42,1.23-11.25,5.45v-.68c1.39-.61,2.69-1.46,4.09-2.04,9.96-4.16,3.14-4.33,5.45-14.65.16-.2,3.15,1.42,4.77,1.7Z"/>
                <path class="cls-63" d="M334.09,401.65c-1.4.58-2.7,1.44-4.09,2.04-5.61-6.32-13.74-6.9-9.88-10.22,6.62,5.01,14.65,2.36,11.25-1.36.17-.25-.4-1.43.68-1.36,9.67,3.62-3.28,1.92,2.04,10.91Z"/>
                <path class="cls-63" d="M322.5,384.6c11.97,4.52,7.89,4.16,7.5,6.13-9.45-2.08-13.81-5.72-7.5-6.13Z"/>
                <path class="cls-63" d="M282.28,382.56c-9.57,7.4-6.03,1.35-4.09-4.09,1.79.64,2.84,3.08,4.09,4.09Z"/>
                <path class="cls-19" d="M332.04,390.74c-1.08-.07-.51,1.12-.68,1.36-3.65,5.36-1.77.71-1.36-1.36.39-1.98,4.48-1.61-7.5-6.13,1.78-1.59,12.34,2.87,9.54,6.13Z"/>
                <path class="cls-19" d="M265.24,386.65c-2.27,1.97,1.67,6.54-4.77.68,3.72.92,3.66-3.64,4.09-4.09l.68,3.41Z"/>
                <path class="cls-63" d="M268.99,393.47c1.34-.83.41,2.29.34,2.39-2.51,3.31-6.94,3.36-.34-2.39Z"/>
                <path class="cls-27" d="M262.86,400.96c1.74-1.17,6.92,3.58,0,1.36v-1.36Z"/>
                <path class="cls-29" d="M255.36,400.28l3.07,1.7c-2.26,1.43-4.39-1.2-3.07-1.7Z"/>
              </g>
            </g>
          </g>
        </g>
      </g>
    </g>
  </g>
</svg>