<?xml version="1.0" encoding="UTF-8"?>
<svg id="Layer_1" data-name="Layer 1" xmlns="http://www.w3.org/2000/svg" version="1.1" xmlns:xlink="http://www.w3.org/1999/xlink" viewBox="0 0 500 500">
  <defs>
    <style>
      .cls-1 {
        fill: #b86f31;
      }

      .cls-1, .cls-2, .cls-3, .cls-4, .cls-5, .cls-6, .cls-7, .cls-8, .cls-9, .cls-10, .cls-11, .cls-12, .cls-13, .cls-14, .cls-15, .cls-16, .cls-17, .cls-18, .cls-19, .cls-20, .cls-21, .cls-22, .cls-23, .cls-24, .cls-25, .cls-26, .cls-27, .cls-28, .cls-29, .cls-30, .cls-31, .cls-32, .cls-33, .cls-34, .cls-35, .cls-36, .cls-37, .cls-38, .cls-39, .cls-40, .cls-41, .cls-42, .cls-43, .cls-44, .cls-45, .cls-46, .cls-47, .cls-48, .cls-49, .cls-50, .cls-51, .cls-52, .cls-53, .cls-54, .cls-55, .cls-56, .cls-57, .cls-58, .cls-59, .cls-60, .cls-61, .cls-62, .cls-63, .cls-64, .cls-65, .cls-66, .cls-67, .cls-68, .cls-69, .cls-70, .cls-71, .cls-72, .cls-73, .cls-74, .cls-75, .cls-76, .cls-77, .cls-78, .cls-79, .cls-80, .cls-81, .cls-82, .cls-83, .cls-84, .cls-85, .cls-86, .cls-87, .cls-88, .cls-89, .cls-90, .cls-91, .cls-92, .cls-93, .cls-94 {
        stroke-width: 0px;
      }

      .cls-2 {
        fill: #efd8a4;
      }

      .cls-3 {
        fill: #5a7f86;
      }

      .cls-4 {
        fill: #2c2727;
      }

      .cls-5 {
        fill: #4c6d7a;
      }

      .cls-6 {
        fill: #522a28;
      }

      .cls-7 {
        fill: url(#linear-gradient);
      }

      .cls-8 {
        fill: #035470;
      }

      .cls-9 {
        fill: #563f55;
      }

      .cls-10 {
        fill: #fcf4ea;
      }

      .cls-11 {
        fill: url(#linear-gradient-6);
      }

      .cls-12 {
        fill: #898693;
      }

      .cls-13 {
        fill: #0f8ea2;
      }

      .cls-14 {
        fill: #542531;
      }

      .cls-15 {
        fill: #251816;
      }

      .cls-16 {
        fill: #d8d7d4;
      }

      .cls-17 {
        fill: #efb220;
      }

      .cls-18 {
        fill: #189db1;
      }

      .cls-19 {
        fill: #65595a;
      }

      .cls-20 {
        fill: #936d42;
      }

      .cls-21 {
        fill: #f8dfc6;
      }

      .cls-22 {
        fill: #1a738a;
      }

      .cls-23 {
        fill: #5c463f;
      }

      .cls-24 {
        fill: #fac894;
      }

      .cls-25 {
        fill: #b57e5d;
      }

      .cls-26 {
        fill: #cdbdc8;
      }

      .cls-27 {
        fill: #c4c1bd;
      }

      .cls-28 {
        fill: #714f43;
      }

      .cls-29 {
        fill: url(#linear-gradient-5);
      }

      .cls-30 {
        fill: #e88b6d;
      }

      .cls-31 {
        fill: #df5a59;
      }

      .cls-32 {
        fill: #c5332e;
      }

      .cls-33 {
        fill: #4f332f;
      }

      .cls-34 {
        fill: #8e8069;
      }

      .cls-35 {
        fill: #886e63;
      }

      .cls-36 {
        fill: #aee1f2;
      }

      .cls-37 {
        fill: #668f94;
      }

      .cls-38 {
        fill: #a87b67;
      }

      .cls-39 {
        fill: #b3353d;
      }

      .cls-40 {
        fill: #cb7d37;
      }

      .cls-41 {
        fill: #f3ead3;
      }

      .cls-42 {
        fill: #1a1625;
      }

      .cls-43 {
        fill: #acbac9;
      }

      .cls-44 {
        fill: #915742;
      }

      .cls-45 {
        fill: #46362d;
      }

      .cls-46 {
        fill: #72442e;
      }

      .cls-47 {
        fill: #ef7172;
      }

      .cls-48 {
        fill: #5d331d;
      }

      .cls-49 {
        fill: url(#linear-gradient-2);
      }

      .cls-50 {
        fill: #3f1415;
      }

      .cls-51 {
        fill: #eabe1e;
      }

      .cls-52 {
        fill: #3e3d3e;
      }

      .cls-53 {
        fill: #ddbba7;
      }

      .cls-54 {
        fill: #d3be8d;
      }

      .cls-55 {
        fill: #a6b293;
      }

      .cls-56 {
        fill: url(#linear-gradient-3);
      }

      .cls-57 {
        fill: #f4e2d7;
      }

      .cls-58 {
        fill: #848385;
      }

      .cls-59 {
        fill: #565255;
      }

      .cls-60 {
        fill: #395c71;
      }

      .cls-61 {
        fill: #ec6950;
      }

      .cls-62 {
        fill: #af8f81;
      }

      .cls-63 {
        fill: #1899bd;
      }

      .cls-64 {
        fill: #99592c;
      }

      .cls-65 {
        fill: #c7e9f1;
      }

      .cls-66 {
        fill: #9b9995;
      }

      .cls-67 {
        fill: #7ed0db;
      }

      .cls-68 {
        fill: #baa981;
      }

      .cls-69 {
        fill: #d3e3f1;
      }

      .cls-70 {
        fill: #9c8b87;
      }

      .cls-71 {
        fill: #2b2b31;
      }

      .cls-72 {
        fill: #013a53;
      }

      .cls-73 {
        fill: #fcf3bb;
      }

      .cls-74 {
        fill: #0f0f11;
      }

      .cls-75 {
        fill: #04283f;
      }

      .cls-76 {
        fill: #adaca7;
      }

      .cls-77 {
        fill: #77ada6;
      }

      .cls-78 {
        fill: #805b46;
      }

      .cls-79 {
        fill: #116a8b;
      }

      .cls-80 {
        fill: #b3cbba;
      }

      .cls-81 {
        fill: #f2ba9c;
      }

      .cls-82 {
        fill: #50271b;
      }

      .cls-83 {
        fill: #92baa7;
      }

      .cls-84 {
        fill: #c49d7e;
      }

      .cls-85 {
        fill: #551617;
      }

      .cls-86 {
        fill: #fafbfc;
      }

      .cls-87 {
        fill: #443337;
      }

      .cls-88 {
        fill: url(#linear-gradient-4);
      }

      .cls-89 {
        fill: #e59e8b;
      }

      .cls-90 {
        fill: #8f9ca4;
      }

      .cls-91 {
        fill: #91745e;
      }

      .cls-92 {
        fill: #bb988f;
      }

      .cls-93 {
        fill: #3d1c14;
      }

      .cls-94 {
        fill: #cf9754;
      }
    </style>
    <linearGradient id="linear-gradient" x1="517.55" y1="438.48" x2="525.92" y2="588.28" gradientTransform="translate(28.49 131.58) scale(.5)" gradientUnits="userSpaceOnUse">
      <stop offset=".43" stop-color="#131113"/>
      <stop offset="1" stop-color="#593021"/>
    </linearGradient>
    <linearGradient id="linear-gradient-2" x1="765.14" y1="238.95" x2="782.28" y2="278.86" gradientTransform="translate(28.49 131.58) scale(.5)" gradientUnits="userSpaceOnUse">
      <stop offset="0" stop-color="#edeae9"/>
      <stop offset="1" stop-color="#cbc6c3"/>
    </linearGradient>
    <linearGradient id="linear-gradient-3" x1="759.52" y1="13.29" x2="774.63" y2="31.54" gradientTransform="translate(28.49 131.58) scale(.5)" gradientUnits="userSpaceOnUse">
      <stop offset="0" stop-color="#e8e4e5"/>
      <stop offset="1" stop-color="#c9c4c1"/>
    </linearGradient>
    <linearGradient id="linear-gradient-4" x1="95.7" y1="104.27" x2="111.08" y2="139.56" gradientTransform="translate(28.49 131.58) scale(.5)" gradientUnits="userSpaceOnUse">
      <stop offset="0" stop-color="#f9f8f8"/>
      <stop offset="1" stop-color="#d4cec8"/>
    </linearGradient>
    <linearGradient id="linear-gradient-5" x1="275.61" y1="341.46" x2="304.29" y2="508.79" gradientTransform="translate(28.49 131.58) scale(.5)" gradientUnits="userSpaceOnUse">
      <stop offset="0" stop-color="#9d6549"/>
      <stop offset="1" stop-color="#7c422e"/>
    </linearGradient>
    <linearGradient id="linear-gradient-6" x1="391.2" y1="250.91" x2="457.83" y2="305.08" gradientTransform="translate(28.49 131.58) scale(.5)" gradientUnits="userSpaceOnUse">
      <stop offset="0" stop-color="#918799"/>
      <stop offset="1" stop-color="#2a2437"/>
    </linearGradient>
  </defs>
  <g id="Background">
    <rect class="cls-34" x="-3.16" y="-5.1" width="505.38" height="505.1"/>
    <path class="cls-34" d="M328.59,48.66c-27.1,10.66-73.33,53.66-98.4,73.98-3.98,3.23-19.02,13.56-19.98,14.8-.61.05-.46-.47-.49-.49-3.21-1.97-39.98,4.39-42.66,3.45-2.13-.75-22.02-34.19-27.13-36-1.97-.7-4.93-.88-6.66.25,2.25,4.12-1.43-1.2-4.93,1.97,5.3,1.23,2.69,2.28,2.96,2.96,3.92,10,6.24,22.37,10.36,32.55l-.74,1.73c-35.84,3.47-71.68,7.21-107.52,10.36-.2.02-.6-1.06-1.48-.99-.64.05-4.2,2.5-11.59,5.43-3.14,1.24-2.66-1.18-3.7,2.47-6.42-4.62,2.05,2.9-19.48,8.38.03-53.07-.72-106.24,0-159.31,9.23,1.69,18.98-.88,28.36-1.48,32.33-2.07,78.22-4.46,109.99-3.45,18.59.59,37.46,2.25,55.73,4.93.63.09,1.58-1.1,5.92,1.48,18.42,2.18,36.07,6.91,54.25,8.88,6.81,5.23,12.98,3.81,20.22,5.43.51.11,2.94,1.86,3.45,1.97.24.05,3.92-.23,4.93,0,5.76,1.33,11.52,3.6,17.26,4.93,4.4,1.02,41.88,5.08,34.77,13.56-.84,1-2.88.85-3.45,2.22Z"/>
    <path class="cls-59" d="M-2.85,10.19c.07-5.09-.05-10.19,0-15.29h505.05c.03,56.23-.03,112.45,0,168.68-17.76-13.62-34.56-28.43-53.51-40.44-13.89-12.51-31.12-21.55-46.36-32.55-7.26-3.37-14.9-5.71-20.47-11.84.61-1.62-.02-1.41,0-1.48,2.7-8.69,3.37-15.06-2.96-22.69-2.95-3.56-5.62-4.96-9.86-6.41-3.97-1.36-5-1.26-5.92-1.48-1.99-.47-9.79-1.06-3.95-2.47l.25-.99c-10.75-1.08-20.88,1.52-30.83,5.43.57-1.37,2.61-1.22,3.45-2.22,7.11-8.49-30.37-12.54-34.77-13.56-5.74-1.33-11.5-3.6-17.26-4.93-1.02-.23-4.69.05-4.93,0-.52-.12-2.94-1.86-3.45-1.97-7.24-1.62-13.41-.19-20.22-5.43-18.18-1.96-35.83-6.69-54.25-8.88-4.34-2.58-5.29-1.39-5.92-1.48-18.27-2.69-37.14-4.34-55.73-4.93-31.76-1.01-77.66,1.39-109.99,3.45-9.38.6-19.13,3.17-28.36,1.48Z"/>
    <path class="cls-34" d="M502.2,163.58c.03,42.91.02,85.82,0,128.73-3.06.79-9.49-6.78-10.11-6.9-1.35-.27-2.96,1.68-4.44,1.48-.95-.13-6.91-6.27-8.38-6.9-.44-.19-7.16-.97-9.37-1.97-4.65-2.11-9.15-10.6-16.77-12.82-1.09-.32-4.15.33-4.93,0-1.16-.48-.45-3.52-2.71-2.96-.1-3.83-3.07-3.27-3.45-4.19-.33-.79.05-10.61-9.12-13.07-12.68-3.4-17.71,5.81-18.74,5.92-1.2.13-4.43-5.9-12.58-2.47,1.36-2.95,5.19-.68,6.9-4.19-1.87-8.62-11.43-9.58-13.07-10.6-6.79-4.23-12.27-9.92-18.25-14.8-9.8-3.74-7.98-6.54-9.37-7.4-.17-.11-2.24.13-3.95-.99-3.93-2.57-5.99-4.97-7.4-5.92-.57-.38-4.25-1.02-4.93-1.48-.44-.29-3.57-3.83-4.44-4.44-.15-.1-2.52-.23-3.45-.99-5.32-4.28-5.37-6.79-5.67-7.15-.67-.81-2.94-1.29-3.45-1.97-1.12-1.49-.38-4.25-.49-4.44-.26-.44-3.71-.84-2.96-3.21,6.39-.68,12.56-4,18.74-5.43,5.66-1.3,10.38-1.25,11.34-1.48l.74,5.43q2.84-3.45,5.67-6.9c2.9-.75,8.3-2.88,10.85-4.44q.86,5.43,1.73,10.85c1.8-3.04,2.65-7.79,6.17-8.38l3.7,4.44,4.19-4.44c2,.05,3.43.15,5.43.49.92,2.03,1.01,4.08,2.47,2.96,5.36-4.85,9.04-4.22,9.62-4.44.44-.17.18-.96.25-.99.36-.17,5.97-.19.49-4.44-.16-.01-.33.02-.49,0-6.71-3.15-16.52-3.1-24.17-4.93.64-1.34,1.23-4.32,1.48-5.92,9.5,2.22,5.17-1.93,6.17-2.47.49-.26,5.08.57,11.1.49,7.53-.1,20.14,1.13,21.7-7.64-1.21-2.89-3.84-1.74-4.44-2.96-.27-.55.31-7.53-5.67-10.11-9.2-3.97-15.66,5.77-18.5,13.32-4.4-9.99-8.37-14.82-19.73-15.78-5.07-.43-22.44.78-27.37,1.97-5.22,1.26-9.61,5.04-14.06,6.41-.87-2.98-4.2-.77-3.95-4.44,7.24-5.55,25.44-21.34,31.07-27.87,4.26-4.93,14.16-19.76,16.28-25.4,5.56,6.13,13.21,8.47,20.47,11.84,15.24,11.01,32.47,20.05,46.36,32.55,18.96,12.02,35.75,26.82,53.51,40.44Z"/>
    <path class="cls-30" d="M48.94,434.35c11.26,2.63,22.39,6.25,33.78,8.38,34.9,6.52,70.44,8.07,105.55,12.82,7.43.4,15.04.36,22.44.99,3.96.34,8.16.1,12.08.49,2.67.27,5.78,1.57,8.63,1.97-1.22,6.26,2.52,5.74,2.47,8.14-.01.48-2.42,3.58-2.47,3.95-.13.97,2.22,6.6,1.48,8.88-.49,1.49-2.41,1.83-2.47,1.97-1.3,3.45,3.54,6.62-.99,18-77.43-.03-154.87.02-232.3,0-.03-25.81.04-51.62,0-77.43,17.39,3.37,34.55,7.81,51.79,11.84Z"/>
    <path class="cls-54" d="M226.49,197.11c-2.74,3.46,3.12,3.78,4.93,5.67.36.37.22,2.08,5.92,8.38.16.18-.71,3.53,3.21.74,2.85,2.13-1.58,1.7-.74,4.69,12.04,3.54-5.19.51-1.23,5.18,7.99-.59,41.42-1.81,43.9-1.48,2.01.27,2.75,1.03,3.7,1.97-1.97-.86-4.68-.48-6.9-.49-1.64-.01-3.29,0-4.93,0-2.47,0-4.93-.01-7.4,0-1.48,0-2.96-.02-4.44,0-2.46.03-4.94-.06-7.4,0-1.67.04-3.39.44-4.93.49-2.29.08-4.61-.12-6.9,0-1.31.07-2.64-.08-3.95,0-1.6.1-5.08-.23-5.67,0-2.75,1.07-.35,19.76-1.23,24.66-.15.85-1.36-1.12-.99,2.47-9.62-.88-41.99,6.37-50.31,15.78,5.12-8.23-3.15-3.06-8.14-7.4-8.73-.26-17.4-.6-26.14-.49-12.42.16-34.78,2.9-43.9,2.47-2.07-.1-2.58-3.79-4.93,1.48-3.44.1-3.82-5.14-5.43-5.92-2.06-1-1.6.93-1.73.99-7.88,3.2-21.2,10.79-22.44,10.85-1.72.09-17.89-11.73-20.71-13.81-.35,2.02-2.84,5.24-1.23,6.41,1.32.96,6.6,2.73,5.92,6.17-4.23,4.75-8.64,3.99-9.12,4.19-1.57.65-2.64,2.35-4.93,2.96-1.86.49-14.99,1.2-15.04,2.22-.12,2.24,16.06.85,11.59,2.71-12.51-.54-12.62,2.33-13.32,2.47-6.07,1.19-12.48.44-18.74,1.48-.54.09-1.27,2.05-5.67.99,0-19.89,0-39.79,0-59.68,11.8-9.73,23.19-6.64,34.77-8.88,1.42-.27,4.05-2.28,4.93-2.47,8.41-1.74,18.5-1.45,25.15-7.4,7.16.11-.99-.13-.74-2.47,1.69.24,4.63-.3,5.67,0,.71.21,2.6,3.09,3.21,3.45,1.13.67,1.65.84,2.96.99-1.21,2.32,11.3,1.51,18.25,1.48,8.94-.04,42.88-1.71,45.13-1.48,2.95.3,1.57,1.11,3.21,1.48,4.3.98,8.55,2.93,14.55,3.45,22.21,1.95,52.01-4.82,72.26-14.3Z"/>
    <path class="cls-2" d="M127.36,298.22c-8.31,4.08-16.33,7.86-23.18,14.3-2.89,2.72-5.65,5.77-7.4,9.37-5.08-1.38-10.41,4.82-10.85,6.66-.86,3.56.45,7.43,2.96,9.62,2.43,2.11,4.45,1.79,4.93,3.45-.09.2.09.78,0,.99-1.97,4.31-3.08,9.27-4.44,13.81-4.36.38-9.95.7-10.36,6.41,1.28,6.04,5.33,4.87,10.36,4.93v5.43c-.07,2.15-.02,16.23.74,16.77.84.6,17.83-.16,20.71,0,.37.02.68.98.74.99,2.71,4.45,6.04,11.5,9.37,15.29-16.7,3.45-33.72,3.71-50.06,6.41-4.03-.78-7.37.08-12.08.49-2.33.2-7.62-1.05-9.12,1.48-6.21-2.32-2.66.43-4.93.49-3.96.11-4.63-3.33-4.93-3.45-1.36-.56-2.03,5.3-8.38.49l-.25,1.23c.57,2.19,28.26,7.92,7.64,5.18-11.03-1.47-11.58-4.63-17.76-6.9-7.8-2.87-16.01-5.29-23.92-7.89-.04-30.91.02-61.82,0-92.72,6.31,1.93,15.11-3.37,14.06-.49,1.58.21,24.42-3.38,31.57-3.95,7.62-.6,18.84,1.45,17.26-2.47l1.23.25c.52,4.11,1.08.75,1.23.74,4.85-.43,11.88,4.35,4.44-4.93-4.71-.42-15.3-.66-3.45-2.47,5.66-.86,12.98-.35,18.74-.49.11,0,1.86-.99,1.97-.99,2.47-.02,19.7.77,20.71.99,4.92,1.05,2.88,10.73,15.29,1.97,1.89.3,5.07-.42,7.15-.99Z"/>
    <path class="cls-70" d="M411.94,441.25c-2.9,2.65-.45,3.41-3.95,7.15l.25,1.23c13.47.33,8.49,1.61,9.12,3.21,1.44,3.66,13.98-5.9,8.63,8.14,2.75-1.56,5.76-.42,8.88-.49.26,0,1.15-.98,1.23-.99,5.16-.27,6.98,1.38,8.14.99.74-.25,1.18-3.46,3.7-2.22-4.1,1.73-1.29,4.81-1.97,6.9-1.26,3.87-8.39,10.59-7.89,16.77.91,1.27,3.84-2.41,10.36,2.47-2.28,2.78-4.18,8.28-5.92,10.36-2.59,3.1-6.3,3.09-6.41,5.18-57.05.13-114.1-.03-171.14,0,3.97-5.64,1.45-6.22,1.48-8.63.06-4.4-.18-14.02,0-15.29.02-.16,1.95-2.31,1.97-2.47.51-4.18.15-12.04-1.97-16.03,4.02-.03,8.06.42,12.08.49q-2.22-1.97-4.44-3.95h10.11c.17.14,1.64,3.13,2.71,3.45.76.23,8.56-.08,15.78.49.13.01,1.09-1.11,2.47-.99,1.76.16,4.49,2.33,5.43,2.47,4.68.69,9.67.63,14.3,1.97-2.61-8.25-1.57-12.42-1.73-13.07-.1-.4-2.41-2.11-2.47-2.47-.26-1.51,1.49-2.15,1.48-2.47-.04-2.12-3.41-3.38,1.97-8.14,10.31-.8,2.43-2.96,6.41-4.44,1.73.25,3.68.21,5.43.49,24.2,4,27.42,2.36,10.36,14.06l.74,1.23c5.03-1.38,31.3-1.6,33.29-4.19,4.71-6.11-9.35-8.4-19.24-10.6,0-4.09-2.86-2.68-2.47-4.93,4.01.53,33.64,5.54,34.77,6.9,1.16,1.4-4.07,7.43-4.44,9.37,6.27-.75,17.62-.93,22.93-1.97Z"/>
    <path class="cls-55" d="M502.2,292.3c0,20.22.02,40.44,0,60.67-4.09-.57-6.5-.46-9.62-3.45-7.67,5.43-4.17-2.92-16.28.99q-9.86-4.44-19.73-8.88c-.82,6.6-11.18,4.41-6.17,7.64-4.94,12.62-24.25-2.75-34.77,8.63-1.41-4.3-6.64-3.66-7.15-3.45-3.07-18.44-4.88-30.29-18.99-43.4-2.49-2.32-6.59-3.97-9.12-6.41-.33-.32-5.33-6.16-5.92-6.9-.8-1-1.67-2.37-2.47-3.45-2.82-3.83-6.18-10.49-8.88-14.8,8.64,3.09,2.76,1.94,5.67,4.93,5.56-2.19,9.13-6.35,11.1-12.08-4.94-1.43-4.01-4.65-5.18-5.67-.23-.2-6.19-1.99,1.48-.99.36.05,1.03,1.58,1.97,1.48.16-.02,1.75-1.91,2.47-1.97.16-.01.83,1,.99.99,3.75-.39,1.61-2.08,5.67.49,1.08.68,1.39,2.13,2.71,2.47,2.42.61,47.38.53,49.81,0,2.46-.54,5.74-4.39,5.67-6.9,2.27-.56,1.56,2.48,2.71,2.96.78.33,3.84-.32,4.93,0,7.62,2.23,12.12,10.72,16.77,12.82,2.21,1,8.93,1.78,9.37,1.97,1.48.64,7.43,6.78,8.38,6.9,1.48.2,3.09-1.75,4.44-1.48.62.12,7.05,7.69,10.11,6.9Z"/>
    <path class="cls-54" d="M181.12,265.18c-1.6,2.57-13.82,13.75-16.77,25.15-14.07,1.35-23.76,4.29-36.99,7.89-2.08.57-5.26,1.29-7.15.99-12.4,8.75-10.37-.92-15.29-1.97-1.01-.22-18.25-1.01-20.71-.99-.11,0-1.86.98-1.97.99-5.77.15-13.08-.37-18.74.49-11.84,1.8-1.26,2.05,3.45,2.47,7.44,9.28.41,4.5-4.44,4.93-.16.01-.72,3.37-1.23-.74l-1.23-.25c1.58,3.92-9.65,1.86-17.26,2.47-7.14.57-29.98,4.16-31.57,3.95,1.05-2.88-7.74,2.42-14.06.49,0-9.37,0-18.74,0-28.11,4.4,1.06,5.13-.9,5.67-.99,6.26-1.04,12.67-.29,18.74-1.48.69-.14.81-3.01,13.32-2.47,4.47-1.86-11.71-.47-11.59-2.71.05-1.02,13.19-1.73,15.04-2.22,2.29-.61,3.36-2.31,4.93-2.96.48-.2,4.89.56,9.12-4.19.68-3.44-4.6-5.21-5.92-6.17.56-2.66,6.6,3.48,12.82,6.9.79,2.5,9.18,6.37,12.33,7.89,1.31.64,2.6,1.41,3.95,1.97.91.38,2.72,2.05,3.7,1.97.4-.03,4.98-3.35,6.9-3.95,4.84-1.49,10.3.49,2.71-1.97-1.58-.51-6.43-1.98-7.4-1.97,3.3-4.41,15.89-6.83,11.34-13.81-.48-.73-1.2-1.1-1.97-.49.13-.05-.33-1.98,1.73-.99,1.61.78,1.99,6.01,5.43,5.92,2.35-5.27,2.87-1.58,4.93-1.48,9.11.43,31.48-2.31,43.9-2.47,8.74-.11,17.41.24,26.14.49,4.99,4.34,13.26-.84,8.14,7.4Z"/>
    <path class="cls-68" d="M20.33,158.64l-.25.99c1.35-.74,2.43-.33,3.21-.49,7.87.87,15.77-.05,23.67,0,3.35.02,8.85-.32,11.34,0-2.14,7,2.1,10.31,3.45,1.97-.92-3.15,9.61-.57,14.3-1.48q.12,5.18.25,10.36l4.19-8.88h14.8c-.88,16.44.25,11.14,4.93.49,2.08.54,13.21-.12,16.77.49-1.83,17.14,4.21,3.19,4.44,0l15.29.99c0,1.74,1.76,15.58,5.43,11.1v-10.11c.59-.13,1.24.24,1.48.74,1.18,2.46,8.11,23.12,7.4,24.17-7.83,1.85-15.77,3.19-23.67,4.69-1.66-1.15-1.65-6.75-2.47-8.14-1.56-2.66-8.5-3.71-12.82,1.23-3.89,4.45-1.64,4.72-2.47,8.88-2.02.24-.26-6.82-3.21-8.88-.84-.59-8.5-2.2-8.88-2.47-.91-.64-1.29-3.28-1.73-3.7-9.72-9.37-14.66-.95-15.54-.74-1.5.36-2.99-.87-4.44-.49-13.16,3.43-11.49,13.53-12.82,14.3-.76.44-8.83-.74-9.12,5.67,1.88,3.88,4.46,2.3,7.4,2.71-.25,2.34,7.9,2.58.74,2.47-6.66,5.95-16.74,5.66-25.15,7.4-.88.18-3.51,2.19-4.93,2.47-11.58,2.24-22.98-.85-34.77,8.88,0-17.92-.01-35.84,0-53.76,21.53-5.49,13.06-13.01,19.48-8.38,1.03-3.65.56-1.22,3.7-2.47Z"/>
    <path class="cls-37" d="M444,402.29c2.27,1.07,9.05,1.63,12.82,1.97,4.93,1.34,25.69,8.4,27.87,8.38,1.12,0,1.15-.99,1.23-.99,5.35-.05,10.98-.54,16.28-1.48-.04,29.92.03,59.84,0,89.76-22.03.04-44.06-.05-66.09,0,.11-2.09,3.82-2.08,6.41-5.18,1.74-2.08,3.64-7.58,5.92-10.36-6.52-4.88-9.45-1.19-10.36-2.47-.5-6.18,6.63-12.9,7.89-16.77.68-2.09-2.13-5.18,1.97-6.9-2.52-1.24-2.95,1.97-3.7,2.22-1.16.4-2.98-1.26-8.14-.99,4.76-5.26.87-3.84,2.71-7.4,7.6-3.79,9.7,10.49,8.14-.25q3.7-4.44,7.4-8.88c-3.55-10.45-8.62,2.42-13.32-2.96,1.95.22,3.21-5.35,2.96-6.41-.26-1.13-3.09-.79-.49-3.7,1.67-.17,3.17.48,2.96-.74-3.31-9.35-8.29-4.28-14.55-5.67-1.09-.24-7.18-4.98-9.12-5.92.37-.58.56-1.43.74-1.48,3.32-.87,19.21,1.37,24.41-2.96,3.02.9,6.19,2.28,8.88,3.95,7.34,4.54,2.78,2.21,5.67,11.84,1.63-1.22,12.1-1.81,12.08-3.7-6.83-6.27-14.99-11.49-24.17-13.07,4.97-1.19,26.88,5.46,29.84,4.44,3.05-1.05-9.91-5.06-12.08-5.92-.06-.02.19-.82-.25-.99-2.26-.85-5.11-1.29-7.4-1.97-.41-.12-.08-.87-.49-.99-4.01-1.13-11.59-1.61-15.78-2.47-.17-.03-1.74-1.39-2.22-1.48.65-.08,1.35-.3,1.97-.49Z"/>
    <path class="cls-83" d="M502.2,352.97c0,12.66.01,25.32,0,37.98-7.56,1.31-19.67,5.24-23.18,12.58,2.16,1.56,2.71,1.44,4.44,3.7-8.79-1.84-17.73-2.14-26.63-2.96-3.78-.35-10.56-.9-12.82-1.97,9.3-2.81-13.57-2.54-20.71-2.96-13.24-.78-27.25-1.5-39.95-3.7,6.93-12.39-.02-13.47,9.37-15.54,16.01-3.53,19.97,3.55,16.77-12.33,5.44-1.84,5.02-4.1,4.93-9.62-.66-2.5-4.7-2.67-6.9-2.71,1.38.26.92-.96.99-.99.51-.21,5.74-.85,7.15,3.45,10.53-11.38,29.83,3.99,34.77-8.63-5.01-3.24,5.35-1.05,6.17-7.64q9.86,4.44,19.73,8.88c12.11-3.9,8.6,4.45,16.28-.99,3.12,2.99,5.53,2.88,9.62,3.45Z"/>
    <path class="cls-81" d="M58.8,413.14c-.6,2.16,6.4,2.32,8.63,2.47,15.89,1.01,42.6-.7,57.95-4.93.27.23,5.12,3.44,5.92,3.95-4-.19-7.9.44-11.84.99-3.52.49-8.53.07-1.97,2.47.48.18,2.67.5,4.44.99,3.65,1,23.92,5.32,12.33,4.44-2.73-.21-5.43-.62-8.14-.99,14.08,8.7-15.77,2.66-27.62.99-.88.41.4,2.12.74,2.47.1.41-1.12,1.95-1.23,1.97-1.07.18-18.22-1.45-21.7-.99-.53.07-11.7,3.94-6.17,3.21-2.42,4.41-19.14-2.08-20.71.49-.1.16.18,2.12-.49,3.7-17.24-4.02-34.4-8.47-51.79-11.84-.01-6.25,0-12.49,0-18.74,7.91,2.6,16.12,5.02,23.92,7.89,6.18,2.27,6.73,5.44,17.76,6.9,20.62,2.74-7.08-2.99-7.64-5.18l.25-1.23c6.36,4.81,7.02-1.05,8.38-.49.3.12.98,3.56,4.93,3.45,2.27-.06-1.28-2.81,4.93-.49,1.51-2.53,6.8-1.28,9.12-1.48Z"/>
    <path class="cls-30" d="M266.44,457.53c2.12,3.99,2.48,11.85,1.97,16.03-.02.16-1.95,2.31-1.97,2.47-.18,1.27.06,10.89,0,15.29-.03,2.41,2.49,2.99-1.48,8.63-11.84,0-23.67,0-35.51,0,4.52-11.38-.31-14.56.99-18,.06-.15,1.98-.48,2.47-1.97.74-2.28-1.61-7.91-1.48-8.88.05-.36,2.46-3.46,2.47-3.95.05-2.4-3.68-1.88-2.47-8.14,6.72.94,13.66,2.48,10.11-.49,8.34.19,16.57-.92,24.91-.99Z"/>
    <path class="cls-77" d="M502.2,390.95c0,6.41,0,12.82,0,19.24-5.29.94-10.93,1.43-16.28,1.48-1.26-1.29-1.37-3.01-2.47-4.44-1.73-2.26-2.28-2.14-4.44-3.7,3.51-7.34,15.62-11.27,23.18-12.58Z"/>
    <path class="cls-68" d="M280.75,169.49c-2.07,12.44.11,8.54,3.95.49,4.68-.01,9.53-1.62,14.3-.99-1.16,16.24,4.05,5.81,3.95,0,1.73-.68,12-.74,12.58-.49,1.3.54,3.18,13.65,15.54,12.33-.75,2.36,2.7,2.77,2.96,3.21.11.19-.63,2.95.49,4.44.51.68,2.78,1.17,3.45,1.97.3.36.35,2.87,5.67,7.15.94.75,3.31.88,3.45.99.87.61,4,4.15,4.44,4.44.69.46,4.36,1.1,4.93,1.48,1.41.94,3.46,3.35,7.4,5.92,1.7,1.11,3.77.88,3.95.99,1.39.85-.43,3.66,9.37,7.4,5.98,4.88,11.46,10.57,18.25,14.8,1.64,1.02,11.2,1.99,13.07,10.6-1.72,3.51-5.55,1.24-6.9,4.19-5.74,2.42-5.26,8.79-7.4,9.86-2.23,1.11-6.07-.74-6.9,5.43-.15,1.13-.11,1.84,0,2.96-4.06-2.58-1.92-.89-5.67-.49-.15.02-.83-1-.99-.99-.71.06-2.31,1.96-2.47,1.97-.94.1-1.61-1.43-1.97-1.48-7.67-1-1.71.79-1.48.99,1.17,1.03.24,4.24,5.18,5.67-1.96,5.73-5.54,9.9-11.1,12.08-2.91-2.99,2.96-1.85-5.67-4.93-6-5.7-8.42-17.91-16.77-16.28-7.4-8.05-24.53-10.51-35.26-10.85-9.22-.29-13.16.06-20.47,5.92-2.2,1.76-2.72,3.8-5.43,4.44.83-2.28,1.11-5.87,2.47-7.89,1.54-2.3,10.33-5.46,0-4.93-.81-5.88,1.7-24.46-1.48-27.62-.95-.94-1.69-1.7-3.7-1.97-2.47-.33-35.91.89-43.9,1.48-3.95-4.67,13.27-1.64,1.23-5.18-.84-2.99,3.59-2.56.74-4.69-3.92,2.79-3.05-.56-3.21-.74-5.7-6.3-5.56-8.01-5.92-8.38-1.81-1.89-7.67-2.21-4.93-5.67,11.2-5.25,22.44-13.67,33.29-19.73,6.73-3.75,14.25-6.06,20.96-9.86-.07.64.1,1.35,0,1.97Z"/>
    <path class="cls-89" d="M202.82,444.21c5.06,6.74,15.43,2.36,24.91,7.89-13.93-.28-27.77-1.65-41.68-.74,8.39.51,16.14,3.91,24.66,5.18-7.4-.63-15.01-.59-22.44-.99-35.11-4.75-70.65-6.3-105.55-12.82-11.4-2.13-22.52-5.76-33.78-8.38.68-1.58.4-3.54.49-3.7,1.58-2.58,18.29,3.91,20.71-.49-5.53.74,5.63-3.14,6.17-3.21,3.49-.46,20.63,1.17,21.7.99.11-.02,1.33-1.56,1.23-1.97,1.61,1.63,16.18,5.58,18.99,5.92,10.74,1.31,19.7-4.43,8.88,3.95-3.3,2.56-7.85,3.47-7.15,5.67.7,1.41,27.42.75,31.32,1.23l1.23-1.23c-6.28-5.49-21.33-11.23-15.04-11.1,2.39.05,28.76,5.15,30.09,5.92,3.75,2.16-.32,9.57,1.97,10.36,6.85-1.26,29.27-1.13,33.29-2.47Z"/>
    <path class="cls-89" d="M211.7,433.36c2.95.49,17.22,2.59,18.5,3.45,1.66,1.13,1.36,3.78,2.22,4.69,1.3,1.37,25.78,3.75,28.61,3.21,3.67,11.08,17.88,5.73,18.99,5.92,1,.17,3.32,2.73,4.19,3.45h-10.11q2.22,1.97,4.44,3.95c-4.03-.07-8.06-.53-12.08-.49-8.34.07-16.57,1.18-24.91.99,3.55,2.97-3.39,1.44-10.11.49-2.85-.4-5.96-1.71-8.63-1.97-3.92-.39-8.12-.16-12.08-.49-8.53-1.27-16.27-4.67-24.66-5.18,13.91-.91,27.74.46,41.68.74-9.47-5.53-19.85-1.15-24.91-7.89,1.41-.47,2.45-1.69,3.45-2.71.62-5.31-2.45-4.1-4.93-4.69,2.66-.81,2.59-1.66,2.47-4.44,2.6.41,5.25.54,7.89.99Z"/>
    <path class="cls-7" d="M392.71,380.1c-9.39,2.07-2.44,3.15-9.37,15.54,12.7,2.2,26.71,2.92,39.95,3.7l.74,1.97c-9.76-1.59-4.45.73,2.22,1.97,2.52.47,13.09,2.19,6.41-1.48,4.5.18,5.01.18,9.37.99.48.09,2.05,1.45,2.22,1.48,4.19.86,11.77,1.34,15.78,2.47.41.12.08.86.49.99,2.29.68,5.14,1.12,7.4,1.97.44.17.19.96.25.99-1.08,2.73-13.77-2.46-17.51-2.96-7.64-1.03-19.23-.24-27.13-.49-.54-.02-4.43-.97-4.93-.99-7.59-.19-16.54-1-15.54,1.97-5.95-.48-11.99-1.95-18-1.48,11.99,2.42,23.61,4.09,34.77,9.37,1,.47,1.95,1,2.96,1.48,1.94.94,8.03,5.68,9.12,5.92,6.26,1.39,11.24-3.68,14.55,5.67.21,1.22-1.29.57-2.96.74-19.81,2.03-57.94-16.73-80.39-15.54,2.05.1,3.61.98,5.43,1.73-3.64,2.02-11.45,1.92-18.25,2.96-1.82.28-3.62.65-5.43.99-.89.03-2.09-1.47-2.22-1.48-1.46-.13-25.2,1.22-29.35,1.48-4.74-2.2-9.3-.55-14.06-.49-15.85.17-26.21-2.21-43.4,1.97q2.84.49,5.67.99c-2.26.05-3.35.44-4.44.49-3.84.18-7.49-.31-11.34.49l-.25-.99c-31.8-3.9-72.83,4.31-99.63-.49-2.82-.5-5.55-3.04-8.63-3.45-1.1-2.43-3.99-2.73-5.92-3.95-.8-.51-5.64-3.72-5.92-3.95-.24-.2-4.09-4.05-4.44-4.44-3.33-3.79-6.66-10.84-9.37-15.29,8.41.44,16.57-.13,24.91,0,.21,0,.66.98,1.23.99,1.8,15.3,13.4,20.03,21.21,4.93.91-1.75,1.93-3.36,1.97-5.43,1.48-.02,5.92-.97,7.4-.99-.63,3.1-3.48,10.48-4.93,12.82-2.12,3.4-6.71,7.31-9.86,9.86-8.88,2.84,2.09,1.65,10.85.99,11.67-.89,23.16-2.83,34.77-3.95,8.06-.77,30.6-1.11,36.5-2.47,3.8-.87-.03-3.15-.74-4.44-.49-.88-1-1.62-1.48-2.47-1.74-3.05-3.39-6.21-4.93-9.37,4.97.04,10.27-.85,15.29-.74,5.49-50.83,44.28-63.24,47.84-3.21-.9.18-3.79.62-3.95.74-.39.31-2.07,8.28-2.22,9.62q27.62-1.73,55.24-3.45c1.9-1.03-3.14-6.05-4.69-10.36,7.81-.51,15.6-.99,23.43-.99-2.58-43.31,32.39-51.41,33.29-2.96Z"/>
    <path class="cls-21" d="M125.39,410.68c-15.35,4.23-42.06,5.94-57.95,4.93-2.24-.14-9.23-.31-8.63-2.47,4.71-.41,8.06-1.28,12.08-.49,16.34-2.71,33.37-2.96,50.06-6.41.34.39,4.2,4.24,4.44,4.44Z"/>
    <path class="cls-92" d="M324.15,435.34c-5.38,4.76-2.01,6.01-1.97,8.14,0,.31-1.74.96-1.48,2.47.06.36,2.37,2.07,2.47,2.47.16.65-.88,4.82,1.73,13.07-4.63-1.34-9.62-1.28-14.3-1.97-.94-.14-3.67-2.31-5.43-2.47-1.38-.13-2.33,1-2.47.99-7.23-.57-15.02-.26-15.78-.49-1.07-.32-2.54-3.31-2.71-3.45-.88-.72-3.19-3.28-4.19-3.45-1.11-.19-15.32,5.16-18.99-5.92,3.78-.73,3.83-4.11,1.73-5.43-1.83-1.14-36.74-6.6-42.17-8.38,25.84-.45,43.53,2.22,67.82,3.45,7.2.37,31.63,1.31,35.76.99Z"/>
    <path class="cls-37" d="M443.51,429.91c-2.6,2.91.23,2.57.49,3.7.25,1.06-1.01,6.63-2.96,6.41,4.7,5.38,9.77-7.49,13.32,2.96q-3.7,4.44-7.4,8.88c1.56,10.74-.54-3.54-8.14.25-1.84,3.56,2.05,2.14-2.71,7.4-.08,0-.97.98-1.23.99-3.12.07-6.13-1.07-8.88.49,5.35-14.04-7.19-4.47-8.63-8.14-.63-1.6,4.34-2.88-9.12-3.21l-.25-1.23c3.5-3.74,1.05-4.5,3.95-7.15,10.98-2.15.13-4.35-13.56-13.32-.57-.38-1.8-2.9-2.96-3.45-1.89-.91-10.25-1.12-13.32-1.97-2.88-.8-9.62-4.79-13.56-6.41-1.82-.75-3.38-1.62-5.43-1.73,22.45-1.19,60.58,17.57,80.39,15.54Z"/>
    <path class="cls-46" d="M258.06,424.98c11.81.18,23.73,1.13,35.51,1.97,9.24.66,18.42,1.38,27.62,2.47,3.57.42,7.39.25,9.12.49.41.06.2.98.25.99-3.98,1.48,3.9,3.63-6.41,4.44-4.13.32-28.56-.62-35.76-.99-24.29-1.24-41.98-3.9-67.82-3.45-3.7.06-7.4-.05-11.1,0-1.95,2.87,2.22.23,2.22,2.47-2.64-.44-5.29-.58-7.89-.99-9.01-1.41-18.09-2.71-27.13-3.95l-.74-2.47c10.01,1.96,60.02,1.65,64.61.49.56-.14-2.14-.82,2.22-1.48,3.03-.46,11.49-.06,15.29,0Z"/>
    <path class="cls-46" d="M411.94,441.25c-5.32,1.04-16.66,1.22-22.93,1.97.36-1.94,5.6-7.97,4.44-9.37-1.13-1.37-30.76-6.37-34.77-6.9-7.62-1.01-14.5-1.63-22.19-1.97-3.77-2.88-3-.61,1.48-2.22-3.52-1.62.94-1.6,3.95-2.22q5.06-.25,10.11-.49l-1.73-.99c6.8-1.04,14.61-.94,18.25-2.96,3.94,1.62,10.68,5.61,13.56,6.41,3.06.86,11.42,1.07,13.32,1.97,1.16.56,2.38,3.08,2.96,3.45,13.7,8.97,24.55,11.17,13.56,13.32Z"/>
    <path class="cls-46" d="M356.21,430.9c1.71.32,3.23.61,4.93.99,9.89,2.21,23.94,4.49,19.24,10.6-2,2.59-28.26,2.81-33.29,4.19l-.74-1.23c17.06-11.69,13.84-10.06-10.36-14.06,6.19-.46,12.31.93,18.5.99.57,0,.97,2.62,1.73-1.48Z"/>
    <path class="cls-90" d="M299,423.99c12.48.37,25.04.44,37.48.99,7.69.34,14.57.96,22.19,1.97-.4,2.25,2.47.84,2.47,4.93-1.7-.38-3.22-.67-4.93-.99-7.28-1.36-14.54-2.66-21.95-2.96-4.71-.19-12.77-.63-13.07,1.48-9.2-1.09-18.38-1.81-27.62-2.47,1.19-1.18,2.51.79,2.96-2.96.82.02,1.65-.02,2.47,0Z"/>
    <path class="cls-78" d="M356.21,430.9c-.75,4.1-1.15,1.48-1.73,1.48-6.18-.06-12.31-1.45-18.5-.99-1.74-.29-3.69-.24-5.43-.49-.05,0,.17-.93-.25-.99-1.73-.24-5.56-.07-9.12-.49.3-2.11,8.36-1.67,13.07-1.48,7.41.3,14.66,1.59,21.95,2.96Z"/>
    <path class="cls-45" d="M468.17,410.68c2.17.86,15.13,4.86,12.08,5.92-2.96,1.02-24.87-5.63-29.84-4.44-10.51-1.81,3.68,1.25,6.41,4.93-2.69-1.66-5.86-3.05-8.88-3.95-7.57-2.25-14.86-2.6-22.69-3.45-7.37-.81-14.82-.88-22.19-1.48-1-2.97,7.94-2.16,15.54-1.97.51.01,4.4.97,4.93.99,7.9.26,19.48-.54,27.13.49,3.74.5,16.43,5.69,17.51,2.96Z"/>
    <path class="cls-48" d="M450.41,412.15c9.18,1.58,17.34,6.8,24.17,13.07.02,1.89-10.45,2.48-12.08,3.7-2.89-9.63,1.66-7.29-5.67-11.84-2.73-3.68-16.92-6.74-6.41-4.93Z"/>
    <path class="cls-3" d="M447.95,413.14c-5.2,4.33-21.1,2.09-24.41,2.96-.18.05-.37.9-.74,1.48-1-.48-1.96-1.01-2.96-1.48,1.25-2.89,5.11-1.52,5.43-6.41,7.82.86,15.12,1.2,22.69,3.45Z"/>
    <path class="cls-46" d="M483.46,407.22c1.09,1.42,1.2,3.15,2.47,4.44-.08,0-.11.98-1.23.99-2.18.01-22.94-7.04-27.87-8.38,8.9.82,17.84,1.12,26.63,2.96Z"/>
    <path class="cls-23" d="M444,402.29c-.63.19-1.32.41-1.97.49-4.36-.81-4.87-.8-9.37-.99-4.41-.18-8.66-2.37-6.41,1.48-6.66-1.24-11.98-3.56-2.22-1.97l-.74-1.97c7.14.42,30.01.15,20.71,2.96Z"/>
    <path class="cls-44" d="M134.26,423.5c.61,2.45,4.46,1.63,6.41,1.48,0,.33-.14.85.25.99,2.9,1.02,50.28,8.45,60.42,10.85,2.48.59,5.55-.63,4.93,4.69-1.01,1.02-2.04,2.24-3.45,2.71-4.02,1.34-26.44,1.2-33.29,2.47-2.3-.79,1.78-8.2-1.97-10.36-1.33-.76-27.7-5.87-30.09-5.92-6.28-.14,8.76,5.61,15.04,11.1l-1.23,1.23c-3.9-.48-30.62.18-31.32-1.23-.7-2.2,3.85-3.11,7.15-5.67,10.82-8.38,1.87-2.64-8.88-3.95-2.81-.34-17.38-4.28-18.99-5.92-.34-.35-1.62-2.05-.74-2.47,11.85,1.68,41.7,7.72,27.62-.99,2.71.36,5.41.78,8.14.99Z"/>
    <path class="cls-93" d="M137.22,418.57c3.08.41,5.82,2.95,8.63,3.45,26.79,4.8,67.83-3.41,99.63.49l.25.99c-1.53.32-3.37.41-2.96,1.48-4.36.66-1.66,1.34-2.22,1.48-4.59,1.15-54.6,1.47-64.61-.49l.74,2.47c-6.97-.95-27.16-4.89-30.83-4.93-.27,0-.79,1.14-5.18,1.48-1.95.15-5.8.97-6.41-1.48,11.59.89-8.68-3.44-12.33-4.44,4.04-.51,11.49-1,15.29-.49Z"/>
    <path class="cls-62" d="M131.3,414.62c1.93,1.22,4.82,1.51,5.92,3.95-3.8-.51-11.25-.01-15.29.49-1.77-.48-3.95-.81-4.44-.99.48-.87,2.31-.08,1.97-2.47,3.94-.55,7.84-1.18,11.84-.99Z"/>
    <path class="cls-92" d="M119.47,415.61c.34,2.39-1.49,1.59-1.97,2.47-6.55-2.39-1.55-1.97,1.97-2.47Z"/>
    <path class="cls-46" d="M220.57,430.9c5.43,1.79,40.34,7.25,42.17,8.38,2.11,1.31,2.05,4.7-1.73,5.43-2.82.54-27.3-1.83-28.61-3.21-.86-.91-.56-3.56-2.22-4.69-1.27-.87-15.54-2.96-18.5-3.45,0-2.23-4.17.4-2.22-2.47,3.7-.05,7.4.06,11.1,0Z"/>
    <path class="cls-92" d="M176.68,428.43c9.04,1.23,18.11,2.54,27.13,3.95.12,2.77.19,3.63-2.47,4.44-10.14-2.4-57.52-9.83-60.42-10.85-.39-.14-.25-.66-.25-.99,4.39-.34,4.91-1.48,5.18-1.48,3.66.05,23.86,3.98,30.83,4.93Z"/>
    <path class="cls-21" d="M228.47,391.44c1.54,3.16,3.19,6.32,4.93,9.37-18.92,2.71-64.34,7.35-79.9,12.33,3.16-2.55,7.75-6.46,9.86-9.86,18.52-.69,36.42-5.15,54.5-8.88l1.73-3.95c9.35.04,8.42.98,8.88.99Z"/>
    <path class="cls-80" d="M335.99,384.04c1.54,4.31,6.58,9.33,4.69,10.36q-27.62,1.73-55.24,3.45c.15-1.34,1.83-9.31,2.22-9.62.16-.12,3.05-.56,3.95-.74,6.34-1.25,34.89-2.83,44.39-3.45Z"/>
    <path class="cls-2" d="M213.18,390.45c2.14.02,4.27,0,6.41,0l-1.73,3.95c-18.08,3.73-35.98,8.19-54.5,8.88,1.46-2.34,4.31-9.73,4.93-12.82,14.98-.21,29.9-.11,44.88,0Z"/>
    <path class="cls-87" d="M164.35,414.13c.4-1.39,7.55-2.62,9.62-2.96,20.17-3.28,40.61-5.57,60.91-7.89.71,1.29,4.54,3.57.74,4.44-5.9,1.35-28.43,1.69-36.5,2.47-11.61,1.11-23.1,3.06-34.77,3.95Z"/>
    <path class="cls-35" d="M234.88,403.28c-20.3,2.32-40.75,4.61-60.91,7.89-2.07.34-9.22,1.57-9.62,2.96-8.76.67-19.73,1.85-10.85-.99,15.56-4.98,60.98-9.62,79.9-12.33.48.84.99,1.58,1.48,2.47Z"/>
    <path class="cls-33" d="M344.86,420.05c-.96.18-2,.3-2.96.49-3.01.62-7.47.6-3.95,2.22-4.48,1.61-5.25-.66-1.48,2.22-12.45-.55-25.01-.61-37.48-.99.38-1.75-1.98-.51-2.47-1.23-1.43-2.11,14.97-2.6,16.77-2.71,4.15-.26,27.88-1.61,29.35-1.48.13.01,1.33,1.51,2.22,1.48Z"/>
    <path class="cls-93" d="M313.3,420.05c-1.8.11-18.2.6-16.77,2.71.49.72,2.85-.52,2.47,1.23-.82-.02-1.65.02-2.47,0-11.71-.32-23.23-1.73-35.02-1.48q-2.84-.49-5.67-.99c17.19-4.19,27.55-1.8,43.4-1.97,4.75-.05,9.31-1.7,14.06.49Z"/>
    <path class="cls-5" d="M403.06,408.21c7.38.6,14.82.67,22.19,1.48-.31,4.89-4.17,3.52-5.43,6.41-11.16-5.28-22.79-6.95-34.77-9.37,6.02-.47,12.05,1,18,1.48Z"/>
    <path class="cls-58" d="M261.51,422.51c11.79-.25,23.31,1.16,35.02,1.48-.45,3.75-1.77,1.78-2.96,2.96-11.78-.84-23.7-1.79-35.51-1.97l-.99-1.97c1.09-.05,2.18-.45,4.44-.49Z"/>
    <path class="cls-19" d="M257.07,423.01l.99,1.97c-3.8-.06-12.26-.46-15.29,0-.41-1.07,1.43-1.16,2.96-1.48,3.85-.81,7.5-.31,11.34-.49Z"/>
    <path class="cls-60" d="M432.66,401.8c6.68,3.67-3.89,1.95-6.41,1.48-2.24-3.85,2-1.66,6.41-1.48Z"/>
    <path class="cls-23" d="M350.29,419.06l1.73.99q-5.06.25-10.11.49c.95-.2,2-.31,2.96-.49,1.81-.34,3.6-.71,5.43-.99Z"/>
  </g>
  <g>
    <g>
      <g>
        <path class="cls-44" d="M90.86,256.3c.77-.6,1.49-.24,1.97.49-2.48,2.26-23,14.16-24.41,14.3-.56.06-7.92-3.78-9.12-4.44-6.23-3.43-12.27-9.56-12.82-6.9-1.61-1.17.88-4.39,1.23-6.41,2.83,2.08,19,13.89,20.71,13.81,1.24-.06,14.56-7.66,22.44-10.85Z"/>
        <path class="cls-93" d="M81.49,270.6c-.56,0-11.07,2.03-9.86,3.95-3.15-1.52-11.54-5.39-12.33-7.89,1.21.66,8.56,4.5,9.12,4.44,1.41-.14,21.93-12.04,24.41-14.3,4.54,6.98-8.05,9.4-11.34,13.81Z"/>
      </g>
      <g>
        <path class="cls-82" d="M88.89,272.58c.74,1.4-4.34.26-8.14.99-.29.06-5.55,1.88-5.18,2.96-1.34-.57-2.63-1.34-3.95-1.97-1.2-1.92,9.31-3.94,9.86-3.95.97,0,5.82,1.46,7.4,1.97Z"/>
        <path class="cls-93" d="M75.57,276.52c-.37-1.08,4.89-2.9,5.18-2.96,3.8-.72,8.87.41,8.14-.99,7.59,2.46,2.13.48-2.71,1.97-1.92.59-6.51,3.91-6.9,3.95-.98.08-2.79-1.59-3.7-1.97Z"/>
      </g>
    </g>
    <g>
      <path class="cls-49" d="M445.48,262.22c.06,2.51-3.21,6.36-5.67,6.9-2.43.53-47.4.61-49.81,0-1.33-.33-1.63-1.78-2.71-2.47-.11-1.12-.15-1.83,0-2.96,3.02-.89,9.47-4.56,6.9-5.43,2.14-1.07,1.66-7.44,7.4-9.86,8.15-3.43,11.38,2.6,12.58,2.47,1.04-.11,6.06-9.31,18.74-5.92,9.17,2.46,8.8,12.28,9.12,13.07.38.92,3.36.36,3.45,4.19Z"/>
      <path class="cls-86" d="M394.19,258.27c2.57.87-3.89,4.54-6.9,5.43.83-6.17,4.68-4.31,6.9-5.43Z"/>
    </g>
    <g>
      <g>
        <path class="cls-93" d="M381.85,77.26c-.02.07.61-.14,0,1.48-2.12,5.64-12.02,20.47-16.28,25.4-5.64,6.52-23.83,22.32-31.07,27.87-1.67,1.28-3.64,2.99-4.93,3.95-.09.07-.37-.17-1.97.99-1.33.96-2.64,2.04-3.95,2.96-5.51,3.88-21.17,13.79-27.62,17.76-5.06,3.11-13.28,8.73-15.29,9.86-6.71,3.81-14.24,6.11-20.96,9.86-10.85,6.06-22.09,14.48-33.29,19.73-20.24,9.48-50.05,16.25-72.26,14.3-6-.53-10.25-2.47-14.55-3.45l-.25-.99c7.62-1.25,11.71-.85,17.02-6.9.51-.58.62-.98.99-1.48.89-1.22,1.87-2.56,2.47-3.95.41-.95,1.44-2.55,1.48-2.96,1.25-.31,1.07.85.99,2.47-.11,1.98-.56,4.44-.99,6.41-1.58,1.09-3.75,2.87-1.73,4.44,18.44-4.48,36.29-11.18,52.77-20.71,6.53-3.78,21.51-14.24,27.37-19.24,3.2-.79,5.9-2.55,7.64-2.96.34-.08,2.25,1.3,6.9,0,5.49-1.53,29.93-12.16,34.03-15.29.38-.29,6.47-6.47,6.66-6.9,1.54,4.19,7.41-.65,11.1-3.45,9.59-7.27,46.62-42.49,54.01-53.76,7.08-2.33,14.46-3.72,21.7-5.43Z"/>
        <path class="cls-16" d="M378.9,54.58c-2.59,4.32-10.39,12.68-14.3,16.28-1.82-1.17-9.11,4.49-13.56,6.9-25.7,11.1-50.84,24.32-71.76,42.91-9.57,1.98-24.8,9.32-34.28,11.34-2.16.46-2.81-.52-2.96-.49-.26.04-4.39,3.12-4.69.74q38.47-29.96,76.94-59.93c3.03-1.43,1.88-2.64,1.48-5.43q6.54-3.7,13.07-7.4,19.73-4.93,39.46-9.86l.74-1.48c4.25,1.46,6.91,2.85,9.86,6.41Z"/>
        <path class="cls-66" d="M381.85,77.26c-7.24,1.71-14.62,3.1-21.7,5.43-9.98,3.28-19.24,8.14-28.61,12.82l-1.48-1.23c10.76-8.97,24.19-13.93,34.52-23.43,3.92-3.6,11.71-11.96,14.3-16.28,6.33,7.63,5.66,14,2.96,22.69Z"/>
        <path class="cls-52" d="M359.17,44.22c-5.84,1.41,1.96,2,3.95,2.47.87,2.49-7.92,1.87-12.58,2.96-3.96.92-12.31,5.52-11.59,2.71.82-3.17,16.8-8.71,20.22-8.14Z"/>
        <g>
          <path class="cls-56" d="M406.52,151.25c-4.75-3.94-10.08,1.06-6.9-7.4,2.84-7.55,9.3-17.28,18.5-13.32,5.98,2.58,5.4,9.56,5.67,10.11.6,1.22,3.23.07,4.44,2.96-1.56,8.78-14.17,7.55-21.7,7.64Z"/>
          <g>
            <path class="cls-16" d="M399.61,143.85c-3.18,8.45,2.15,3.46,6.9,7.4-6.01.08-10.61-.76-11.1-.49-1,.54,3.34,4.69-6.17,2.47.35-2.24,1.36-7.12-.49-1.97-2.4,1.62-1.13-4.34-3.95-5.92-.78-3.46-3.32-6.47-6.9-7.4-2.43-.62-4.7-.83-6.9.49-1.36-2.14-1.01-3.12-3.95-2.96-.22.01-.48.3-1.48.49-1.64-7.26,11.84-2.67,14.3-7.89,11.36.96,15.33,5.79,19.73,15.78Z"/>
            <path class="cls-86" d="M379.88,128.07c-2.46,5.22-15.95.63-14.3,7.89-2.55.5-2.34.95-2.47.99-2.64.78-12.15,4.41-12.82,4.44-1.15.05-18.95-3.71-22.69-4.44,1.6-1.16,1.88-.92,1.97-.99,3.32,2.21,5.63,1.5,8.88.49,4.44-1.38,8.84-5.15,14.06-6.41,4.93-1.19,22.3-2.4,27.37-1.97Z"/>
          </g>
        </g>
        <path class="cls-70" d="M334.51,132.01c-.25,3.67,3.07,1.46,3.95,4.44-3.25,1.01-5.55,1.71-8.88-.49,1.29-.95,3.26-2.67,4.93-3.95Z"/>
        <path class="cls-22" d="M367.55,172.45q-2.84,3.45-5.67,6.9l-.74-5.43c2.14-.51,4.28-.93,6.41-1.48Z"/>
        <g>
          <path class="cls-72" d="M411.94,164.07c.16.02.33-.01.49,0l-.49,4.44c-.06.03.2.82-.25.99-.58.22-4.25-.41-9.62,4.44.8-5.05-2.21-2.92-2.47-2.96-1.99-.34-3.42-.45-5.43-.49-2.12-.05-6.49-.24-7.89,0-3.51.59-4.37,5.34-6.17,8.38q-.86-5.43-1.73-10.85c1.74-1.06,5.5-4.6,6.9-6.41.16-.01.33,0,.49,0,2.83-.06,17.12,2.37,22.44,2.96,2.19.24,3.1-.55,3.7-.49Z"/>
          <path class="cls-79" d="M411.94,164.07c-.6-.06-1.51.74-3.7.49-5.32-.59-19.61-3.02-22.44-2.96.27-.96,1.91-2.32,1.97-2.47,7.65,1.83,17.45,1.78,24.17,4.93Z"/>
          <path class="cls-79" d="M394.19,170.48l-4.19,4.44-3.7-4.44c1.4-.24,5.78-.05,7.89,0Z"/>
          <path class="cls-67" d="M411.94,168.51l.49-4.44c5.47,4.25-.14,4.27-.49,4.44Z"/>
          <path class="cls-79" d="M402.08,173.93c-1.46,1.12-1.54-.93-2.47-2.96.26.04,3.27-2.09,2.47,2.96Z"/>
        </g>
        <g>
          <path class="cls-86" d="M209.72,136.94c-.82.49-1.53.77-2.47.99-3.39.79-3.75.88-6.9,2.47-7.15,3.59-10.41,9.12-12.82,7.89,1.83-2.55,3.46-5.12,5.92-7.15-53.12,5.83-106.64,10.37-160.05,14.06-2.56,1.36-7.45,3.38-10.11,3.95-.78.16-1.86-.25-3.21.49l.25-.99c7.39-2.92,10.95-5.37,11.59-5.43.88-.07,1.28,1,1.48.99,35.84-3.14,71.68-6.89,107.52-10.36l.74-1.73c-4.12-10.18-6.44-22.55-10.36-32.55-.27-.68,2.34-1.73-2.96-2.96,3.51-3.17,7.18,2.15,4.93-1.97,1.72-1.13,4.68-.95,6.66-.25,5.11,1.81,24.99,35.26,27.13,36,2.68.94,39.45-5.42,42.66-3.45Z"/>
          <path class="cls-86" d="M168.79,178.37c-.07.04.25.9-.74,1.48-1.24.72-8.44,3.69-8.63,4.19-.58,1.5,1.93,5.37,1.97,5.67.07.58.05,1.38,0,1.97-.04.41-1.07,2.01-1.48,2.96-.72.07-.34-.9-.74-.99-4.35-.96-24.94,3.64-31.07,4.44-.32.04-.78-.69-6.41,0-.66.08-2.79,1.46-2.96,1.48-1.44.16-6.81-.15-9.86,0-2.35.12-5.34,2.81-6.17-.99,4.25-.96,6.26.27,6.9-2.96.83-4.16-1.43-4.43,2.47-8.88,2.89.27-2.28,5.57-.25,10.36,1.35-1.45,6.99-1.18,11.34-1.97,1.04-.19,3.29-1.31,4.19-1.48,7.9-1.49,15.84-2.83,23.67-4.69.71-1.05-6.22-21.71-7.4-24.17-.24-.5-.89-.87-1.48-.74.59-1.08,20.02.52,20.96.99,1.29.64,4.45,11.22,5.67,13.32Z"/>
        </g>
        <g>
          <path class="cls-79" d="M187.53,148.29c-1.48,2.06-3.78,4.66-3.95,4.93l-1.23.99c-20.8-.77-41.62.9-62.39.99-.33,0-.66,0-.99,0-5.09.03-12.36-1.52-17.02-1.48-13.68.11-30.84.54-44.39,1.48-1.51.1-8.47.32-8.88.49-.64.28,1.94,2.85-4.19,2.71l2.47.74c-7.9-.05-15.81.87-23.67,0,2.66-.56,7.55-2.59,10.11-3.95,53.41-3.69,106.93-8.23,160.05-14.06-2.45,2.03-4.09,4.61-5.92,7.15Z"/>
          <path class="cls-72" d="M179.15,161.6c-.43,2.14.34,2.41,1.48,3.95-.7.25-1.37,1.11-1.97,1.48-.14.09-1.72.64-2.96,1.48-9.61-15.57-11.22-5.73-16.03-4.93-1.1.18-5.51-1.42-6.9-1.48-2.43-.11-8.64,1.05-10.36,0-.73-.45-5.66-12.33-5.67.99l-15.29-.99c.03-.35-1.24-5.36-1.48-6.9,20.78-.08,41.59-1.76,62.39-.99l1.23-.99c-.74,1.2-4.29,7.65-4.44,8.38Z"/>
          <path class="cls-72" d="M118.97,155.19c-.74,2.22-1.72,4.57-1.97,6.9-3.56-.61-14.69.04-16.77-.49-2.63-.68-4.17-14.62-4.93-.49h-14.8c-3.18-6.44-2.69-1.82-4.44-1.48-4.7.91-15.22-1.67-14.3,1.48-2.85-1.39.94-1.42-3.45-1.97-2.49-.32-7.99.02-11.34,0l-2.47-.74c6.13.14,3.56-2.43,4.19-2.71.41-.18,7.37-.39,8.88-.49,13.55-.94,30.71-1.37,44.39-1.48,4.66-.04,11.93,1.51,17.02,1.48Z"/>
          <path class="cls-13" d="M175.69,168.51c.13.21.83,2.64,1.97,4.44-.09.08.41,1.17-.74,1.97-.72.51-5.86,2.07-8.14,3.45-1.22-2.1-4.38-12.68-5.67-13.32-.94-.46-20.37-2.07-20.96-.99v10.11c-3.66,4.48-5.43-9.35-5.43-11.1.01-13.32,4.94-1.43,5.67-.99,1.72,1.05,7.93-.11,10.36,0,1.4.06,5.81,1.66,6.9,1.48,4.81-.79,6.42-10.64,16.03,4.93Z"/>
          <path class="cls-13" d="M100.23,161.6c-4.69,10.65-5.81,15.95-4.93-.49.76-14.12,2.3-.19,4.93.49Z"/>
          <path class="cls-13" d="M119.96,155.19c.24,1.55,1.51,6.55,1.48,6.9-.23,3.19-6.26,17.14-4.44,0,.25-2.34,1.23-4.69,1.97-6.9.33,0,.66,0,.99,0Z"/>
        </g>
        <path class="cls-13" d="M80.5,161.11l-4.19,8.88q-.12-5.18-.25-10.36c1.75-.34,1.26-4.96,4.44,1.48Z"/>
        <path class="cls-22" d="M61.76,161.11c-1.35,8.34-5.6,5.03-3.45-1.97,4.39.56.61.59,3.45,1.97Z"/>
        <path class="cls-82" d="M295.05,139.9c2.95-6.78-3.46-11.59-4.44-12.82-.86-1.08-4.81-6.04-5.43-6.41,15.75-7.81,30.64-17.28,46.36-25.15,9.36-4.69,18.62-9.54,28.61-12.82-7.39,11.27-44.41,46.49-54.01,53.76-3.69,2.8-9.56,7.64-11.1,3.45Z"/>
        <path class="cls-76" d="M364.59,70.85c-10.34,9.5-23.76,14.46-34.52,23.43l1.48,1.23c-15.72,7.87-30.61,17.34-46.36,25.15-2.19-1.34-3.25-.55-5.92,0,20.93-18.59,46.07-31.81,71.76-42.91,4.46-2.41,11.75-8.07,13.56-6.9Z"/>
        <path class="cls-15" d="M295.05,139.9c-.19.44-6.28,6.61-6.66,6.9-4.11,3.13-28.54,13.76-34.03,15.29-4.66,1.3-6.57-.08-6.9,0-1.75.41-4.44,2.17-7.64,2.96-.28.07-.7-.07-.99,0,8.97-3.42,17.36-7.44,25.65-12.33,2.84-1.68,5.66-2.99,8.38-4.93,6.07-4.32,13.71-10.3,16.28-17.26.42-1.13,1.15-2.27,1.48-3.45.98,1.23,7.39,6.04,4.44,12.82Z"/>
        <g>
          <path class="cls-86" d="M359.17,44.22c-3.42-.57-19.41,4.97-20.22,8.14-.72,2.8,7.63-1.79,11.59-2.71,4.66-1.09,13.45-.46,12.58-2.96.92.22,1.95.12,5.92,1.48l-.74,1.48q-19.73,4.93-39.46,9.86-6.54,3.7-13.07,7.4c-.97-6.77-.75-2.8-1.48,5.43q-38.47,29.96-76.94,59.93c.3,2.38,4.43-.7,4.69-.74.15-.02.8.95,2.96.49,9.48-2.02,24.7-9.37,34.28-11.34,2.67-.55,3.72-1.34,5.92,0,.61.37,4.57,5.33,5.43,6.41-.33,1.19-1.06,2.33-1.48,3.45-19.11,5.27-38.6,7.05-58.45,8.38-1.18.61,5.1,4.55,3.21,14.8-.17.94-1.05,2.47-1.48,3.45-6.44,7.38-12.86,7.73-19.73.49-5.24-5.52-7.42-13.81-2.47-20.22.96-1.24,15.99-11.57,19.98-14.8,25.07-20.32,71.29-63.32,98.4-73.98,9.94-3.91,20.07-6.5,30.83-5.43l-.25.99Z"/>
          <g>
            <g>
              <path class="cls-74" d="M230.44,142.86c1.63,3.83,1.9,7.39.49,11.34-2.03-3.23-2.68,3.58-12.08,3.95-12.5-10.58-2.16-27.11,11.59-15.29Z"/>
              <path class="cls-4" d="M230.44,142.86c-13.75-11.82-24.09,4.71-11.59,15.29,9.4-.36,10.05-7.17,12.08-3.95-4.37,12.3-19.81,6.52-20.22-5.18-.43-12.06,14.65-18.08,19.73-6.17Z"/>
            </g>
            <path class="cls-16" d="M309.85,72.33c-5.66,1.81-25.77,16.05-28.61,19.24-.18-1.98,7.68-9.87,9.62-11.34.64-.49,13.04-8.14,13.81-8.38.89-.29-.43,3.2,4.44-1.48l.74,1.97Z"/>
            <path class="cls-70" d="M309.85,72.33c.18,2.04-26.3,17.93-29.35,21.21-1.43.28.27-1.45.74-1.97,2.84-3.19,22.95-17.43,28.61-19.24Z"/>
            <path class="cls-66" d="M245.73,117.21c3.5-3.32,7.19-6.55,11.1-9.37,25.09-18.14,1.76,4.18-11.1,9.37Z"/>
            <path class="cls-19" d="M315.76,66.91c.4,2.79,1.55,3.99-1.48,5.43.73-8.22.51-12.19,1.48-5.43Z"/>
            <path class="cls-66" d="M245.73,117.21l-.99.74.99-.74Z"/>
          </g>
        </g>
        <path class="cls-82" d="M238.33,165.06c.16-.04.34.04.49,0,.28-.07.7.07.99,0-5.86,5-20.84,15.46-27.37,19.24-16.49,9.54-34.33,16.23-52.77,20.71-2.02-1.57.15-3.35,1.73-4.44,4.57-3.15,41.41-20.7,50.55-25.15l-3.7-1.48c11.26-.57,19.75-4.87,30.09-8.88Z"/>
        <path class="cls-39" d="M203.31,173.93c1.62.05,3.32.08,4.93,0l3.7,1.48c-9.15,4.46-45.99,22.01-50.55,25.15.42-1.98.88-4.43.99-6.41l.74.49c9.22-6.3,28.61-14.1,35.51-18.25.69-.41,2.43-1.55,2.22-2.47.12,0,1.53-.03,2.47,0Z"/>
        <path class="cls-31" d="M200.85,173.93c.21.91-1.53,2.05-2.22,2.47-6.9,4.15-26.29,11.95-35.51,18.25l-.74-.49c.09-1.62.27-2.77-.99-2.47.05-.59.07-1.4,0-1.97,5.43-6.21,20.81-8.15,25.15-13.32.02-.03.15.17.49-.49.04-.07.28.48.49-1.48.1-.97-.07-1.99,0-2.96,2.44,1.05,10.47,2.24,13.32,2.47Z"/>
        <g>
          <path class="cls-88" d="M109.6,195.64c-.64,3.23-2.66,2-6.9,2.96-10.8,2.43-21.89,3.84-32.55,6.9-.61-.36-2.5-3.25-3.21-3.45-1.04-.3-3.98.24-5.67,0-2.93-.41-5.52,1.17-7.4-2.71.29-6.41,8.37-5.23,9.12-5.67,1.33-.78-.34-10.87,12.82-14.3,1.45-.38,2.94.85,4.44.49.88-.21,5.81-8.63,15.54.74.43.42.82,3.06,1.73,3.7.38.27,8.04,1.88,8.88,2.47,2.94,2.06,1.19,9.11,3.21,8.88Z"/>
          <path class="cls-86" d="M127.36,193.66c-.9.17-3.16,1.29-4.19,1.48-4.35.8-9.99.52-11.34,1.97-2.03-4.79,3.14-10.09.25-10.36,4.32-4.94,11.26-3.9,12.82-1.23.81,1.38.8,6.99,2.47,8.14Z"/>
          <g>
            <path class="cls-66" d="M156.46,200.07c-5.31,6.06-9.4,5.66-17.02,6.9l.25.99c-1.63-.37-.26-1.18-3.21-1.48-2.25-.23-36.19,1.44-45.13,1.48-4.69-2.56-10.61,1.28-14.8-1.97,13.44-.74,38.61-4.63,54.25-6.41,1.12,3.16,12.85,1.26,18.99.99.35-.02.66,1.51,6.66-.49Z"/>
            <path class="cls-16" d="M159.91,194.65c-.6,1.39-1.58,2.73-2.47,3.95-4.21-3.68-17.54-.05-26.63.99-15.64,1.78-40.81,5.67-54.25,6.41-.17,0-.96.77-3.45.49-1.31-.14-1.83-.32-2.96-.99,10.67-3.07,21.76-4.47,32.55-6.9.83,3.8,3.81,1.1,6.17.99,3.05-.15,8.42.16,9.86,0,.16-.02,2.3-1.4,2.96-1.48,5.63-.69,6.09.04,6.41,0,6.13-.8,26.73-5.4,31.07-4.44.4.09.02,1.06.74.99Z"/>
            <path class="cls-54" d="M91.35,207.97c-6.95.03-19.46.84-18.25-1.48,2.49.27,3.28-.48,3.45-.49,4.19,3.25,10.11-.58,14.8,1.97Z"/>
            <path class="cls-27" d="M157.44,198.59c-.36.5-.48.9-.99,1.48-6,2-6.3.48-6.66.49-6.14.27-17.87,2.17-18.99-.99,9.09-1.04,22.42-4.67,26.63-.99Z"/>
          </g>
        </g>
        <g>
          <path class="cls-75" d="M342.89,154.7c-1.82,2.56-3.46,4.93-5.43,7.4-1.87,2.34-3.41-.35-3.45,6.66,2.32.55,5.33,3.2,5.43.74,3.04,3.05,7.53,2.97,10.36,5.92-6.18,1.42-12.36,4.74-18.74,5.43-12.36,1.32-14.23-11.79-15.54-12.33-.58-.24-10.85-.18-12.58.49-.08-4.9-3.38-7.92-3.95,0-4.77-.64-9.62.97-14.3.99-.2,0-1.23-.83-3.95-.49.1-.62-.07-1.33,0-1.97,2.01-1.14,10.23-6.75,15.29-9.86.88,1.83,8.75-.55,13.56-.99,11.04-1.01,22.52-.2,33.29-1.97Z"/>
          <path class="cls-72" d="M323.66,139.9c7.22,1.54,20.23,1.43,25.15,4.93-.3.72-.69,2.4-.99,2.96-1.31,2.48-3.32,4.63-4.93,6.9-10.77,1.77-22.25.96-33.29,1.97-4.81.44-12.68,2.81-13.56.99,6.45-3.96,22.11-13.88,27.62-17.76Z"/>
          <path class="cls-79" d="M350.29,141.38c-.38,1.2-1,2.31-1.48,3.45-4.92-3.5-17.94-3.39-25.15-4.93,1.31-.92,2.62-2,3.95-2.96,3.74.73,21.53,4.49,22.69,4.44Z"/>
          <path class="cls-79" d="M302.94,169c.1,5.81-5.1,16.24-3.95,0,.56-7.92,3.86-4.9,3.95,0Z"/>
          <path class="cls-79" d="M284.69,169.99c-3.84,8.05-6.02,11.95-3.95-.49,2.71-.33,3.75.49,3.95.49Z"/>
          <path class="cls-72" d="M337.47,163.08c-.94,3.38-.38,4.05,1.97,6.41-.1,2.46-3.1-.19-5.43-.74.04-7,1.58-4.31,3.45-6.66-.04.32.07.73,0,.99Z"/>
        </g>
        <path class="cls-47" d="M184.08,176.4c.77.12,1.67-.08,2.47,0-4.34,5.17-19.72,7.1-25.15,13.32-.04-.3-2.55-4.17-1.97-5.67.19-.5,7.4-3.47,8.63-4.19.99-.58.67-1.44.74-1.48,2.27-1.38,7.42-2.95,8.14-3.45,1.15-.81.65-1.89.74-1.97,5.33-4.65,3.25,2.95,6.41,3.45Z"/>
        <path class="cls-63" d="M187.53,171.47c-.07.97.1,1.99,0,2.96l-.49,1.48c-.35.66-.47.47-.49.49-.79-.08-1.7.12-2.47,0-.31-3.55-2.17-7.84-5.43-9.37.6-.37,1.27-1.23,1.97-1.48.57.77,6.09,5.57,6.9,5.92Z"/>
        <path class="cls-86" d="M178.65,167.03c3.26,1.53,5.11,5.82,5.43,9.37-3.17-.51-1.08-8.1-6.41-3.45-1.14-1.8-1.84-4.23-1.97-4.44,1.24-.84,2.82-1.39,2.96-1.48Z"/>
        <path class="cls-69" d="M238.33,165.06c-10.33,4.01-18.82,8.31-30.09,8.88-1.61.08-3.31.05-4.93,0,11.23-.73,19.4-5.38,23.18-6.41,2.31-.63,4.59-1.37,6.9-1.97,5.34-1.4,4.69-.44,4.93-.49Z"/>
        <g>
          <g>
            <path class="cls-8" d="M272.86,147.79l-.25-1.48c-11.07,5.55-26.31,6.1-38.72,7.4,1.89-10.25-4.39-14.19-3.21-14.8,19.84-1.34,39.33-3.11,58.45-8.38-2.57,6.96-10.2,12.94-16.28,17.26Z"/>
            <path class="cls-75" d="M272.86,147.79c-2.72,1.94-5.54,3.26-8.38,4.93.18-1.08-.39-1.13-1.23-.99-1.94.34-24.61,11.59-29.84,13.81-2.31.6-4.59,1.34-6.9,1.97l-.49-1.48c1.38-.65,5.65-7.12,6.41-8.88.42-.98,1.31-2.51,1.48-3.45,12.41-1.3,27.65-1.84,38.72-7.4l.25,1.48Z"/>
            <path class="cls-72" d="M264.47,152.73c-8.28,4.89-16.68,8.91-25.65,12.33-.16.04-.34-.04-.49,0-.24.06.41-.9-4.93.49,5.23-2.22,27.9-13.47,29.84-13.81.84-.15,1.41-.09,1.23.99Z"/>
          </g>
          <g>
            <path class="cls-23" d="M210.22,137.44c-4.96,6.41-2.77,14.7,2.47,20.22-1.04,4.29,4.3,4.46,5.92,7.4-5.39-1.95-11.89-9.09-13.32-14.8-.08-.33-.06-6.56,0-6.9.52-3,2.14-3.93,1.97-5.43.94-.22,1.65-.5,2.47-.99.03.02-.11.55.49.49Z"/>
            <path class="cls-6" d="M226,166.04c-2.72,1.28-4.91-.09-7.4-.99-1.62-2.94-6.96-3.11-5.92-7.4,6.87,7.24,13.28,6.89,19.73-.49-.76,1.76-5.03,8.23-6.41,8.88Z"/>
            <path class="cls-30" d="M200.35,140.4l-2.47,2.96c-2.97.77-15.49,12.04-14.8,15.78-1.15.86-2.24,2.12-3.45,2.96-.01-.03-.55.12-.49-.49.15-.73,3.7-7.18,4.44-8.38.17-.27,2.47-2.87,3.95-4.93,2.41,1.22,5.67-4.3,12.82-7.89Z"/>
            <path class="cls-61" d="M207.26,137.93c.17,1.5-1.45,2.43-1.97,5.43-.55.24-.98.65-1.48.99-.28-2.28-4.16-1.44-5.92-.99l2.47-2.96c3.16-1.58,3.51-1.67,6.9-2.47Z"/>
            <path class="cls-85" d="M205.29,150.26c1.43,5.71,7.92,12.85,13.32,14.8,2.49.9,4.67,2.26,7.4.99l.49,1.48c-3.78,1.03-11.95,5.68-23.18,6.41-.93-.03-2.34,0-2.47,0-2.84-.23-10.87-1.41-13.32-2.47-.82-.35-6.33-5.15-6.9-5.92-1.14-1.54-1.91-1.81-1.48-3.95-.05.61.48.46.49.49,2.62,5.66,3.93.04,14.55-6.41,3.4-2.07,7.54-3.59,11.1-5.43Z"/>
            <path class="cls-32" d="M205.29,150.26c-3.56,1.84-7.69,3.36-11.1,5.43-10.62,6.45-11.93,12.07-14.55,6.41,1.21-.84,2.3-2.1,3.45-2.96,6.79-5.06,13.68-10.08,20.71-14.8.5-.33.93-.75,1.48-.99-.06.34-.08,6.57,0,6.9Z"/>
            <path class="cls-24" d="M203.81,144.34c-7.03,4.72-13.93,9.74-20.71,14.8-.69-3.75,11.83-15.01,14.8-15.78,1.76-.46,5.64-1.29,5.92.99Z"/>
          </g>
        </g>
        <path class="cls-12" d="M187.04,175.91l.49-1.48c-.21,1.96-.46,1.41-.49,1.48Z"/>
        <g>
          <path class="cls-50" d="M366.07,151.25c-6.27-6.31,1.31,8.94,5.67,11.34,6.65,3.66,9.96-.71,13.56-.99-1.4,1.81-5.17,5.35-6.9,6.41-2.55,1.56-7.95,3.68-10.85,4.44-2.13.55-4.27.97-6.41,1.48-.96.23-5.68.18-11.34,1.48-2.83-2.94-7.32-2.86-10.36-5.92-2.35-2.37-2.92-3.03-1.97-6.41,2.79-2.56,24.19-15.11,24.66-16.52.24-.72-.13-3.51,0-5.18.12-1.54.31-3.03.99-4.44.13-.04-.08-.49,2.47-.99,1-.2,1.26-.48,1.48-.49-2.5,5.42-3.21,10.11-.99,15.78Z"/>
          <path class="cls-33" d="M389.25,153.22c-.25,1.59-.84,4.57-1.48,5.92-.07.14-1.71,1.51-1.97,2.47-.16,0-.33-.01-.49,0-3.61.28-6.91,4.65-13.56.99-4.36-2.4-11.94-17.66-5.67-11.34,3.37,8.58,16.52,17.13,22.69,0,1.86-5.15.84-.27.49,1.97Z"/>
          <path class="cls-39" d="M337.47,163.08c.07-.26-.04-.67,0-.99,1.97-2.47,3.61-4.84,5.43-7.4,1.61-2.27,3.63-4.42,4.93-6.9q7.15-3.21,14.3-6.41c-.13,1.67.24,4.46,0,5.18-.47,1.41-21.88,13.96-24.66,16.52Z"/>
          <path class="cls-86" d="M371,138.42c-9.19,5.53,1.93,30.39,11.84,16.77,2.56-3.52,2.94-5.61,1.97-9.86,2.81,1.58,1.54,7.54,3.95,5.92-6.17,17.13-19.32,8.58-22.69,0-2.23-5.67-1.52-10.37.99-15.78,2.93-.16,2.58.82,3.95,2.96Z"/>
          <path class="cls-86" d="M363.11,136.94c-.68,1.41-.87,2.9-.99,4.44q-7.15,3.21-14.3,6.41c.29-.56.68-2.24.99-2.96.48-1.14,1.1-2.26,1.48-3.45.68-.03,10.19-3.65,12.82-4.44Z"/>
          <path class="cls-71" d="M377.91,137.93c-4.28.42-3.98,1.62-4.44,1.97-6.66,5.15-1.07,20.64,6.9,15.78.78,1.82.99.32,2.47-.49-9.91,13.62-21.03-11.24-11.84-16.77,2.2-1.33,4.48-1.12,6.9-.49Z"/>
          <path class="cls-28" d="M384.81,145.33c.96,4.25.59,6.35-1.97,9.86-1.48.81-1.69,2.32-2.47.49,6.23-3.8,2.68-20.57-6.9-15.78.46-.36.16-1.56,4.44-1.97,3.59.92,6.12,3.94,6.9,7.4Z"/>
          <path class="cls-74" d="M380.38,155.68c-7.98,4.86-13.56-10.63-6.9-15.78,9.59-4.79,13.13,11.99,6.9,15.78Z"/>
        </g>
      </g>
      <g>
        <path class="cls-41" d="M231.43,249.4c.88.08,3.01.88,2.96,1.97-.65.04-1.32-.04-1.97,0-19.02,1.28-35.14,3.21-49.81,16.28-6.76,6.03-12.82,13.37-15.29,22.19-.83.07-1.98.4-2.96.49,2.95-11.4,15.17-22.58,16.77-25.15,8.32-9.42,40.69-16.66,50.31-15.78Z"/>
        <g>
          <path class="cls-93" d="M286.17,222.27c3.18,3.16.67,21.74,1.48,27.62-2.91.15-4.8,1.51-7.4,2.47,0-.09-.97-.79-.99-1.48-.28-9.68.21-19.41,0-29.1,2.23.01,4.94-.36,6.9.49Z"/>
          <path class="cls-93" d="M274.33,221.78v26.63c-.9-.33-6.96-1.93-7.4-1.97v-24.66c2.47-.01,4.93,0,7.4,0Z"/>
          <path class="cls-93" d="M262.5,221.78v25.15c-2.45-.12-4.94.04-7.4,0v-25.15c2.46-.06,4.93.03,7.4,0Z"/>
          <path class="cls-82" d="M250.17,222.27q.25,12.33.49,24.66c-2.46.03-4.94-.06-7.4,0v-24.66c2.29-.12,4.61.08,6.9,0Z"/>
          <path class="cls-82" d="M239.32,222.27v24.66c-2.18.09-4.67,1.31-6.9,0,.88-4.91-1.52-23.59,1.23-24.66.59-.23,4.07.1,5.67,0Z"/>
          <path class="cls-44" d="M279.27,221.78c.21,9.69-.28,19.42,0,29.1-1.75-.53-3.22-1.84-4.93-2.47v-26.63c1.64,0,3.29-.01,4.93,0Z"/>
          <path class="cls-44" d="M255.1,221.78v25.15c-1.48-.02-2.96-.02-4.44,0q-.25-12.33-.49-24.66c1.54-.06,3.27-.45,4.93-.49Z"/>
          <path class="cls-44" d="M266.94,221.78v24.66c-.22-.02.03.71-4.44.49v-25.15c1.48-.02,2.96,0,4.44,0Z"/>
          <path class="cls-44" d="M243.26,222.27v24.66c-1.31.03-2.63-.05-3.95,0v-24.66c1.31-.08,2.64.07,3.95,0Z"/>
        </g>
        <path class="cls-10" d="M197.39,288.85c.13,3.35-1.98,1.81-3.45,3.45-2.98.14-5.9.19-8.88.49-21.67-.84-62.8,6.35-78.91,21.21.11-1.31-.88-1.65-1.97-1.48,6.85-6.44,14.87-10.22,23.18-14.3,13.23-3.6,22.92-6.55,36.99-7.89.98-.09,2.12-.43,2.96-.49.98-.08,1.98.07,2.96,0,6.79-.51,19.77-.83,27.13-.99Z"/>
        <path class="cls-82" d="M126.37,309.07c-5.36,2.74-10.32,6.85-14.3,11.34-.78.88-1.29,1.51-1.97,2.47-9.76,13.69.27,24.01-16.28,19.73.09-.21-.09-.79,0-.99.02-.03.16.19.49-.49,8.98,4.09,13.64-9.99,6.9-14.8.09-.23-.09-.76,0-.99,1.9-4.86,13.93-14.65,18.74-17.26,1.98,3.53,5.68-.38,6.41.99Z"/>
        <path class="cls-93" d="M89.38,373.19v-5.43c6.11.07,17.56.97,14.3-8.38,12.09,10.01-5.55,16.01-14.3,13.81Z"/>
        <path class="cls-41" d="M106.15,314.01c-.95.87-6.72,7.84-7.4,8.88-1.17.12-1.87-.96-1.97-.99,1.75-3.6,4.51-6.65,7.4-9.37,1.1-.17,2.08.17,1.97,1.48Z"/>
        <g>
          <path class="cls-51" d="M102.2,358.39c.49.26,1.06.64,1.48.99,3.25,9.36-8.19,8.46-14.3,8.38-5.03-.06-9.08,1.11-10.36-4.93,4.27-8.28,15.63-4.15,23.18-4.44Z"/>
          <path class="cls-41" d="M89.38,356.42c1.58-.14,9.87-.18,10.6,0,.2.05,1.35,1.51,2.22,1.97-7.55.29-18.91-3.84-23.18,4.44.4-5.71,6-6.04,10.36-6.41Z"/>
        </g>
        <path class="cls-93" d="M408.49,354.45c-.06.03.4,1.25-.99.99-2.07-.04-7.38.53-7.89,2.71-1.34,12.86,9.58,5.49,9.86,9.62,3.2,15.88-.76,8.8-16.77,12.33-.9-48.45-35.87-40.35-33.29,2.96-7.83,0-15.62.47-23.43.99-9.5.62-38.05,2.2-44.39,3.45-3.56-60.03-42.35-47.62-47.84,3.21-5.02-.11-10.32.78-15.29.74-.46,0,.47-.95-8.88-.99-2.14,0-4.27.02-6.41,0-5.24-5.22-21.19-7.92-24.66-14.3,5.93,4.62,27.52,4.71,31.07-1.73,1.85-3.34.4-7.98-1.48-11.1-.04-.06-.84-.82-.99-.99-1.23-1.48-2.02-2.97-4.44-3.45.64-.72-2.08-6.29-2.96-7.89,10.94,3.12,17.99-8.97,12.33-18-1.81-2.89-3.77-3.03-3.95-3.21-.54-.54-1.72-1.76-1.97-1.97,5.32-4.08,8.61-10.61,14.3-14.3,12.59-8.17,37.47-6.83,52.28-6.9.05.73-.03,1.48,0,2.22.59.91,17.83,3.21,20.47,3.21.57-.4.09-2.67.25-3.45.13-.64-.29-2.09.25-2.47,2.17-1.54,46.58.08,53.27,0,2.93-.03,6.44-.95,9.37-.99,3.06-.04,13.09,1.8,14.06-.49,2.54,2.44,6.63,4.1,9.12,6.41,14.11,13.11,15.91,24.96,18.99,43.4Z"/>
        <path class="cls-82" d="M287.65,254.82c-1.35,2.02-1.63,5.61-2.47,7.89-2.66,7.3-12.52,31.6-.74,34.52,4.37,1.08,75.78-1.08,90.01.49.59.74,5.59,6.59,5.92,6.9-.97,2.29-10.99.45-14.06.49-2.93.04-6.44.95-9.37.99-6.69.08-51.09-1.54-53.27,0-.53.38-.12,1.82-.25,2.47q-9.49-3.95-18.99-7.89c-1.12.22-1.77,5.21-1.73,5.92-14.82.08-39.69-1.26-52.28,6.9l-1.48-3.95c3.79-2.65,8.09-4.64,12.33-6.41,4.67-1.96,19.13-5.88,21.45-7.4,3.4-2.22,4.09-6.39,5.67-9.86,1.58-3.47,12.19-28.94,12.33-30.58l6.9-.49Z"/>
        <path class="cls-78" d="M363.11,279.48c2.69,4.3,6.05,10.96,8.88,14.8-1.97,0-3.95,0-5.92,0-4.98-7.74-14.44-25.32-19.73-31.07,8.34-1.63,10.77,10.58,16.77,16.28Z"/>
        <path class="cls-17" d="M407.5,355.44c2.2.04,6.24.22,6.9,2.71.09,5.52.51,7.78-4.93,9.62-.28-4.13-11.21,3.24-9.86-9.62.51-2.18,5.82-2.75,7.89-2.71Z"/>
        <path class="cls-46" d="M287.65,249.89c10.33-.53,1.54,2.63,0,4.93l-6.9.49c.13-1.61-.44-2.09-.49-2.96,2.6-.95,4.49-2.32,7.4-2.47Z"/>
        <path class="cls-81" d="M268.42,285.89c-1.58,3.48-2.27,7.64-5.67,9.86-2.32,1.52-16.79,5.44-21.45,7.4-2.88-.97-3.45.7-3.45-2.96,10.17-4.53,13.78-4.46,18.25-5.92,1.86-.6,4.51-.54,3.95-3.45,2.25.6,2.66-2.59,3.45-4.44,3.16,3.4,1.89,1.29,4.93-.49Z"/>
        <g>
          <path class="cls-53" d="M202.33,304.63c6.27,6.81-5.03,13.15-10.6,15.29-15.23,5.85-36.45,3.91-47.84,5.92-10.79,1.9-35.22,19.32-33.78-2.96.68-.96,1.19-1.59,1.97-2.47,1.17.97,6.53-3.35,9.62-4.93,24.22-12.43,53.35-14.98,79.9-9.86l.74-.99Z"/>
          <path class="cls-57" d="M202.33,304.63l-.74.99c-26.55-5.12-55.68-2.57-79.9,9.86-3.08,1.58-8.45,5.9-9.62,4.93,3.98-4.5,8.95-8.6,14.3-11.34,7.16-3.67,20.06-7.06,28.11-8.38,10.31-1.69,40.51-4.02,47.84,3.95Z"/>
        </g>
        <path class="cls-25" d="M185.06,292.8c-8.35.86-29.33,4.88-38.47,6.9-9.21,2.04-18.23,3.83-26.63,8.38-4.82,2.61-16.84,12.4-18.74,17.26l-2.47-1.48c.1-.15-.1-.83,0-.99.68-1.04,6.45-8.01,7.4-8.88,16.11-14.86,57.25-22.05,78.91-21.21Z"/>
        <path class="cls-21" d="M260.03,290.82c.56,2.91-2.09,2.85-3.95,3.45-19.44-1.18-42.9-2.86-62.14-1.97,1.47-1.64,3.58-.11,3.45-3.45,3.08-.07,6.36-.48,9.37-.49,17.78-.09,35.53,1.53,53.27,2.47Z"/>
        <path class="cls-15" d="M209.72,351c-1.5-2.74-4.09-4.89-4.44-7.89,8.56,3.35,14.81-5.56,12.82-13.32.18.18,2.14.32,3.95,3.21,5.66,9.03-1.39,21.13-12.33,18Z"/>
        <g>
          <g>
            <path class="cls-94" d="M139.69,391.93c1.62,11.5,10.69,15.63,16.28,3.95,1.8.08,3.26-.48,2.96.99-7.81,15.09-19.41,10.37-21.21-4.93.08,0-.66-1,1.23-.99.36,0,.68.99.74.99Z"/>
            <path class="cls-20" d="M160.9,391.44c-.04,2.07-1.07,3.67-1.97,5.43.31-1.46-1.16-.91-2.96-.99.09-.18.42-2.5.99-3.95.22,0-.8-.43,3.95-.49Z"/>
          </g>
          <path class="cls-74" d="M156.95,391.93c-.57,1.45-.9,3.76-.99,3.95-5.58,11.68-14.66,7.55-16.28-3.95,5.7,0,11.59.09,17.26,0Z"/>
        </g>
        <g>
          <path class="cls-29" d="M193.94,292.3c19.25-.88,42.71.79,62.14,1.97-4.47,1.45-8.08,1.39-18.25,5.92-16.01,7.13-16.53,10.87-26.63,23.67-.06.08-.9.58-1.48,1.48-3.85-.44-4.9.41-6.9,3.45-3.9,5.92-1.24,12.85,2.47,14.3.34,3,2.94,5.15,4.44,7.89.87,1.6,3.6,7.17,2.96,7.89-6.14-1.22-33.85-2.12-27.13,10.85l1.48,1.97c-3.56.8.32,3.54,1.48,4.44,3.47,6.39,19.42,9.09,24.66,14.3-14.98-.11-29.9-.21-44.88,0-1.48.02-5.92.97-7.4.99-4.74.06-3.72.49-3.95.49-5.67.09-11.56,0-17.26,0-.06,0-.38-.98-.74-.99-1.89,0-1.15.99-1.23.99-.58,0-1.02-.98-1.23-.99-8.33-.13-16.5.44-24.91,0-.06,0-.37-.97-.74-.99-2.88-.16-19.87.6-20.71,0-.76-.54-.81-14.62-.74-16.77,8.76,2.2,26.39-3.8,14.3-13.81-.42-.35-.99-.72-1.48-.99-.86-.46-2.02-1.92-2.22-1.97-.74-.18-9.02-.14-10.6,0,1.36-4.54,2.47-9.5,4.44-13.81,16.55,4.29,6.52-6.04,16.28-19.73-1.44,22.28,23,4.86,33.78,2.96,11.39-2.01,32.61-.07,47.84-5.92,5.58-2.14,16.88-8.48,10.6-15.29-7.34-7.96-37.53-5.64-47.84-3.95-1.66-2.4-7.83,2.83-7.89-.99,9.14-2.02,30.12-6.04,38.47-6.9,2.98-.31,5.89-.36,8.88-.49Z"/>
          <path class="cls-67" d="M152.51,332.75c3.57,10.63-.52,27.25-13.07,28.61-.38.04-.12.98-.49.99-3.64.05-5.18-3.02-6.66-1.97-12.08-14.38,1.44-37.3,16.52-31.07,1.82.75,2.47,2.44,3.7,3.45Z"/>
          <path class="cls-15" d="M160.9,343.11l-.99-.25c3.25,10.57,1.53,28.9-12.58,29.35l.74,1.48c-5.32-1.44-15.3-8.37-14.3-11.34,13.87,10.72,29.49-11.77,19.73-29.1,3.25,3.01,5.25,6.05,7.4,9.86Z"/>
          <path class="cls-82" d="M160.9,343.11c10.78,19.1,2.22,34.64-12.82,30.58l-.74-1.48c14.11-.45,15.82-18.78,12.58-29.35l.99.25Z"/>
          <path class="cls-18" d="M153.5,333.24c9.77,17.33-5.86,39.82-19.73,29.1-.19-.14-1.09-1.51-1.48-1.97,1.48-1.05,3.02,2.02,6.66,1.97.38,0,.11-.94.49-.99,12.55-1.36,16.64-17.98,13.07-28.61.04.04.24-.2.99.49Z"/>
        </g>
        <path class="cls-21" d="M237.84,300.2c0,3.66.57,1.99,3.45,2.96-4.24,1.78-8.54,3.76-12.33,6.41-6.1,4.26-10.51,10.32-14.8,16.28-.47-.43-2.25-1.51-2.96-1.97,10.1-12.81,10.62-16.54,26.63-23.67Z"/>
        <path class="cls-44" d="M146.59,299.7c.06,3.82,6.23-1.42,7.89.99-8.05,1.32-20.95,4.72-28.11,8.38-.73-1.36-4.43,2.55-6.41-.99,8.4-4.56,17.42-6.34,26.63-8.38Z"/>
        <g>
          <path class="cls-51" d="M217.12,362.34c.14.17.95.93.99.99,1.11,13.58-21.16,8.04-31.07,8.38l-1.48-1.97c1.47-1.31.5-7.63,6.17-8.88,1.48-.32,23.05-.65,25.4,1.48Z"/>
          <path class="cls-93" d="M188.52,376.15c-1.16-.9-5.04-3.64-1.48-4.44,9.91-.34,32.18,5.2,31.07-8.38,1.88,3.11,3.33,7.75,1.48,11.1-3.55,6.44-25.15,6.35-31.07,1.73Z"/>
          <path class="cls-73" d="M212.68,358.89c2.42.48,3.21,1.97,4.44,3.45-2.35-2.13-23.92-1.8-25.4-1.48-5.67,1.24-4.69,7.57-6.17,8.88-6.72-12.97,20.98-12.07,27.13-10.85Z"/>
        </g>
        <g>
          <path class="cls-67" d="M214.16,325.84c.69.63,1.19,1.32,1.97,1.97.26.21,1.43,1.43,1.97,1.97,1.99,7.75-4.27,16.66-12.82,13.32-3.71-1.45-6.36-8.38-2.47-14.3l1.97-.25c-5.08,14.14,13.44,2.54,4.93-3.21.58-.9,1.41-1.4,1.48-1.48.71.46,2.49,1.54,2.96,1.97Z"/>
          <path class="cls-65" d="M209.72,325.35c8.51,5.75-10.01,17.35-4.93,3.21l-1.97.25c2.01-3.05,3.05-3.9,6.9-3.45Z"/>
        </g>
        <g>
          <path class="cls-53" d="M274.33,248.41c1.72.63,3.18,1.93,4.93,2.47.02.69.98,1.39.99,1.48.05.87.63,1.35.49,2.96-.14,1.64-10.75,27.11-12.33,30.58-3.05,1.78-1.77,3.9-4.93.49,4.33-10.06,6.97-21.13,12.33-30.83,3.23-6.99-31.93-4.75-41.43-4.19.05-1.09-2.07-1.89-2.96-1.97-.37-3.58.83-1.62.99-2.47,2.24,1.31,4.73.09,6.9,0,1.31-.05,2.63.03,3.95,0,2.46-.06,4.93.03,7.4,0,1.48-.02,2.96-.02,4.44,0,2.46.04,4.95-.12,7.4,0,4.47.21,4.22-.51,4.44-.49.44.04,6.5,1.65,7.4,1.97Z"/>
          <path class="cls-11" d="M263.48,286.39c-.79,1.85-1.2,5.03-3.45,4.44-17.74-.93-35.49-2.56-53.27-2.47-2.28-8.62-1.04-21.55,7.64-26.14,7.86-4.15,9.77,1.37,8.63-6.9,6.2-1.2,18.18-3.12,9.37-3.95.65-.04,1.32.04,1.97,0,9.5-.56,44.66-2.8,41.43,4.19-5.36,9.7-8,20.77-12.33,30.83Z"/>
          <path class="cls-9" d="M232.41,251.37c8.81.83-3.17,2.74-9.37,3.95-15.28,2.97-26.63,3.3-38.96,14.8l-1.48-2.47c14.67-13.07,30.79-15,49.81-16.28Z"/>
          <path class="cls-14" d="M182.6,267.64l1.48,2.47c-5.44,5.07-10.2,13.22-13.81,19.73-.98.07-1.98-.08-2.96,0,2.47-8.83,8.53-16.17,15.29-22.19Z"/>
          <path class="cls-26" d="M223.04,255.31c1.14,8.28-.77,2.75-8.63,6.9-8.68,4.59-9.93,17.52-7.64,26.14-3.01.02-6.29.43-9.37.49-7.35.16-20.34.48-27.13.99,3.61-6.51,8.37-14.66,13.81-19.73,12.33-11.49,23.68-11.83,38.96-14.8Z"/>
        </g>
        <path class="cls-4" d="M94.31,341.13c1.08-2.22,4.61-5.82,5.43-7.64,1.66-3.71.91-5.67,1.48-7.15,6.73,4.81,2.07,18.88-6.9,14.8Z"/>
        <g>
          <path class="cls-22" d="M101.22,325.35c-.09.23.09.75,0,.99-.56,1.48.18,3.44-1.48,7.15-.81,1.82-4.34,5.42-5.43,7.64-.33.69-.48.46-.49.49-.49-1.66-2.51-1.34-4.93-3.45,7.33-6.14,8.75-12.61,9.86-14.3l2.47,1.48Z"/>
          <g>
            <path class="cls-67" d="M96.78,321.9c.11.03.8,1.1,1.97.99-.1.15.1.84,0,.99-1.12,1.69-2.54,8.16-9.86,14.3-2.51-2.19-3.82-6.06-2.96-9.62.44-1.84,5.77-8.04,10.85-6.66Z"/>
            <path class="cls-36" d="M91.11,325.35l.74.74c-.22,1.04-3.41,1.3-.74-.74Z"/>
            <path class="cls-67" d="M92.59,330.28c.16-.11,1.06-.08,1.23.25-1.64,2.26-1.97.29-1.23-.25Z"/>
            <path class="cls-67" d="M94.07,323.87c.53.23.39,1.81-.49,1.48-.64-.55-.05-.98.49-1.48Z"/>
          </g>
        </g>
        <path class="cls-46" d="M303.43,308.58c-.16.78.32,3.05-.25,3.45-2.64,0-19.88-2.3-20.47-3.21-.03-.74.05-1.49,0-2.22-.05-.71.6-5.7,1.73-5.92q9.49,3.95,18.99,7.89Z"/>
        <path class="cls-44" d="M230.44,313.51c-5.7,3.7-8.98,10.22-14.3,14.3-.78-.65-1.28-1.34-1.97-1.97,4.28-5.95,8.7-12.01,14.8-16.28l1.48,3.95Z"/>
        <g>
          <path class="cls-42" d="M346.34,263.2c5.29,5.75,14.75,23.34,19.73,31.07-3.72,0-22.62.68-24.41,0-.12-.05-.58-1.14-.74-1.48-1.11-2.38-4.32-27.36-5.92-32.8-1.89-6.42-2.14-1.07-1.48,4.93,1.05,9.45,4.42,18.86,5.43,28.36-2.77.65-44.95,1.45-47.1.49-1.44-.64-3.37-29.75-3.21-31.32.11-1.1,1.83-3.01,1.97-4.19,7.3-5.86,11.25-6.21,20.47-5.92,10.74.34,27.87,2.8,35.26,10.85Z"/>
          <g>
            <path class="cls-84" d="M290.61,258.27c-.14,1.18-1.86,3.09-1.97,4.19-.16,1.57,1.77,30.68,3.21,31.32,2.15.95,44.33.15,47.1-.49.56-.13,1.14.18,1.97-.49.16.34.62,1.43.74,1.48,1.8.68,20.69,0,24.41,0,1.97,0,3.95,0,5.92,0,.8,1.08,1.67,2.45,2.47,3.45-14.23-1.57-85.64.59-90.01-.49-11.78-2.92-1.92-27.22.74-34.52,2.71-.64,3.23-2.67,5.43-4.44Z"/>
            <path class="cls-42" d="M285.93,270.11c1.2,2.32,2.93,22.5,1.97,23.18-12.69,1.16-2.44-16.55-1.97-23.18Z"/>
          </g>
          <path class="cls-38" d="M340.92,292.8c-.83.67-1.41.36-1.97.49-1-9.5-4.38-18.91-5.43-28.36-.66-6-.41-11.35,1.48-4.93,1.6,5.44,4.81,30.42,5.92,32.8Z"/>
        </g>
        <g>
          <g>
            <path class="cls-82" d="M342.89,241.5c-.13,1.66-.29,10.95-1.23,11.34-10.4-1.91-20.9-2.63-31.32-4.44q.74-9.12,1.48-18.25c6.32,7.4,21.9,8.82,31.07,11.34Z"/>
            <path class="cls-44" d="M311.33,228.68c.55.67.44,1.42.49,1.48q-.74,9.12-1.48,18.25c-.26-.04-4.03.5-5.18,0-.88-.38-9.97-13.94-10.11-15.04-.24-1.82,3.07-16.72,5.43-18.99.25.86,9.47,12.63,10.85,14.3Z"/>
          </g>
          <g>
            <path class="cls-40" d="M336.97,215.36c4.36,2.62,5.87,4.93,6.41,9.86-.79.11-1.92-.17-2.47,0,.21-.99-1.02-1.69-1.73-1.97-5.18-2.03-20.05-4.64-27.37-6.9-.28-.09-.92.86-1.73.49-1.22-.55-5.14-9-6.17-7.15.04,2.83,10.43,14.37,10.36,15.29-.14,1.75-1.97-1.08-2.47,3.21-.04.37-.07.55-.49.49-1.38-1.68-10.6-13.44-10.85-14.3-.91-3.11,3.37-9.24,4.93-9.86,2.48,2.37,27.3,11.64,28.85,11.84.93.12,2.17-.1,2.71-.99Z"/>
            <path class="cls-1" d="M311.82,216.35c1.33,1.09,8.5,8.76,9.12,8.88.67.13,1.73-1.08,2.47-.99,4.36.53,12.89,2.39,16.77,1.97.38-.04.68-.97.74-.99.54-.17,1.67.11,2.47,0,.27,2.47.04,7.39,0,10.36q-15.78-3.7-31.57-7.4c.5-4.29,2.33-1.45,2.47-3.21.07-.92-10.31-12.45-10.36-15.29,1.03-1.85,4.94,6.6,6.17,7.15.81.36,1.45-.58,1.73-.49Z"/>
            <path class="cls-64" d="M343.38,235.59c-.03,2.08-.33,3.9-.49,5.92-9.17-2.53-24.75-3.95-31.07-11.34-.05-.06.05-.81-.49-1.48.43.05.45-.12.49-.49q15.78,3.7,31.57,7.4Z"/>
            <path class="cls-1" d="M336.97,215.36c-.54.89-1.78,1.1-2.71.99-1.56-.19-26.38-9.47-28.85-11.84,2.28-.92,28.09,8.77,31.57,10.85Z"/>
            <path class="cls-64" d="M340.92,225.23c-.06.02-.36.95-.74.99-3.88.42-12.41-1.44-16.77-1.97-.74-.09-1.8,1.12-2.47.99-.62-.12-7.79-7.79-9.12-8.88,7.32,2.27,22.19,4.87,27.37,6.9.71.28,1.94.98,1.73,1.97Z"/>
          </g>
        </g>
        <g>
          <path class="cls-91" d="M264.72,360.37c22.14-3.45,26.14,46.05.99,46.86-17.89-9.24-15.23-44.63-.99-46.86Z"/>
          <g>
            <path class="cls-93" d="M265.21,363.33c15.34-2.7,19.64,26.57,9.62,37.73-16.28,18.14-28.52-34.41-9.62-37.73Z"/>
            <path class="cls-43" d="M267.68,383.06c9.3,1.13-1.17,11.76-1.73,1.73l1.73-1.73Z"/>
          </g>
        </g>
        <g>
          <path class="cls-35" d="M363.11,373.68h.99c-1.12,11.12,4.88,23.39,11.1,20.71,13.58-10.91,4.81-44.64-6.66-32.06v-1.97c11.06-11.39,20.4,12.73,14.8,27.37-6.52,17.03-23.25,9.31-20.22-14.06Z"/>
          <path class="cls-62" d="M368.54,362.34c-2.25,2.47-4.11,8.08-4.44,11.34h-.99c.57-4.42,2.27-10.07,5.43-13.32v1.97Z"/>
          <g>
            <path class="cls-93" d="M364.1,373.68c.33-3.26,2.18-8.87,4.44-11.34,11.47-12.58,20.24,21.15,6.66,32.06-6.21,2.68-12.22-9.6-11.1-20.71Z"/>
            <path class="cls-58" d="M370.26,370.73c11.32,1.18-1.51,13.94-1.73,1.73l1.73-1.73Z"/>
          </g>
        </g>
      </g>
    </g>
  </g>
</svg>