<?xml version="1.0" encoding="UTF-8"?>
<svg data-name="Layer 1" version="1.1" viewBox="0 0 500 500" xmlns="http://www.w3.org/2000/svg">
<defs>
<style>.cls-1 {
        fill: #f5c6c5;
      }

      .cls-1, .cls-2, .cls-3, .cls-4, .cls-5, .cls-6, .cls-7, .cls-8, .cls-9, .cls-10, .cls-11, .cls-12, .cls-13, .cls-14, .cls-15, .cls-16, .cls-17, .cls-18, .cls-19, .cls-20, .cls-21, .cls-22 {
        stroke-width: 0px;
      }

      .cls-2 {
        fill: #de8458;
      }

      .cls-3 {
        stroke: #ab4c3e;
      }

      .cls-3, .cls-7, .cls-15 {
        fill: none;
      }

      .cls-3, .cls-15 {
        stroke-linecap: round;
        stroke-linejoin: round;
      }

      .cls-4 {
        fill: #fcd2c4;
      }

      .cls-5 {
        fill: #fce5da;
      }

      .cls-6 {
        fill: #bd5b4b;
      }

      .cls-8 {
        fill: #db8269;
      }

      .cls-9 {
        fill: #e0a69b;
      }

      .cls-10 {
        fill: #c2786c;
      }

      .cls-11 {
        fill: #953d2e;
      }

      .cls-12 {
        fill: #7e2920;
      }

      .cls-13 {
        fill: #db8e82;
      }

      .cls-14 {
        fill: #a85551;
      }

      .cls-15 {
        stroke: #ebe6e3;
      }

      .cls-16 {
        fill: #ebe6e3;
      }

      .cls-17 {
        fill: #f7bcae;
      }

      .cls-18 {
        fill: #f4dcdc;
      }

      .cls-19 {
        fill: #f1a28e;
      }

      .cls-20 {
        fill: #d66e5d;
      }

      .cls-21 {
        fill: #ab4c3e;
      }

      .cls-22 {
        fill: #edaeb1;
      }</style>
</defs>
<path class="cls-7" d="M9.43,435.53c-.11.2-.21.46-.29.78.08-.32.17-.58.29-.78Z"/>
<path class="cls-7" d="M8.86,438.04c-.05.44-.1.91-.14,1.39.05-.48.09-.95.14-1.39Z"/>
<path class="cls-7" d="M119.05,483.72c-.35-.09-.78-.23-1.29-.42.51.2.93.34,1.29.42Z"/>
<path class="cls-7" d="M124.29,472.83c-.77-1.14-1.36-1.72-2.13-1.95.77.23,1.36.81,2.13,1.95Z"/>
<path class="cls-7" d="M9.61,435.29c.13-.12.29-.17.48-.12-.19-.05-.34,0-.48.12Z"/>
<path class="cls-7" d="M111.43,488.93c-.51-.08-1.07-.13-1.59-.11.52-.01,1.08.03,1.59.11Z"/>
<path class="cls-7" d="M3.77,325.19c.04,2.06.08,4.12.12,6.17-.04-2.05-.08-4.11-.12-6.17Z"/>
<path class="cls-7" d="M3.89,331.36c.04,2.05.08,4.09.11,6.09-.04-2.01-.07-4.04-.11-6.09Z"/>
<path class="cls-7" d="M6.3,219.77c-.27,1.26-.67,2.7-1.12,4.23.45-1.53.85-2.97,1.12-4.23Z"/>
<path class="cls-7" d="M4.05,340.44c.03,1.97.06,3.9.09,5.78-.02-1.87-.05-3.81-.09-5.78Z"/>
<path class="cls-7" d="M10.12,444.97c-.12,2.95-.39,5.76-.77,8.48.38-2.72.64-5.53.77-8.48Z"/>
<path class="cls-7" d="M4.13,346.21c.02,1.87.04,3.69.05,5.43-.01-1.74-.03-3.56-.05-5.43Z"/>
<path class="cls-7" d="M9.18,454.65c-.62,4.02-1.51,7.83-2.69,11.49,1.18-3.67,2.07-7.48,2.69-11.49Z"/>
<path class="cls-7" d="M6.48,466.14c-.71,2.21-1.55,4.37-2.47,6.51.92-2.14,1.76-4.3,2.47-6.51Z"/>
<path class="cls-7" d="M4.16,361.03c-.04,2.05-.09,3.84-.18,5.32.09-1.48.15-3.28.18-5.32Z"/>
<path class="cls-7" d="M4.19,351.65c.01,1.74.02,3.4.01,4.98,0-1.57,0-3.23-.01-4.98Z"/>
<path class="cls-7" d="M206.09,480.29c-.72.15-1.44.25-2.15.29.7-.04,1.42-.14,2.15-.29Z"/>
<path class="cls-7" d="M213.31,477.16c-.6.41-1.25.79-1.91,1.15.67-.36,1.31-.74,1.91-1.15Z"/>
<path class="cls-7" d="M202.46,498.82c.27.06.46.12.57.17-.11-.06-.29-.11-.57-.17Z"/>
<path class="cls-7" d="M203.02,498.99c.05.03.09.06.1.09-.01-.03-.05-.06-.1-.09Z"/>
<path class="cls-7" d="M215,475.89c-.52.44-1.08.87-1.69,1.28.6-.41,1.17-.84,1.69-1.28Z"/>
<path class="cls-7" d="M210.38,478.82c-.69.32-1.4.62-2.12.86.72-.25,1.43-.54,2.12-.86Z"/>
<path class="cls-7" d="M247.41,487.79c.87,1.1,1.74,1.81,2.19,1.56-.45.25-1.32-.46-2.19-1.56Z"/>
<path class="cls-7" d="M401.14,500h0c.21-1.32.44-2.64.75-3.97-.31,1.33-.54,2.64-.75,3.97Z"/>
<path class="cls-7" d="M200.19,480.15c-1.05-.3-1.95-.71-2.67-1.21.72.5,1.61.91,2.67,1.21Z"/>
<path class="cls-7" d="M246.4,486.32c-.32-.53-.61-1.08-.84-1.61.23.54.53,1.09.84,1.61Z"/>
<path class="cls-7" d="M200.62,498.4c.55.13,1,.23,1.36.31-.36-.08-.81-.18-1.36-.31Z"/>
<path class="cls-7" d="M180.99,483.99c.1-1.22.21-2.47.34-3.72-.13,1.25-.25,2.5-.34,3.72Z"/>
<path class="cls-7" d="M180.67,489.31c.05-1.13.11-2.3.19-3.5-.08,1.2-.14,2.37-.19,3.5Z"/>
<path class="cls-7" d="M119.05,483.72c1.05.26,1.44.06,1.4-.36.04.42-.34.62-1.4.36Z"/>
<path class="cls-7" d="M183.12,469.12c.27-1.18.56-2.34.89-3.44-.32,1.11-.62,2.26-.89,3.44Z"/>
<path class="cls-7" d="M187.7,457.28c.5-.72,1.04-1.35,1.62-1.89-.57.53-1.11,1.17-1.62,1.89Z"/>
<path class="cls-7" d="M187.02,493.18c1.5.74,2.89,1.38,4.16,1.94-1.27-.55-2.66-1.2-4.16-1.94Z"/>
<path class="cls-7" d="M197.51,497.52c1.26.4,2.29.68,3.11.88-.82-.2-1.85-.47-3.11-.88Z"/>
<path class="cls-7" d="M184,465.67c.48-1.66,1.03-3.22,1.64-4.64-.61,1.41-1.16,2.97-1.64,4.64Z"/>
<path class="cls-7" d="M109.84,488.82c-.52.01-.99.09-1.32.24.33-.15.8-.22,1.32-.24Z"/>
<path class="cls-7" d="M204.45,13.61c1.53-.59,2.96-1.35,4.31-2.25-1.35.9-2.77,1.66-4.31,2.25Z"/>
<path class="cls-7" d="M384.43,46.21c-2.05-.32-3.44-1.08-4.67-2.4,1.22,1.31,2.62,2.07,4.67,2.4Z"/>
<path class="cls-7" d="M377.8,44.22c-.35.76-.79,1.63-1.28,2.58.5-.94.93-1.82,1.28-2.58Z"/>
<path class="cls-7" d="M501.88,232.11c.3-1.09.62-2.2.96-3.3-.33,1.1-.66,2.21-.96,3.3Z"/>
<path class="cls-7" d="m375.73 48.26c-1.1 2.01-2.41 4.23-3.73 6.33 1.32-2.1 2.63-4.32 3.73-6.33z"/>
<path class="cls-7" d="M372,54.59c-.66,1.05-1.33,2.07-1.97,3.02.65-.95,1.31-1.97,1.97-3.02Z"/>
<path class="cls-7" d="M429.4,14.37c2.13-.33,4.24-.72,6.3-1.09-2.06.37-4.17.76-6.3,1.09Z"/>
<path class="cls-7" d="M425.13,14.92c1.43-.14,2.85-.34,4.27-.56-1.42.22-2.85.41-4.27.56Z"/>
<path class="cls-7" d="M441.59,12.46c.06.03.08.06.05.11.02-.05,0-.08-.05-.11Z"/>
<path class="cls-7" d="M501.19,188.7c.12.83.18,1.71.19,2.6-.01-.89-.07-1.76-.19-2.6Z"/>
<path class="cls-7" d="M475.33,196.34c-.28-.72-.52-1.47-.65-2.25.13.78.37,1.53.65,2.25Z"/>
<path class="cls-7" d="M474.57,192.91c-.02-.79.09-1.59.38-2.38-.29.79-.4,1.59-.38,2.38Z"/>
<path class="cls-7" d="M500.85,187.09c.15.52.26,1.06.34,1.61-.08-.56-.19-1.1-.34-1.61Z"/>
<path class="cls-7" d="M502.83,322.11c-.04-2.05-.07-4.08-.1-6.08.03,2,.07,4.03.1,6.08Z"/>
<path class="cls-7" d="M477.63,200.62c-.33-.57-.84-1.35-1.34-2.27.5.92,1.01,1.7,1.34,2.27Z"/>
<path class="cls-7" d="M500.29,185.62c.23.46.41.95.56,1.47-.15-.52-.33-1.01-.56-1.47Z"/>
<path class="cls-7" d="M496.08,182.15c.91.26,1.67.63,2.3,1.11-.63-.47-1.39-.85-2.3-1.11Z"/>
<path class="cls-7" d="M498.97,183.77c.55.54.99,1.16,1.32,1.86-.34-.69-.77-1.32-1.32-1.86Z"/>
<path class="cls-7" d="M420.86,15.19c1.41-.02,2.84-.12,4.26-.26-1.43.14-2.85.24-4.26.26Z"/>
<path class="cls-7" d="m357.38 36.47c1.54-1.63 3.06-3.28 4.53-4.97-1.47 1.69-2.99 3.33-4.53 4.97z"/>
<path class="cls-7" d="M360.33,47.47c.39-.5.9-1.11,1.54-1.85-.64.74-1.14,1.35-1.54,1.85Z"/>
<path class="cls-7" d="M400.92,21.48c-.1-.62.15-1.36.84-2.23-.69.87-.94,1.61-.84,2.23Z"/>
<path class="cls-7" d="M346.7,37.91c.52.44,1.02.81,1.51,1.13-.48-.32-.98-.69-1.51-1.13Z"/>
<path class="cls-7" d="M352.38,40.91c.3.08.57.15.81.22-.24-.07-.51-.14-.81-.22Z"/>
<path class="cls-7" d="M348.92,39.48c.46.27.9.49,1.31.67-.41-.18-.85-.4-1.31-.67Z"/>
<path class="cls-7" d="M346.7,37.91c-.78-.66-1.6-1.46-2.46-2.44.86.99,1.68,1.79,2.46,2.44Z"/>
<path class="cls-7" d="M401.14.88h0c-.34,2.13-.62,4.29-1.03,6.61.41-2.32.69-4.47,1.03-6.61Z"/>
<path class="cls-7" d="M351.39,40.61c.36.12.69.22.99.3-.3-.08-.63-.18-.99-.3Z"/>
<path class="cls-7" d="m210.73 9.91c1.28-1.02 2.5-2.15 3.7-3.35-1.19 1.2-2.42 2.33-3.7 3.35z"/>
<path class="cls-7" d="M441.59,12.46c-.12-.05-.42-.06-.92,0,.51-.05.8-.05.92,0Z"/>
<path class="cls-20" d="M502.87,473.27v-17.46c-7.49,15.77-21.55,31.91-35.2,44.18h18.14c6.28-7.89,11.31-15.12,15.08-22.52.71-1.39,1.36-2.79,1.98-4.2Z"/>
<path class="cls-12" d="M124.29,472.83c-.77-1.14-1.36-1.72-2.13-1.95-1.03-.31-2.36,0-4.84.37-9.57,7.4-19.5,17.42-29.12,28.76h5.89c.02-.16.04-.32.08-.49.15.18.3.32.45.49h11.74c.87-.84,1.7-1.82,2.44-2.92.13,1.1,0,2.07-.31,2.92h7.23c4.35-9.77,7.71-18.72,9.41-25.83-.31-.52-.58-.96-.84-1.34ZM119.05,483.72c-.35-.09-.78-.23-1.29-.42-.76-.3-1.71-.73-2.88-1.33-2-.06,0,.93,0,1.22-.12,3.77-1.09,4.03-2.19,6.09-.3-.14-.76-.26-1.27-.35-.51-.08-1.07-.13-1.59-.11-.52.01-.99.09-1.32.24-.33.15-.51.38-.46.71,1.63.59,3.1.49,4.37.09.64-.2,1.23-.48,1.77-.78,2.71-1.52,4.17-3.71,4.09-.53-5.49,6.12-16.75,2.36-12.67-.73,2.65-1.35,6.04-10.45,8.77-6.34.14-1.06.68-1.48,1.38-1.5.35-.01.75.07,1.15.23.14.05.27.11.41.18.41.2.82.45,1.2.73.26.19.5.39.72.59.44.41.8.82,1,1.18.05.09.09.17.12.26.03.08.05.16.06.23.04.42-.34.62-1.4.36Z"/>
<path class="cls-20" d="M115.72,500h14.77c-.63-6.44-2.25-20.59-5.36-25.83-1.69,7.11-5.05,16.06-9.41,25.83Z"/>
<path class="cls-12" d="M200.92,453.21c-2.28-.14-6.73-.14-8.77.49-1.03.31-1.97.9-2.83,1.7-.57.53-1.11,1.17-1.62,1.89-.76,1.08-1.44,2.34-2.05,3.76-.61,1.41-1.16,2.97-1.64,4.64-.32,1.11-.62,2.26-.89,3.44-.81,3.55-1.39,7.39-1.79,11.15-.13,1.25-.25,2.5-.34,3.72-.05.61-.09,1.22-.13,1.82-.08,1.2-.14,2.37-.19,3.5-.19,4.52-.14,8.36.02,10.69h6.85c-.27-2.17-.44-4.41-.51-6.82,0-.32,0-.65,0-.97-.06-6.42,1.7-28.97,9.5-30.71,15.42-3.44,38.35,18.74,48.01,29.25,1.4,1.52,2.56,2.79,3.9,4.39,1.11,1.32,2.31,2.48,3.41,3.9.25.32.48.65.72.97h15.36c-14.12-20.95-40.61-45.18-67.02-46.79ZM221.87,463.93l3.66,2.19c-.12,1.31-4.34-.52-3.66-2.19ZM231.13,466.86l.24.24c-.28,8.04-3.05,5.63-.24-.24ZM238.93,476.6v-.97c2.58.92,3.2,2.98,0,.97ZM249.6,489.35c-.45.25-1.32-.46-2.19-1.56-.35-.44-.69-.94-1.01-1.47-.32-.53-.61-1.08-.84-1.61-.59-1.35-.83-2.62-.29-3.23l4.63,7.07c-.01.45-.12.7-.3.8ZM255.51,492.2l2.68,3.66c-1.85,4.37-5.13-1.05-2.68-3.66Z"/>
<path class="cls-20" d="M117.32,471.24c-4.58.69-9.72,3.46-14.14,4.87-12.1,7.17-22.63,14.98-31.9,23.88h16.92c9.62-11.33,19.55-21.36,29.12-28.76Z"/>
<path class="cls-12" d="m57.86 500h13.43c9.27-8.9 19.8-16.72 31.9-23.88-18.55 5.94-30.46 10.38-45.33 23.88z"/>
<path class="cls-6" d="M405.31,500h.6c.28-12.51,5.78-20.69,11.66-33.14-6.22,7.24-11.46,21.12-12.26,33.14Z"/>
<path class="cls-21" d="M404.9,487.81c-1.52,2.95-2.4,5.62-3.01,8.22-.31,1.33-.54,2.64-.75,3.97h.76c.17-.72.33-1.45.51-2.17.8-3.34,1.63-6.68,2.5-10.01Z"/>
<path class="cls-21" d="M333.01,500h.94c-2.48-3.79-4.64-7.82-6.31-12.19,1.2,4.25,3.06,8.32,5.37,12.19Z"/>
<path class="cls-10" d="m372 493.66c-1.04 2.17-2.15 4.27-3.32 6.34h1.18c1.85-3.45 2.91-6.1 2.14-6.34z"/>
<path class="cls-11" d="M352.75,499.27c.04.26.08.49.13.73h.63c-.15-.31-.32-.64-.52-.97l-.24.24Z"/>
<path class="cls-17" d="M94.09,500h.53c-.15-.16-.3-.31-.45-.49-.04.17-.06.33-.08.49Z"/>
<path class="cls-17" d="M108.79,497.08c-.74,1.1-1.56,2.09-2.44,2.92h2.13c.31-.85.44-1.82.31-2.92Z"/>
<path class="cls-16" d="M244.54,490.74c-9.66-10.5-32.59-32.69-48.01-29.25-7.8,1.74-9.57,24.28-9.5,30.71,7.78-9.12,18.47-3.46,20.72-3.9,1.6-.31,6.84-10.3,24.86-8.77,3.25,11.71-4.55,12.04-7.31,14.62-1.99,1.86-3.83,3.86-5.62,5.85h5.12c2.93-1.86,5.51-3.24,7.32-3.9,4.58-1.68,8.83-.08,12.43-5.36ZM215,475.89c-.52.44-1.08.87-1.69,1.28-.6.41-1.25.79-1.91,1.15-.33.18-.67.35-1.02.51-.69.32-1.4.62-2.12.86-.72.25-1.45.45-2.17.6-.72.15-1.44.25-2.15.29-.7.04-1.39.02-2.06-.08-.61-.09-1.18-.2-1.7-.35-1.05-.3-1.95-.71-2.67-1.21-1.44-1-2.21-2.33-2.26-3.73-.02-.7.13-1.42.47-2.12.34-.7.86-1.38,1.57-2.01.71-.63,1.61-1.21,2.71-1.71,1.65-.74,3.73-1.29,6.27-1.54,6.67-.65,10.08.19,11.3,1.69.27.33.43.7.5,1.09.27,1.56-1.01,3.51-3.08,5.27Z"/>
<path class="cls-16" d="M248.44,495.13c-.14,1.92-.51,3.51-1.04,4.87h4.1c.12-.32.23-.63.35-.97-1.1-1.42-2.3-2.58-3.41-3.9Z"/>
<path class="cls-2" d="M251.5,500h1.08c-.24-.32-.48-.66-.72-.97-.12.34-.23.66-.35.97Z"/>
<path class="cls-2" d="M244.54,490.74c-3.6,5.28-7.85,3.68-12.43,5.36-1.8.66-4.38,2.04-7.32,3.9h22.61c.52-1.37.9-2.95,1.04-4.87-1.34-1.59-2.5-2.86-3.9-4.39Z"/>
<path class="cls-16" d="M203.12,499.07s-.05-.06-.1-.09c-.11-.06-.29-.11-.57-.17-.14-.03-.3-.07-.48-.11-.36-.08-.81-.18-1.36-.31-.82-.2-1.85-.47-3.11-.88-1.68-.54-3.78-1.3-6.32-2.41-1.27-.55-2.66-1.2-4.16-1.94.07,2.42.25,4.65.51,6.82h14.35c.35-.22.64-.39.84-.52.3-.19.44-.31.4-.4Z"/>
<path class="cls-20" d="M6.48,466.14c1.18-3.67,2.07-7.48,2.69-11.49.06-.4.12-.79.18-1.19.38-2.72.64-5.53.77-8.48.13-3.11.12-6.37-.03-9.8-.19-.05-.34,0-.48.12-.07.06-.13.14-.19.24-.11.2-.21.46-.29.78-.12.48-.21,1.07-.28,1.73-.05.44-.1.91-.14,1.39-.14,1.45-.28,3.01-.57,4.27-.94,3.96-2.44,8.03-4.39,12.11v17.46c.09-.21.17-.42.26-.62.92-2.14,1.76-4.3,2.47-6.51Z"/>
<path class="cls-16" d="M502.87,417.14v-17.08c-.15,5.93-.26,11.81,0,17.08Z"/>
<path class="cls-16" d="M501.9,369.86c.9,2.57.79,4.67.97,7.31v-8.29c-.1.78.19,1.11-.97.97Z"/>
<path class="cls-16" d="M502.73,316.02c.03,2,.07,4.03.1,6.08.01.76.03,1.53.04,2.29v-35.45c-.36,6.04-.31,16.07-.14,27.08Z"/>
<path class="cls-16" d="M502.87,473.27c-.62,1.41-1.27,2.81-1.98,4.2-3.77,7.4-8.8,14.63-15.08,22.52h17.06v-26.73Z"/>
<path class="cls-12" d="M443.89,197.07c-2.13,19.26,37.31,48.2,58.98,56.78v-13.05c-.81-.37-1.62-.74-2.44-1.08-2.35-.98-4.55-2.33-6.82-3.41-2.59-1.22-4.62-1.98-7.31-3.41-2.72-1.45-4.41-2.13-7.31-3.9-24.6-14.98-18.4-18.32-20.47-21.2-.76-1.06-9.53-3.58-6.82-8.77,14.35-13.56,32.47-19.86,51.18-20.59v-6.95c-18.68.83-57.56,12.8-58.98,25.59ZM491.9,240.21c8.16,2.43,5.72,7.2-.24,1.22l.24-1.22ZM486.3,238.5l.24-.24c4.16,5.96-1.04,2.04-.24.24ZM482.4,236.55c-.51,1.08-6.3-2.31-6.58-4.14l6.58,4.14ZM468.51,226.56c4.38,2.67,3.57,4.65-.24.24l.24-.24Z"/>
<path class="cls-16" d="M458.51,207.79c2.07,2.88-4.13,6.22,20.47,21.2,6.2-10.48-1.41-10.1-2.44-15.84-.83-4.62,1.61-10.24,1.46-11.7-.02-.17-.16-.46-.38-.84-.33-.57-.84-1.35-1.34-2.27-.34-.61-.67-1.29-.96-2-.28-.72-.52-1.47-.65-2.25-.07-.39-.11-.78-.11-1.18-.02-.79.09-1.59.38-2.38.58-1.58,1.87-3.11,4.28-4.43,6.16.98,9.34,4.99,12.19,10.24q-.61-7.19-1.22-14.38c2.44-.34,4.37-.24,5.88.19.91.26,1.67.63,2.3,1.11.21.16.41.33.59.51.55.54.99,1.16,1.32,1.86.23.46.41.95.56,1.47.15.52.26,1.06.34,1.61.12.83.18,1.71.19,2.6.06,3.85-.71,8-.46,10.64.18,1.89,1.02,3.95,1.95,6.04v-29.55c-18.71.73-36.83,7.03-51.18,20.59-2.71,5.19,6.06,7.72,6.82,8.77ZM461.2,196.83c14.32.15,13.93,19.86,11.21,20.96-11.25-.2-13.17-11.91-11.21-20.96Z"/>
<path class="cls-16" d="M501.88,232.11c-.75,2.74-1.34,5.39-1.44,7.61.82.34,1.63.71,2.44,1.08v-12.12s-.02.08-.04.12c-.33,1.1-.66,2.21-.96,3.3Z"/>
<path class="cls-16" d="M336.17,404.22c9.01-12.51,21.82-28.15,34.12-9.02,14.02,11.06,25.58,28.53,30.71,45.57,2.88,9.59,3.25,17.91,4.39,22.42.09.36.65.25.97.24,13.26-19.26,36.8-38.82,59.71-44.84,8.9-2.34,28.5-4.81,36.8-1.46-.26-5.27-.15-11.16,0-17.08v-22.88c-2.54,7.51-34.24,2.07-42.65.49-9.45-1.78-25.75-6.53-34.61-10.24-34.74-14.55-62-48.59-65.07-86.52-1.01-12.49-1.52-16.82,11.21-19.74,31.76-7.28,59.3,5.39,83.59,24.86,32.37,25.94,38.39,42.87,47.52,82.86v-44.49c-.01-.76-.03-1.53-.04-2.29-.04-2.05-.07-4.08-.1-6.08-.17-11.01-.22-21.03.14-27.08-5.7.48-26.11-.83-24.86-9.99,4.23-8.3,17.21-8.18,24.86-5.12v-19.98c-21.66-8.58-61.11-37.52-58.98-56.78,1.41-12.79,40.29-24.75,58.98-25.59V.88h-17.06c-15.44,19.4-33.74,33.04-57.76,39.97-9.03,2.61-35.25,6.68-43.62,5.36-2.05-.32-3.44-1.08-4.67-2.4-.41-.44-.8-.94-1.18-1.5-.16.49-.42,1.14-.77,1.9-.35.76-.79,1.63-1.28,2.58-.25.47-.51.96-.79,1.47-1.1,2.01-2.41,4.23-3.73,6.33-.66,1.05-1.33,2.07-1.97,3.02-1.61,2.38-3.11,4.31-4.13,5.17-7.57,6.41-11.42,2.12-16.57-4.14-11.52-13.98-25.44-40.13-29.73-57.76h-51.67c15.21,22.58,27.9,53.59,22.91,81.15-2.74,15.11-12.63,13.64-29.98,9.02-40.06-10.68-77.27-47.61-80.18-90.17h-16.57c1.06,22.07-13.86,14.17-18.03,0h-15.6c.8,8.23,1.55,16.85.97,25.1-2.22,32.05-27.24,74.64-57.27,87.98-9.65,4.29-29.79,9.3-40.21,9.75-5.75.25-6.2,1.11-9.26-4.39-.08-.14-.27.48-1.46-2.92-.08-.23-.23-1.1-.49-1.95-1.15-3.88-1.75-8.19-2.44-12.19-3.32-19.42-3.78-32,2.92-50.94C29.31,34.22,44.38,13.12,57.86.88h-27.3c-3.34,3.58-10.01,8.2-14.14,3.9-.94-.98-1.65-2.58-1.95-3.9H3.75v170.6c35.71-1.59,68.21,12.99,90.66,40.7,12.98,16.02,21.4,27.06-.73,40.21-26.49,15.74-62.26,12.43-89.93,1.46v19.98c9.57,3.83,13.65,13.97,0,15.11v35.45c0,.26,0,.53.01.79.04,2.06.08,4.12.12,6.17.04,2.05.08,4.09.11,6.09.02,1,.03,2,.05,2.98.03,1.97.06,3.9.09,5.78s.04,3.69.05,5.43c.01,1.74.02,3.4.01,4.98,0,1.57-.02,3.05-.04,4.41-.04,2.05-.09,3.84-.18,5.32-.06.99-.13,1.84-.22,2.53v8.29c.48,6.8.2,14.88,0,22.88v17.08c7.19,2.9,6.05,11.49,6.34,18.03.15,3.43.16,6.68.03,9.8-.12,2.95-.39,5.76-.77,8.48-.06.4-.12.79-.18,1.19-.62,4.02-1.51,7.83-2.69,11.49-.71,2.21-1.55,4.37-2.47,6.51-.09.21-.17.42-.26.62v26.73h10.72c-1.93-8.43,1.24-13.75,5.36-20.47,1.99-3.25,3.69-7.92,8.04-9.26,12.56-3.86,13.16,18.51,2.68,29.73h27.3c14.87-13.5,26.78-17.94,45.33-23.88,4.41-1.41,9.56-4.18,14.14-4.87,2.47-.37,3.81-.67,4.84-.37.77.23,1.36.81,2.13,1.95.26.38.53.83.84,1.34,3.11,5.24,4.73,19.4,5.36,25.83h15.6c-7.86-26.69,16.6-29.97,18.03,0h16.57c-.16-2.33-.21-6.18-.02-10.69.05-1.13.11-2.3.19-3.5.04-.6.08-1.21.13-1.82.1-1.22.21-2.47.34-3.72.4-3.76.98-7.6,1.79-11.15.27-1.18.56-2.34.89-3.44.48-1.66,1.03-3.22,1.64-4.64.61-1.41,1.3-2.68,2.05-3.76.5-.72,1.04-1.35,1.62-1.89.86-.8,1.8-1.38,2.83-1.7,2.04-.63,6.49-.63,8.77-.49,26.41,1.61,52.9,25.84,67.02,46.79h51.67c-7.99-32.82-3.42-68.04,16.57-95.78ZM436.09,397.15c5.71-2.35,5.37-.34,6.58-.49.4-.05.12-1.88,7.55-1.46,3.66.2,4.78.89,7.8,2.44,4.93,2.53,6.18,2.4,2.44,7.8-4.78,6.89-23.76,10.66-29.73,4.87-1.36-.47-2.38-2.69-2.44-3.9-.18-3.97,4.48-7.89,7.8-9.26ZM396.13,365.47c9.52.71,23.54,8.64,19.01,18.03-8.31,9.23-21.49,1.01-23.15.49-1.47-.46-4.11.17-5.85-.49-16.86-6.33-9.37-19.49,9.99-18.03ZM489.22,65.71c3.55,1.34,1.77,6.52.97,9.26-2.07,7.14-8.63,12.91-16.33,11.7-9.11-7.73,6.53-24.69,15.35-20.96ZM457.54,46.21c1.22-4.43,7.16-10.32,12.19-10.24,3.21.05,5.78,2.02,6.34,5.36,1.52,9.1-10.47,19.34-16.57,14.62-2.96-2.29-2.85-6.47-1.95-9.75ZM478.26,130.05c19.63-1.68,8.26,16.56-11.21,20.47-24.59,4.94-9.9-18.66,11.21-20.47ZM53.72,143.21c7.21-1.58,28.91,7.34,29.98,11.94,3.48,15-49.35,2.68-29.98-11.94ZM333.25,297.23c-19.37-14.13.72-24.25,14.14-9.26,9.53,10.64.84,20.18-14.14,9.26ZM448.52,235.82c3.83,3.02,14.18,18.93,5.36,20.96-6.09,1.4-23.2-8.95-26.56-13.89-.75-1.1-2.78-5.02-2.92-6.09-.12-.95.08-1.97,0-2.92,3.45-6.6,9.12-4.18,14.62-2.44,1.49.47,2.06,1.3,2.44,1.46.35.15,3.58.17,7.07,2.92ZM417.82,61.32c15.22-3.57,38.26,22.78,23.88,27.3-14.84,4.66-35.4-24.59-23.88-27.3ZM419.52,159.3c2.57-.47,4.79-.39,5.85,2.44,1.04,2.76.46,5.51,0,8.29-1.91,11.62-13.12,22.68-18.03,17.55-1.56-.81-1.5-3.38-1.46-4.87.15-5.22,2.97-12.2,5.85-16.57,2.16-3.29,3.49-6.04,7.8-6.82ZM401.97,91.06c14.15,8.71,8.32,32.87-9.75,10.24-.48-.6-2.19-1.97-3.41-4.39-5.92-11.69,6.23-10.11,13.16-5.85ZM322.28,76.43c16.96-3.42,33.19,27.34,10.24,21.93-12.41-2.93-22.43-19.47-10.24-21.93ZM314.97,115.92c18.48-1.82,3.41,27.61-17.06,23.88-6.97-8.09,9.56-23.15,17.06-23.88ZM279.15,194.15c16.78-25.01,48.78-55.07,79.69-58.73,6.3-.75,12.48-.11,18.77,0,3.73.07,6.84-.77,10.72,0,3.29.65,5.46-.25,6.82,6.34.4,1.91.16,13.28,0,16.08-1.94,33.78-16.42,58.05-41.67,79.94-17.41,15.09-29.18,21.28-51.42,26.81-9.81,2.44-23.63,6.18-33.63,4.39-4.07-.73-4.8-.04-5.85-4.39-1.11-4.6-.07-9.05,0-13.65.36-24.54,2.72-36.13,16.57-56.78ZM250.88,117.38c1.32-1.92,1.76-3.38,4.39-3.9.54-.11,2.34-.1,2.92,0,7.2,1.18,10.35,15.93,10.24,21.93-.25,13.63-7.98,23.53-15.6,11.7-.69-1.06-.69-1.35-.97-1.95-.56-1.18-.59-1.39-.97-2.44-2.93-7.92-5.09-17.97,0-25.35ZM189.46,62.3c1.54,2.42,2.11,3.56,2.92,6.34,1.89,6.4,3.81,16.4-6.34,15.11-19.63-2.5-12.71-46.77,3.41-21.45ZM138.28,54.5c2.49-4.42,4.37-5.84,8.29-8.77,1.76-1.32,4.5-4.95,10.72-5.36,9.26-.61,11.09,4.93,6.34,12.19-2,3.05-5.23,5.04-8.29,6.82-.74.43-1.23.62-1.95.97-.72.35-1.15.65-1.95.97-3.05,1.24-7.95,3.26-11.21,2.92-6.95-.72-4.03-6.05-1.95-9.75ZM96.36,189.27c-2.53-3.85,3.18-7.84,5.85-9.99,1.09-.88,5.63-3.85,6.82-4.39,5.61-2.54,13.58-4.72,17.55,1.46,2.32,3.62,1.68,4.44-.49,7.8-6.3,9.77-28.46,7.06-29.73,5.12ZM9.85,313.81c23.43,2.48,25.21,32.77,14.14,28.27-1.67-.68-25.41-26.59-14.14-28.27ZM23.74,360.11c5.93-6.54,15.24,3.85,19.01,12.67,6.11,14.31,2.17,20.77-10.24,11.21-5.67-4.37-14.8-17.23-8.77-23.88ZM34.71,456.62c-6.65-4.46-.65-11.82,5.85-12.19,4.68-.26,20.54,2.94,22.18,8.04,3.66,11.41-25.02,6.16-28.03,4.14ZM118.54,405.44c-10.17,7.16-29.49,14.71-41.67,16.08-4.02.45-6.57.83-9.26-3.17-2.18-3.25-5.46-25.59-5.85-30.71-3.56-46.51,18.22-101.54,62.15-122.59,12.77-6.12,33.55-14.75,35.83,6.34,27.27,36.81-8.98,111.35-41.19,134.04ZM146.81,447.36c-8.82-9.42,10.31-32.85,18.03-33.14,12.47-.47.78,35.39-18.03,33.14ZM166.8,385.94c-9.82-6.82-3.64-37.44,7.31-40.94,15.61,6.36.51,42.45-7.31,40.94ZM193.85,296.75c-3.95,2.9-6.94-.85-7.8-1.46-2.49-1.76-2.3-2.09-3.9-4.39-4.73-6.83-8.25-18.63-1.46-19.5,7.41-.95,22.29,20.45,13.16,25.35ZM149.98,88.13c.74-5.6,4.55-7.45,9.99-5.85,2.78.82,28.35,18.61,32.17,21.93,34.63,30.12,49.73,80.03,35.83,124.05-1.33,4.21-7.36,18.79-10.97,20.72-5.69,3.04-11.32-1.28-15.84-4.39-62.86-13.58-79.76-107.27-51.18-156.46ZM255.51,442.48c-9.27-1.39-24.61-20.59-29.49-28.51-19.73-32.02-23.45-83.15,2.92-112.59,4.24-4.74,17.11-14.95,23.15-15.84,14.03-2.06,27.43,21.59,32.41,32.66,9.31,20.68,12.9,40.29,10.24,62.88-.06.48.06.99,0,1.46-2.63,19.41-20.91,62.7-39.24,59.95ZM284.75,485.86c-9.07-5.59,6.25-25.98,12.67-26.81,13.08-1.68-4.37,29.74-12.67,26.81ZM316.92,331.84c17.82-3.56,42.85,27.97,17.55,25.35-19.3-2-30.63-22.74-17.55-25.35Z"/>
<path class="cls-12" d="M502.87,455.82v-38.68c-8.3-3.35-27.9-.88-36.8,1.46-22.9,6.02-46.45,25.58-59.71,44.84-10.2,14.83-15.3,26.1-18.57,36.56h13.34c.21-1.32.44-2.64.75-3.97.61-2.6,1.49-5.27,3.01-8.22.2-.39-.48-1.61.73-1.46.45.53-.71,1.38-.73,1.46-.87,3.33-1.7,6.67-2.5,10.01-.17.72-.33,1.45-.51,2.17h3.42c.79-12.03,6.04-25.9,12.26-33.14,6.52-13.82,14.66-31.7,2.44-3.66-.42,4.7-4.65,28.91-3.05,36.8h36.2c17.16-6.88,10.75-1.7,3.17,0h11.35c13.65-12.27,27.71-28.41,35.2-44.18ZM414.16,459.54c-1.05,1.95-1.79,3.06-2.92,4.87-5.8,10.39-11.1,21.12-16.57,31.68-.22.63-.03,1.81-.73,2.44-.84-1.15.67-2.32.73-2.44,3.86-11.22,10.33-21.66,16.57-31.68,1.12-2.02,1.56-2.9,2.92-4.87.11-.2-.35-1.12,2.19-3.9.33,1.75-1.38,2.72-2.19,3.9ZM418.3,453.21l-.24.24-.24.24-.24-.24v-.49l.24-.24h.49l.24.24-.24.24ZM492.63,456.62c-.58.57-.37.63-1.46,1.46-1.92,1.48-1.69,1.38-3.9,2.44-8.63,4.85-19.58,6.85-29.25,4.14,9.93.84,20.08.26,29.25-4.14.4-.23,3.72-2.3,3.9-2.44.08-.06.1-.45,1.46-1.46.74-.72,1.3-1.81,2.19-2.44.68,1.67-2.06,2.34-2.19,2.44ZM487.52,469.78c-10.57,9.64-29.15,7.92-43.14,8.53,14.64-1.53,30.29.11,43.14-8.53ZM498.97,438.1c.12-.12.33-1.58,1.71-2.92.7,1.46-1.35,2.47-1.71,2.92-1.88,2.42-4.52,5.67-7.8,5.12,2.25-.75,6.27-3.56,7.8-5.12ZM479.23,437.61l.24,1.22c-8.27,7.77-7.65,5.1-.24-1.22ZM481.18,445.9l.73.24c-9,6.17-14.21,6.34-.73-.24ZM467.53,458.08c9,3.32,23.54-3.14,29.73-10.24-8.76,14.81-45.34,16.98-31.68-2.44.95.4-7.09,9.34,1.95,12.67ZM465.1,440.05c3.65-.07-4.47,3.24-9.02.73,3.04.24,6.22.73,9.02-.73ZM458.03,447.85c.48-.97.77-2.44,1.95-2.92l.97-.73-.97.73c-.15,2.12-1.85,2.78-1.95,2.92-1.18,2.34-1.87,5.01-3.17,7.31-.42-2.82,1.77-5.14,3.17-7.31ZM448.77,456.38c-1.98,4.19-4.35,8.03-6.82,11.94-.66,1.19-.93,1.39-.97,1.46-.1.15.39.37-1.95,2.92-.06.06.25.8-.73,1.46-.85-.9.69-1.39.73-1.46.87-1.74,1.65-2.4,1.95-2.92.31-.47.69-1.02.97-1.46,3.52-6.36,17.91-38.97,6.82-11.94ZM436.82,439.07q-2.44,9.5-4.87,19.01c-.13-6.67,1.57-13.26,4.87-19.01ZM442.92,446.38c2.97-4.42,5.71-8.87,9.5-12.67,1.4.43-8.83,11.78-9.5,12.67-10.21,15.22-13.4,23.82-17.3,41.92,1.92-17.54,6.84-28.22,17.3-41.92ZM449.5,446.38c-6.15,13.71-12.51,27.51-20.96,39.97q10.48-19.98,20.96-39.97ZM440.24,491.23c-3.14-.09-6.91-3.25-9.26.49-.9-5.33,8.11-1.14,12.19-.97,9.38.37,24.49-1.52,32.66-6.34l1.22.24c-10.76,6.12-24.55,6.94-36.8,6.58Z"/>
<path class="cls-12" d="M453.15,500h1.45c-.51-.04-1.02-.08-1.45,0Z"/>
<path class="cls-12" d="M419.52,465.64c.03-2.15-.2-.82-1.95,1.22-5.88,12.46-11.38,20.63-11.66,33.14h10.39c-1.07-8.15,1.49-30.2,3.22-34.36Z"/>
<path class="cls-12" d="M370.29,395.21c-12.3-19.14-25.11-3.49-34.12,9.02-19.99,27.74-24.56,62.96-16.57,95.78h13.41c-2.31-3.87-4.17-7.93-5.37-12.19,1.67,4.37,3.83,8.39,6.31,12.19h11.92c-.44-.82-.66-1.86-.93-2.44-.89-1.4-1.21-2.09-1.95-3.41-.58-1.08-1.16-2.31-1.38-2.76-.03-.06-.05-.11-.09-.17-.12-.21-.56-.77-.97-1.46-.64-1.13-1.3-2.29-1.95-3.41-5.18-8.41-12.08-16.18-13.89-26.32,3.54,9.37,8.93,17.68,13.89,26.32.72,1.16,1.29,2.32,1.95,3.41.04.08.3.24.97,1.46.01.02.04.09.09.17.59,1.11.98,2.05,1.38,2.76.09.17.31-.07,1.95,3.41.1.16,1.71,1.17,1.42,2.44h6.51c-.04-.24-.09-.47-.13-.73l.24-.24c.19.34.36.66.52.97h15.17c1.17-2.07,2.28-4.17,3.32-6.34.77.23-.28,2.88-2.14,6.34h10.17c.18-1.52.35-3.06.5-4.63,2.48-25.96,4-78.02-10.24-100.16ZM371.75,430.54c-1.79,4.21-4.41,18.25-11.45,28.51,1.46-5.78,4.91-10.81,7.07-16.33,2.35-6,2.85-15.15,6.58-16.82,3,1.29-.46.55-2.19,4.63ZM374.19,414.46c2.55,8.34-5.81,4.17-1.71-.24l1.71.24ZM372.24,407.15c-2.07-.53-5.7,2.66-2.68-.73l2.68.73ZM366.64,398.62l2.19,4.14c.03,4.06-4.37-4.36-2.19-4.14ZM361.76,444.43c2.29-13.26,1.21-26.57-2.44-39.48,4.62,10.58,5.72,28.51,2.44,39.48ZM353.48,404.95c1.56,11.54-3.78,23.09-2.19,34.85,7.19,24.68-.14,9.98-.97-1.95-.77-11.03,3.2-21.84,3.17-32.9ZM347.14,404.47c-2.89,16.07-4.6,33.99,4.87,48.25-9.91-9.77-8.96-35.58-4.87-48.25ZM339.83,409.83c1.1,9.18.88,18.21,2.92,27.3-3.02-8.73-3.62-18.19-2.92-27.3ZM354.94,483.92c-11.83-9.89-24.3-21.07-28.27-36.56,6.27,15.86,16.07,25.27,29,35.83l-.73.73ZM334.47,443.46c.88-.33,1.02,1.23.49,1.46-.3-.73-.96-1.45-.49-1.46ZM356.89,469.78c-9.27-5.8-16.4-14.32-21.2-24.13,5.86,8.07,11.3,16.53,19.74,22.18,1.09-.55.15-1.6-.24-3.41-7.52-13.38-20.26-22.73-22.18-39.97.87-.23,3.31,10.73,6.58,16.82,4.3,7.99,13.79,14.89,15.6,23.15,1.3,2.31,4.35,3.74,1.71,5.36ZM358.84,496.59c5.45-6.93,11.07-13.53,15.11-21.45,2.24.74-10.22,19.42-15.11,21.45ZM358.35,483.43c6.66-9.51,13.32-18.82,17.55-29.73-2.22,10.59-9.99,21.91-17.55,29.73Z"/>
<path class="cls-20" d="M405.39,463.2c-1.14-4.51-1.5-12.84-4.39-22.42-5.13-17.05-16.68-34.51-30.71-45.57,14.23,22.14,12.72,74.2,10.24,100.16-.15,1.57-.32,3.11-.5,4.63h7.77c3.26-10.45,8.36-21.73,18.57-36.56-.33,0-.88.12-.97-.24Z"/>
<path class="cls-12" d="m146.08 500h18.03c-1.43-29.97-25.89-26.69-18.03 0z"/>
<path class="cls-20" d="m27.88 470.27c-4.35 1.34-6.05 6.01-8.04 9.26 1.06 2.93-3.69 8.02-0.97 14.14 5.23-4.78 2.7-13.74 7.31-19.01 1.26-1.44 4.14-3.65 5.85-1.71-2.75 4.7-10.26 19.56-0.97 20.47-1.46 3.28-3.86 5.12-6.6 6.58h6.11c10.48-11.23 9.88-33.59-2.68-29.73zm3.17 7.55 1.22-1.22 2.19 3.17c-0.17 14.97-3.81 15.71-3.41-1.95z"/>
<path class="cls-12" d="M31.05,493.42c-9.28-.91-1.77-15.77.97-20.47-1.71-1.94-4.59.27-5.85,1.71,2.95-.31-.71,5.59-1.46,9.02-.72,3.27-.57,16.68-5.85,9.99-2.72-6.11,2.04-11.21.97-14.14-4.12,6.73-7.29,12.04-5.36,20.47h9.98c2.73-1.46,5.13-3.3,6.6-6.58ZM19.11,497.56l2.19,1.22c-3.19,1.78-3.11-1.17-2.19-1.22Z"/>
<path class="cls-20" d="m384.43 46.21c8.38 1.32 34.6-2.76 43.62-5.36 24.02-6.93 42.32-20.57 57.76-39.97h-18.14c-4.74 4.26-9.44 8.06-13.79 11.21-21.01 15.21-45.27 25.2-69.46 34.12z"/>
<path class="cls-12" d="m469.24 326.72c-21.88-24.84-63.52-62.73-97.48-65.56-12.73 2.92-12.22 7.25-11.21 19.74 3.07 37.92 30.33 71.97 65.07 86.52 8.85 3.71 25.15 8.46 34.61 10.24 8.41 1.58 40.11 7.02 42.65-0.49-0.19-2.64-0.08-4.74-0.97-7.31-1.8-5.16-27.27-37.02-32.66-43.14zm-1.71 5.61c9.65 21.48 6.44 24.82-0.73 1.22l0.73-1.22zm-25.34-20.47c16.29 20.9 17.21 29.17-0.24 1.71l0.24-1.71zm-17.55-14.63c9.32 17.69 6.61 23.32-0.73 1.71l0.73-1.71zm-16.09-12.67q2.92 6.58 5.85 13.16c-1.75 0.88-7.97-13.39-5.85-13.16zm-11.21-3.9c9.71 8.55 2.32 6.37-5.36-3.9 1.81 1.15 3.76 2.49 5.36 3.9zm-4.38 21.94q3.66 8.04 7.31 16.08c-2.39 1.36-8.43-13.62-7.31-16.08zm-8.29 0.48c-0.7 0.23-5.5-10.74-5.36-13.65 0.3 1.21 6.77 13.19 5.36 13.65zm-7.8 5.85c18.46 26.87 48.88 52.52 81.15 59.71-27.02-1.88-69.31-35.44-81.15-59.71zm30.22 8.29q6.46 6.46 12.92 12.92c-1.07 4.5-11.43-8.39-12.92-12.92zm21.45 15.6 11.7 15.6c-4.8 0.02-10.05-11.08-11.7-15.6zm14.13 12.67 11.45 10.97c-2.19 2.82-10.59-7.98-11.45-10.97zm39 19.5c-26.45-18.72-49.79-41.3-75.55-60.93-2.14-1.96-4.05-4.3-6.09-6.34-0.58-0.5-0.95-1-1.46-1.46-0.12-0.12-1.69 0.03-2.44-2.19 0.85-0.3 1.94 1.74 2.44 2.19l1.46 1.46c26.94 23.08 54.96 45.16 82.86 67.02l-1.22 0.24zm-2.44-17.06 6.09 10.48c0.02 4.56-7.12-7.86-6.09-10.48z"/>
<path class="cls-20" d="M455.35,286.02c-24.29-19.47-51.84-32.14-83.59-24.86,33.96,2.83,75.6,40.72,97.48,65.56,5.39,6.12,30.86,37.97,32.66,43.14,1.16.14.88-.2.97-.97-9.13-39.99-15.15-56.92-47.52-82.86Z"/>
<path class="cls-12" d="m478.01 278.96c-1.25 9.16 19.16 10.47 24.86 9.99v-15.11c-7.65-3.06-20.63-3.18-24.86 5.12z"/>
<path class="cls-12" d="M106.35.88h-11.74c3.85,4.21,8.23,3.35,11.74,0Z"/>
<path class="cls-12" d="M24.23,113.23c-.22.52-.67,1.45-1.46,1.22.25.85.41,1.72.49,1.95,1.36,1.14,5.88-13.03,6.82-9.5l-5.36,12.43c3.06,5.5,3.51,4.63,9.26,4.39,10.72-14.41,23.77-26.86,34.61-41.19C81.53,65.41,102.92,29.6,115.72.88h-7.23c-2.3,6.4-15.13,5.99-14.39,0h-5.89c-20.68,24.37-39.89,54.81-50.82,78.23-5.16,11.07-8.51,22.89-13.16,34.12ZM107.09,7.46l3.17-2.68c3.05,3.83-4.85,8.21-3.17,2.68ZM37.63,109.58c-2.67-1.7,8.73-3.11,5.61-11.45-10.07,4.71-13.62-1.16-11.45-1.71,3.8,2.85,8.63,1.56,11.7-1.95,2.1-.04,5.52,13.86-5.85,15.11ZM71.75,65.71l1.22.73c-3,14.23-10.63,12.34-1.22-.73ZM81.01,40.37l1.22.24c-2.58,24.09-8.99,22.25-1.22-.24ZM91.73,34.52c-.88-.68,3.01-11.45,3.9-13.16.42,3.88.37,11.94-3.9,13.16ZM97.58,13.07c4.27.63-6.68,10.57-13.4,3.17,1.11-1.46,6.95,3.93,13.4-3.17ZM76.14,31.59c7.69,3.32,12.1-4.74,13.65-4.87,6.03-.53-8.93,12.45-14.38,6.09l.73-1.22ZM72.24,41.83c5.6.11-2.03,5.99-5.12,3.17.98-1.33,3.61-3.2,5.12-3.17ZM60.05,51.58c5.71,7.03,11.4-.77,12.67-.97,9.41-1.52-10.16,13.58-13.89,1.22l1.22-.24ZM66.88,62.3c5.03-.13-6.03,13.78-16.33,6.09-.12-4.09,8.4,5.95,16.33-6.09ZM42.5,79.85c.91.13,7.68,7.57,14.62-4.87,1.16,2.92-1.22,5.3-1.22,5.61,0,.93,6.29,8.81-4.14,15.84-2.89-2.71,5.95-4.93,3.17-14.38-11.09,6.55-18.32-3.06-12.43-2.19Z"/>
<path class="cls-20" d="M33.97,123.71c10.42-.45,30.56-5.46,40.21-9.75,30.04-13.34,55.05-55.93,57.27-87.98.57-8.25-.17-16.88-.97-25.1h-14.77c-12.8,28.72-34.19,64.53-47.13,81.64-10.84,14.32-23.89,26.77-34.61,41.19ZM119.03,10.15c1.74,32.44-42.27,100.76-74.57,107.23,9.31-12.33,22.84-20.24,33.39-31.44,19.82-21.03,31.46-48.95,41.19-75.79Z"/>
<path class="cls-12" d="M260.87,91.06c17.34,4.62,27.24,6.09,29.98-9.02,4.99-27.56-7.7-58.58-22.91-81.15h-15.36c1.08,1.44,2.13,2.92,3.17,4.39,3.55,5,3.23,5.57,3.41,5.85,1.41,2.15,3.02,4.08,4.39,6.34,1.37,2.27,2.61,4.51,3.9,6.82,1.28,2.29,2.7,4.48,3.9,6.82,1.83,3.57,3.31,7.04,4.87,10.72,1.23,2.91,2.43,5.19,3.41,8.29,7.26,22.87,1.76,21.8,1.95,25.1.13,2.36,9.69,15.56-17.79,9.5-16.62-3.66-32.17-13.45-44.6-24.86-.71-.66-1.28-1.3-1.95-1.95-13.03-12.62-21.97-26.3-26.81-43.87-.12-.43-.38-.54-.49-.97-1.1-4.33-1.92-8.15-2.41-12.19h-6.85c2.91,42.56,40.12,79.49,80.18,90.17ZM268.18,18.43c-1.86-2.04,2.01-2.07-1.22-5.36-1.98-2.02-.61,1.34-3.9-5.36-1.18-2.4-3.64-3.66-1.46-6.58,1.41-.98,2.36,2.94,2.92,3.66.24.3.68-1.65,3.9,5.85,2.01,4.68,3.74,5.92-.24,7.8ZM278.9,32.08c-4.59-1.06-7.77-8.33-6.82-8.77.99.44,8.75,7.72,6.82,8.77ZM279.39,37.93c3.5-.5,5.1,1.85,6.58,4.63-.98,1.4-6.18-2.05-6.58-4.63ZM281.1,50.85c.71-.2,2.07-1.2,2.19-1.22,4.54-.61,3.62,4.71-2.19,1.22Z"/>
<path class="cls-20" d="M40.8,42.07c-12.7,24.24-13,35.21-20.47,60.2.68,4,1.28,8.31,2.44,12.19.8.23,1.25-.7,1.46-1.22,4.65-11.22,8-23.05,13.16-34.12C48.31,55.69,67.52,25.26,88.21.88h-16.92c-12.06,11.57-22,24.98-30.49,41.19Z"/>
<path class="cls-12" d="M23.25,51.33c-6.7,18.94-6.25,31.51-2.92,50.94,7.47-24.98,7.77-35.96,20.47-60.2C49.29,25.86,59.23,12.46,71.29.88h-13.43c-13.48,12.24-28.55,33.33-34.61,50.45Z"/>
<path class="cls-12" d="M93.68,252.39c22.14-13.15,13.71-24.2.73-40.21-22.45-27.71-54.95-42.29-90.66-40.7v6.95c20.14-.79,40.96,4.89,58.49,14.99,1.41.81,2.54,1.56,3.9,2.44,4.65,2.99,7.15,5.11,11.21,8.77.2.18.34.35.49.49,6.09,5.62,21.76,22.62,21.45,30.95-.21,5.54-12.2,10.81-16.57,12.43-1.59.59-3.21,1.55-4.87,1.95-11.75,2.84-24.2,1.88-36.07.49-1.76-.21-3.22-.72-4.87-.97-2.34-.36-4.43-.48-6.82-.97-3.08-.63-5.79-1.62-8.77-2.44-1.3-.36-2.53-.55-3.9-.97-2.78-.85-5.53-1.43-8.29-2.44-1.83-.67-3.59-1.51-5.36-2.33v13.05c27.67,10.96,63.44,14.27,89.93-1.46ZM79.06,254.34c3.02,2.02-2.42,3.16-3.9,0h3.9ZM68.58,259.95c-.73,1.46-7.46-4.98-7.55-6.09l7.55,6.09ZM4,245.08c2.28,1.04,4.51.59,5.12,3.66-.53,1.92-6.3-1.18-5.12-3.66ZM14.48,249.95c-.28-.91-1.12-1.01.97-.97,4.94-.08,7.39,8.87-.97.97ZM25.93,250.93c3.19.51,4.85,3.02,7.8,4.39,18.91,4.01-8.8,2.88-7.8-4.39ZM45.92,254.34c4.17,1.04,6.31-.91,8.53,3.17-.16.52-7.9-1.71-8.53-3.17Z"/>
<path class="cls-12" d="M132.43,356.94c11.6-20.91,29.83-62.03,27.3-85.54-2.27-21.09-23.06-12.45-35.83-6.34-43.92,21.05-65.7,76.07-62.15,122.59.39,5.12,3.67,27.46,5.85,30.71,2.69,4,5.24,3.62,9.26,3.17,21.9-20.4,40.85-38.06,55.57-64.58ZM104.89,384.48c-4.24,2.73-14.23,7.41-19.25,7.07,8.22-1.83,15.44-6.3,22.66-10.48,1.85-.04-2.4,2.76-3.41,3.41ZM106.36,376.2c-1.15.45-14.71,5.07-14.87,4.14,5.16-1.08,19.82-8.18,21.69-8.53,6.26-1.17-5.78,3.97-6.82,4.39ZM91.98,370.59c11.83-5.34,23.53-10.78,33.88-18.77l.73.24c-10.34,7.94-21.99,14.73-34.61,18.52ZM111.72,355.24c-19.54,8.37-9.17,1.61,3.41-2.44q5.85-3.41,11.7-6.82c5.07-1.31-11.84,7.86-15.11,9.26ZM104.41,317.71l.97,14.14c-1.32.29-1.56-12.91-.97-14.14ZM116.1,345c-10.73,1.26,8.74-2.15,17.06-10.24,3.2,1.77-15.24,10.25-17.06,10.24ZM117.32,332.57c7.92-3.06,16.12-6.17,22.18-12.43.94,5.08-21.8,14.08-22.18,12.43ZM125.61,317.46l22.66-17.3.73.73c-1.62,1.92-22.68,18.2-23.4,16.57ZM152.17,287l1.22.24c-3.01,5.01-9.89,5.81-1.22-.24ZM151.69,271.89l.73.24c-7.98,9.08-3.2,16.03,1.46,4.87h.97c-5.09,12.6-12.97,5.85-3.17-5.12ZM125.85,306.01c-1.53-.3,12.48-26.06,13.65-27.78q-6.82,13.89-13.65,27.78ZM124.15,280.91c.41-.54,1.58-.07,1.71-.24,3.26-4.26,7.28-8.06,10.72-12.19l.24,1.22c-2.52,3.25-11.68,12.42-12.19,13.16-1.67,2.48-9.42,21.17-10.24,24.37-.44,1.7-1.88,14.59-1.95,6.82-.05-5.45,10.63-31.74,11.7-33.14ZM101.97,296.75l.73.24c-2.94,8.95-3.09,18.28-4.14,27.54-.69-9.38,1.07-18.74,3.41-27.78ZM92.46,308.2c3.41,5.12,1.9,23.85,4.63,30.95,1.93-3.57,12.92-54.99,15.6-54.1-6.14,18.34-9.48,37.72-15.84,55.81.71,7.33-1.56-4.93-1.95-8.29-.7-5.91-.3-13.93-1.46-19.5-.43-2.06-4.41-10.04-.97-4.87ZM88.81,317.71c1.11,3.89,3.63,26.96,8.29,27.3.8.06,2.51-1.79,3.17-2.44.07-.11.38-2.44,1.95-1.71-1.46,2.13-1.86,1.62-1.95,1.71-.11.17-.04,1.72-2.19,3.41-6.04,1.33-9.45-23.85-9.26-28.27ZM84.18,333.06c-1.56,3.72-.76-5.38-1.22-8.04l1.22,8.04ZM81.74,318.44l.24-.24c.79,2.77-.49,3.5-.24.24ZM76.14,326.97c-.37,12.66.32,25.58,4.87,37.53-4.71-2.57-6.89-37.53-4.87-37.53ZM74.67,342.08c-1.1,17.3-1.7,24.33,4.87,40.94-7.25-12.89-7.31-26.68-4.87-40.94ZM66.88,394.23c.89-.24,2.31,12.71,3.17,14.38,0,4.07-2.81-8.04-3.17-14.38ZM72.97,397.89c-.23-2.16-3.62-18.84-2.68-19.25.8,1.98,3.59,19.8,2.68,19.25ZM73.21,409.34c3.32-12.09,7.64-24.05,11.94-35.83,1.8-4.92,6.9-14.75,6.82-15.6-.02-.24-1.49-1.6-2.44-4.14-7-7.76-7.08-30.45-4.39-10.97,1.21,3.76,3.01,7.28,4.39,10.97,2.07,2.3,2.09,3.3,3.9,1.46.09-.1-.35-1.3.73-1.95.75.7-.7,1.85-.73,1.95-6.28,18.13-14.59,35.7-20.23,54.1ZM86.37,408.85c-13.57,5.89-11.76,3.03,3.9-2.92,2.69-.56-.6,1.49-3.9,2.92ZM98.56,394.72c2.09.31-2.84,2.66-6.34,4.87-21.73,6.47-1.58.52,6.34-4.87Z"/>
<path class="cls-12" d="M217,248.98c3.61-1.93,9.64-16.51,10.97-20.72,13.9-44.02-1.19-93.92-35.83-124.05-3.82-3.33-29.39-21.12-32.17-21.93-5.44-1.6-9.25.25-9.99,5.85-1.71,12.94,5.43,61.37,8.77,76.28,5.79,25.77,19.79,64.62,42.41,80.18,4.52,3.11,10.15,7.43,15.84,4.39ZM224.07,196.1l.24-.24c.77,2.19-.46,2.81-.24.24ZM197.02,151.01c1.49,2.86,2.22,8.44,1.71,11.45-1.22,7.18-2.19-2.8-1.71-11.45ZM195.07,119.33c2.8,2.68,1.2,3.71-.24.24l.24-.24ZM193.36,117.62l.24-.24.24.24.24.24.24.24-.24.24h-.49l-.24-.24v-.49ZM191.9,115.67l.24-.24.24.24.24.24.24.24-.24.24h-.49l-.24-.24v-.49ZM184.83,131.51c.96-.44,7.23,15.14,4.87,15.11-1.46-1.17-5.67-14.74-4.87-15.11ZM160.22,126.39c-1.54,7.58-2.34-11.59-1.22-18.77.88,4.29,1.92,15.32,1.22,18.77ZM163.63,131.76l.24-.24c2.86,19.8-2.63,21.99-.24.24ZM167.04,159.54l4.63-12.92c3.05-1.76-4.44,19.25-4.63,12.92ZM175.08,163.19l.97,19.98c-1,.15-2.64-17.62-.97-19.98ZM177.76,141.02l.24-.24c3.38,6.74,1.9,8.14-.24.24ZM181.17,148.82c2.95,6.34.51,5.7-.24-.24l.24.24ZM181.17,189.76c.07-.47.93-3.5,1.22-3.66,1.25-.66-.47,3.59-.24,7.55,5.21,24.22-2.36,5.69-.97-3.9ZM186.29,165.14c-1.28-1.98-1.09-4.01-1.22-4.39-.16-.49-.33-.98-.49-1.46-.16-.49-.32-.97-.49-1.46-.06-.19-2.01-2.49-1.22-3.9,1.44,2.06,1.12,3.61,1.22,3.9.16.49.33.97.49,1.46.15.45.35,1.02.49,1.46.34,1.11,1.88,3,1.22,4.39ZM190.68,205.11l2.44,16.08c-1.29.31-3.57-14.64-2.44-16.08ZM196.53,196.83c-1.15-1.78-1.26-4.89-1.71-6.34-.16-.51-.33-.98-.49-1.46-.47-1.46-.99-2.9-1.46-4.39-.16-.5-.34-.99-.49-1.46-.33-.99-.64-1.93-.97-2.92-.67-1.97-1.3-3.88-1.95-5.85-.53-1.58-1-2.65-1.46-4.39-.03-.07-.71.21-.49-1.46l-.24-1.46.24,1.46c.83,0,.34.89.49,1.46.64,1.68.93,2.79,1.46,4.39.66,1.98,1.31,3.85,1.95,5.85.34.99.65,1.94.97,2.92.15.47.33.97.49,1.46.5,1.5.98,2.85,1.46,4.39.15.48.33.96.49,1.46.62,2.01,2.19,4.01,1.71,6.34ZM196.77,197.56l.24-.24c2.19,4.94.77,6.28-.24.24ZM199.21,205.11l-.49-1.46-.24-1.46.24,1.46.49,1.46.24,1.46-.24-1.46ZM199.45,125.66c.98.66.68,1.4.73,1.46,4.11,4.49,6.49,10.26,9.26,15.6,2.7,4.92,4.8,8.86,6.82,14.14,4.87,11.59,9.01,23.66,8.53,36.56-1.04-12.66-3.97-24.7-8.53-36.56-1.51-3.6-4.93-10.49-6.82-14.14-2.9-5.28-6.55-10.17-9.26-15.6-.04-.07-1.58-.57-.73-1.46ZM201.89,166.12l.97,15.11c-1.93-4.5-2.44-10.35-.97-15.11ZM207.74,198.29c-.85-.14.06-13.01,1.46-15.11.95.15-.52,13.67-1.46,15.11ZM211.15,203.65l.97,15.6c-1.3-4.88-2-10.7-.97-15.6Z"/>
<path class="cls-12" d="M262.57,264.58c1.05,4.35,1.78,3.66,5.85,4.39-.18-1.15.48-.92.49-.97,1.85-11.55,3.1-14.66,1.46-.49.09,0,.05.92,1.71.49,3.54-.93,41.08-24.68,46.79-28.76,37.28-26.6,58.56-55.4,76.28-97.48-1.37-6.59-3.53-5.68-6.82-6.34q-55.81,55.69-111.62,111.37l-14.14,17.79ZM316.92,230.95l1.71,1.22c-6.23,6.02-11.57,2.74-1.71-1.22ZM386.13,148.08c7.44,1.35-4.1.94-7.31,8.29-2.44-2.89,3.7-6.78,7.31-8.29ZM374.68,171.24c1.51-3.43,1.24-14.04,7.55-14.87.79-.1,1.64.07,2.44,0,1.68,4.94.21,1.5,0,1.46-9.6-1.72-5.12,15.98-12.19,19.01-5.07.04.44-1.63,2.19-5.61ZM366.15,164.66c5.44,4.79-1.98,19.57-5.12,15.35,9.22-8.17,1.22-14.06,5.12-15.35ZM365.66,182.2c6.41-.9-8.82,12.98-9.99,8.53-.46-1.74,5.29-.57,9.99-8.53ZM355.67,199.51c-10.48,10.98-12.61,4.63-.73-1.71l.73,1.71ZM351.28,186.35c.08-4.84-2.85-4.39-1.22-5.61,8.32,1.56-1.52,21.96-9.26,26.32-9.12.96,10.23-5.31,10.48-20.72ZM330.81,196.1l.73-.73c4.37-1.08,1.75,20.73-.97,20.47-2.89-.27,3.69-11.67.24-19.74ZM335.44,212.42l1.22.24c-1.16,14.67-10.53,9.41-11.45,9.5-1.71.18-6,7.57-9.02,4.63,10.26-11.88,15.5.79,19.25-14.38ZM313.02,219.74c3.56-.93-3.36,17.7-5.85,16.08q2.92-8.04,5.85-16.08ZM301.57,244.84c-7.25,7.61-8.85,2.34-1.22-2.19l1.22,2.19ZM296.45,234.85c4.02-.97-4.55,14.53-5.36,14.14-1.29-.62,4.93-12.63,5.36-14.14ZM285.24,249.95l4.39.49c4.44,3.08-5.24,3.65-4.39-.49ZM281.83,249.47l1.22.24c-4.45,4.25-.44,12.38-2.68,12.43-1.53.03-2.24-10.25,1.46-12.67Z"/>
<path class="cls-20" d="M347.14,151.98c-32.34,17.08-53.16,38.88-70.43,70.92-4.9,9.09-8.51,19.97-14.14,28.03-.07,4.6-1.11,9.05,0,13.65l14.14-17.79q55.81-55.69,111.62-111.37c-3.89-.77-6.99.07-10.72,0-4.59,6.79-21.73,11.96-30.46,16.57Z"/>
<path class="cls-20" d="m159.73 271.4c2.53 23.51-15.69 64.63-27.3 85.54-14.72 26.52-33.66 44.19-55.57 64.58 12.18-1.38 31.51-8.92 41.67-16.08 32.21-22.69 68.46-97.23 41.19-134.04z"/>
<path class="cls-12" d="M289.87,373.27c4.19-2.38-2.98-5.48,3.41-4.63.64-5.7-1.96-9.24-1.95-9.75.01-1.31,1.31-.25,1.46-1.22-.75.26-2.34-2.59-2.44-2.92-2.22,2.58-3.67-2.56-4.39-4.39-.21-.53-2.98-.11,0-5.85.35-.67.57-.3.97-.97-1.2-1.6,0-2.32,0-2.44-.01-1.35-.38-2.82-1.95-2.44-2.6,2.84-2.73-2.7.97-4.87-.05-1.47-1.65-3.56,0-3.9-1.41-4.56-4.2-11.04-1.46-11.7-4.99-11.07-18.38-34.72-32.41-32.66-6.05.89-18.91,11.1-23.15,15.84-26.38,29.45-22.66,80.58-2.92,112.59,4.88,7.92,20.22,27.12,29.49,28.51,18.33,2.75,36.61-40.54,39.24-59.95-6.66-6.81-16.04-27.12-4.87-9.26ZM291.57,367.42c-2.24-3.28-5.69-6.65-5.85-10.72,3.05,2.75,5.86,6.37,5.85,10.72ZM279.88,318.68c.54,0,2.89,8.47,1.95,9.26-1.91,1.62-4.27-7.88-1.95-9.26ZM274.27,311.61l2.19-1.22c4.62-.64-2.67,3.06-2.19,1.22ZM265.5,426.64c-2.07,2.35-1.33,16.26-19.98-.24-1.11-.98-1.91-1.88-2.92-2.92-26.61-27.47-35.79-81.96-11.21-113.08.63-.8,1.35-1.26,1.95-1.95,16.96-19.44,24.06-18.87,34.61-3.41,1.69,2.47,2.59,4.17,3.9,6.82.4.81,1.3,1.83,1.95,3.41,1.5,3.63,2.38,7.44,3.41,11.21.53,1.93.4,3.05.49,3.41.75,3.08,1.88,6.11,2.44,9.26.26,1.47.28,2.95.49,4.39.26,1.79.77,3.52.97,5.36.43,3.89.82,7.78.97,11.7.05,1.3-.02,2.6,0,3.9.18,10.28-.18,19.57-1.95,29.73-.89,5.08-5.28,21.72-7.31,25.59-3.15,6.01-6.84,5.73-7.8,6.82ZM279.88,411.78l2.68,1.71c.55,2.14-2.06.69-2.68-1.71ZM283.29,399.1l2.68,1.71c.64,4.44-5.41-.99-2.68-1.71ZM287.68,382.05l1.22,1.22c.15,12.83-5.76,8.24-1.22-1.22Z"/>
<path class="cls-20" d="m158.75 164.41c-3.35-14.91-10.48-63.34-8.77-76.28-28.58 49.2-11.68 142.88 51.18 156.46-22.61-15.56-36.62-54.41-42.41-80.18z"/>
<path class="cls-20" d="M318.87,239.23c-5.71,4.07-43.25,27.83-46.79,28.76-1.66.44-1.62-.48-1.71-.49-.45-.02-.65.72-1.46.49,0,.05-.67-.18-.49.97,10,1.79,23.82-1.95,33.63-4.39,1.23-1.86-1.64-.99-1.46-2.19,18.05-7.52,9.59-6.63,11.45-8.53,1.2-1.22,10.06.68,30.71-14.14,14.28-10.25,28.9-26.16,36.31-42.16,1.18-2.54.28-4.9.49-5.36,4.03-8.82,9.24-17.06,12.67-26.32,1.33-3.59,1.63-8.39,2.92-8.04.16-2.8.4-14.17,0-16.08-17.72,42.08-39,70.88-76.28,97.48Z"/>
<path class="cls-12" d="M276.71,222.9c17.27-32.04,38.09-53.84,70.43-70.92,8.73-4.61,25.88-9.78,30.46-16.57-6.28-.11-12.47-.75-18.77,0-30.92,3.67-62.92,33.72-79.69,58.73-13.86,20.66-16.21,32.25-16.57,56.78,5.63-8.06,9.23-18.94,14.14-28.03Z"/>
<path class="cls-12" d="M392.23,165.88c-3.43,9.26-8.64,17.5-12.67,26.32-.21.46.69,2.82-.49,5.36-7.41,16-22.03,31.91-36.31,42.16-20.65,14.82-29.51,12.92-30.71,14.14-1.86,1.89,6.6,1.01-11.45,8.53-.18,1.21,2.69.33,1.46,2.19,22.24-5.53,34.01-11.71,51.42-26.81,25.25-21.89,39.73-46.16,41.67-79.94-1.3-.35-1.59,4.45-2.92,8.04Z"/>
<path class="cls-12" d="M334.47,357.19c25.3,2.63.27-28.9-17.55-25.35-13.08,2.61-1.76,23.34,17.55,25.35Z"/>
<path class="cls-12" d="m441.7 88.62c14.38-4.51-8.67-30.87-23.88-27.3-11.52 2.7 9.05 31.95 23.88 27.3z"/>
<path class="cls-12" d="m174.11 345c-10.95 3.51-17.13 34.12-7.31 40.94 7.82 1.5 22.92-34.58 7.31-40.94z"/>
<path class="cls-12" d="M164.85,414.21c-7.72.29-26.86,23.73-18.03,33.14,18.81,2.25,30.51-33.62,18.03-33.14Z"/>
<path class="cls-12" d="m467.04 150.52c19.47-3.91 30.84-22.15 11.21-20.47-21.11 1.81-35.8 25.41-11.21 20.47z"/>
<path class="cls-12" d="m53.72 143.21c-19.37 14.62 33.46 26.94 29.98 11.94-1.07-4.6-22.77-13.52-29.98-11.94z"/>
<path class="cls-12" d="M314.97,115.92c-7.5.74-24.03,15.8-17.06,23.88,20.47,3.73,35.54-25.7,17.06-23.88Z"/>
<path class="cls-12" d="m332.52 98.37c22.95 5.41 6.73-25.36-10.24-21.93-12.19 2.46-2.17 19.01 10.24 21.93z"/>
<path class="cls-12" d="M386.13,383.51c1.74.65,4.38.03,5.85.49,1.67.52,14.85,8.75,23.15-.49-.93-2.76.22-4.19-2.44-8.04-5-7.24-26.97-11.15-31.93-1.71-.59-6.84,9.62-7.66,15.35-8.29-19.37-1.45-26.85,11.71-9.99,18.03ZM392.96,382.05c-3.18-3.02,4.18-7.42,6.82-7.8,13.38-1.9,21.73,16.08-6.82,7.8ZM394.91,371.32l1.95,1.46c-13.47,8.28-6.33-1.59-1.95-1.46Z"/>
<path class="cls-12" d="m23.98 342.08c11.07 4.5 9.3-25.79-14.14-28.27-11.27 1.68 12.47 27.59 14.14 28.27z"/>
<path class="cls-12" d="M40.55,444.43c-6.5.37-12.5,7.73-5.85,12.19,3.01,2.02,31.69,7.27,28.03-4.14-1.64-5.1-17.5-8.31-22.18-8.04Z"/>
<path class="cls-12" d="M297.42,459.06c-6.43.83-21.74,21.22-12.67,26.81,8.3,2.93,25.76-28.49,12.67-26.81Z"/>
<path class="cls-21" d="M340.32,293.82c.47-.11,6.6,5.83,8.29,4.39,2.73-3.1-2.95-7.87-1.22-10.24-13.41-14.98-33.5-4.87-14.14,9.26,9.8.95,5.48-3.02,7.07-3.41ZM327.4,288.22l.73-1.22c1.93,1.61,1.05,4.03-.73,1.22ZM332.52,285.54l1.71.73c-.34,1.02-2.45.44-1.71-.73Z"/>
<path class="cls-12" d="M435.61,236.79l-.97,1.95c.47.75.29,2.28.49,2.92.21.7.94,1.54.97,1.95.73,8.22-7.84-3.48-10.48-7.8l-1.22.97c.14,1.07,2.18,4.99,2.92,6.09,3.37,4.95,20.47,15.29,26.56,13.89,8.82-2.03-1.53-17.94-5.36-20.96-3.49-2.75-6.72-2.77-7.07-2.92.05,6.47-3.16,14.73-5.85,3.9ZM440.48,245.08c1.89-.34,4.23.84,5.36,2.44,3.62,3.98-7.39,2.07-5.36-2.44ZM452.67,254.34c-7.87,1.4-2.94-6.33,1.46-6.82,1.52-2.13,4.69,5.73-1.46,6.82ZM440.97,240.94l1.71-2.68c12.09,2.12,9.39,15.23-1.71,2.68Z"/>
<path class="cls-12" d="M126.1,184.15c-3.71,1.45-10.06-6.67-8.77-9.5.36-.8,8.9,1.11,9.26,1.71-3.97-6.18-11.94-4-17.55-1.46,3.15.73-1.62,2.84-2.44,9.26.11.06,1.18,1.62,1.46,1.95.68.8,3.5.62.73,2.92-6.62.96-12.28-3.74-5.12-7.8-.1-.07-1.16-1.47-1.46-1.95-2.67,2.15-8.38,6.15-5.85,9.99,1.28,1.94,23.43,4.65,29.73-5.12ZM111.23,188.05c-1.72-4.21-6.1-5.57,1.46-8.77,8.85-.56,5.74,8.62-1.46,8.77Z"/>
<path class="cls-21" d="M35.19,368.88c-4-8.15-5.45-6.6-9.5-7.8-1.72,3.04,3.5,5.29,4.39,6.58,3.93,5.77,1.05,10.35,3.9,15.6l-1.46.73c12.4,9.56,16.35,3.1,10.24-11.21-3.46,2.3-3.4-9.02-7.55-3.9ZM37.63,372.3l1.22.73c4.22,19.52-10.26,8.86-1.22-.73Z"/>
<path class="cls-11" d="M186.05,83.75c-.67-5.85-1.3-11.99,3.41-16.57-.03-6.93-2.24,2.92-11.21-5.85-2.27-9.89,5.11-2.09,7.8,0,1.6,1.24,1.25,1.44,3.41.97-16.13-25.32-23.04,18.94-3.41,21.45ZM176.06,64.25c7.98,1,9.66,8.55,7.8,9.26-8.77-1.05-8.88-9.09-7.8-9.26Z"/>
<path class="cls-12" d="M285.97,329.89c1.04,3.36,3.24,7.01,3.9,10.48.56,2.95.37,10.3.49,11.45,2.73.54,2.76,3.74,2.44,5.85-.15.97-1.45-.1-1.46,1.22,0,.51,2.59,4.05,1.95,9.75-6.39-.85.78,2.25-3.41,4.63,1.62,2.6,3.02,5.34,4.87,7.8,2.67-22.59-.92-42.2-10.24-62.88-2.73.66.05,7.14,1.46,11.7Z"/>
<path class="cls-12" d="M430.73,410.32c9.61-5.38.41,3.64,17.79,0-1.85-9.75,8.54-13.08,11.94-4.87,3.75-5.4,2.49-5.27-2.44-7.8-8.01,6.58-20.79-1.68-7.8-2.44-7.44-.41-7.16,1.41-7.55,1.46-1.21.14-.87-1.87-6.58.49.99,1.77-4.56,5.82-.97,4.39,2-.8,4.27-2.6,6.34-1.46,2.44.47,1.57,4.89,2.44,8.04-6.39,3.51-7.58-2.79-9.5-3.17-3.3-.66-3.86,3.43-6.09,1.46.06,1.21,1.08,3.43,2.44,3.9Z"/>
<path class="cls-12" d="M410.75,174.65c-1.12,2.58-.39,9.11-4.87,8.04-.04,1.49-.1,4.06,1.46,4.87,4.55-3.13,8.72-.95,13.16-8.04,2.35-3.75,3.14-10.98,4.87-9.5.46-2.77,1.04-5.53,0-8.29-2.77,8.17-10.57,3.58-14.62,12.92ZM413.19,179.04c0-.98.94-1.62.97-1.71.86-1.99,1.57-3.16,3.41-4.39,9.09-6.07,1.2,7.5-4.39,6.09Z"/>
<path class="cls-12" d="M253.31,136.87c2.63-1.97,4.67-2.39,7.31,0-.05-.79-.15-1.52.49-1.46-1.67-7.04-.26-14.91-2.92-21.93-.59-.1-2.38-.11-2.92,0,1.46,2.8,4.44,17.53,1.71,18.52-5.87,2.14-3.01-12.97-6.09-14.62-5.09,7.37-2.93,17.43,0,25.35,1.14-1.31-1.22-3.11,2.44-5.85Z"/>
<path class="cls-12" d="M140.23,64.25c-.58.05-.69-4.51-.49-5.12.33-.96,3.37-2.56,4.39-3.17,6.58-3.96,8.2-3.76,9.26,4.39.72-.36,1.21-.55,1.95-.97-1.22-5.1-4.47-6.25,0-9.26,6.22-4.18,8.4,3.54,8.29-5.61-4.85-6.12-12.6,9.93-14.14.49,3.33-4.53,8.02-2.85,7.8-4.63-6.23.41-8.96,4.04-10.72,5.36,1.64.14.59,4.95,0,6.09-1.47,2.85-5.58,2.87-8.29,2.68-2.08,3.69-5,9.02,1.95,9.75Z"/>
<path class="cls-20" d="M178.98,276.28c4.89-.5,2.05,1.7,3.66,5.61,9.15,22.29,17.3,1.52-1.95-10.48-6.78.86-3.27,12.67,1.46,19.5,3.71-3.36-5.24-7.72-3.17-14.62Z"/>
<path class="cls-20" d="M265.01,140.77c1.27-1.75,2.26-3.55,3.41-5.36.11-6.01-3.04-20.76-10.24-21.93,2.66,7.02,1.25,14.89,2.92,21.93.36,1.52,2.37,7.31,3.9,5.36Z"/>
<path class="cls-12" d="m180.69 271.4c19.25 11.99 11.1 32.77 1.95 10.48-1.6-3.91 1.24-6.1-3.66-5.61-2.07 6.91 6.88 11.26 3.17 14.62 1.59 2.3 1.41 2.62 3.9 4.39 1.6-2.7 9.24-2.58 7.8 1.46 9.13-4.89-5.75-26.29-13.16-25.35z"/>
<path class="cls-20" d="M33.97,383.26c-2.85-5.25.03-9.83-3.9-15.6-.88-1.29-6.11-3.54-4.39-6.58-.1-.03-1.4-.88-1.95-.97-6.03,6.65,3.11,19.52,8.77,23.88l1.46-.73Z"/>
<path class="cls-20" d="M473.87,86.67c7.7,1.22,14.26-4.55,16.33-11.7-3.49-.12-2.12-7.28-6.82-5.61,3.99,4.96,5.69,8.63,0,12.92-3.06,2.31-8.14,4.39-9.26-.97-1.36-6.5,10.36-17.5,14.38-10.72,2.05-2.79-1.39-4.2.73-4.87-8.82-3.73-24.46,13.23-15.35,20.96Z"/>
<path class="cls-21" d="M393.44,97.39c3.42,5.36,18.27,16.83,10.97,1.46-.05-.11-1.19.25-1.46-.24-.19-.34,0-3.57-.97-4.87-2.03-2.75-14.09-2.5-13.16,3.17,1.22,2.42,2.94,3.79,3.41,4.39,1.88.23-.27-1.19,1.22-3.9ZM403.19,99.83c1.87.66,2.67,7.3-1.22,2.68l1.22-2.68ZM397.83,94.96c4.59,1.07,2.04,5.47-.73,1.71l.73-1.71Z"/>
<path class="cls-6" d="m448.52 410.32c-17.38 3.64-8.18-5.38-17.79 0 5.98 5.78 24.95 2.01 29.73-4.87-3.4-8.21-13.8-4.88-11.94 4.87zm2.68-6.58 3.17-1.71c6.41 0.32-6.7 7.45-3.17 1.71z"/>
<path class="cls-12" d="M404.41,98.86c7.31,15.37-7.55,3.9-10.97-1.46-1.49,2.71.66,4.13-1.22,3.9,18.07,22.64,23.9-1.52,9.75-10.24-.99,2.41,4.56,2.53,2.44,7.8Z"/>
<path class="cls-21" d="M410.75,174.65c4.05-9.33,11.85-4.74,14.62-12.92-1.06-2.83-3.28-2.91-5.85-2.44l-.97,1.22c7.22,2.12-6.56,4.76-9.02,11.94-.65-4.18,7.2-7.88,2.19-6.34-2.88,4.37-5.7,11.35-5.85,16.57,4.48,1.07,3.75-5.46,4.87-8.04Z"/>
<path class="cls-20" d="M380.77,373.76c4.95-9.45,26.93-5.54,31.93,1.71,2.66,3.85,1.51,5.28,2.44,8.04,4.53-9.4-9.48-17.32-19.01-18.03-5.73.62-15.94,1.44-15.35,8.29Z"/>
<path class="cls-21" d="M434.39,404.95c1.92.38,3.11,6.68,9.5,3.17-.87-3.15,0-7.57-2.44-8.04.3,1.84-6.76,3.46-6.34,1.46-3.58,1.43,1.96-2.62.97-4.39-3.32,1.37-7.98,5.29-7.8,9.26,2.24,1.97,2.79-2.12,6.09-1.46Z"/>
<path class="cls-6" d="M149.49,45c1.53,9.44,9.28-6.61,14.14-.49.11,9.15-2.07,1.43-8.29,5.61l1.46.49c4.15-2.84,3.68.82,3.9.97,1.17.84,1.71,1.5,2.92.97,4.76-7.25,2.92-12.8-6.34-12.19.22,1.78-4.46.1-7.8,4.63Z"/>
<path class="cls-12" d="M348.6,298.21c-1.68,1.44-7.82-4.5-8.29-4.39-1.59.39,2.74,4.36-7.07,3.41,14.97,10.92,23.66,1.38,14.14-9.26-1.73,2.36,3.95,7.14,1.22,10.24Z"/>
<path class="cls-20" d="M256.97,132c2.73-.99-.25-15.73-1.71-18.52-2.63.52-3.06,1.98-4.39,3.9,3.09,1.65.22,16.76,6.09,14.62Z"/>
<path class="cls-21" d="M488.49,70.59c-4.02-6.78-15.74,4.23-14.38,10.72,1.84-2.72,3.98-10.1,7.8-9.26,3.43-.6,1.93,6.76.49,9.26.05.05.91.24.97.97,5.69-4.29,3.99-7.95,0-12.92,4.71-1.67,3.34,5.48,6.82,5.61.79-2.74,2.58-7.92-.97-9.26-2.12.67,1.31,2.08-.73,4.87Z"/>
<path class="cls-12" d="m252.82 147.11c7.62 11.83 15.35 1.93 15.6-11.7-1.15 1.81-2.15 3.61-3.41 5.36-2.76 3.82-7.01 9.33-12.19 6.34z"/>
<path class="cls-21" d="M189.7,79.85c-2.68-4.02-.23-8.43-.24-12.67-4.71,4.59-4.08,10.72-3.41,16.57,10.15,1.29,8.22-8.7,6.34-15.11-3.7,1.51,2.68,9.67-2.68,11.21Z"/>
<path class="cls-6" d="M186.05,61.32c-2.15,1.6-5.72-4.41-7.31-1.71-.25.43,1.5,1.81-.49,1.71,8.97,8.77,11.18-1.08,11.21,5.85.02,4.24-2.44,8.66.24,12.67,5.36-1.54-1.02-9.7,2.68-11.21-.82-2.77-1.38-3.92-2.92-6.34-2.16.47-1.81.27-3.41-.97Z"/>
<path class="cls-20" d="M474.11,41.83c-2.45,2.89-9.1,16.6-12.67,12.67-.69.47-1.22,1.07-1.95,1.46,6.1,4.72,18.1-5.52,16.57-14.62-2.79-.62-1.57.04-1.95.49Z"/>
<path class="cls-12" d="M464.36,50.6h.49c.29-.89-.29-3.26,0-4.14.23-.7,4.22-3.75,4.87-4.87.54-.92-.51-1.16-.49-1.22-5.91,2.53-3.63-.58.49-4.39-5.02-.08-10.96,5.81-12.19,10.24,1.46.41,3.06.68,4.39,1.46,1.35.79,2.26.89,2.44,2.92Z"/>
<path class="cls-12" d="M401.97,93.74c.97,1.31.79,4.54.97,4.87.28.49,1.41.14,1.46.24,2.13-5.27-3.43-5.39-2.44-7.8-6.93-4.26-19.08-5.84-13.16,5.85-.93-5.67,11.13-5.92,13.16-3.17Z"/>
<path class="cls-20" d="M35.19,368.88c4.15-5.12,4.09,6.2,7.55,3.9-3.77-8.82-13.08-19.22-19.01-12.67.55.09,1.85.94,1.95.97,4.06,1.2,5.5-.35,9.5,7.8Z"/>
<path class="cls-12" d="M434.63,238.74l.97-1.95c-1.48-5.98,1.3-3.92,3.41-5.36-5.5-1.74-11.18-4.17-14.62,2.44,3.34.55,8.31,1.78,10.24,4.87Z"/>
<path class="cls-21" d="M117.32,174.65c-1.29,2.84,5.06,10.95,8.77,9.5,2.17-3.36,2.81-4.18.49-7.8-.36-.6-8.9-2.5-9.26-1.71ZM123.9,181.23l-4.39-5.36c5.4-.07,7.25,5.44,4.39,5.36Z"/>
<path class="cls-20" d="M257.7,145.16c-2.92-4.09,5.59-9.74-4.39-8.29-3.66,2.74-1.3,4.54-2.44,5.85.39,1.05.41,1.26.97,2.44,2.24,1.02,3.59,1.15,5.85,0Z"/>
<path class="cls-21" d="M144.13,55.96c-.26,9.5,4.8,3.15,7.31,5.36.8-.32,1.23-.62,1.95-.97-1.06-8.14-2.68-8.34-9.26-4.39ZM150.22,57.91c-6.79,3.03-5.44.49,0-1.95v1.95Z"/>
<path class="cls-6" d="M436.09,243.62c-1.44.96-4.17-4.06-5.61-5.36-.25-.23-8.09-4.72-.97-1.95,1.95.76,3.96,4.11,5.61,5.36-.19-.64-.02-2.17-.49-2.92-1.93-3.09-6.9-4.32-10.24-4.87.08.96-.12,1.98,0,2.92l1.22-.97c2.64,4.32,11.21,16.02,10.48,7.8Z"/>
<path class="cls-20" d="M458.03,397.64c-3.02-1.55-4.13-2.23-7.8-2.44-13,.76-.22,9.02,7.8,2.44Z"/>
<path class="cls-21" d="M435.61,236.79c2.69,10.83,5.89,2.57,5.85-3.9-.37-.16-.95-.99-2.44-1.46-2.11,1.44-4.9-.62-3.41,5.36Z"/>
<path class="cls-20" d="m420.5 179.52c-4.44 7.1-8.61 4.92-13.16 8.04 4.92 5.13 16.12-5.93 18.03-17.55-1.74-1.47-2.52 5.75-4.87 9.5z"/>
<path class="cls-21" d="M146.57,51.82c.59-1.14,1.64-5.95,0-6.09-3.91,2.93-5.8,4.36-8.29,8.77,2.71.19,6.81.17,8.29-2.68Z"/>
<path class="cls-21" d="M144.13,55.96c-1.02.61-4.06,2.21-4.39,3.17-.21.61-.09,5.17.49,5.12,3.26.34,8.16-1.69,11.21-2.92-2.51-2.22-7.57,4.14-7.31-5.36Z"/>
<path class="cls-21" d="M459.49,55.96c.73-.39,1.26-.99,1.95-1.46,2.04-1.4,2.44-.92,3.41-3.9h-.49c-3.65,1.57-5.66-1.1-2.44-2.92-1.32-.78-2.93-1.06-4.39-1.46-.9,3.27-1.02,7.46,1.95,9.75Z"/>
<path class="cls-20" d="M160.7,51.58c-4.21,6.58-8.15,1.94-3.9-.97l-1.46-.49c-4.47,3.01-1.22,4.16,0,9.26,3.06-1.79,6.29-3.78,8.29-6.82-1.21.52-1.76-.14-2.92-.97Z"/>
<path class="cls-21" d="M265.01,140.77c-1.53,1.95-3.54-3.84-3.9-5.36-.64-.06-.54.68-.49,1.46.13,1.99,1.66,5.95-2.92,8.29-2.26,1.15-3.61,1.02-5.85,0,.29.6.29.88.97,1.95,5.18,3,9.43-2.52,12.19-6.34Z"/>
<path class="cls-12" d="M409.53,172.46c2.45-7.18,16.24-9.82,9.02-11.94l.97-1.22c-4.31.79-5.63,3.54-7.8,6.82,5.01-1.54-2.85,2.16-2.19,6.34Z"/>
<path class="cls-6" d="M469.24,40.37c.49-1.11,1.92-2.13,3.17-1.46,1.68.89-1.28,3.42,1.71,2.92.38-.45-.84-1.1,1.95-.49-.56-3.34-3.12-5.31-6.34-5.36-4.11,3.8-6.4,6.92-.49,4.39Z"/>
<path class="cls-11" d="M106.11,184.15c.14.06.37-.06.49,0,.82-6.42,5.59-8.53,2.44-9.26-1.19.54-5.73,3.51-6.82,4.39.3.48,1.36,1.88,1.46,1.95,1.36,1.02,3,.19,2.44,2.92Z"/>
<path class="cls-21" d="M186.05,295.28c.86.61,3.85,4.36,7.8,1.46,1.44-4.04-6.2-4.16-7.8-1.46Z"/>
<path class="cls-13" d="M294.74,382.53c.06-.47-.06-.99,0-1.46-1.85-2.46-3.25-5.2-4.87-7.8-11.17-17.86-1.79,2.45,4.87,9.26Z"/>
<path class="cls-13" d="M23.25,116.4c1.19,3.4,1.38,2.78,1.46,2.92l5.36-12.43c-.94-3.53-5.47,10.64-6.82,9.5Z"/>
<path class="cls-6" d="M420.01,463.2c12.22-28.04,4.09-10.16-2.44,3.66,1.75-2.04,1.98-3.37,1.95-1.22-1.73,4.16-4.29,26.22-3.22,34.36h.66c-1.6-7.89,2.63-32.1,3.05-36.8Z"/>
<path class="cls-21" d="m465.58 445.41c-13.66 19.42 22.92 17.25 31.68 2.44-6.2 7.1-20.73 13.55-29.73 10.24-9.04-3.33-1-12.27-1.95-12.67z"/>
<path class="cls-13" d="M475.82,484.4c-8.17,4.82-23.28,6.71-32.66,6.34-4.07-.16-13.09-4.36-12.19.97,2.35-3.73,6.12-.58,9.26-.49,12.25.36,26.04-.46,36.8-6.58l-1.22-.24Z"/>
<path class="cls-14" d="m425.61 488.3c3.9-18.1 7.09-26.69 17.3-41.92-10.47 13.7-15.38 24.37-17.3 41.92z"/>
<path class="cls-21" d="m428.54 486.35c8.45-12.46 14.81-26.26 20.96-39.97q-10.48 19.98-20.96 39.97z"/>
<path class="cls-13" d="M487.52,469.78c-12.85,8.64-28.49,7-43.14,8.53,13.98-.61,32.57,1.11,43.14-8.53Z"/>
<path class="cls-21" d="m411.24 464.42c-6.24 10.02-12.72 20.46-16.57 31.68 5.47-10.57 10.78-21.29 16.57-31.68z"/>
<path class="cls-21" d="M458.03,464.66c9.67,2.71,20.61.7,29.25-4.14-9.16,4.4-19.31,4.98-29.25,4.14Z"/>
<path class="cls-21" d="m448.77 456.38c11.09-27.03-3.31 5.59-6.82 11.94 2.47-3.92 4.84-7.75 6.82-11.94z"/>
<path class="cls-14" d="m431.95 458.08q2.44-9.5 4.87-19.01c-3.3 5.75-5.01 12.34-4.87 19.01z"/>
<path class="cls-14" d="M452.42,433.71c-3.79,3.8-6.54,8.25-9.5,12.67.68-.89,10.9-12.24,9.5-12.67Z"/>
<path class="cls-10" d="M453.15,500c.42-.08.94-.04,1.45,0h1.72c7.58-1.7,13.99-6.88-3.17,0Z"/>
<path class="cls-6" d="M481.91,446.14l-.73-.24c-13.48,6.59-8.27,6.41.73.24Z"/>
<path class="cls-21" d="M479.47,438.83l-.24-1.22c-7.4,6.32-8.02,8.99.24,1.22Z"/>
<path class="cls-21" d="M465.1,440.05c-2.8,1.46-5.97.97-9.02.73,4.55,2.51,12.67-.8,9.02-.73Z"/>
<path class="cls-21" d="M498.97,438.1c-1.52,1.56-5.55,4.37-7.8,5.12,3.27.55,5.91-2.69,7.8-5.12Z"/>
<path class="cls-21" d="m458.03 447.85c-1.4 2.17-3.58 4.49-3.17 7.31 1.3-2.3 1.99-4.97 3.17-7.31z"/>
<path class="cls-21" d="m414.16 459.54c-1.37 1.97-1.8 2.86-2.92 4.87 1.13-1.81 1.87-2.93 2.92-4.87z"/>
<path class="cls-21" d="M414.16,459.54c.82-1.18,2.53-2.15,2.19-3.9-2.54,2.78-2.09,3.7-2.19,3.9Z"/>
<path class="cls-21" d="M491.17,458.08c-.18.14-3.5,2.21-3.9,2.44,2.21-1.06,1.98-.96,3.9-2.44Z"/>
<path class="cls-21" d="M459.98,444.92c-1.18.49-1.47,1.96-1.95,2.92.1-.15,1.8-.8,1.95-2.92Z"/>
<path class="cls-21" d="M440.97,469.78c-.3.52-1.08,1.19-1.95,2.92,2.34-2.56,1.85-2.78,1.95-2.92Z"/>
<path class="cls-21" d="M500.68,435.17c-1.38,1.34-1.59,2.8-1.71,2.92.35-.45,2.4-1.47,1.71-2.92Z"/>
<path class="cls-21" d="M492.63,456.62c.13-.1,2.87-.76,2.19-2.44-.89.62-1.45,1.71-2.19,2.44Z"/>
<path class="cls-21" d="M393.93,498.54c.7-.63.52-1.81.73-2.44-.06.11-1.57,1.28-.73,2.44Z"/>
<path class="cls-21" d="M491.17,458.08c1.09-.84.88-.89,1.46-1.46-1.36,1.02-1.38,1.4-1.46,1.46Z"/>
<path class="cls-21" d="M405.63,486.35c-1.21-.15-.53,1.07-.73,1.46.02-.08,1.18-.93.73-1.46Z"/>
<path class="cls-21" d="M438.29,474.17c.98-.66.68-1.4.73-1.46-.04.07-1.58.57-.73,1.46Z"/>
<path class="cls-21" d="M441.94,468.32c-.28.45-.67.99-.97,1.46.04-.08.32-.28.97-1.46Z"/>
<path class="cls-3" d="M459.98,444.92l.97-.73"/>
<path class="cls-21" d="m417.82 452.72-0.24 0.24v0.49l0.24 0.24 0.72-0.72-0.24-0.24h-0.49z"/>
<path class="cls-21" d="M326.67,447.36c3.97,15.49,16.44,26.67,28.27,36.56l.73-.73c-12.93-10.55-22.73-19.96-29-35.83Z"/>
<path class="cls-6" d="M351.28,439.8c-1.58-11.76,3.75-23.31,2.19-34.85.04,11.06-3.94,21.87-3.17,32.9.84,11.93,8.16,26.63.97,1.95Z"/>
<path class="cls-21" d="m333.01 424.45c1.92 17.24 14.65 26.59 22.18 39.97-1.81-8.27-11.3-15.17-15.6-23.15-3.27-6.08-5.71-17.05-6.58-16.82z"/>
<path class="cls-20" d="m367.37 442.73c-2.16 5.52-5.61 10.55-7.07 16.33 7.05-10.27 9.67-24.31 11.45-28.51 1.73-4.08 5.2-3.34 2.19-4.63-3.73 1.67-4.23 10.82-6.58 16.82z"/>
<path class="cls-6" d="m375.9 453.7c-4.23 10.91-10.89 20.23-17.55 29.73 7.56-7.83 15.33-19.14 17.55-29.73z"/>
<path class="cls-21" d="M355.43,467.83c-8.44-5.65-13.88-14.11-19.74-22.18,4.8,9.81,11.93,18.33,21.2,24.13,2.64-1.62-.41-3.05-1.71-5.36.4,1.81,1.33,2.86.24,3.41Z"/>
<path class="cls-21" d="m347.14 404.47c-4.08 12.68-5.04 38.48 4.87 48.25-9.48-14.26-7.76-32.18-4.87-48.25z"/>
<path class="cls-10" d="m358.84 496.59c4.89-2.03 17.35-20.71 15.11-21.45-4.04 7.91-9.66 14.52-15.11 21.45z"/>
<path class="cls-6" d="m361.76 444.43c3.29-10.97 2.19-28.9-2.44-39.48 3.65 12.91 4.72 26.22 2.44 39.48z"/>
<path class="cls-21" d="M339.83,409.83c-.7,9.11-.09,18.57,2.92,27.3-2.04-9.09-1.82-18.11-2.92-27.3Z"/>
<path class="cls-21" d="m338.61 486.35c-4.96-8.64-10.35-16.95-13.89-26.32 1.82 10.14 8.71 17.91 13.89 26.32z"/>
<path class="cls-10" d="M374.19,414.46l-1.71-.24c-4.11,4.42,4.26,8.58,1.71.24Z"/>
<path class="cls-21" d="m368.83 402.76-2.19-4.14c-2.18-0.22 2.22 8.21 2.19 4.14z"/>
<path class="cls-20" d="M372.24,407.15l-2.68-.73c-3.02,3.39.61.2,2.68.73Z"/>
<path class="cls-21" d="M343,494.15c.74,1.32,1.06,2.01,1.95,3.41-1.64-3.48-1.86-3.24-1.95-3.41Z"/>
<path class="cls-21" d="M340.56,489.76c-.66-1.09-1.23-2.25-1.95-3.41.65,1.12,1.31,2.29,1.95,3.41Z"/>
<path class="cls-21" d="M343,494.15c-.4-.7-.78-1.65-1.38-2.76.22.45.79,1.68,1.38,2.76Z"/>
<path class="cls-21" d="M341.62,491.4c-.04-.08-.07-.15-.09-.17.03.06.05.11.09.17Z"/>
<path class="cls-21" d="M344.95,497.56c.27.57.49,1.62.93,2.44h.49c.29-1.26-1.32-2.28-1.42-2.44Z"/>
<path class="cls-21" d="M341.53,491.23c-.67-1.22-.93-1.39-.97-1.46.42.69.85,1.25.97,1.46Z"/>
<path class="cls-21" d="M334.47,443.46c-.47,0,.19.73.49,1.46.53-.23.39-1.79-.49-1.46Z"/>
<path class="cls-12" d="M114.4,481.48c-2.74-4.12-6.12,4.99-8.77,6.34,1.05.44.73,1.33,2.44,1.95-.06-.33.13-.56.46-.71.33-.15.8-.22,1.32-.24.52-.01,1.08.03,1.59.11s.96.21,1.27.35c1.1-2.06,2.07-2.33,2.19-6.09,0-.28-2-1.28,0-1.22.06-.6-.47-.46-.49-.49Z"/>
<path class="cls-17" d="M105.62,487.81c-4.07,3.09,7.18,6.85,12.67.73.08-3.18-1.38-.99-4.09.53-.54.3-1.13.58-1.77.78-1.28.4-2.74.5-4.37-.09-1.71-.62-1.38-1.51-2.44-1.95Z"/>
<path class="cls-4" d="M120.39,483.14c-.03-.08-.07-.17-.12-.26-.2-.36-.56-.77-1-1.18-.22-.2-.46-.4-.72-.59-.38-.28-.79-.54-1.2-.73-.14-.07-.27-.12-.41-.18-.41-.15-.8-.24-1.15-.23-.71.02-1.25.44-1.38,1.5.02.03.54-.11.49.49,1.17.6,2.12,1.03,2.88,1.33.51.2.93.34,1.29.42,1.05.26,1.44.06,1.4-.36,0-.07-.03-.15-.06-.23Z"/>
<path class="cls-2" d="M225.29,494.15c2.77-2.59,10.56-2.91,7.31-14.62-18.02-1.52-23.26,8.46-24.86,8.77-2.25.44-12.93-5.22-20.72,3.9,0,.32,0,.65,0,.97,1.5.74,2.89,1.38,4.16,1.94,2.55,1.11,4.64,1.87,6.32,2.41,1.26.4,2.29.68,3.11.88.55.13,1,.23,1.36.31.18.04.34.07.48.11.27.06.46.12.57.17.05.03.09.06.1.09.04.09-.1.21-.4.4-.21.13-.49.3-.84.52h17.78c1.79-1.99,3.62-3.99,5.62-5.85Z"/>
<path class="cls-4" d="M245.56,484.71c.23.54.53,1.09.84,1.61.32.53.67,1.03,1.01,1.47.87,1.1,1.74,1.81,2.19,1.56.18-.1.29-.36.3-.8l-4.63-7.07c-.54.62-.3,1.89.29,3.23Z"/>
<path class="cls-18" d="M258.19,495.86l-2.68-3.66c-2.45,2.61.83,8.02,2.68,3.66Z"/>
<path class="cls-4" d="m225.53 466.12-3.66-2.19c-0.68 1.67 3.53 3.5 3.66 2.19z"/>
<path class="cls-4" d="M231.38,467.1l-.24-.24c-2.81,5.87-.03,8.28.24.24Z"/>
<path class="cls-5" d="M238.93,475.63v.97c3.2,2,2.58-.06,0-.97Z"/>
<path class="cls-21" d="M24.71,483.67c.75-3.43,4.41-9.33,1.46-9.02-4.61,5.27-2.08,14.23-7.31,19.01,5.28,6.69,5.13-6.72,5.85-9.99Z"/>
<path class="cls-12" d="M31.05,477.82c-.4,17.66,3.24,16.92,3.41,1.95l-2.19-3.17-1.22,1.22Z"/>
<path class="cls-21" d="M21.3,498.78l-2.19-1.22c-.92.05-1,2.99,2.19,1.22Z"/>
<path class="cls-6" d="M406.36,12.83c.1.19.27.36.5.53.46.33,1.15.62,2.02.86,2.17.62,5.42.99,8.77,1.2,1.34.08,2.7.14,4.01.18,3.93.11,7.44.03,8.83-.09,1.6-.15,3.34-.46,4.96-.84.81-.19,1.59-.39,2.31-.59.72-.2,1.37-.41,1.93-.6.56-.19,1.03-.37,1.36-.53.17-.08.31-.15.41-.21.1-.06.16-.12.19-.17.02-.05,0-.08-.05-.11-.12-.05-.42-.06-.92,0-.25.03-.56.07-.92.13-1.32.21-2.68.45-4.05.7-2.06.37-4.17.76-6.3,1.09-1.42.22-2.85.41-4.27.56s-2.85.24-4.26.26c-4.94.08-9.75-.71-14.02-3.33-.74-4.07-1.01-7.66-.94-10.97h-.6c-.29,4.36,0,8.48,1.05,11.94Z"/>
<path class="cls-21" d="m399.54 10.39c-3.74 16.91-12.84 26.17 15.11 18.77-3.35 0.37-17.64 4.03-19.01-0.24l2.19-10.08c1.31-5.99 2.65-11.98 4.06-17.94h-0.76c-0.34 2.13-0.62 4.29-1.03 6.61-0.16 0.94-0.35 1.9-0.57 2.9z"/>
<path class="cls-21" d="M419.57,23.94c1.4-.16,2.69-.36,3.78-.56.36-.07.71-.14,1.02-.21.63-.14,1.17-.29,1.57-.44.61-.22.93-.44.89-.64-3.75,1.06-25.39,3.91-25.35-1.46l5.61-5.61c-2.7,1.67-4.41,3.07-5.33,4.23-.69.87-.94,1.61-.84,2.23.21,1.24,1.83,2.02,4.17,2.47.39.07.8.14,1.23.19,1.28.17,2.71.25,4.21.28.5,0,1,0,1.51,0,1.02-.01,2.05-.05,3.08-.1,1.54-.08,3.05-.22,4.45-.38Z"/>
<path class="cls-6" d="m390.03 1.86-1.46 25.35c1.23-8.4 2.35-16.84 1.46-25.35z"/>
<path class="cls-21" d="M382.97,31.84l-.24-.24c-1.56,3.78-.14,4.82.24.24Z"/>
<path class="cls-13" d="m376.87 308.93c11.85 24.27 54.13 57.83 81.15 59.71-32.28-7.19-62.69-32.84-81.15-59.71z"/>
<path class="cls-21" d="M406.12,304.06c25.76,19.63,49.1,42.2,75.55,60.93l1.22-.24c-27.9-21.86-55.93-43.94-82.86-67.02,2.04,2.03,3.96,4.37,6.09,6.34Z"/>
<path class="cls-13" d="M442.19,311.86l-.24,1.71c17.45,27.46,16.53,19.19.24-1.71Z"/>
<path class="cls-13" d="M424.64,297.23l-.73,1.71c7.34,21.61,10.05,15.99.73-1.71Z"/>
<path class="cls-13" d="M467.53,332.33l-.73,1.22c7.17,23.6,10.38,20.26.73-1.22Z"/>
<path class="cls-13" d="m428.54 332.82c1.65 4.51 6.9 15.62 11.7 15.6l-11.7-15.6z"/>
<path class="cls-13" d="m420.01 330.14q-6.46-6.46-12.92-12.92c1.48 4.53 11.85 17.41 12.92 12.92z"/>
<path class="cls-13" d="m400.27 318.68q-3.66-8.04-7.31-16.08c-1.12 2.47 4.92 17.44 7.31 16.08z"/>
<path class="cls-13" d="m454.13 356.46-11.45-10.97c0.87 2.98 9.27 13.79 11.45 10.97z"/>
<path class="cls-20" d="m485.32 358.41-6.09-10.48c-1.02 2.61 6.11 15.04 6.09 10.48z"/>
<path class="cls-13" d="M414.4,297.72q-2.92-6.58-5.85-13.16c-2.12-.23,4.1,14.04,5.85,13.16Z"/>
<path class="cls-13" d="m397.34 280.66c-1.6-1.41-3.55-2.75-5.36-3.9 7.68 10.26 15.07 12.45 5.36 3.9z"/>
<path class="cls-13" d="M384.67,303.08c1.4-.45-5.06-12.43-5.36-13.65-.13,2.91,4.66,13.87,5.36,13.65Z"/>
<path class="cls-21" d="M396.13,294.07c.75,2.23,2.32,2.08,2.44,2.19-.49-.45-1.58-2.49-2.44-2.19Z"/>
<path class="cls-21" d="M400.02,297.72c-.48-.47-.99-.99-1.46-1.46.51.47.88.97,1.46,1.46Z"/>
<path class="cls-2" d="M501.38,191.3c-.01-.89-.07-1.76-.19-2.6-.08-.56-.19-1.1-.34-1.61-.15-.52-.33-1.01-.56-1.47-.34-.69-.77-1.32-1.32-1.86-.18-.18-.38-.35-.59-.51-.63-.47-1.39-.85-2.3-1.11-1.51-.43-3.44-.53-5.88-.19q.61,7.19,1.22,14.38c-2.84-5.25-6.02-9.26-12.19-10.24-2.41,1.32-3.7,2.85-4.28,4.43-.29.79-.4,1.59-.38,2.38,0,.4.05.79.11,1.18.13.78.37,1.53.65,2.25.28.72.62,1.39.96,2,.5.92,1.01,1.7,1.34,2.27.22.38.37.67.38.84.15,1.45-2.29,7.08-1.46,11.7,1.03,5.74,8.64,5.36,2.44,15.84,2.9,1.77,4.59,2.45,7.31,3.9,10.58-10.48,1.78-26.5,3.17-26.81,4.98,9.48,3.11,20.02,4.14,30.22,2.28,1.08,4.47,2.43,6.82,3.41.11-2.22.69-4.87,1.44-7.61.3-1.09.62-2.2.96-3.3.01-.04.02-.08.04-.12v-20.7c-.93-2.09-1.77-4.15-1.95-6.04-.25-2.64.52-6.79.46-10.64Z"/>
<path class="cls-16" d="M486.3,232.9c2.69,1.43,4.72,2.19,7.31,3.41-1.04-10.2.84-20.74-4.14-30.22-1.39.31,7.41,16.33-3.17,26.81Z"/>
<path class="cls-16" d="M491.9,240.21l-.24,1.22c5.96,5.98,8.4,1.21.24-1.22Z"/>
<path class="cls-16" d="m482.4 236.55-6.58-4.14c0.28 1.83 6.07 5.22 6.58 4.14z"/>
<path class="cls-4" d="M486.54,238.26l-.24.24c-.8,1.79,4.4,5.72.24-.24Z"/>
<path class="cls-9" d="M468.51,226.56l-.24.24c3.81,4.41,4.62,2.43.24-.24Z"/>
<path class="cls-21" d="M354.21,41.58c-.19-.2-.54-.33-1.02-.46-.24-.07-.51-.14-.81-.22-.3-.08-.63-.18-.99-.3-.36-.12-.75-.27-1.16-.45-.41-.18-.85-.4-1.31-.67-.23-.13-.47-.28-.71-.44-.48-.32-.98-.69-1.51-1.13-.78-.66-1.6-1.46-2.46-2.44-3.99-4.6-8.69-13.21-13.19-29.71,3.91,14.79,7.28,31.23,23.15,37.29-.71,14.57,2.58,1.25,0-1.46Z"/>
<path class="cls-21" d="M353.48,23.79c-6.98-7.3-14.04-14.54-19.52-22.91h-.94c5.27,8.8,12.89,16.54,20.46,22.91Z"/>
<path class="cls-10" d="M369.86.88h-1.18c-3.42,6.06-7.33,11.76-11.3,17.55,1.92-.59,8.79-10.67,12.48-17.55Z"/>
<path class="cls-10" d="m372.49 14.53c-2.3 6.49-6.19 11.9-10.58 16.96-1.47 1.69-2.99 3.33-4.53 4.97 6.76-4.25 13.75-14.32 15.11-21.93z"/>
<path class="cls-20" d="M361.87,45.62c-.64.74-1.14,1.35-1.54,1.85-.78,1-1.1,1.54-1.07,1.71.01.09.11.08.29-.01.26-.14.68-.46,1.22-.94.36-.32.77-.7,1.21-1.15.67-.67,1.42-1.46,2.2-2.35.52-.59,1.06-1.23,1.59-1.9s1.07-1.37,1.59-2.1,1.03-1.47,1.51-2.23c.48-.76.93-1.53,1.33-2.31.41-.78.77-1.55,1.07-2.32.3-.77.55-1.53.73-2.28l-4.63,8.04c-2.43,2.54-4.23,4.51-5.5,5.98Z"/>
<path class="cls-21" d="m339.1 19.41c3.02 5.63 5.54 11.51 10.48 16.08-3.22-5.54-7.33-10.48-10.48-16.08z"/>
<path class="cls-21" d="m333.74 8.68c1.45 3.11 2.91 6.03 4.48 9.02-1.46-3-2.47-6-4.48-9.02z"/>
<path class="cls-11" d="M353.5.88h-.63c1.09,6.25,3.02,4.82.63,0Z"/>
<path class="cls-21" d="M333.74,8.68c-.25-.53-.14-2.02-1.22-1.95-.35,1.05,1.15,1.85,1.22,1.95Z"/>
<path class="cls-17" d="M54.93,82.04c2.78,9.45-6.05,11.67-3.17,14.38,10.43-7.03,4.14-14.91,4.14-15.84,0-.3,2.38-2.68,1.22-5.61-6.94,12.44-13.71,5.01-14.62,4.87-5.89-.86,1.33,8.74,12.43,2.19Z"/>
<path class="cls-17" d="M43.48,94.47c-3.07,3.51-7.9,4.8-11.7,1.95-2.17.54,1.39,6.41,11.45,1.71,3.12,8.34-8.28,9.76-5.61,11.45,11.37-1.25,7.95-15.15,5.85-15.11Z"/>
<path class="cls-9" d="M72.72,50.6c-1.27.21-6.96,8-12.67.97l-1.22.24c3.73,12.36,23.3-2.74,13.89-1.22Z"/>
<path class="cls-9" d="m66.88 62.3c-7.93 12.04-16.45 2-16.33 6.09 10.3 7.69 21.36-6.22 16.33-6.09z"/>
<path class="cls-17" d="M82.23,40.61l-1.22-.24c-7.77,22.49-1.37,24.34,1.22.24Z"/>
<path class="cls-17" d="M89.78,26.72c-1.54.13-5.96,8.19-13.65,4.87l-.73,1.22c5.44,6.36,20.41-6.62,14.38-6.09Z"/>
<path class="cls-17" d="M108.48.88h-2.13c-3.51,3.35-7.89,4.21-11.74,0h-.53c-.74,5.99,12.09,6.4,14.39,0Z"/>
<path class="cls-9" d="m97.58 13.07c-6.46 7.1-12.29 1.7-13.4 3.17 6.72 7.4 17.67-2.54 13.4-3.17z"/>
<path class="cls-17" d="M72.97,66.44l-1.22-.73c-9.42,13.07-1.78,14.96,1.22.73Z"/>
<path class="cls-17" d="M91.73,34.52c4.27-1.22,4.32-9.29,3.9-13.16-.89,1.71-4.78,12.48-3.9,13.16Z"/>
<path class="cls-22" d="M72.24,41.83c-1.51-.03-4.14,1.84-5.12,3.17,3.08,2.82,10.72-3.06,5.12-3.17Z"/>
<path class="cls-4" d="m110.26 4.78-3.17 2.68c-1.68 5.53 6.22 1.15 3.17-2.68z"/>
<path class="cls-12" d="m44.45 117.38c32.31-6.47 76.31-74.79 74.57-107.23-9.73 26.84-21.37 54.76-41.19 75.79-10.55 11.19-24.08 19.11-33.39 31.44z"/>
<path class="cls-16" d="M210.73,9.91c-.64.51-1.3.99-1.97,1.44-1.35.9-2.77,1.66-4.31,2.25-3.83,1.47-8.34,1.84-14.02.44,4.84,17.56,13.78,31.25,26.81,43.87,1.29-8.74,5.52-6.91,9.02-9.75,5.88-4.77,8.39-11.8,10.97-14.87,7.48-8.9,12-5.13,16.08-9.75,3.16-3.57,3.46-11.68,5.85-12.43-.19-.28.13-.85-3.41-5.85-.66,18.66-9.53,16.6-14.87,19.98-6.71,4.26-7.89,21.71-33.88,19.25,1.61-11.74,10.73-13.39,11.94-14.38,5.5-4.46,8.74-12.55,13.16-15.6,8.47-5.84,14,1.03,19.39-13.65h-4.1c-3.09,8.05-12.07,7.48-16.76,10.72-3.87,2.68-8.07,12.2-12.67,15.11-4.17,2.64-12.15,3.17-17.06,6.34l-1.71-.73c-2.42-9.6,14.24-24.22,25.59-31.44h-5.12c-1.76,1.95-3.47,3.89-5.24,5.67-1.19,1.2-2.42,2.33-3.7,3.35Z"/>
<path class="cls-16" d="M247.95,42.56c-5.3,5.88-5.22,15.87-28.76,17.3,12.43,11.41,27.98,21.2,44.6,24.86,27.48,6.05,17.93-7.15,17.79-9.5-.19-3.3,5.31-2.23-1.95-25.1-10.94,8.7-11.2,16.28-14.87,19.98-2.49,2.52-17.2,10.07-19.74,7.07-3.21-8.52,3.65-8.41,8.29-13.65,1.67-1.88,5.87-10.64,10.48-13.89,3.95-2.78,10.29-2.85,12.43-7.8-1.56-3.69-3.04-7.15-4.87-10.72.12,13.54-6.32,13.02-13.16,20.72-5.7,6.41-6.94,15.69-24.86,18.52-3.47-3.66,16.33-27.59,17.79-28.51,2.73-1.72,7.43-2.26,7.8-2.44,5.59-2.77,4.55-11.14,8.53-15.11-1.29-2.31-2.53-4.55-3.9-6.82-2.43,17.77-8.27,16.96-15.6,25.1ZM274.03,58.89c7.92-1.36,9.26,20.27-2.92,19.01-3.29-1.16-5.17-14.92,2.92-19.01Z"/>
<path class="cls-2" d="M232.11,14.53c-4.42,3.04-7.66,11.14-13.16,15.6-1.22.99-10.34,2.64-11.94,14.38,25.99,2.46,27.17-14.99,33.88-19.25,5.33-3.39,14.2-1.32,14.87-19.98-1.04-1.47-2.09-2.94-3.17-4.39h-1.08c-5.39,14.68-10.92,7.81-19.39,13.65Z"/>
<path class="cls-2" d="M199.21,32.32l1.71.73c4.9-3.17,12.89-3.7,17.06-6.34,4.6-2.91,8.8-12.43,12.67-15.11,4.68-3.24,13.66-2.67,16.76-10.72h-22.61c-11.35,7.22-28.01,21.84-25.59,31.44Z"/>
<path class="cls-2" d="M253.31,23.55c-4.08,4.62-8.6.85-16.08,9.75-2.58,3.06-5.08,10.09-10.97,14.87-3.5,2.84-7.73,1-9.02,9.75.67.65,1.24,1.29,1.95,1.95,23.54-1.43,23.46-11.42,28.76-17.3,7.33-8.14,13.17-7.33,15.6-25.1-1.37-2.26-2.97-4.19-4.39-6.34-2.39.75-2.69,8.86-5.85,12.43Z"/>
<path class="cls-2" d="M258.92,39.39c-.37.18-5.07.71-7.8,2.44-1.46.92-21.26,24.86-17.79,28.51,17.92-2.84,19.16-12.11,24.86-18.52,6.84-7.69,13.28-7.18,13.16-20.72-1.2-2.34-2.62-4.53-3.9-6.82-3.98,3.97-2.94,12.34-8.53,15.11Z"/>
<path class="cls-2" d="M263.79,49.63c-4.61,3.25-8.81,12.01-10.48,13.89-4.64,5.24-11.49,5.12-8.29,13.65,2.54,3.01,17.25-4.55,19.74-7.07,3.66-3.7,3.92-11.29,14.87-19.98-.98-3.09-2.18-5.37-3.41-8.29-2.14,4.95-8.48,5.01-12.43,7.8Z"/>
<path class="cls-16" d="M196.22,5.47c.73-.73,1.41-1.36,2.04-1.9,1.55-1.34,2.78-2.16,3.62-2.68h-14.35c.49,4.04,1.31,7.86,2.41,12.19,2.33-3.32,4.45-5.77,6.27-7.6Z"/>
<path class="cls-11" d="M268.42,10.63c-3.22-7.5-3.66-5.55-3.9-5.85l-1.46,2.92c3.29,6.7,1.92,3.34,3.9,5.36-.07-1.54.29-3.49,1.46-2.44Z"/>
<path class="cls-1" d="M272.08,23.31c-.95.45,2.23,7.71,6.82,8.77,1.92-1.05-5.84-8.33-6.82-8.77Z"/>
<path class="cls-17" d="M285.97,42.56c-1.48-2.78-3.08-5.13-6.58-4.63.4,2.58,5.6,6.03,6.58,4.63Z"/>
<path class="cls-18" d="M266.96,13.07c3.22,3.29-.64,3.32,1.22,5.36,3.99-1.88,2.25-3.12.24-7.8-1.17-1.05-1.53.9-1.46,2.44Z"/>
<path class="cls-18" d="M261.6,1.13c-2.18,2.92.28,4.18,1.46,6.58l1.46-2.92c-.57-.71-1.51-4.64-2.92-3.66Z"/>
<path class="cls-5" d="M283.29,49.63c-.12.02-1.48,1.02-2.19,1.22,5.81,3.5,6.74-1.82,2.19-1.22Z"/>
<path class="cls-16" d="M8.63,216.57c-.47-3.97-4.26-10.3-3.41-17.55.52-4.39,7.44-12.18,6.34-19.5,6.77-1.99,10.57,9.32,9.75,14.62-.16,1.05-2.64,5.19-2.92,7.31-1.32,9.96,4.47,16.11,3.41,22.91-.37,2.41-6.27,7.97-4.39,21.2,1.37.42,2.6.62,3.9.97-2.76-10.69,2.72-17.61,2.92-22.66.2-5.07-4.3-13.69-2.92-21.45,1.01-5.7,9.93-12.93,7.31-19.98,14.63.73,7.47,22.87,7.31,24.86-.61,7.57,4.92,14.49,0,24.37-1.28,2.57-7.08,5.39-5.85,17.3,2.39.49,4.49.62,6.82.97-4.74-10.14,2.64-15.58,3.9-19.74,2.79-9.17-2.59-15.63-1.46-24.37.16-1.26,2.23-5.11,2.44-6.82.72-5.96-1.82-11.52-.24-11.94,16.87,9.96,10.54,14.47,11.45,24.13.15,1.54,2.27,6.7,2.44,8.29,1.58,15.36-8.89,19.02-13.65,31.44,11.87,1.39,24.32,2.35,36.07-.49-4.51-17.41-6.84-24.57,14.62-24.61.88,9.18-11.52,15.02-9.75,22.66,4.38-1.62,16.37-6.88,16.57-12.43.31-8.33-15.35-25.33-21.45-30.95,7.3,17.67-2.24,18.97-4.87,23.15-2.3,3.65-2.17,18.24-12.43,22.18-8.66-9.38-1.73-21.22-2.19-28.51-.49-7.72-9.32-15.33,3.9-28.51-17.53-10.1-38.35-15.77-58.49-14.99v29.55c1.3,2.92,2.79,5.91,2.92,8.59.04.85-.11,1.94-.38,3.2-.27,1.26-.67,2.7-1.12,4.23-.44,1.49-.94,3.08-1.42,4.68v12.12c1.77.82,3.53,1.66,5.36,2.33-3.26-9.28.57-17.57-.49-26.56Z"/>
<path class="cls-2" d="M58.35,221.93c.46,7.29-6.47,19.13,2.19,28.51,10.26-3.94,10.13-18.53,12.43-22.18,2.64-4.19,12.18-5.48,4.87-23.15-.15-.14-.29-.31-.49-.49l-9.5,9.75c-1.52-.18-3.2-16.5-1.71-18.52-1.36-.87-2.49-1.62-3.9-2.44-13.22,13.19-4.39,20.79-3.9,28.51Z"/>
<path class="cls-2" d="M35.92,231.68c4.92-9.89-.61-16.8,0-24.37.16-1.99,7.32-24.12-7.31-24.86,2.61,7.06-6.3,14.28-7.31,19.98-1.38,7.75,3.13,16.38,2.92,21.45-.2,5.06-5.68,11.97-2.92,22.66,2.98.81,5.69,1.8,8.77,2.44-1.23-11.91,4.57-14.74,5.85-17.3Z"/>
<path class="cls-2" d="M55.42,219.49c-.16-1.59-2.29-6.75-2.44-8.29-.91-9.66,5.41-14.16-11.45-24.13-1.58.42.96,5.98.24,11.94-.21,1.72-2.28,5.57-2.44,6.82-1.13,8.74,4.25,15.2,1.46,24.37-1.26,4.16-8.64,9.6-3.9,19.74,1.65.25,3.11.77,4.87.97,4.75-12.42,15.23-16.07,13.65-31.44Z"/>
<path class="cls-2" d="M21.79,224.37c1.06-6.8-4.73-12.95-3.41-22.91.28-2.13,2.76-6.26,2.92-7.31.82-5.3-2.97-16.61-9.75-14.62,1.1,7.32-5.82,15.1-6.34,19.5-.85,7.24,2.95,13.58,3.41,17.55,1.05,9-2.78,17.28.49,26.56,2.76,1.01,5.51,1.59,8.29,2.44-1.89-13.23,4.01-18.79,4.39-21.2Z"/>
<path class="cls-2" d="M92.46,225.83c-21.46.04-19.13,7.2-14.62,24.61,1.66-.4,3.29-1.36,4.87-1.95-1.77-7.64,10.63-13.48,9.75-22.66Z"/>
<path class="cls-16" d="M67.85,214.37l9.5-9.75c-4.06-3.66-6.56-5.78-11.21-8.77-1.5,2.02.19,18.34,1.71,18.52Z"/>
<path class="cls-17" d="m33.73 255.32c-2.95-1.36-4.6-3.87-7.8-4.39-1 7.27 26.71 8.4 7.8 4.39z"/>
<path class="cls-18" d="M4,245.08c-1.19,2.48,4.59,5.58,5.12,3.66-.61-3.06-2.84-2.62-5.12-3.66Z"/>
<path class="cls-4" d="M15.45,248.98l-.97.97c8.37,7.9,5.92-1.05.97-.97Z"/>
<path class="cls-17" d="M54.45,257.51c-2.22-4.08-4.36-2.13-8.53-3.17.63,1.46,8.37,3.69,8.53,3.17Z"/>
<path class="cls-17" d="m68.58 259.95-7.55-6.09c0.09 1.11 6.82 7.56 7.55 6.09z"/>
<path class="cls-4" d="m79.06 254.34h-3.9c1.47 3.16 6.92 2.02 3.9 0z"/>
<path class="cls-17" d="M14.48,249.95l.97-.97c-2.09-.03-1.25.06-.97.97Z"/>
<path class="cls-6" d="M94.9,332.57c.39,3.35,2.65,15.61,1.95,8.29,6.36-18.09,9.71-37.47,15.84-55.81-2.68-.89-13.67,50.54-15.6,54.1-2.73-7.11-1.22-25.84-4.63-30.95-3.44-5.16.55,2.81.97,4.87,1.16,5.57.77,13.58,1.46,19.5Z"/>
<path class="cls-10" d="M114.4,307.23c.82-3.2,8.57-21.89,10.24-24.37.5-.74,9.67-9.91,12.19-13.16l-.24-1.22c-3.44,4.12-7.47,7.92-10.72,12.19-.13.17-1.3-.29-1.71.24-1.07,1.41-11.75,27.69-11.7,33.14.07,7.76,1.51-5.12,1.95-6.82Z"/>
<path class="cls-21" d="M89.54,353.77c.95,2.54,2.42,3.9,2.44,4.14.08.85-5.03,10.67-6.82,15.6-4.3,11.77-8.62,23.73-11.94,35.83,5.64-18.4,13.95-35.98,20.23-54.1-1.8,1.84-1.83.84-3.9-1.46Z"/>
<path class="cls-6" d="M91.98,370.59c12.61-3.79,24.27-10.59,34.61-18.52l-.73-.24c-10.34,7.98-22.04,13.42-33.88,18.77Z"/>
<path class="cls-20" d="m74.67 342.08c-2.44 14.27-2.37 28.05 4.87 40.94-6.58-16.61-5.97-23.64-4.87-40.94z"/>
<path class="cls-13" d="M125.61,317.46c.72,1.63,21.77-14.65,23.4-16.57l-.73-.73-22.66,17.3Z"/>
<path class="cls-13" d="M117.32,332.57c.38,1.65,23.12-7.35,22.18-12.43-6.06,6.26-14.26,9.37-22.18,12.43Z"/>
<path class="cls-6" d="M98.07,345.98c2.16-1.69,2.09-3.24,2.19-3.41-.66.65-2.37,2.49-3.17,2.44-4.66-.33-7.17-23.41-8.29-27.3-.19,4.42,3.22,29.6,9.26,28.27Z"/>
<path class="cls-20" d="M81.01,364.5c-4.56-11.95-5.25-24.87-4.87-37.53-2.01,0,.17,34.97,4.87,37.53Z"/>
<path class="cls-6" d="m126.83 345.98q-5.85 3.41-11.7 6.82c-12.58 4.05-22.95 10.81-3.41 2.44 3.27-1.4 20.18-10.58 15.11-9.26z"/>
<path class="cls-13" d="M113.18,371.81c-1.87.35-16.53,7.45-21.69,8.53.16.93,13.72-3.69,14.87-4.14,1.04-.41,13.08-5.56,6.82-4.39Z"/>
<path class="cls-13" d="M133.16,334.77c-8.31,8.09-27.79,11.49-17.06,10.24,1.82.01,20.26-8.47,17.06-10.24Z"/>
<path class="cls-13" d="M108.31,381.07c-7.23,4.18-14.44,8.65-22.66,10.48,5.02.34,15.02-4.33,19.25-7.07,1.01-.65,5.26-3.45,3.41-3.41Z"/>
<path class="cls-6" d="m125.85 306.01q6.82-13.89 13.65-27.78c-1.17 1.72-15.18 27.49-13.65 27.78z"/>
<path class="cls-6" d="M154.85,277.01h-.97c-4.66,11.15-9.44,4.21-1.46-4.87l-.73-.24c-9.8,10.96-1.92,17.72,3.17,5.12Z"/>
<path class="cls-6" d="M102.7,296.99l-.73-.24c-2.35,9.04-4.1,18.4-3.41,27.78,1.05-9.26,1.2-18.59,4.14-27.54Z"/>
<path class="cls-10" d="m98.56 394.72c-7.92 5.4-28.06 11.35-6.34 4.87 3.5-2.21 8.43-4.57 6.34-4.87z"/>
<path class="cls-6" d="M72.97,397.89c.91.55-1.88-17.27-2.68-19.25-.94.41,2.45,17.09,2.68,19.25Z"/>
<path class="cls-21" d="m89.54 353.77c-1.38-3.68-3.18-7.21-4.39-10.97-2.69-19.48-2.61 3.2 4.39 10.97z"/>
<path class="cls-20" d="m90.27 405.93c-15.65 5.96-17.47 8.82-3.9 2.92 3.3-1.43 6.59-3.48 3.9-2.92z"/>
<path class="cls-21" d="M66.88,394.23c.36,6.34,3.17,18.45,3.17,14.38-.86-1.66-2.28-14.62-3.17-14.38Z"/>
<path class="cls-13" d="M153.39,287.24l-1.22-.24c-8.67,6.05-1.79,5.26,1.22.24Z"/>
<path class="cls-6" d="M104.41,317.71c-.58,1.23-.34,14.43.97,14.14l-.97-14.14Z"/>
<path class="cls-21" d="M84.18,333.06l-1.22-8.04c.46,2.66-.34,11.76,1.22,8.04Z"/>
<path class="cls-6" d="M102.21,340.86c-1.57-.73-1.88,1.6-1.95,1.71.09-.09.49.43,1.95-1.71Z"/>
<path class="cls-21" d="M94.17,353.29c-1.08.65-.64,1.85-.73,1.95.03-.1,1.48-1.25.73-1.95Z"/>
<path class="cls-11" d="M81.99,318.19l-.24.24c-.25,3.26,1.04,2.53.24-.24Z"/>
<path class="cls-10" d="M160.22,126.39c.7-3.45-.34-14.48-1.22-18.77-1.12,7.17-.32,26.35,1.22,18.77Z"/>
<path class="cls-13" d="M184.83,131.51c-.79.37,3.42,13.94,4.87,15.11,2.35.03-3.92-15.55-4.87-15.11Z"/>
<path class="cls-21" d="M216.27,156.86c4.56,11.86,7.49,23.89,8.53,36.56.48-12.9-3.66-24.97-8.53-36.56Z"/>
<path class="cls-13" d="M176.06,183.18l-.97-19.98c-1.66,2.36-.02,20.14.97,19.98Z"/>
<path class="cls-13" d="M163.63,131.76c-2.39,21.75,3.1,19.56.24-.24l-.24.24Z"/>
<path class="cls-13" d="M182.39,186.1c-.29.15-1.15,3.19-1.22,3.66-1.38,9.59,6.18,28.12.97,3.9-.23-3.96,1.5-8.22.24-7.55Z"/>
<path class="cls-13" d="m171.67 146.62-4.63 12.92c0.19 6.34 7.68-14.68 4.63-12.92z"/>
<path class="cls-17" d="M198.72,162.46c.51-3.02-.22-8.59-1.71-11.45-.48,8.65.48,18.64,1.71,11.45Z"/>
<path class="cls-9" d="M207.74,198.29c.94-1.44,2.42-14.96,1.46-15.11-1.41,2.1-2.32,14.97-1.46,15.11Z"/>
<path class="cls-9" d="M202.86,181.23l-.97-15.11c-1.47,4.76-.95,10.61.97,15.11Z"/>
<path class="cls-13" d="M212.13,219.25l-.97-15.6c-1.02,4.89-.33,10.72.97,15.6Z"/>
<path class="cls-13" d="m193.12 221.2-2.44-16.08c-1.14 1.45 1.14 16.4 2.44 16.08z"/>
<path class="cls-21" d="m200.18 127.13c2.71 5.43 6.36 10.32 9.26 15.6-2.77-5.34-5.15-11.11-9.26-15.6z"/>
<path class="cls-21" d="m209.44 142.72c1.89 3.65 5.31 10.53 6.82 14.14-2.03-5.28-4.12-9.22-6.82-14.14z"/>
<path class="cls-21" d="M196.53,196.83c.48-2.33-1.08-4.33-1.71-6.34.45,1.45.56,4.56,1.71,6.34Z"/>
<path class="cls-21" d="M177.76,141.02c2.14,7.89,3.63,6.5.24-.24l-.24.24Z"/>
<path class="cls-21" d="M191.41,180.25c-.64-2-1.29-3.87-1.95-5.85.65,1.97,1.28,3.88,1.95,5.85Z"/>
<path class="cls-21" d="M181.17,148.82l-.24-.24c.75,5.94,3.19,6.58.24.24Z"/>
<path class="cls-21" d="M186.29,165.14c.67-1.39-.87-3.27-1.22-4.39.12.38-.06,2.4,1.22,4.39Z"/>
<path class="cls-21" d="M194.33,189.03c-.48-1.54-.97-2.89-1.46-4.39.47,1.49.99,2.92,1.46,4.39Z"/>
<path class="cls-21" d="M196.77,197.56c1.01,6.04,2.43,4.69.24-.24l-.24.24Z"/>
<path class="cls-21" d="M189.46,174.41c-.53-1.6-.82-2.7-1.46-4.39.46,1.73.93,2.81,1.46,4.39Z"/>
<path class="cls-21" d="M184.1,157.83c-.1-.29.22-1.84-1.22-3.9-.79,1.41,1.15,3.71,1.22,3.9Z"/>
<path class="cls-21" d="M195.07,119.33l-.24.24c1.44,3.47,3.04,2.44.24-.24Z"/>
<path class="cls-3" d="M192.39,183.18c-.33-.99-.64-1.93-.97-2.92"/>
<path class="cls-21" d="M199.45,125.66c-.85.9.69,1.39.73,1.46-.06-.06.25-.8-.73-1.46Z"/>
<path class="cls-11" d="M224.07,196.1c-.22,2.56,1.02,1.95.24-.24l-.24.24Z"/>
<path class="cls-3" d="m198.72 203.65-0.24-1.46"/>
<path class="cls-21" d="M187.51,168.56c-.23,1.67.46,1.39.49,1.46-.15-.58.34-1.47-.49-1.46Z"/>
<path class="cls-3" d="m187.51 168.56-0.24-1.46"/>
<path class="cls-21" d="m194.09 118.35 0.24-0.24-0.72-0.72-0.24 0.24v0.49l0.24 0.24h0.49z"/>
<path class="cls-21" d="M185.07,160.76c-.14-.44-.33-1.01-.49-1.46.16.48.33.97.49,1.46Z"/>
<path class="cls-21" d="m192.63 116.4 0.24-0.24-0.72-0.72-0.24 0.24v0.49l0.24 0.24h0.49z"/>
<path class="cls-3" d="M184.1,157.83c.16.49.33.97.49,1.46"/>
<path class="cls-3" d="M192.87,184.64c-.16-.5-.34-.99-.49-1.46"/>
<path class="cls-3" d="m199.45 206.57-0.24-1.46"/>
<path class="cls-3" d="M198.72,203.65l.49,1.46"/>
<path class="cls-3" d="M194.33,189.03c.15.48.33.96.49,1.46"/>
<path class="cls-9" d="M340.8,207.06c7.74-4.36,17.58-24.76,9.26-26.32-1.64,1.22,1.3.77,1.22,5.61-.25,15.4-19.6,21.68-10.48,20.72Z"/>
<path class="cls-17" d="M325.21,222.17c.92-.1,10.29,5.16,11.45-9.5l-1.22-.24c-3.75,15.16-8.99,2.5-19.25,14.38,3.02,2.94,7.31-4.45,9.02-4.63Z"/>
<path class="cls-17" d="M372.49,176.84c7.07-3.03,2.58-20.73,12.19-19.01.21.04,1.68,3.47,0-1.46-.8.07-1.65-.1-2.44,0-6.32.82-6.05,11.44-7.55,14.87-1.75,3.97-7.27,5.65-2.19,5.61Z"/>
<path class="cls-9" d="M330.57,215.84c2.73.25,5.34-21.55.97-20.47l-.73.73c3.45,8.07-3.13,19.47-.24,19.74Z"/>
<path class="cls-17" d="m366.15 164.66c-3.9 1.29 4.1 7.18-5.12 15.35 3.14 4.22 10.56-10.56 5.12-15.35z"/>
<path class="cls-9" d="m313.02 219.74q-2.92 8.04-5.85 16.08c2.49 1.61 9.41-17.02 5.85-16.08z"/>
<path class="cls-17" d="m365.66 182.2c-4.7 7.96-10.45 6.79-9.99 8.53 1.17 4.45 16.4-9.43 9.99-8.53z"/>
<path class="cls-17" d="M296.45,234.85c-.43,1.5-6.65,13.52-5.36,14.14.81.39,9.38-15.1,5.36-14.14Z"/>
<path class="cls-17" d="M355.67,199.51l-.73-1.71c-11.88,6.34-9.75,12.69.73,1.71Z"/>
<path class="cls-17" d="m386.13 148.08c-3.61 1.51-9.75 5.4-7.31 8.29 3.21-7.35 14.75-6.93 7.31-8.29z"/>
<path class="cls-17" d="M280.36,262.14c2.24-.04-1.76-8.18,2.68-12.43l-1.22-.24c-3.7,2.42-2.99,12.7-1.46,12.67Z"/>
<path class="cls-22" d="m301.57 244.84-1.22-2.19c-7.64 4.53-6.03 9.8 1.22 2.19z"/>
<path class="cls-9" d="m318.63 232.16-1.71-1.22c-9.86 3.96-4.52 7.24 1.71 1.22z"/>
<path class="cls-4" d="M270.37,267.5c1.63-14.18.39-11.07-1.46.49.81.24,1.01-.51,1.46-.49Z"/>
<path class="cls-5" d="M289.62,250.44l-4.39-.49c-.85,4.14,8.83,3.57,4.39.49Z"/>
<path class="cls-16" d="M279.15,393.26c-1.71,10.29-15.58,10.73-16.82,11.21-3.52,1.36-11.91,14.32-28.51,3.66-.8-6.93,8.89-7.79,13.89-10.48,4.59-2.46,8.23-7.24,13.89-7.31-.15-.01.31-.77-2.92-.49-8.3,2.95-12.64,13.4-34.12,1.22,3.15-13.1,13.1-4.82,18.28-6.09,1.59-.39,8.23-8.05,12.67-9.26,8.17-2.22,12.93,4.83,23.15-4.87-.11-.4.06-1,0-1.46-9.45,7.85-17.49,1.41-24.61,2.92-5.74,1.22-10.35,14.9-32.41,1.71.2-11.53,9.87-5.24,16.33-6.58,2.66-.55,11.09-8.11,15.11-8.77,6.11-1.02,12.2,2.51,16.08,2.44,5.73-.1,10.95-6.55,13.4-.49-.15-3.92-.55-7.81-.97-11.7-5.26,16.76-16.5,7.23-25.1,7.8-5.97.4-11.69,7.98-23.88,6.82-1.19-.11-4.92-1.81-5.85-1.95-3.17-.47-6.12,1.81-8.53-.73,6.15-14.72,14.3-7.7,20.23-8.53,2.48-.35,8.74-4.99,11.21-5.85,10.88-3.8,13.39,2.69,19.98,1.46,2.49-.46,7.69-6.48,10.97-4.39-.21-1.43-.23-2.92-.49-4.39-12.29,13.47-16.04,2.41-25.59,3.9-5.51.86-14.37,14.66-34.85-.24,4.73-10.98,12.54-4.03,18.28-4.63,3.73-.39,10.62-6.33,13.65-6.82,10.85-1.77,13.35,10.18,26.08-1.46-.09-.36.04-1.48-.49-3.41-11.06,12.04-16.32.92-25.59,2.44-6.21,1.02-19.35,16.82-27.54-5.12,6.59-6.72,6.64-.58,10.97.73,6.73,2.04,10.15-5.72,16.57-6.34,8.9-.85,16.49,11.03,22.18-2.92-.65-1.58-1.55-2.6-1.95-3.41-3.32,12.9-12.77,3.59-19.74,4.39-6.67.76-21.41,18.1-20.72-5.85-24.58,31.12-15.4,85.61,11.21,113.08,2.77-6.11,5.1-3.07,8.53-4.39,7.29-2.8,8.48-14.09,17.06-8.77,7.5,15.31-12.21,16.23-22.66,16.08,18.65,16.51,17.91,2.6,19.98.24.96-1.09,4.65-.81,7.8-6.82,2.03-3.87,6.42-20.51,7.31-25.59l-1.46-.97Z"/>
<path class="cls-2" d="M269.15,361.09c-3.88.07-9.98-3.45-16.08-2.44-4.02.67-12.45,8.22-15.11,8.77-6.46,1.34-16.13-4.95-16.33,6.58,22.07,13.2,26.67-.49,32.41-1.71,7.13-1.51,15.17,4.93,24.61-2.92,1.54-1.28,2.53-3.42,3.9-4.87-.02-1.3.05-2.6,0-3.9-2.45-6.06-7.67.38-13.4.49Z"/>
<path class="cls-2" d="M269.64,347.93c-6.6,1.23-9.11-5.26-19.98-1.46-2.47.86-8.73,5.5-11.21,5.85-5.93.83-14.08-6.19-20.23,8.53,2.41,2.54,5.36.27,8.53.73.92.14,4.65,1.84,5.85,1.95,12.2,1.16,17.91-6.43,23.88-6.82,8.6-.57,19.84,8.96,25.1-7.8-.2-1.84-.71-3.57-.97-5.36-3.28-2.1-8.48,3.92-10.97,4.39Z"/>
<path class="cls-2" d="M251.61,331.35c-3.03.5-9.92,6.43-13.65,6.82-5.74.6-13.55-6.35-18.28,4.63,20.48,14.91,29.34,1.1,34.85.24,9.55-1.49,13.3,9.57,25.59-3.9-.56-3.15-1.69-6.18-2.44-9.26-12.73,11.64-15.23-.31-26.08,1.46Z"/>
<path class="cls-2" d="M251.61,318.19c-6.42.62-9.85,8.38-16.57,6.34-4.33-1.31-4.38-7.46-10.97-.73,8.19,21.93,21.33,6.14,27.54,5.12,9.27-1.52,14.53,9.6,25.59-2.44-1.04-3.77-1.92-7.58-3.41-11.21-5.69,13.95-13.27,2.07-22.18,2.92Z"/>
<path class="cls-2" d="M252.09,316.24c6.97-.79,16.42,8.52,19.74-4.39-1.31-2.65-2.21-4.35-3.9-6.82-3.75,6.81-6.69,1.19-10.48,0-12.14-3.8-16.97,7.95-18.03,7.8-.38-.06-.93-2.92-6.09-4.39-.6.69-1.32,1.15-1.95,1.95-.69,23.95,14.05,6.61,20.72,5.85Z"/>
<path class="cls-16" d="M239.42,312.83c1.06.15,5.9-11.6,18.03-7.8,3.79,1.19,6.73,6.81,10.48,0-10.55-15.46-17.65-16.03-34.61,3.41,5.16,1.47,5.71,4.33,6.09,4.39Z"/>
<path class="cls-2" d="M268.18,410.32c-8.57-5.32-9.77,5.97-17.06,8.77-3.43,1.32-5.76-1.72-8.53,4.39,1.01,1.04,1.82,1.94,2.92,2.92,10.46.14,30.16-.78,22.66-16.08Z"/>
<path class="cls-16" d="M278.66,370.83c1.21,4.53,1.87,8.54-.97,12.92-4.23,6.52-11.46,3.41-19.01,6.09,3.23-.28,2.78.47,2.92.49,5.42.51,12.26,1.4,16.33-2.44,1.78,1.93,1.58,3.2,1.22,5.36l1.46.97c1.77-10.16,2.13-19.46,1.95-29.73-1.37,1.45-2.36,3.59-3.9,4.87.06.46-.11,1.06,0,1.46Z"/>
<path class="cls-11" d="M290.36,351.83c-.12-1.16.08-8.51-.49-11.45-.66-3.47-2.86-7.12-3.9-10.48-1.65.33-.05,2.43,0,3.9.05,1.49.65,2.35-.97,4.87,1.57-.39,1.94,1.09,1.95,2.44,3.24.79.42,1.73,0,2.44-.4.68-.62.3-.97.97v5.85c.72,1.82,2.17,6.97,4.39,4.39-.8-2.65.03-2.58,0-2.92Z"/>
<path class="cls-17" d="m287.68 382.05c-4.54 9.45 1.37 14.05 1.22 1.22l-1.22-1.22z"/>
<path class="cls-17" d="M281.83,327.94c.94-.79-1.41-9.26-1.95-9.26-2.32,1.38.04,10.88,1.95,9.26Z"/>
<path class="cls-17" d="M285.73,356.7c.16,4.08,3.61,7.44,5.85,10.72,0-4.35-2.8-7.98-5.85-10.72Z"/>
<path class="cls-20" d="M290.36,351.83c.03.34-.8.27,0,2.92.1.33,1.68,3.19,2.44,2.92.33-2.11.3-5.3-2.44-5.85Z"/>
<path class="cls-4" d="M285.97,333.79c-3.7,2.17-3.58,7.71-.97,4.87,1.63-2.52,1.02-3.38.97-4.87Z"/>
<path class="cls-17" d="M285.97,350.36v-5.85c-2.98,5.74-.21,5.32,0,5.85Z"/>
<path class="cls-16" d="M283.29,399.1c-2.73.71,3.33,6.15,2.68,1.71l-2.68-1.71Z"/>
<path class="cls-5" d="M279.88,411.78c.62,2.4,3.23,3.85,2.68,1.71l-2.68-1.71Z"/>
<path class="cls-5" d="m276.46 310.39-2.19 1.22c-0.48 1.84 6.81-1.86 2.19-1.22z"/>
<path class="cls-4" d="M286.94,341.1c0,.12-1.2.84,0,2.44.42-.7,3.24-1.65,0-2.44Z"/>
<path class="cls-21" d="m392.96 382.05c28.56 8.28 20.2-9.7 6.82-7.8-2.65 0.38-10.01 4.77-6.82 7.8zm6.33-6.34c9.27-1.42 20.56 8.6-4.39 3.9-2.52-1.42 3.82-3.81 4.39-3.9z"/>
<path class="cls-20" d="m396.86 372.78-1.95-1.46c-4.38-0.12-11.52 9.74 1.95 1.46z"/>
<path class="cls-20" d="M328.13,287l-.73,1.22c1.78,2.81,2.66.39.73-1.22Z"/>
<path class="cls-17" d="M334.22,286.27l-1.71-.73c-.75,1.17,1.37,1.75,1.71.73Z"/>
<path class="cls-21" d="m442.67 238.26-1.71 2.68c11.09 12.55 13.8-0.56 1.71-2.68zm0 1.46c2.46-0.69 11.36 7.04-0.49 0.97l0.49-0.97z"/>
<path class="cls-21" d="M452.67,254.34c-1.1-2.38,1.61-4.22,1.46-6.82-4.41.5-9.33,8.22-1.46,6.82Z"/>
<path class="cls-20" d="M452.67,254.34c6.15-1.09,2.98-8.95,1.46-6.82.15,2.61-2.56,4.45-1.46,6.82Z"/>
<path class="cls-13" d="M429.51,236.31c-7.12-2.77.73,1.72.97,1.95,1.43,1.3,4.16,6.32,5.61,5.36-.04-.41-.76-1.25-.97-1.95-1.64-1.26-3.66-4.6-5.61-5.36Z"/>
<path class="cls-21" d="M440.48,245.08c-2.03,4.5,8.99,6.41,5.36,2.44-.98,1.14-4.95-1.09-5.36-2.44Z"/>
<path class="cls-20" d="M445.84,247.52c-1.13-1.6-3.48-2.78-5.36-2.44.41,1.35,4.38,3.58,5.36,2.44Z"/>
<path class="cls-21" d="m112.69 179.28c-7.56 3.21-3.18 4.57-1.46 8.77 7.21-0.15 10.31-9.34 1.46-8.77zm1.46 3.41c-5.79 1.79-4.15-1.18-1.46-1.46 1.9-0.2 3.08 0.05 1.46 1.46z"/>
<path class="cls-21" d="M106.11,184.15c.56-2.74-1.08-1.91-2.44-2.92-7.16,4.05-1.5,8.76,5.12,7.8,2.77-2.3-.05-2.13-.73-2.92-4.14-.34-5.97-3.64-1.95-1.95Z"/>
<path class="cls-19" d="M106.11,184.15c-4.02-1.7-2.19,1.61,1.95,1.95-.28-.33-1.35-1.89-1.46-1.95-.12-.06-.34.06-.49,0Z"/>
<path class="cls-6" d="M37.63,372.3c-9.04,9.6,5.43,20.26,1.22.73l-1.22-.73Z"/>
<path class="cls-21" d="M176.06,64.25c-1.08.17-.97,8.21,7.8,9.26,1.87-.71.18-8.26-7.8-9.26ZM176.79,67.42l.73-1.22c4.54,1.21,2.26,5.04-.73,1.22Z"/>
<path class="cls-20" d="M178.74,59.62c1.59-2.71,5.17,3.31,7.31,1.71-2.69-2.09-10.06-9.89-7.8,0,1.99.1.23-1.27.49-1.71Z"/>
<path class="cls-20" d="M441.46,400.08c-2.07-1.14-4.34.66-6.34,1.46-.42,2,6.64.38,6.34-1.46Z"/>
<path class="cls-21" d="M417.57,172.94c.96,1.83-1.64,3.47-3.41,4.39-.04.09-.97.73-.97,1.71,5.58,1.41,13.47-12.16,4.39-6.09Z"/>
<path class="cls-6" d="M417.57,172.94c-1.84,1.23-2.55,2.39-3.41,4.39,1.78-.91,4.37-2.55,3.41-4.39Z"/>
<path class="cls-6" d="m257.7 145.16c4.58-2.34 3.06-6.3 2.92-8.29-2.64-2.39-4.68-1.97-7.31 0 9.98-1.45 1.46 4.2 4.39 8.29z"/>
<path class="cls-12" d="M482.4,81.31c-1.9-1.85,1.42-2.01-.73-4.39-6.35,2.92-3.5-2.13.24-4.87-3.82-.84-5.96,6.54-7.8,9.26,1.12,5.36,6.2,3.28,9.26.97-.07-.73-.93-.93-.97-.97Z"/>
<path class="cls-13" d="M397.83,94.96l-.73,1.71c2.77,3.77,5.32-.64.73-1.71Z"/>
<path class="cls-20" d="m403.19 99.83-1.22 2.68c3.89 4.62 3.09-2.02 1.22-2.68z"/>
<path class="cls-20" d="m454.37 402.03-3.17 1.71c-3.53 5.75 9.58-1.38 3.17-1.71z"/>
<path class="cls-20" d="M160.7,51.58c-.22-.16.25-3.82-3.9-.97-4.25,2.91-.31,7.55,3.9.97Z"/>
<path class="cls-6" d="M481.67,76.92c2.15,2.38-1.17,2.54.73,4.39,1.44-2.5,2.94-9.86-.49-9.26-3.75,2.75-6.59,7.8-.24,4.87Z"/>
<path class="cls-21" d="M474.11,41.83c-2.98.5-.02-2.03-1.71-2.92-1.25-.66-2.67.35-3.17,1.46-.03.06,1.02.29.49,1.22-.65,1.13-4.65,4.18-4.87,4.87-.29.89.29,3.25,0,4.14-.97,2.98-1.38,2.5-3.41,3.9,3.58,3.92,10.22-9.79,12.67-12.67Z"/>
<path class="cls-20" d="M461.93,47.68c-3.23,1.83-1.21,4.49,2.44,2.92-.18-2.04-1.09-2.13-2.44-2.92Z"/>
<path class="cls-20" d="M119.52,175.87l4.39,5.36c2.87.07,1.01-5.43-4.39-5.36Z"/>
<path class="cls-13" d="m150.22 57.91v-1.95c-5.44 2.44-6.79 4.98 0 1.95z"/>
<path class="cls-2" d="M217.58,469.52c-1.22-1.5-4.63-2.34-11.3-1.69-2.54.25-4.62.8-6.27,1.54-1.1.5-2,1.08-2.71,1.71-.71.63-1.24,1.31-1.57,2.01-.34.7-.49,1.42-.47,2.12.05,1.4.82,2.73,2.26,3.73.72.5,1.61.91,2.67,1.21.53.15,1.1.27,1.7.35.66.09,1.35.12,2.06.08.7-.04,1.42-.14,2.15-.29.72-.15,1.45-.36,2.17-.6.72-.25,1.43-.54,2.12-.86.35-.16.69-.33,1.02-.51.67-.36,1.31-.74,1.91-1.15.6-.41,1.17-.84,1.69-1.28,2.07-1.76,3.34-3.71,3.08-5.27-.07-.39-.23-.76-.5-1.09Z"/>
<path class="cls-2" d="M472.41,217.79c2.72-1.1,3.11-20.81-11.21-20.96-1.96,9.05-.04,20.76,11.21,20.96Z"/>
<path class="cls-2" d="m271.1 77.9c12.19 1.27 10.84-20.37 2.92-19.01-8.1 4.09-6.22 17.85-2.92 19.01z"/>
<path class="cls-2" d="M277.68,383.75c2.84-4.38,2.18-8.38.97-12.92-10.22,9.71-14.99,2.65-23.15,4.87-4.45,1.21-11.09,8.87-12.67,9.26-5.18,1.27-15.12-7.01-18.28,6.09,21.48,12.18,25.82,1.73,34.12-1.22,7.55-2.68,14.78.42,19.01-6.09Z"/>
<path class="cls-2" d="M277.93,387.89c-4.07,3.83-10.91,2.95-16.33,2.44-5.66.08-9.3,4.85-13.89,7.31-5.01,2.69-14.69,3.55-13.89,10.48,16.61,10.66,24.99-2.3,28.51-3.66,1.24-.48,15.11-.92,16.82-11.21.36-2.16.56-3.43-1.22-5.36Z"/>
<path class="cls-20" d="M394.91,379.61c24.95,4.7,13.66-5.32,4.39-3.9-.57.09-6.91,2.48-4.39,3.9Z"/>
<path class="cls-20" d="M442.67,239.72l-.49.97c11.84,6.07,2.95-1.67.49-.97Z"/>
<path class="cls-13" d="M112.69,181.23c-2.68.29-4.32,3.26,1.46,1.46,1.62-1.41.44-1.66-1.46-1.46Z"/>
<path class="cls-8" d="M177.52,66.2l-.73,1.22c2.99,3.82,5.27-.01.73-1.22Z"/>
<path class="cls-16" d="M4.16,361.03c.02-1.36.04-2.84.04-4.41,0-1.57,0-3.23-.01-4.98-.01-1.74-.03-3.56-.05-5.43s-.05-3.81-.09-5.78c-.02-.99-.03-1.98-.05-2.98-.04-2.01-.07-4.04-.11-6.09-.04-2.05-.08-4.11-.12-6.17,0-.26,0-.53-.01-.79v44.49c.09-.69.16-1.54.22-2.53.09-1.48.15-3.28.18-5.32Z"/>
<path class="cls-16" d="M3.75,377.17v22.88c.2-8,.48-16.09,0-22.88Z"/>
<line class="cls-15" x1="3.75" x2="3.75" y1="171.48" y2=".88"/>
<line class="cls-15" x1="3.75" x2="3.75" y1="253.85" y2="273.84"/>
<path class="cls-12" d="M8.72,439.43c.05-.48.09-.95.14-1.39.08-.66.16-1.26.28-1.73.08-.32.17-.58.29-.78.06-.1.12-.18.19-.24.13-.12.29-.17.48-.12-.29-6.54.85-15.13-6.34-18.03v38.68c1.94-4.09,3.45-8.15,4.39-12.11.3-1.26.44-2.82.57-4.27Z"/>
<path class="cls-12" d="m3.75 273.84v15.11c13.65-1.14 9.57-11.28 0-15.11z"/>
<path class="cls-2" d="M6.3,219.77c.27-1.26.42-2.36.38-3.2-.14-2.68-1.62-5.67-2.92-8.59v20.7c.48-1.61.98-3.19,1.42-4.68.45-1.53.85-2.97,1.12-4.23Z"/>
<path class="cls-12" d="M378.58,42.32c.39.56.77,1.06,1.18,1.5,1.22,1.31,2.62,2.07,4.67,2.4,24.19-8.92,48.45-18.9,69.46-34.12,4.35-3.15,9.04-6.95,13.79-11.21h-11.35c-.48.11-1.1.05-1.72,0h-1.45c-4.11,1.9-34.29,3.93-35.83,2.92-.49-.33-.83-1.38-1.03-2.92h-10.39c-.07,3.3.19,6.9.94,10.97,4.27,2.63,9.07,3.42,14.02,3.33,1.41-.02,2.84-.12,4.26-.26s2.85-.34,4.27-.56c2.13-.33,4.24-.72,6.3-1.09,1.38-.25,2.73-.49,4.05-.7.36-.06.67-.1.92-.13.51-.05.8-.05.92,0,.06.03.08.06.05.11-.02.05-.09.1-.19.17-.1.06-.24.14-.41.21-.34.16-.8.34-1.36.53-.56.19-1.22.4-1.93.6-.72.2-1.5.41-2.31.59-1.62.37-3.36.69-4.96.84-1.39.13-4.9.21-8.83.09-1.31-.04-2.67-.1-4.01-.18-3.35-.21-6.61-.59-8.77-1.2-.87-.25-1.56-.53-2.02-.86-.23-.16-.4-.34-.5-.53-1.05-3.46-1.33-7.58-1.05-11.94h-3.42c-1.41,5.97-2.75,11.95-4.06,17.94-.73,3.36-1.46,6.72-2.19,10.08,1.37,4.27,15.66.61,19.01.24-27.95,7.41-18.85-1.85-15.11-18.77.22-1,.41-1.96.57-2.9.41-2.32.69-4.48,1.03-6.61h-13.34c-4,12.81-5.24,24.38-9.7,39.72-.29,1,.58,1.41.49,1.71ZM410.53,24.42c-1.5-.02-2.93-.11-4.21-.28-.43-.06-.84-.12-1.23-.19-2.34-.44-3.96-1.22-4.17-2.47-.1-.62.15-1.36.84-2.23.92-1.16,2.63-2.56,5.33-4.23l-5.61,5.61c-.05,5.37,21.6,2.52,25.35,1.46.05.2-.28.42-.89.64-.41.15-.94.29-1.57.44-.32.07-.66.14-1.02.21-1.09.21-2.38.4-3.78.56-1.4.16-2.91.29-4.45.38-1.02.06-2.06.09-3.08.1-.51,0-1.01,0-1.51,0ZM390.03,1.86c.89,8.5-.23,16.95-1.46,25.35l1.46-25.35ZM382.72,31.59l.24.24c-.39,4.58-1.8,3.53-.24-.24Z"/>
<path class="cls-12" d="M418.3,3.32c1.73.62,30.88-1.73,34.85-2.44h-36.2c.27,1.33.7,2.21,1.35,2.44Z"/>
<path class="cls-12" d="M365.91,62.79c5.36-21.86,11.46-39.81,14.12-61.9h-10.17c-3.69,6.88-10.56,16.96-12.48,17.55,3.97-5.78,7.88-11.49,11.3-17.55h-15.17c2.39,4.82.46,6.25-.63,0h-6.51c-.04.16-.09.32-.2.49-.11-.14-.2-.32-.29-.49h-11.92c5.47,8.36,12.54,15.61,19.52,22.91-7.57-6.37-15.2-14.1-20.46-22.91h-13.41c4.29,17.63,18.21,43.77,29.73,57.76,5.16,6.26,9,10.55,16.57,4.14ZM371.27,33.87c-.3.77-.67,1.55-1.07,2.32-.41.78-.86,1.55-1.33,2.31-.48.76-.98,1.51-1.51,2.23s-1.06,1.43-1.59,2.1-1.07,1.31-1.59,1.9c-.78.89-1.53,1.69-2.2,2.35-.44.44-.85.83-1.21,1.15-.54.48-.96.8-1.22.94-.17.09-.27.1-.29.01-.03-.17.29-.72,1.07-1.71.39-.5.9-1.11,1.54-1.85,1.27-1.47,3.07-3.44,5.5-5.98l4.63-8.04c-.18.74-.42,1.51-.73,2.28ZM361.9,31.5c4.4-5.06,8.28-10.48,10.58-16.96-1.36,7.61-8.35,17.68-15.11,21.93,1.54-1.63,3.06-3.28,4.53-4.97ZM349.58,35.49c-4.94-4.58-7.46-10.45-10.48-16.08,3.15,5.6,7.26,10.54,10.48,16.08ZM332.52,6.73c1.08-.07.97,1.42,1.22,1.95,2.01,3.02,3.02,6.03,4.48,9.02-1.57-2.99-3.03-5.92-4.48-9.02-.06-.1-1.57-.9-1.22-1.95ZM331.06,5.76c4.5,16.5,9.2,25.11,13.19,29.71.86.99,1.68,1.79,2.46,2.44.52.44,1.02.81,1.51,1.13.24.16.48.31.71.44.46.27.9.49,1.31.67.41.18.8.33,1.16.45.36.12.69.22.99.3.3.08.57.15.81.22.48.13.82.26,1.02.46,2.58,2.71-.71,16.03,0,1.46-15.87-6.05-19.24-22.49-23.15-37.29Z"/>
<path class="cls-20" d="M370.03,57.62c.65-.95,1.31-1.97,1.97-3.02,1.32-2.1,2.63-4.32,3.73-6.33.28-.5.54-.99.79-1.47.5-.94.93-1.82,1.28-2.58.35-.76.62-1.41.77-1.9.1-.3-.78-.71-.49-1.71,4.47-15.34,5.71-26.92,9.7-39.72h-7.77c-2.66,22.09-8.77,40.04-14.12,61.9,1.02-.86,2.51-2.8,4.13-5.17Z"/>
<path class="cls-12" d="M164.12.88h-18.03c4.17,14.17,19.09,22.07,18.03,0Z"/>
<path class="cls-20" d="M30.56.88h-6.11c-2.54,1.36-5.38,2.38-8.03,3.9,4.12,4.3,10.79-.32,14.14-3.9Z"/>
<path class="cls-12" d="M24.45.88h-9.98c.3,1.31,1.01,2.92,1.95,3.9,2.65-1.52,5.48-2.54,8.03-3.9Z"/>
<path class="cls-6" d="M417.33,3.81c1.53,1.01,31.71-1.02,35.83-2.92-3.97.7-33.12,3.05-34.85,2.44-.65-.23-1.08-1.11-1.35-2.44h-.66c.2,1.55.53,2.6,1.03,2.92Z"/>
<path class="cls-10" d="M456.32.88h-1.72c.62.05,1.24.11,1.72,0Z"/>
<path class="cls-21" d="M346.36.88h-.49c.09.17.18.35.29.49.11-.17.16-.33.2-.49Z"/>
<path class="cls-2" d="M196.22,5.47c-1.82,1.83-3.94,4.28-6.27,7.6.11.43.37.54.49.97,5.68,1.4,10.19,1.03,14.02-.44,1.53-.59,2.96-1.35,4.31-2.25.67-.45,1.33-.93,1.97-1.44,1.28-1.02,2.5-2.15,3.7-3.35,1.77-1.79,3.49-3.72,5.24-5.67h-17.78c-.84.52-2.07,1.34-3.62,2.68-.63.54-1.31,1.17-2.04,1.9Z"/>
</svg>
